%TF.GenerationSoftware,KiCad,Pcbnew,5.1.10-88a1d61d58~90~ubuntu20.04.1*%
%TF.CreationDate,2021-10-01T00:20:27+02:00*%
%TF.ProjectId,boost_sequencer,626f6f73-745f-4736-9571-75656e636572,rev?*%
%TF.SameCoordinates,Original*%
%TF.FileFunction,Copper,L1,Top*%
%TF.FilePolarity,Positive*%
%FSLAX46Y46*%
G04 Gerber Fmt 4.6, Leading zero omitted, Abs format (unit mm)*
G04 Created by KiCad (PCBNEW 5.1.10-88a1d61d58~90~ubuntu20.04.1) date 2021-10-01 00:20:27*
%MOMM*%
%LPD*%
G01*
G04 APERTURE LIST*
%TA.AperFunction,SMDPad,CuDef*%
%ADD10C,0.100000*%
%TD*%
%TA.AperFunction,ComponentPad*%
%ADD11O,1.700000X1.700000*%
%TD*%
%TA.AperFunction,ComponentPad*%
%ADD12R,1.700000X1.700000*%
%TD*%
%TA.AperFunction,SMDPad,CuDef*%
%ADD13R,0.900000X0.800000*%
%TD*%
%TA.AperFunction,SMDPad,CuDef*%
%ADD14R,2.500000X1.800000*%
%TD*%
%TA.AperFunction,SMDPad,CuDef*%
%ADD15R,2.900000X5.400000*%
%TD*%
%TA.AperFunction,SMDPad,CuDef*%
%ADD16R,2.000000X1.500000*%
%TD*%
%TA.AperFunction,SMDPad,CuDef*%
%ADD17R,2.000000X3.800000*%
%TD*%
%TA.AperFunction,SMDPad,CuDef*%
%ADD18R,1.100000X1.100000*%
%TD*%
%TA.AperFunction,ComponentPad*%
%ADD19C,1.600000*%
%TD*%
%TA.AperFunction,ComponentPad*%
%ADD20R,1.600000X1.600000*%
%TD*%
%TA.AperFunction,ViaPad*%
%ADD21C,0.800000*%
%TD*%
%TA.AperFunction,Conductor*%
%ADD22C,0.250000*%
%TD*%
%TA.AperFunction,Conductor*%
%ADD23C,0.300000*%
%TD*%
%TA.AperFunction,Conductor*%
%ADD24C,0.500000*%
%TD*%
%TA.AperFunction,Conductor*%
%ADD25C,0.800000*%
%TD*%
G04 APERTURE END LIST*
%TA.AperFunction,SMDPad,CuDef*%
D10*
%TO.P,JP3,2*%
%TO.N,GND*%
G36*
X381774602Y-114666000D02*
G01*
X381774602Y-114641466D01*
X381779412Y-114592635D01*
X381788984Y-114544510D01*
X381803228Y-114497555D01*
X381822005Y-114452222D01*
X381845136Y-114408949D01*
X381872396Y-114368150D01*
X381903524Y-114330221D01*
X381938221Y-114295524D01*
X381976150Y-114264396D01*
X382016949Y-114237136D01*
X382060222Y-114214005D01*
X382105555Y-114195228D01*
X382152510Y-114180984D01*
X382200635Y-114171412D01*
X382249466Y-114166602D01*
X382274000Y-114166602D01*
X382274000Y-114166000D01*
X382774000Y-114166000D01*
X382774000Y-114166602D01*
X382798534Y-114166602D01*
X382847365Y-114171412D01*
X382895490Y-114180984D01*
X382942445Y-114195228D01*
X382987778Y-114214005D01*
X383031051Y-114237136D01*
X383071850Y-114264396D01*
X383109779Y-114295524D01*
X383144476Y-114330221D01*
X383175604Y-114368150D01*
X383202864Y-114408949D01*
X383225995Y-114452222D01*
X383244772Y-114497555D01*
X383259016Y-114544510D01*
X383268588Y-114592635D01*
X383273398Y-114641466D01*
X383273398Y-114666000D01*
X383274000Y-114666000D01*
X383274000Y-115166000D01*
X381774000Y-115166000D01*
X381774000Y-114666000D01*
X381774602Y-114666000D01*
G37*
%TD.AperFunction*%
%TA.AperFunction,SMDPad,CuDef*%
%TO.P,JP3,1*%
%TO.N,Net-(JP3-Pad1)*%
G36*
X383274000Y-115466000D02*
G01*
X383274000Y-115966000D01*
X383273398Y-115966000D01*
X383273398Y-115990534D01*
X383268588Y-116039365D01*
X383259016Y-116087490D01*
X383244772Y-116134445D01*
X383225995Y-116179778D01*
X383202864Y-116223051D01*
X383175604Y-116263850D01*
X383144476Y-116301779D01*
X383109779Y-116336476D01*
X383071850Y-116367604D01*
X383031051Y-116394864D01*
X382987778Y-116417995D01*
X382942445Y-116436772D01*
X382895490Y-116451016D01*
X382847365Y-116460588D01*
X382798534Y-116465398D01*
X382774000Y-116465398D01*
X382774000Y-116466000D01*
X382274000Y-116466000D01*
X382274000Y-116465398D01*
X382249466Y-116465398D01*
X382200635Y-116460588D01*
X382152510Y-116451016D01*
X382105555Y-116436772D01*
X382060222Y-116417995D01*
X382016949Y-116394864D01*
X381976150Y-116367604D01*
X381938221Y-116336476D01*
X381903524Y-116301779D01*
X381872396Y-116263850D01*
X381845136Y-116223051D01*
X381822005Y-116179778D01*
X381803228Y-116134445D01*
X381788984Y-116087490D01*
X381779412Y-116039365D01*
X381774602Y-115990534D01*
X381774602Y-115966000D01*
X381774000Y-115966000D01*
X381774000Y-115466000D01*
X383274000Y-115466000D01*
G37*
%TD.AperFunction*%
%TD*%
D11*
%TO.P,J1,5*%
%TO.N,GND*%
X368808000Y-125984000D03*
%TO.P,J1,4*%
%TO.N,Net-(C8-Pad1)*%
X368808000Y-128524000D03*
%TO.P,J1,3*%
%TO.N,Net-(C5-Pad1)*%
X368808000Y-131064000D03*
%TO.P,J1,2*%
%TO.N,GND*%
X368808000Y-133604000D03*
D12*
%TO.P,J1,1*%
%TO.N,Net-(C2-Pad1)*%
X368808000Y-136144000D03*
%TD*%
%TA.AperFunction,SMDPad,CuDef*%
D10*
%TO.P,JP2,2*%
%TO.N,Net-(JP2-Pad2)*%
G36*
X389494000Y-126225398D02*
G01*
X389469466Y-126225398D01*
X389420635Y-126220588D01*
X389372510Y-126211016D01*
X389325555Y-126196772D01*
X389280222Y-126177995D01*
X389236949Y-126154864D01*
X389196150Y-126127604D01*
X389158221Y-126096476D01*
X389123524Y-126061779D01*
X389092396Y-126023850D01*
X389065136Y-125983051D01*
X389042005Y-125939778D01*
X389023228Y-125894445D01*
X389008984Y-125847490D01*
X388999412Y-125799365D01*
X388994602Y-125750534D01*
X388994602Y-125726000D01*
X388994000Y-125726000D01*
X388994000Y-125226000D01*
X388994602Y-125226000D01*
X388994602Y-125201466D01*
X388999412Y-125152635D01*
X389008984Y-125104510D01*
X389023228Y-125057555D01*
X389042005Y-125012222D01*
X389065136Y-124968949D01*
X389092396Y-124928150D01*
X389123524Y-124890221D01*
X389158221Y-124855524D01*
X389196150Y-124824396D01*
X389236949Y-124797136D01*
X389280222Y-124774005D01*
X389325555Y-124755228D01*
X389372510Y-124740984D01*
X389420635Y-124731412D01*
X389469466Y-124726602D01*
X389494000Y-124726602D01*
X389494000Y-124726000D01*
X389994000Y-124726000D01*
X389994000Y-126226000D01*
X389494000Y-126226000D01*
X389494000Y-126225398D01*
G37*
%TD.AperFunction*%
%TA.AperFunction,SMDPad,CuDef*%
%TO.P,JP2,1*%
%TO.N,GND*%
G36*
X390294000Y-124726000D02*
G01*
X390794000Y-124726000D01*
X390794000Y-124726602D01*
X390818534Y-124726602D01*
X390867365Y-124731412D01*
X390915490Y-124740984D01*
X390962445Y-124755228D01*
X391007778Y-124774005D01*
X391051051Y-124797136D01*
X391091850Y-124824396D01*
X391129779Y-124855524D01*
X391164476Y-124890221D01*
X391195604Y-124928150D01*
X391222864Y-124968949D01*
X391245995Y-125012222D01*
X391264772Y-125057555D01*
X391279016Y-125104510D01*
X391288588Y-125152635D01*
X391293398Y-125201466D01*
X391293398Y-125226000D01*
X391294000Y-125226000D01*
X391294000Y-125726000D01*
X391293398Y-125726000D01*
X391293398Y-125750534D01*
X391288588Y-125799365D01*
X391279016Y-125847490D01*
X391264772Y-125894445D01*
X391245995Y-125939778D01*
X391222864Y-125983051D01*
X391195604Y-126023850D01*
X391164476Y-126061779D01*
X391129779Y-126096476D01*
X391091850Y-126127604D01*
X391051051Y-126154864D01*
X391007778Y-126177995D01*
X390962445Y-126196772D01*
X390915490Y-126211016D01*
X390867365Y-126220588D01*
X390818534Y-126225398D01*
X390794000Y-126225398D01*
X390794000Y-126226000D01*
X390294000Y-126226000D01*
X390294000Y-124726000D01*
G37*
%TD.AperFunction*%
%TD*%
D13*
%TO.P,Q7,3*%
%TO.N,Net-(D5-Pad2)*%
X406638000Y-120650000D03*
%TO.P,Q7,2*%
%TO.N,GND*%
X404638000Y-121600000D03*
%TO.P,Q7,1*%
%TO.N,Net-(Q7-Pad1)*%
X404638000Y-119700000D03*
%TD*%
%TA.AperFunction,SMDPad,CuDef*%
D10*
%TO.P,JP1,2*%
%TO.N,Net-(JP1-Pad2)*%
G36*
X389494000Y-123431398D02*
G01*
X389469466Y-123431398D01*
X389420635Y-123426588D01*
X389372510Y-123417016D01*
X389325555Y-123402772D01*
X389280222Y-123383995D01*
X389236949Y-123360864D01*
X389196150Y-123333604D01*
X389158221Y-123302476D01*
X389123524Y-123267779D01*
X389092396Y-123229850D01*
X389065136Y-123189051D01*
X389042005Y-123145778D01*
X389023228Y-123100445D01*
X389008984Y-123053490D01*
X388999412Y-123005365D01*
X388994602Y-122956534D01*
X388994602Y-122932000D01*
X388994000Y-122932000D01*
X388994000Y-122432000D01*
X388994602Y-122432000D01*
X388994602Y-122407466D01*
X388999412Y-122358635D01*
X389008984Y-122310510D01*
X389023228Y-122263555D01*
X389042005Y-122218222D01*
X389065136Y-122174949D01*
X389092396Y-122134150D01*
X389123524Y-122096221D01*
X389158221Y-122061524D01*
X389196150Y-122030396D01*
X389236949Y-122003136D01*
X389280222Y-121980005D01*
X389325555Y-121961228D01*
X389372510Y-121946984D01*
X389420635Y-121937412D01*
X389469466Y-121932602D01*
X389494000Y-121932602D01*
X389494000Y-121932000D01*
X389994000Y-121932000D01*
X389994000Y-123432000D01*
X389494000Y-123432000D01*
X389494000Y-123431398D01*
G37*
%TD.AperFunction*%
%TA.AperFunction,SMDPad,CuDef*%
%TO.P,JP1,1*%
%TO.N,GND*%
G36*
X390294000Y-121932000D02*
G01*
X390794000Y-121932000D01*
X390794000Y-121932602D01*
X390818534Y-121932602D01*
X390867365Y-121937412D01*
X390915490Y-121946984D01*
X390962445Y-121961228D01*
X391007778Y-121980005D01*
X391051051Y-122003136D01*
X391091850Y-122030396D01*
X391129779Y-122061524D01*
X391164476Y-122096221D01*
X391195604Y-122134150D01*
X391222864Y-122174949D01*
X391245995Y-122218222D01*
X391264772Y-122263555D01*
X391279016Y-122310510D01*
X391288588Y-122358635D01*
X391293398Y-122407466D01*
X391293398Y-122432000D01*
X391294000Y-122432000D01*
X391294000Y-122932000D01*
X391293398Y-122932000D01*
X391293398Y-122956534D01*
X391288588Y-123005365D01*
X391279016Y-123053490D01*
X391264772Y-123100445D01*
X391245995Y-123145778D01*
X391222864Y-123189051D01*
X391195604Y-123229850D01*
X391164476Y-123267779D01*
X391129779Y-123302476D01*
X391091850Y-123333604D01*
X391051051Y-123360864D01*
X391007778Y-123383995D01*
X390962445Y-123402772D01*
X390915490Y-123417016D01*
X390867365Y-123426588D01*
X390818534Y-123431398D01*
X390794000Y-123431398D01*
X390794000Y-123432000D01*
X390294000Y-123432000D01*
X390294000Y-121932000D01*
G37*
%TD.AperFunction*%
%TD*%
%TO.P,C8,2*%
%TO.N,GND*%
%TA.AperFunction,SMDPad,CuDef*%
G36*
G01*
X379218000Y-120820000D02*
X378718000Y-120820000D01*
G75*
G02*
X378493000Y-120595000I0J225000D01*
G01*
X378493000Y-120145000D01*
G75*
G02*
X378718000Y-119920000I225000J0D01*
G01*
X379218000Y-119920000D01*
G75*
G02*
X379443000Y-120145000I0J-225000D01*
G01*
X379443000Y-120595000D01*
G75*
G02*
X379218000Y-120820000I-225000J0D01*
G01*
G37*
%TD.AperFunction*%
%TO.P,C8,1*%
%TO.N,Net-(C8-Pad1)*%
%TA.AperFunction,SMDPad,CuDef*%
G36*
G01*
X379218000Y-122370000D02*
X378718000Y-122370000D01*
G75*
G02*
X378493000Y-122145000I0J225000D01*
G01*
X378493000Y-121695000D01*
G75*
G02*
X378718000Y-121470000I225000J0D01*
G01*
X379218000Y-121470000D01*
G75*
G02*
X379443000Y-121695000I0J-225000D01*
G01*
X379443000Y-122145000D01*
G75*
G02*
X379218000Y-122370000I-225000J0D01*
G01*
G37*
%TD.AperFunction*%
%TD*%
%TO.P,C6,2*%
%TO.N,GND*%
%TA.AperFunction,SMDPad,CuDef*%
G36*
G01*
X376258000Y-115566000D02*
X376258000Y-115066000D01*
G75*
G02*
X376483000Y-114841000I225000J0D01*
G01*
X376933000Y-114841000D01*
G75*
G02*
X377158000Y-115066000I0J-225000D01*
G01*
X377158000Y-115566000D01*
G75*
G02*
X376933000Y-115791000I-225000J0D01*
G01*
X376483000Y-115791000D01*
G75*
G02*
X376258000Y-115566000I0J225000D01*
G01*
G37*
%TD.AperFunction*%
%TO.P,C6,1*%
%TO.N,Net-(C2-Pad1)*%
%TA.AperFunction,SMDPad,CuDef*%
G36*
G01*
X374708000Y-115566000D02*
X374708000Y-115066000D01*
G75*
G02*
X374933000Y-114841000I225000J0D01*
G01*
X375383000Y-114841000D01*
G75*
G02*
X375608000Y-115066000I0J-225000D01*
G01*
X375608000Y-115566000D01*
G75*
G02*
X375383000Y-115791000I-225000J0D01*
G01*
X374933000Y-115791000D01*
G75*
G02*
X374708000Y-115566000I0J225000D01*
G01*
G37*
%TD.AperFunction*%
%TD*%
%TO.P,C5,2*%
%TO.N,GND*%
%TA.AperFunction,SMDPad,CuDef*%
G36*
G01*
X372360000Y-128707000D02*
X371860000Y-128707000D01*
G75*
G02*
X371635000Y-128482000I0J225000D01*
G01*
X371635000Y-128032000D01*
G75*
G02*
X371860000Y-127807000I225000J0D01*
G01*
X372360000Y-127807000D01*
G75*
G02*
X372585000Y-128032000I0J-225000D01*
G01*
X372585000Y-128482000D01*
G75*
G02*
X372360000Y-128707000I-225000J0D01*
G01*
G37*
%TD.AperFunction*%
%TO.P,C5,1*%
%TO.N,Net-(C5-Pad1)*%
%TA.AperFunction,SMDPad,CuDef*%
G36*
G01*
X372360000Y-130257000D02*
X371860000Y-130257000D01*
G75*
G02*
X371635000Y-130032000I0J225000D01*
G01*
X371635000Y-129582000D01*
G75*
G02*
X371860000Y-129357000I225000J0D01*
G01*
X372360000Y-129357000D01*
G75*
G02*
X372585000Y-129582000I0J-225000D01*
G01*
X372585000Y-130032000D01*
G75*
G02*
X372360000Y-130257000I-225000J0D01*
G01*
G37*
%TD.AperFunction*%
%TD*%
D11*
%TO.P,J2,3*%
%TO.N,Net-(J2-Pad3)*%
X377820000Y-110900000D03*
%TO.P,J2,2*%
%TO.N,Net-(C1-Pad1)*%
X380360000Y-110900000D03*
D12*
%TO.P,J2,1*%
%TO.N,GND*%
X382900000Y-110900000D03*
%TD*%
D11*
%TO.P,J3,7*%
%TO.N,Net-(C4-Pad1)*%
X410464000Y-114760000D03*
%TO.P,J3,6*%
%TO.N,Net-(D5-Pad2)*%
X410464000Y-117300000D03*
%TO.P,J3,5*%
%TO.N,Net-(J3-Pad5)*%
X410464000Y-119840000D03*
%TO.P,J3,4*%
%TO.N,Net-(J3-Pad4)*%
X410464000Y-122380000D03*
%TO.P,J3,3*%
%TO.N,GND*%
X410464000Y-124920000D03*
%TO.P,J3,2*%
%TO.N,Net-(J3-Pad2)*%
X410464000Y-127460000D03*
D12*
%TO.P,J3,1*%
%TO.N,GND*%
X410464000Y-130000000D03*
%TD*%
D13*
%TO.P,Q9,3*%
%TO.N,Net-(J3-Pad2)*%
X399018000Y-124206000D03*
%TO.P,Q9,2*%
%TO.N,Net-(C2-Pad1)*%
X397018000Y-125156000D03*
%TO.P,Q9,1*%
%TO.N,Net-(Q8-Pad3)*%
X397018000Y-123256000D03*
%TD*%
%TO.P,R23,2*%
%TO.N,Net-(D6-Pad2)*%
%TA.AperFunction,SMDPad,CuDef*%
G36*
G01*
X401745000Y-124227000D02*
X401745000Y-123677000D01*
G75*
G02*
X401945000Y-123477000I200000J0D01*
G01*
X402345000Y-123477000D01*
G75*
G02*
X402545000Y-123677000I0J-200000D01*
G01*
X402545000Y-124227000D01*
G75*
G02*
X402345000Y-124427000I-200000J0D01*
G01*
X401945000Y-124427000D01*
G75*
G02*
X401745000Y-124227000I0J200000D01*
G01*
G37*
%TD.AperFunction*%
%TO.P,R23,1*%
%TO.N,Net-(J3-Pad2)*%
%TA.AperFunction,SMDPad,CuDef*%
G36*
G01*
X400095000Y-124227000D02*
X400095000Y-123677000D01*
G75*
G02*
X400295000Y-123477000I200000J0D01*
G01*
X400695000Y-123477000D01*
G75*
G02*
X400895000Y-123677000I0J-200000D01*
G01*
X400895000Y-124227000D01*
G75*
G02*
X400695000Y-124427000I-200000J0D01*
G01*
X400295000Y-124427000D01*
G75*
G02*
X400095000Y-124227000I0J200000D01*
G01*
G37*
%TD.AperFunction*%
%TD*%
%TO.P,R22,2*%
%TO.N,Net-(Q8-Pad3)*%
%TA.AperFunction,SMDPad,CuDef*%
G36*
G01*
X394887000Y-124227000D02*
X394887000Y-123677000D01*
G75*
G02*
X395087000Y-123477000I200000J0D01*
G01*
X395487000Y-123477000D01*
G75*
G02*
X395687000Y-123677000I0J-200000D01*
G01*
X395687000Y-124227000D01*
G75*
G02*
X395487000Y-124427000I-200000J0D01*
G01*
X395087000Y-124427000D01*
G75*
G02*
X394887000Y-124227000I0J200000D01*
G01*
G37*
%TD.AperFunction*%
%TO.P,R22,1*%
%TO.N,Net-(C2-Pad1)*%
%TA.AperFunction,SMDPad,CuDef*%
G36*
G01*
X393237000Y-124227000D02*
X393237000Y-123677000D01*
G75*
G02*
X393437000Y-123477000I200000J0D01*
G01*
X393837000Y-123477000D01*
G75*
G02*
X394037000Y-123677000I0J-200000D01*
G01*
X394037000Y-124227000D01*
G75*
G02*
X393837000Y-124427000I-200000J0D01*
G01*
X393437000Y-124427000D01*
G75*
G02*
X393237000Y-124227000I0J200000D01*
G01*
G37*
%TD.AperFunction*%
%TD*%
%TO.P,R21,2*%
%TO.N,GND*%
%TA.AperFunction,SMDPad,CuDef*%
G36*
G01*
X393425000Y-120821000D02*
X393975000Y-120821000D01*
G75*
G02*
X394175000Y-121021000I0J-200000D01*
G01*
X394175000Y-121421000D01*
G75*
G02*
X393975000Y-121621000I-200000J0D01*
G01*
X393425000Y-121621000D01*
G75*
G02*
X393225000Y-121421000I0J200000D01*
G01*
X393225000Y-121021000D01*
G75*
G02*
X393425000Y-120821000I200000J0D01*
G01*
G37*
%TD.AperFunction*%
%TO.P,R21,1*%
%TO.N,Net-(Q8-Pad1)*%
%TA.AperFunction,SMDPad,CuDef*%
G36*
G01*
X393425000Y-119171000D02*
X393975000Y-119171000D01*
G75*
G02*
X394175000Y-119371000I0J-200000D01*
G01*
X394175000Y-119771000D01*
G75*
G02*
X393975000Y-119971000I-200000J0D01*
G01*
X393425000Y-119971000D01*
G75*
G02*
X393225000Y-119771000I0J200000D01*
G01*
X393225000Y-119371000D01*
G75*
G02*
X393425000Y-119171000I200000J0D01*
G01*
G37*
%TD.AperFunction*%
%TD*%
%TO.P,R20,2*%
%TO.N,Net-(R20-Pad2)*%
%TA.AperFunction,SMDPad,CuDef*%
G36*
G01*
X390227000Y-119359000D02*
X390227000Y-119909000D01*
G75*
G02*
X390027000Y-120109000I-200000J0D01*
G01*
X389627000Y-120109000D01*
G75*
G02*
X389427000Y-119909000I0J200000D01*
G01*
X389427000Y-119359000D01*
G75*
G02*
X389627000Y-119159000I200000J0D01*
G01*
X390027000Y-119159000D01*
G75*
G02*
X390227000Y-119359000I0J-200000D01*
G01*
G37*
%TD.AperFunction*%
%TO.P,R20,1*%
%TO.N,Net-(Q8-Pad1)*%
%TA.AperFunction,SMDPad,CuDef*%
G36*
G01*
X391877000Y-119359000D02*
X391877000Y-119909000D01*
G75*
G02*
X391677000Y-120109000I-200000J0D01*
G01*
X391277000Y-120109000D01*
G75*
G02*
X391077000Y-119909000I0J200000D01*
G01*
X391077000Y-119359000D01*
G75*
G02*
X391277000Y-119159000I200000J0D01*
G01*
X391677000Y-119159000D01*
G75*
G02*
X391877000Y-119359000I0J-200000D01*
G01*
G37*
%TD.AperFunction*%
%TD*%
%TO.P,Q8,3*%
%TO.N,Net-(Q8-Pad3)*%
X398002000Y-120396000D03*
%TO.P,Q8,2*%
%TO.N,GND*%
X396002000Y-121346000D03*
%TO.P,Q8,1*%
%TO.N,Net-(Q8-Pad1)*%
X396002000Y-119446000D03*
%TD*%
%TO.P,D6,2*%
%TO.N,Net-(D6-Pad2)*%
%TA.AperFunction,SMDPad,CuDef*%
G36*
G01*
X404272000Y-123695750D02*
X404272000Y-124208250D01*
G75*
G02*
X404053250Y-124427000I-218750J0D01*
G01*
X403615750Y-124427000D01*
G75*
G02*
X403397000Y-124208250I0J218750D01*
G01*
X403397000Y-123695750D01*
G75*
G02*
X403615750Y-123477000I218750J0D01*
G01*
X404053250Y-123477000D01*
G75*
G02*
X404272000Y-123695750I0J-218750D01*
G01*
G37*
%TD.AperFunction*%
%TO.P,D6,1*%
%TO.N,GND*%
%TA.AperFunction,SMDPad,CuDef*%
G36*
G01*
X405847000Y-123695750D02*
X405847000Y-124208250D01*
G75*
G02*
X405628250Y-124427000I-218750J0D01*
G01*
X405190750Y-124427000D01*
G75*
G02*
X404972000Y-124208250I0J218750D01*
G01*
X404972000Y-123695750D01*
G75*
G02*
X405190750Y-123477000I218750J0D01*
G01*
X405628250Y-123477000D01*
G75*
G02*
X405847000Y-123695750I0J-218750D01*
G01*
G37*
%TD.AperFunction*%
%TD*%
D14*
%TO.P,D3,2*%
%TO.N,Net-(C3-Pad1)*%
X396437100Y-139738100D03*
%TO.P,D3,1*%
%TO.N,Net-(C4-Pad1)*%
X400437100Y-139738100D03*
%TD*%
D13*
%TO.P,Q6,3*%
%TO.N,Net-(C3-Pad1)*%
X395582900Y-135064500D03*
%TO.P,Q6,2*%
%TO.N,GND*%
X397582900Y-134114500D03*
%TO.P,Q6,1*%
%TO.N,Net-(Q6-Pad1)*%
X397582900Y-136014500D03*
%TD*%
D15*
%TO.P,L1,2*%
%TO.N,Net-(C3-Pad1)*%
X392287300Y-134442200D03*
%TO.P,L1,1*%
%TO.N,Net-(C2-Pad1)*%
X382387300Y-134442200D03*
%TD*%
%TO.P,U2,14*%
%TO.N,GND*%
%TA.AperFunction,SMDPad,CuDef*%
G36*
G01*
X385600000Y-118260000D02*
X385600000Y-117960000D01*
G75*
G02*
X385750000Y-117810000I150000J0D01*
G01*
X387400000Y-117810000D01*
G75*
G02*
X387550000Y-117960000I0J-150000D01*
G01*
X387550000Y-118260000D01*
G75*
G02*
X387400000Y-118410000I-150000J0D01*
G01*
X385750000Y-118410000D01*
G75*
G02*
X385600000Y-118260000I0J150000D01*
G01*
G37*
%TD.AperFunction*%
%TO.P,U2,13*%
%TO.N,Net-(Q7-Pad1)*%
%TA.AperFunction,SMDPad,CuDef*%
G36*
G01*
X385600000Y-119530000D02*
X385600000Y-119230000D01*
G75*
G02*
X385750000Y-119080000I150000J0D01*
G01*
X387400000Y-119080000D01*
G75*
G02*
X387550000Y-119230000I0J-150000D01*
G01*
X387550000Y-119530000D01*
G75*
G02*
X387400000Y-119680000I-150000J0D01*
G01*
X385750000Y-119680000D01*
G75*
G02*
X385600000Y-119530000I0J150000D01*
G01*
G37*
%TD.AperFunction*%
%TO.P,U2,12*%
%TO.N,Net-(R20-Pad2)*%
%TA.AperFunction,SMDPad,CuDef*%
G36*
G01*
X385600000Y-120800000D02*
X385600000Y-120500000D01*
G75*
G02*
X385750000Y-120350000I150000J0D01*
G01*
X387400000Y-120350000D01*
G75*
G02*
X387550000Y-120500000I0J-150000D01*
G01*
X387550000Y-120800000D01*
G75*
G02*
X387400000Y-120950000I-150000J0D01*
G01*
X385750000Y-120950000D01*
G75*
G02*
X385600000Y-120800000I0J150000D01*
G01*
G37*
%TD.AperFunction*%
%TO.P,U2,11*%
%TO.N,Net-(R5-Pad2)*%
%TA.AperFunction,SMDPad,CuDef*%
G36*
G01*
X385600000Y-122070000D02*
X385600000Y-121770000D01*
G75*
G02*
X385750000Y-121620000I150000J0D01*
G01*
X387400000Y-121620000D01*
G75*
G02*
X387550000Y-121770000I0J-150000D01*
G01*
X387550000Y-122070000D01*
G75*
G02*
X387400000Y-122220000I-150000J0D01*
G01*
X385750000Y-122220000D01*
G75*
G02*
X385600000Y-122070000I0J150000D01*
G01*
G37*
%TD.AperFunction*%
%TO.P,U2,10*%
%TO.N,Net-(J2-Pad3)*%
%TA.AperFunction,SMDPad,CuDef*%
G36*
G01*
X385600000Y-123340000D02*
X385600000Y-123040000D01*
G75*
G02*
X385750000Y-122890000I150000J0D01*
G01*
X387400000Y-122890000D01*
G75*
G02*
X387550000Y-123040000I0J-150000D01*
G01*
X387550000Y-123340000D01*
G75*
G02*
X387400000Y-123490000I-150000J0D01*
G01*
X385750000Y-123490000D01*
G75*
G02*
X385600000Y-123340000I0J150000D01*
G01*
G37*
%TD.AperFunction*%
%TO.P,U2,9*%
%TO.N,Net-(JP1-Pad2)*%
%TA.AperFunction,SMDPad,CuDef*%
G36*
G01*
X385600000Y-124610000D02*
X385600000Y-124310000D01*
G75*
G02*
X385750000Y-124160000I150000J0D01*
G01*
X387400000Y-124160000D01*
G75*
G02*
X387550000Y-124310000I0J-150000D01*
G01*
X387550000Y-124610000D01*
G75*
G02*
X387400000Y-124760000I-150000J0D01*
G01*
X385750000Y-124760000D01*
G75*
G02*
X385600000Y-124610000I0J150000D01*
G01*
G37*
%TD.AperFunction*%
%TO.P,U2,8*%
%TO.N,Net-(JP2-Pad2)*%
%TA.AperFunction,SMDPad,CuDef*%
G36*
G01*
X385600000Y-125880000D02*
X385600000Y-125580000D01*
G75*
G02*
X385750000Y-125430000I150000J0D01*
G01*
X387400000Y-125430000D01*
G75*
G02*
X387550000Y-125580000I0J-150000D01*
G01*
X387550000Y-125880000D01*
G75*
G02*
X387400000Y-126030000I-150000J0D01*
G01*
X385750000Y-126030000D01*
G75*
G02*
X385600000Y-125880000I0J150000D01*
G01*
G37*
%TD.AperFunction*%
%TO.P,U2,7*%
%TO.N,Net-(R6-Pad2)*%
%TA.AperFunction,SMDPad,CuDef*%
G36*
G01*
X380650000Y-125880000D02*
X380650000Y-125580000D01*
G75*
G02*
X380800000Y-125430000I150000J0D01*
G01*
X382450000Y-125430000D01*
G75*
G02*
X382600000Y-125580000I0J-150000D01*
G01*
X382600000Y-125880000D01*
G75*
G02*
X382450000Y-126030000I-150000J0D01*
G01*
X380800000Y-126030000D01*
G75*
G02*
X380650000Y-125880000I0J150000D01*
G01*
G37*
%TD.AperFunction*%
%TO.P,U2,6*%
%TO.N,Net-(Q1-Pad3)*%
%TA.AperFunction,SMDPad,CuDef*%
G36*
G01*
X380650000Y-124610000D02*
X380650000Y-124310000D01*
G75*
G02*
X380800000Y-124160000I150000J0D01*
G01*
X382450000Y-124160000D01*
G75*
G02*
X382600000Y-124310000I0J-150000D01*
G01*
X382600000Y-124610000D01*
G75*
G02*
X382450000Y-124760000I-150000J0D01*
G01*
X380800000Y-124760000D01*
G75*
G02*
X380650000Y-124610000I0J150000D01*
G01*
G37*
%TD.AperFunction*%
%TO.P,U2,5*%
%TO.N,Net-(R17-Pad2)*%
%TA.AperFunction,SMDPad,CuDef*%
G36*
G01*
X380650000Y-123340000D02*
X380650000Y-123040000D01*
G75*
G02*
X380800000Y-122890000I150000J0D01*
G01*
X382450000Y-122890000D01*
G75*
G02*
X382600000Y-123040000I0J-150000D01*
G01*
X382600000Y-123340000D01*
G75*
G02*
X382450000Y-123490000I-150000J0D01*
G01*
X380800000Y-123490000D01*
G75*
G02*
X380650000Y-123340000I0J150000D01*
G01*
G37*
%TD.AperFunction*%
%TO.P,U2,4*%
%TO.N,Net-(C8-Pad1)*%
%TA.AperFunction,SMDPad,CuDef*%
G36*
G01*
X380650000Y-122070000D02*
X380650000Y-121770000D01*
G75*
G02*
X380800000Y-121620000I150000J0D01*
G01*
X382450000Y-121620000D01*
G75*
G02*
X382600000Y-121770000I0J-150000D01*
G01*
X382600000Y-122070000D01*
G75*
G02*
X382450000Y-122220000I-150000J0D01*
G01*
X380800000Y-122220000D01*
G75*
G02*
X380650000Y-122070000I0J150000D01*
G01*
G37*
%TD.AperFunction*%
%TO.P,U2,3*%
%TO.N,Net-(R11-Pad1)*%
%TA.AperFunction,SMDPad,CuDef*%
G36*
G01*
X380650000Y-120800000D02*
X380650000Y-120500000D01*
G75*
G02*
X380800000Y-120350000I150000J0D01*
G01*
X382450000Y-120350000D01*
G75*
G02*
X382600000Y-120500000I0J-150000D01*
G01*
X382600000Y-120800000D01*
G75*
G02*
X382450000Y-120950000I-150000J0D01*
G01*
X380800000Y-120950000D01*
G75*
G02*
X380650000Y-120800000I0J150000D01*
G01*
G37*
%TD.AperFunction*%
%TO.P,U2,2*%
%TO.N,Net-(JP3-Pad1)*%
%TA.AperFunction,SMDPad,CuDef*%
G36*
G01*
X380650000Y-119530000D02*
X380650000Y-119230000D01*
G75*
G02*
X380800000Y-119080000I150000J0D01*
G01*
X382450000Y-119080000D01*
G75*
G02*
X382600000Y-119230000I0J-150000D01*
G01*
X382600000Y-119530000D01*
G75*
G02*
X382450000Y-119680000I-150000J0D01*
G01*
X380800000Y-119680000D01*
G75*
G02*
X380650000Y-119530000I0J150000D01*
G01*
G37*
%TD.AperFunction*%
%TO.P,U2,1*%
%TO.N,Net-(C1-Pad1)*%
%TA.AperFunction,SMDPad,CuDef*%
G36*
G01*
X380650000Y-118260000D02*
X380650000Y-117960000D01*
G75*
G02*
X380800000Y-117810000I150000J0D01*
G01*
X382450000Y-117810000D01*
G75*
G02*
X382600000Y-117960000I0J-150000D01*
G01*
X382600000Y-118260000D01*
G75*
G02*
X382450000Y-118410000I-150000J0D01*
G01*
X380800000Y-118410000D01*
G75*
G02*
X380650000Y-118260000I0J150000D01*
G01*
G37*
%TD.AperFunction*%
%TD*%
D16*
%TO.P,U1,1*%
%TO.N,Net-(R3-Pad2)*%
X374066200Y-122289600D03*
%TO.P,U1,3*%
%TO.N,Net-(C2-Pad1)*%
X374066200Y-117689600D03*
%TO.P,U1,2*%
%TO.N,Net-(C1-Pad1)*%
X374066200Y-119989600D03*
D17*
X367766200Y-119989600D03*
%TD*%
%TO.P,R19,2*%
%TO.N,GND*%
%TA.AperFunction,SMDPad,CuDef*%
G36*
G01*
X402061000Y-117912700D02*
X402611000Y-117912700D01*
G75*
G02*
X402811000Y-118112700I0J-200000D01*
G01*
X402811000Y-118512700D01*
G75*
G02*
X402611000Y-118712700I-200000J0D01*
G01*
X402061000Y-118712700D01*
G75*
G02*
X401861000Y-118512700I0J200000D01*
G01*
X401861000Y-118112700D01*
G75*
G02*
X402061000Y-117912700I200000J0D01*
G01*
G37*
%TD.AperFunction*%
%TO.P,R19,1*%
%TO.N,Net-(Q7-Pad1)*%
%TA.AperFunction,SMDPad,CuDef*%
G36*
G01*
X402061000Y-116262700D02*
X402611000Y-116262700D01*
G75*
G02*
X402811000Y-116462700I0J-200000D01*
G01*
X402811000Y-116862700D01*
G75*
G02*
X402611000Y-117062700I-200000J0D01*
G01*
X402061000Y-117062700D01*
G75*
G02*
X401861000Y-116862700I0J200000D01*
G01*
X401861000Y-116462700D01*
G75*
G02*
X402061000Y-116262700I200000J0D01*
G01*
G37*
%TD.AperFunction*%
%TD*%
%TO.P,R18,2*%
%TO.N,GND*%
%TA.AperFunction,SMDPad,CuDef*%
G36*
G01*
X376441025Y-125328066D02*
X376829934Y-125716975D01*
G75*
G02*
X376829934Y-125999817I-141421J-141421D01*
G01*
X376547091Y-126282660D01*
G75*
G02*
X376264249Y-126282660I-141421J141421D01*
G01*
X375875340Y-125893751D01*
G75*
G02*
X375875340Y-125610909I141421J141421D01*
G01*
X376158183Y-125328066D01*
G75*
G02*
X376441025Y-125328066I141421J-141421D01*
G01*
G37*
%TD.AperFunction*%
%TO.P,R18,1*%
%TO.N,Net-(R17-Pad2)*%
%TA.AperFunction,SMDPad,CuDef*%
G36*
G01*
X377607751Y-124161340D02*
X377996660Y-124550249D01*
G75*
G02*
X377996660Y-124833091I-141421J-141421D01*
G01*
X377713817Y-125115934D01*
G75*
G02*
X377430975Y-125115934I-141421J141421D01*
G01*
X377042066Y-124727025D01*
G75*
G02*
X377042066Y-124444183I141421J141421D01*
G01*
X377324909Y-124161340D01*
G75*
G02*
X377607751Y-124161340I141421J-141421D01*
G01*
G37*
%TD.AperFunction*%
%TD*%
%TO.P,R17,2*%
%TO.N,Net-(R17-Pad2)*%
%TA.AperFunction,SMDPad,CuDef*%
G36*
G01*
X400236100Y-128454600D02*
X399686100Y-128454600D01*
G75*
G02*
X399486100Y-128254600I0J200000D01*
G01*
X399486100Y-127854600D01*
G75*
G02*
X399686100Y-127654600I200000J0D01*
G01*
X400236100Y-127654600D01*
G75*
G02*
X400436100Y-127854600I0J-200000D01*
G01*
X400436100Y-128254600D01*
G75*
G02*
X400236100Y-128454600I-200000J0D01*
G01*
G37*
%TD.AperFunction*%
%TO.P,R17,1*%
%TO.N,Net-(C4-Pad1)*%
%TA.AperFunction,SMDPad,CuDef*%
G36*
G01*
X400236100Y-130104600D02*
X399686100Y-130104600D01*
G75*
G02*
X399486100Y-129904600I0J200000D01*
G01*
X399486100Y-129504600D01*
G75*
G02*
X399686100Y-129304600I200000J0D01*
G01*
X400236100Y-129304600D01*
G75*
G02*
X400436100Y-129504600I0J-200000D01*
G01*
X400436100Y-129904600D01*
G75*
G02*
X400236100Y-130104600I-200000J0D01*
G01*
G37*
%TD.AperFunction*%
%TD*%
%TO.P,R16,2*%
%TO.N,Net-(D4-Pad2)*%
%TA.AperFunction,SMDPad,CuDef*%
G36*
G01*
X399660700Y-117976200D02*
X400210700Y-117976200D01*
G75*
G02*
X400410700Y-118176200I0J-200000D01*
G01*
X400410700Y-118576200D01*
G75*
G02*
X400210700Y-118776200I-200000J0D01*
G01*
X399660700Y-118776200D01*
G75*
G02*
X399460700Y-118576200I0J200000D01*
G01*
X399460700Y-118176200D01*
G75*
G02*
X399660700Y-117976200I200000J0D01*
G01*
G37*
%TD.AperFunction*%
%TO.P,R16,1*%
%TO.N,Net-(Q7-Pad1)*%
%TA.AperFunction,SMDPad,CuDef*%
G36*
G01*
X399660700Y-116326200D02*
X400210700Y-116326200D01*
G75*
G02*
X400410700Y-116526200I0J-200000D01*
G01*
X400410700Y-116926200D01*
G75*
G02*
X400210700Y-117126200I-200000J0D01*
G01*
X399660700Y-117126200D01*
G75*
G02*
X399460700Y-116926200I0J200000D01*
G01*
X399460700Y-116526200D01*
G75*
G02*
X399660700Y-116326200I200000J0D01*
G01*
G37*
%TD.AperFunction*%
%TD*%
%TO.P,R15,2*%
%TO.N,GND*%
%TA.AperFunction,SMDPad,CuDef*%
G36*
G01*
X400223400Y-132277300D02*
X399673400Y-132277300D01*
G75*
G02*
X399473400Y-132077300I0J200000D01*
G01*
X399473400Y-131677300D01*
G75*
G02*
X399673400Y-131477300I200000J0D01*
G01*
X400223400Y-131477300D01*
G75*
G02*
X400423400Y-131677300I0J-200000D01*
G01*
X400423400Y-132077300D01*
G75*
G02*
X400223400Y-132277300I-200000J0D01*
G01*
G37*
%TD.AperFunction*%
%TO.P,R15,1*%
%TO.N,Net-(C3-Pad2)*%
%TA.AperFunction,SMDPad,CuDef*%
G36*
G01*
X400223400Y-133927300D02*
X399673400Y-133927300D01*
G75*
G02*
X399473400Y-133727300I0J200000D01*
G01*
X399473400Y-133327300D01*
G75*
G02*
X399673400Y-133127300I200000J0D01*
G01*
X400223400Y-133127300D01*
G75*
G02*
X400423400Y-133327300I0J-200000D01*
G01*
X400423400Y-133727300D01*
G75*
G02*
X400223400Y-133927300I-200000J0D01*
G01*
G37*
%TD.AperFunction*%
%TD*%
%TO.P,R14,2*%
%TO.N,Net-(D2-Pad2)*%
%TA.AperFunction,SMDPad,CuDef*%
G36*
G01*
X393882200Y-115956900D02*
X394432200Y-115956900D01*
G75*
G02*
X394632200Y-116156900I0J-200000D01*
G01*
X394632200Y-116556900D01*
G75*
G02*
X394432200Y-116756900I-200000J0D01*
G01*
X393882200Y-116756900D01*
G75*
G02*
X393682200Y-116556900I0J200000D01*
G01*
X393682200Y-116156900D01*
G75*
G02*
X393882200Y-115956900I200000J0D01*
G01*
G37*
%TD.AperFunction*%
%TO.P,R14,1*%
%TO.N,Net-(J3-Pad4)*%
%TA.AperFunction,SMDPad,CuDef*%
G36*
G01*
X393882200Y-114306900D02*
X394432200Y-114306900D01*
G75*
G02*
X394632200Y-114506900I0J-200000D01*
G01*
X394632200Y-114906900D01*
G75*
G02*
X394432200Y-115106900I-200000J0D01*
G01*
X393882200Y-115106900D01*
G75*
G02*
X393682200Y-114906900I0J200000D01*
G01*
X393682200Y-114506900D01*
G75*
G02*
X393882200Y-114306900I200000J0D01*
G01*
G37*
%TD.AperFunction*%
%TD*%
%TO.P,R13,2*%
%TO.N,Net-(D1-Pad2)*%
%TA.AperFunction,SMDPad,CuDef*%
G36*
G01*
X405147100Y-112185000D02*
X405697100Y-112185000D01*
G75*
G02*
X405897100Y-112385000I0J-200000D01*
G01*
X405897100Y-112785000D01*
G75*
G02*
X405697100Y-112985000I-200000J0D01*
G01*
X405147100Y-112985000D01*
G75*
G02*
X404947100Y-112785000I0J200000D01*
G01*
X404947100Y-112385000D01*
G75*
G02*
X405147100Y-112185000I200000J0D01*
G01*
G37*
%TD.AperFunction*%
%TO.P,R13,1*%
%TO.N,Net-(J3-Pad5)*%
%TA.AperFunction,SMDPad,CuDef*%
G36*
G01*
X405147100Y-110535000D02*
X405697100Y-110535000D01*
G75*
G02*
X405897100Y-110735000I0J-200000D01*
G01*
X405897100Y-111135000D01*
G75*
G02*
X405697100Y-111335000I-200000J0D01*
G01*
X405147100Y-111335000D01*
G75*
G02*
X404947100Y-111135000I0J200000D01*
G01*
X404947100Y-110735000D01*
G75*
G02*
X405147100Y-110535000I200000J0D01*
G01*
G37*
%TD.AperFunction*%
%TD*%
%TO.P,R12,2*%
%TO.N,GND*%
%TA.AperFunction,SMDPad,CuDef*%
G36*
G01*
X397531000Y-128353000D02*
X396981000Y-128353000D01*
G75*
G02*
X396781000Y-128153000I0J200000D01*
G01*
X396781000Y-127753000D01*
G75*
G02*
X396981000Y-127553000I200000J0D01*
G01*
X397531000Y-127553000D01*
G75*
G02*
X397731000Y-127753000I0J-200000D01*
G01*
X397731000Y-128153000D01*
G75*
G02*
X397531000Y-128353000I-200000J0D01*
G01*
G37*
%TD.AperFunction*%
%TO.P,R12,1*%
%TO.N,Net-(Q6-Pad1)*%
%TA.AperFunction,SMDPad,CuDef*%
G36*
G01*
X397531000Y-130003000D02*
X396981000Y-130003000D01*
G75*
G02*
X396781000Y-129803000I0J200000D01*
G01*
X396781000Y-129403000D01*
G75*
G02*
X396981000Y-129203000I200000J0D01*
G01*
X397531000Y-129203000D01*
G75*
G02*
X397731000Y-129403000I0J-200000D01*
G01*
X397731000Y-129803000D01*
G75*
G02*
X397531000Y-130003000I-200000J0D01*
G01*
G37*
%TD.AperFunction*%
%TD*%
%TO.P,R11,2*%
%TO.N,Net-(Q6-Pad1)*%
%TA.AperFunction,SMDPad,CuDef*%
G36*
G01*
X395203000Y-131743000D02*
X395753000Y-131743000D01*
G75*
G02*
X395953000Y-131943000I0J-200000D01*
G01*
X395953000Y-132343000D01*
G75*
G02*
X395753000Y-132543000I-200000J0D01*
G01*
X395203000Y-132543000D01*
G75*
G02*
X395003000Y-132343000I0J200000D01*
G01*
X395003000Y-131943000D01*
G75*
G02*
X395203000Y-131743000I200000J0D01*
G01*
G37*
%TD.AperFunction*%
%TO.P,R11,1*%
%TO.N,Net-(R11-Pad1)*%
%TA.AperFunction,SMDPad,CuDef*%
G36*
G01*
X395203000Y-130093000D02*
X395753000Y-130093000D01*
G75*
G02*
X395953000Y-130293000I0J-200000D01*
G01*
X395953000Y-130693000D01*
G75*
G02*
X395753000Y-130893000I-200000J0D01*
G01*
X395203000Y-130893000D01*
G75*
G02*
X395003000Y-130693000I0J200000D01*
G01*
X395003000Y-130293000D01*
G75*
G02*
X395203000Y-130093000I200000J0D01*
G01*
G37*
%TD.AperFunction*%
%TD*%
%TO.P,R10,2*%
%TO.N,Net-(Q3-Pad3)*%
%TA.AperFunction,SMDPad,CuDef*%
G36*
G01*
X400209200Y-114202800D02*
X400209200Y-114752800D01*
G75*
G02*
X400009200Y-114952800I-200000J0D01*
G01*
X399609200Y-114952800D01*
G75*
G02*
X399409200Y-114752800I0J200000D01*
G01*
X399409200Y-114202800D01*
G75*
G02*
X399609200Y-114002800I200000J0D01*
G01*
X400009200Y-114002800D01*
G75*
G02*
X400209200Y-114202800I0J-200000D01*
G01*
G37*
%TD.AperFunction*%
%TO.P,R10,1*%
%TO.N,Net-(C2-Pad1)*%
%TA.AperFunction,SMDPad,CuDef*%
G36*
G01*
X401859200Y-114202800D02*
X401859200Y-114752800D01*
G75*
G02*
X401659200Y-114952800I-200000J0D01*
G01*
X401259200Y-114952800D01*
G75*
G02*
X401059200Y-114752800I0J200000D01*
G01*
X401059200Y-114202800D01*
G75*
G02*
X401259200Y-114002800I200000J0D01*
G01*
X401659200Y-114002800D01*
G75*
G02*
X401859200Y-114202800I0J-200000D01*
G01*
G37*
%TD.AperFunction*%
%TD*%
%TO.P,R9,2*%
%TO.N,Net-(Q2-Pad3)*%
%TA.AperFunction,SMDPad,CuDef*%
G36*
G01*
X389973000Y-114279000D02*
X389973000Y-114829000D01*
G75*
G02*
X389773000Y-115029000I-200000J0D01*
G01*
X389373000Y-115029000D01*
G75*
G02*
X389173000Y-114829000I0J200000D01*
G01*
X389173000Y-114279000D01*
G75*
G02*
X389373000Y-114079000I200000J0D01*
G01*
X389773000Y-114079000D01*
G75*
G02*
X389973000Y-114279000I0J-200000D01*
G01*
G37*
%TD.AperFunction*%
%TO.P,R9,1*%
%TO.N,Net-(C2-Pad1)*%
%TA.AperFunction,SMDPad,CuDef*%
G36*
G01*
X391623000Y-114279000D02*
X391623000Y-114829000D01*
G75*
G02*
X391423000Y-115029000I-200000J0D01*
G01*
X391023000Y-115029000D01*
G75*
G02*
X390823000Y-114829000I0J200000D01*
G01*
X390823000Y-114279000D01*
G75*
G02*
X391023000Y-114079000I200000J0D01*
G01*
X391423000Y-114079000D01*
G75*
G02*
X391623000Y-114279000I0J-200000D01*
G01*
G37*
%TD.AperFunction*%
%TD*%
%TO.P,R8,2*%
%TO.N,GND*%
%TA.AperFunction,SMDPad,CuDef*%
G36*
G01*
X378947000Y-132505000D02*
X379497000Y-132505000D01*
G75*
G02*
X379697000Y-132705000I0J-200000D01*
G01*
X379697000Y-133105000D01*
G75*
G02*
X379497000Y-133305000I-200000J0D01*
G01*
X378947000Y-133305000D01*
G75*
G02*
X378747000Y-133105000I0J200000D01*
G01*
X378747000Y-132705000D01*
G75*
G02*
X378947000Y-132505000I200000J0D01*
G01*
G37*
%TD.AperFunction*%
%TO.P,R8,1*%
%TO.N,Net-(Q3-Pad1)*%
%TA.AperFunction,SMDPad,CuDef*%
G36*
G01*
X378947000Y-130855000D02*
X379497000Y-130855000D01*
G75*
G02*
X379697000Y-131055000I0J-200000D01*
G01*
X379697000Y-131455000D01*
G75*
G02*
X379497000Y-131655000I-200000J0D01*
G01*
X378947000Y-131655000D01*
G75*
G02*
X378747000Y-131455000I0J200000D01*
G01*
X378747000Y-131055000D01*
G75*
G02*
X378947000Y-130855000I200000J0D01*
G01*
G37*
%TD.AperFunction*%
%TD*%
%TO.P,R7,2*%
%TO.N,GND*%
%TA.AperFunction,SMDPad,CuDef*%
G36*
G01*
X386507400Y-110433300D02*
X385957400Y-110433300D01*
G75*
G02*
X385757400Y-110233300I0J200000D01*
G01*
X385757400Y-109833300D01*
G75*
G02*
X385957400Y-109633300I200000J0D01*
G01*
X386507400Y-109633300D01*
G75*
G02*
X386707400Y-109833300I0J-200000D01*
G01*
X386707400Y-110233300D01*
G75*
G02*
X386507400Y-110433300I-200000J0D01*
G01*
G37*
%TD.AperFunction*%
%TO.P,R7,1*%
%TO.N,Net-(Q2-Pad1)*%
%TA.AperFunction,SMDPad,CuDef*%
G36*
G01*
X386507400Y-112083300D02*
X385957400Y-112083300D01*
G75*
G02*
X385757400Y-111883300I0J200000D01*
G01*
X385757400Y-111483300D01*
G75*
G02*
X385957400Y-111283300I200000J0D01*
G01*
X386507400Y-111283300D01*
G75*
G02*
X386707400Y-111483300I0J-200000D01*
G01*
X386707400Y-111883300D01*
G75*
G02*
X386507400Y-112083300I-200000J0D01*
G01*
G37*
%TD.AperFunction*%
%TD*%
%TO.P,R6,2*%
%TO.N,Net-(R6-Pad2)*%
%TA.AperFunction,SMDPad,CuDef*%
G36*
G01*
X379497000Y-128353000D02*
X378947000Y-128353000D01*
G75*
G02*
X378747000Y-128153000I0J200000D01*
G01*
X378747000Y-127753000D01*
G75*
G02*
X378947000Y-127553000I200000J0D01*
G01*
X379497000Y-127553000D01*
G75*
G02*
X379697000Y-127753000I0J-200000D01*
G01*
X379697000Y-128153000D01*
G75*
G02*
X379497000Y-128353000I-200000J0D01*
G01*
G37*
%TD.AperFunction*%
%TO.P,R6,1*%
%TO.N,Net-(Q3-Pad1)*%
%TA.AperFunction,SMDPad,CuDef*%
G36*
G01*
X379497000Y-130003000D02*
X378947000Y-130003000D01*
G75*
G02*
X378747000Y-129803000I0J200000D01*
G01*
X378747000Y-129403000D01*
G75*
G02*
X378947000Y-129203000I200000J0D01*
G01*
X379497000Y-129203000D01*
G75*
G02*
X379697000Y-129403000I0J-200000D01*
G01*
X379697000Y-129803000D01*
G75*
G02*
X379497000Y-130003000I-200000J0D01*
G01*
G37*
%TD.AperFunction*%
%TD*%
%TO.P,R5,2*%
%TO.N,Net-(R5-Pad2)*%
%TA.AperFunction,SMDPad,CuDef*%
G36*
G01*
X385982800Y-114585300D02*
X386532800Y-114585300D01*
G75*
G02*
X386732800Y-114785300I0J-200000D01*
G01*
X386732800Y-115185300D01*
G75*
G02*
X386532800Y-115385300I-200000J0D01*
G01*
X385982800Y-115385300D01*
G75*
G02*
X385782800Y-115185300I0J200000D01*
G01*
X385782800Y-114785300D01*
G75*
G02*
X385982800Y-114585300I200000J0D01*
G01*
G37*
%TD.AperFunction*%
%TO.P,R5,1*%
%TO.N,Net-(Q2-Pad1)*%
%TA.AperFunction,SMDPad,CuDef*%
G36*
G01*
X385982800Y-112935300D02*
X386532800Y-112935300D01*
G75*
G02*
X386732800Y-113135300I0J-200000D01*
G01*
X386732800Y-113535300D01*
G75*
G02*
X386532800Y-113735300I-200000J0D01*
G01*
X385982800Y-113735300D01*
G75*
G02*
X385782800Y-113535300I0J200000D01*
G01*
X385782800Y-113135300D01*
G75*
G02*
X385982800Y-112935300I200000J0D01*
G01*
G37*
%TD.AperFunction*%
%TD*%
%TO.P,R4,2*%
%TO.N,Net-(C1-Pad1)*%
%TA.AperFunction,SMDPad,CuDef*%
G36*
G01*
X376804600Y-120428200D02*
X376254600Y-120428200D01*
G75*
G02*
X376054600Y-120228200I0J200000D01*
G01*
X376054600Y-119828200D01*
G75*
G02*
X376254600Y-119628200I200000J0D01*
G01*
X376804600Y-119628200D01*
G75*
G02*
X377004600Y-119828200I0J-200000D01*
G01*
X377004600Y-120228200D01*
G75*
G02*
X376804600Y-120428200I-200000J0D01*
G01*
G37*
%TD.AperFunction*%
%TO.P,R4,1*%
%TO.N,Net-(R3-Pad2)*%
%TA.AperFunction,SMDPad,CuDef*%
G36*
G01*
X376804600Y-122078200D02*
X376254600Y-122078200D01*
G75*
G02*
X376054600Y-121878200I0J200000D01*
G01*
X376054600Y-121478200D01*
G75*
G02*
X376254600Y-121278200I200000J0D01*
G01*
X376804600Y-121278200D01*
G75*
G02*
X377004600Y-121478200I0J-200000D01*
G01*
X377004600Y-121878200D01*
G75*
G02*
X376804600Y-122078200I-200000J0D01*
G01*
G37*
%TD.AperFunction*%
%TD*%
%TO.P,R3,2*%
%TO.N,Net-(R3-Pad2)*%
%TA.AperFunction,SMDPad,CuDef*%
G36*
G01*
X372675000Y-124849300D02*
X372675000Y-124299300D01*
G75*
G02*
X372875000Y-124099300I200000J0D01*
G01*
X373275000Y-124099300D01*
G75*
G02*
X373475000Y-124299300I0J-200000D01*
G01*
X373475000Y-124849300D01*
G75*
G02*
X373275000Y-125049300I-200000J0D01*
G01*
X372875000Y-125049300D01*
G75*
G02*
X372675000Y-124849300I0J200000D01*
G01*
G37*
%TD.AperFunction*%
%TO.P,R3,1*%
%TO.N,GND*%
%TA.AperFunction,SMDPad,CuDef*%
G36*
G01*
X371025000Y-124849300D02*
X371025000Y-124299300D01*
G75*
G02*
X371225000Y-124099300I200000J0D01*
G01*
X371625000Y-124099300D01*
G75*
G02*
X371825000Y-124299300I0J-200000D01*
G01*
X371825000Y-124849300D01*
G75*
G02*
X371625000Y-125049300I-200000J0D01*
G01*
X371225000Y-125049300D01*
G75*
G02*
X371025000Y-124849300I0J200000D01*
G01*
G37*
%TD.AperFunction*%
%TD*%
%TO.P,R2,2*%
%TO.N,GND*%
%TA.AperFunction,SMDPad,CuDef*%
G36*
G01*
X371835000Y-133013000D02*
X372385000Y-133013000D01*
G75*
G02*
X372585000Y-133213000I0J-200000D01*
G01*
X372585000Y-133613000D01*
G75*
G02*
X372385000Y-133813000I-200000J0D01*
G01*
X371835000Y-133813000D01*
G75*
G02*
X371635000Y-133613000I0J200000D01*
G01*
X371635000Y-133213000D01*
G75*
G02*
X371835000Y-133013000I200000J0D01*
G01*
G37*
%TD.AperFunction*%
%TO.P,R2,1*%
%TO.N,Net-(Q1-Pad1)*%
%TA.AperFunction,SMDPad,CuDef*%
G36*
G01*
X371835000Y-131363000D02*
X372385000Y-131363000D01*
G75*
G02*
X372585000Y-131563000I0J-200000D01*
G01*
X372585000Y-131963000D01*
G75*
G02*
X372385000Y-132163000I-200000J0D01*
G01*
X371835000Y-132163000D01*
G75*
G02*
X371635000Y-131963000I0J200000D01*
G01*
X371635000Y-131563000D01*
G75*
G02*
X371835000Y-131363000I200000J0D01*
G01*
G37*
%TD.AperFunction*%
%TD*%
%TO.P,R1,2*%
%TO.N,Net-(C5-Pad1)*%
%TA.AperFunction,SMDPad,CuDef*%
G36*
G01*
X374225000Y-128503000D02*
X374225000Y-129053000D01*
G75*
G02*
X374025000Y-129253000I-200000J0D01*
G01*
X373625000Y-129253000D01*
G75*
G02*
X373425000Y-129053000I0J200000D01*
G01*
X373425000Y-128503000D01*
G75*
G02*
X373625000Y-128303000I200000J0D01*
G01*
X374025000Y-128303000D01*
G75*
G02*
X374225000Y-128503000I0J-200000D01*
G01*
G37*
%TD.AperFunction*%
%TO.P,R1,1*%
%TO.N,Net-(Q1-Pad1)*%
%TA.AperFunction,SMDPad,CuDef*%
G36*
G01*
X375875000Y-128503000D02*
X375875000Y-129053000D01*
G75*
G02*
X375675000Y-129253000I-200000J0D01*
G01*
X375275000Y-129253000D01*
G75*
G02*
X375075000Y-129053000I0J200000D01*
G01*
X375075000Y-128503000D01*
G75*
G02*
X375275000Y-128303000I200000J0D01*
G01*
X375675000Y-128303000D01*
G75*
G02*
X375875000Y-128503000I0J-200000D01*
G01*
G37*
%TD.AperFunction*%
%TD*%
D13*
%TO.P,Q5,3*%
%TO.N,Net-(J3-Pad5)*%
X403628100Y-111671100D03*
%TO.P,Q5,2*%
%TO.N,Net-(C2-Pad1)*%
X401628100Y-112621100D03*
%TO.P,Q5,1*%
%TO.N,Net-(Q3-Pad3)*%
X401628100Y-110721100D03*
%TD*%
%TO.P,Q4,3*%
%TO.N,Net-(J3-Pad4)*%
X394077700Y-111950500D03*
%TO.P,Q4,2*%
%TO.N,Net-(C2-Pad1)*%
X392077700Y-112900500D03*
%TO.P,Q4,1*%
%TO.N,Net-(Q2-Pad3)*%
X392077700Y-111000500D03*
%TD*%
%TO.P,Q3,3*%
%TO.N,Net-(Q3-Pad3)*%
X399665700Y-111785400D03*
%TO.P,Q3,2*%
%TO.N,GND*%
X397665700Y-112735400D03*
%TO.P,Q3,1*%
%TO.N,Net-(Q3-Pad1)*%
X397665700Y-110835400D03*
%TD*%
%TO.P,Q2,3*%
%TO.N,Net-(Q2-Pad3)*%
X390280400Y-111912400D03*
%TO.P,Q2,2*%
%TO.N,GND*%
X388280400Y-112862400D03*
%TO.P,Q2,1*%
%TO.N,Net-(Q2-Pad1)*%
X388280400Y-110962400D03*
%TD*%
%TO.P,Q1,3*%
%TO.N,Net-(Q1-Pad3)*%
X375904000Y-131572000D03*
%TO.P,Q1,2*%
%TO.N,GND*%
X373904000Y-132522000D03*
%TO.P,Q1,1*%
%TO.N,Net-(Q1-Pad1)*%
X373904000Y-130622000D03*
%TD*%
D18*
%TO.P,D5,2*%
%TO.N,Net-(D5-Pad2)*%
X406146000Y-117478000D03*
%TO.P,D5,1*%
%TO.N,Net-(C4-Pad1)*%
X406146000Y-114678000D03*
%TD*%
%TO.P,D4,2*%
%TO.N,Net-(D4-Pad2)*%
%TA.AperFunction,SMDPad,CuDef*%
G36*
G01*
X400322300Y-119758750D02*
X400322300Y-120271250D01*
G75*
G02*
X400103550Y-120490000I-218750J0D01*
G01*
X399666050Y-120490000D01*
G75*
G02*
X399447300Y-120271250I0J218750D01*
G01*
X399447300Y-119758750D01*
G75*
G02*
X399666050Y-119540000I218750J0D01*
G01*
X400103550Y-119540000D01*
G75*
G02*
X400322300Y-119758750I0J-218750D01*
G01*
G37*
%TD.AperFunction*%
%TO.P,D4,1*%
%TO.N,GND*%
%TA.AperFunction,SMDPad,CuDef*%
G36*
G01*
X401897300Y-119758750D02*
X401897300Y-120271250D01*
G75*
G02*
X401678550Y-120490000I-218750J0D01*
G01*
X401241050Y-120490000D01*
G75*
G02*
X401022300Y-120271250I0J218750D01*
G01*
X401022300Y-119758750D01*
G75*
G02*
X401241050Y-119540000I218750J0D01*
G01*
X401678550Y-119540000D01*
G75*
G02*
X401897300Y-119758750I0J-218750D01*
G01*
G37*
%TD.AperFunction*%
%TD*%
%TO.P,D2,2*%
%TO.N,Net-(D2-Pad2)*%
%TA.AperFunction,SMDPad,CuDef*%
G36*
G01*
X391256000Y-116588250D02*
X391256000Y-116075750D01*
G75*
G02*
X391474750Y-115857000I218750J0D01*
G01*
X391912250Y-115857000D01*
G75*
G02*
X392131000Y-116075750I0J-218750D01*
G01*
X392131000Y-116588250D01*
G75*
G02*
X391912250Y-116807000I-218750J0D01*
G01*
X391474750Y-116807000D01*
G75*
G02*
X391256000Y-116588250I0J218750D01*
G01*
G37*
%TD.AperFunction*%
%TO.P,D2,1*%
%TO.N,GND*%
%TA.AperFunction,SMDPad,CuDef*%
G36*
G01*
X389681000Y-116588250D02*
X389681000Y-116075750D01*
G75*
G02*
X389899750Y-115857000I218750J0D01*
G01*
X390337250Y-115857000D01*
G75*
G02*
X390556000Y-116075750I0J-218750D01*
G01*
X390556000Y-116588250D01*
G75*
G02*
X390337250Y-116807000I-218750J0D01*
G01*
X389899750Y-116807000D01*
G75*
G02*
X389681000Y-116588250I0J218750D01*
G01*
G37*
%TD.AperFunction*%
%TD*%
%TO.P,D1,2*%
%TO.N,Net-(D1-Pad2)*%
%TA.AperFunction,SMDPad,CuDef*%
G36*
G01*
X407159750Y-112110000D02*
X407672250Y-112110000D01*
G75*
G02*
X407891000Y-112328750I0J-218750D01*
G01*
X407891000Y-112766250D01*
G75*
G02*
X407672250Y-112985000I-218750J0D01*
G01*
X407159750Y-112985000D01*
G75*
G02*
X406941000Y-112766250I0J218750D01*
G01*
X406941000Y-112328750D01*
G75*
G02*
X407159750Y-112110000I218750J0D01*
G01*
G37*
%TD.AperFunction*%
%TO.P,D1,1*%
%TO.N,GND*%
%TA.AperFunction,SMDPad,CuDef*%
G36*
G01*
X407159750Y-110535000D02*
X407672250Y-110535000D01*
G75*
G02*
X407891000Y-110753750I0J-218750D01*
G01*
X407891000Y-111191250D01*
G75*
G02*
X407672250Y-111410000I-218750J0D01*
G01*
X407159750Y-111410000D01*
G75*
G02*
X406941000Y-111191250I0J218750D01*
G01*
X406941000Y-110753750D01*
G75*
G02*
X407159750Y-110535000I218750J0D01*
G01*
G37*
%TD.AperFunction*%
%TD*%
D19*
%TO.P,C4,2*%
%TO.N,GND*%
X405879300Y-136501500D03*
D20*
%TO.P,C4,1*%
%TO.N,Net-(C4-Pad1)*%
X405879300Y-139001500D03*
%TD*%
%TO.P,C3,2*%
%TO.N,Net-(C3-Pad2)*%
%TA.AperFunction,SMDPad,CuDef*%
G36*
G01*
X400211100Y-135666600D02*
X399711100Y-135666600D01*
G75*
G02*
X399486100Y-135441600I0J225000D01*
G01*
X399486100Y-134991600D01*
G75*
G02*
X399711100Y-134766600I225000J0D01*
G01*
X400211100Y-134766600D01*
G75*
G02*
X400436100Y-134991600I0J-225000D01*
G01*
X400436100Y-135441600D01*
G75*
G02*
X400211100Y-135666600I-225000J0D01*
G01*
G37*
%TD.AperFunction*%
%TO.P,C3,1*%
%TO.N,Net-(C3-Pad1)*%
%TA.AperFunction,SMDPad,CuDef*%
G36*
G01*
X400211100Y-137216600D02*
X399711100Y-137216600D01*
G75*
G02*
X399486100Y-136991600I0J225000D01*
G01*
X399486100Y-136541600D01*
G75*
G02*
X399711100Y-136316600I225000J0D01*
G01*
X400211100Y-136316600D01*
G75*
G02*
X400436100Y-136541600I0J-225000D01*
G01*
X400436100Y-136991600D01*
G75*
G02*
X400211100Y-137216600I-225000J0D01*
G01*
G37*
%TD.AperFunction*%
%TD*%
D19*
%TO.P,C2,2*%
%TO.N,GND*%
X375400000Y-139800000D03*
D20*
%TO.P,C2,1*%
%TO.N,Net-(C2-Pad1)*%
X375400000Y-136300000D03*
%TD*%
%TO.P,C1,2*%
%TO.N,GND*%
%TA.AperFunction,SMDPad,CuDef*%
G36*
G01*
X379230700Y-117124600D02*
X378730700Y-117124600D01*
G75*
G02*
X378505700Y-116899600I0J225000D01*
G01*
X378505700Y-116449600D01*
G75*
G02*
X378730700Y-116224600I225000J0D01*
G01*
X379230700Y-116224600D01*
G75*
G02*
X379455700Y-116449600I0J-225000D01*
G01*
X379455700Y-116899600D01*
G75*
G02*
X379230700Y-117124600I-225000J0D01*
G01*
G37*
%TD.AperFunction*%
%TO.P,C1,1*%
%TO.N,Net-(C1-Pad1)*%
%TA.AperFunction,SMDPad,CuDef*%
G36*
G01*
X379230700Y-118674600D02*
X378730700Y-118674600D01*
G75*
G02*
X378505700Y-118449600I0J225000D01*
G01*
X378505700Y-117999600D01*
G75*
G02*
X378730700Y-117774600I225000J0D01*
G01*
X379230700Y-117774600D01*
G75*
G02*
X379455700Y-117999600I0J-225000D01*
G01*
X379455700Y-118449600D01*
G75*
G02*
X379230700Y-118674600I-225000J0D01*
G01*
G37*
%TD.AperFunction*%
%TD*%
D21*
%TO.N,GND*%
X388250000Y-114000000D03*
X387750000Y-117000000D03*
X396500000Y-112750000D03*
X408940000Y-110744000D03*
X395500000Y-127750000D03*
X398250000Y-133000000D03*
X379222000Y-134366000D03*
X375412000Y-126746000D03*
X377750000Y-116500000D03*
X393446000Y-122682000D03*
X373126000Y-127000000D03*
X379476000Y-119634000D03*
X387350000Y-109728000D03*
%TO.N,Net-(C2-Pad1)*%
X371513100Y-119773700D03*
X392750000Y-115500000D03*
X395250000Y-125222000D03*
X402500000Y-114500000D03*
X388250000Y-131000000D03*
%TO.N,Net-(Q3-Pad1)*%
X377583700Y-131318000D03*
X396201900Y-110883700D03*
%TO.N,Net-(R17-Pad2)*%
X384517900Y-127050800D03*
X379628400Y-123190000D03*
%TO.N,Net-(J3-Pad4)*%
X397250000Y-117500000D03*
%TD*%
D22*
%TO.N,GND*%
X401675700Y-120230900D02*
X401459800Y-120015000D01*
X399948400Y-131877300D02*
X399127300Y-131877300D01*
X388280400Y-113969600D02*
X388250000Y-114000000D01*
X388280400Y-112862400D02*
X388280400Y-113969600D01*
X387806900Y-116878100D02*
X386575000Y-118110000D01*
X387806900Y-116943100D02*
X387750000Y-117000000D01*
X387806900Y-116878100D02*
X387806900Y-116943100D01*
X396514600Y-112735400D02*
X396500000Y-112750000D01*
X397665700Y-112735400D02*
X396514600Y-112735400D01*
X395625000Y-127875000D02*
X395500000Y-127750000D01*
X397000000Y-127875000D02*
X395625000Y-127875000D01*
X397582900Y-133667100D02*
X398250000Y-133000000D01*
X397582900Y-134114500D02*
X397582900Y-133667100D01*
X399127300Y-132122700D02*
X399127300Y-131877300D01*
X398250000Y-133000000D02*
X399127300Y-132122700D01*
X377924600Y-116674600D02*
X377750000Y-116500000D01*
X378980700Y-116674600D02*
X377924600Y-116674600D01*
D23*
X376352637Y-125805363D02*
X375412000Y-126746000D01*
D22*
X398209000Y-127953000D02*
X397256000Y-127953000D01*
X398500000Y-128244000D02*
X398209000Y-127953000D01*
X398500000Y-131250000D02*
X398500000Y-128244000D01*
X399127300Y-131877300D02*
X398500000Y-131250000D01*
D23*
X373013000Y-133413000D02*
X373904000Y-132522000D01*
X372110000Y-133413000D02*
X373013000Y-133413000D01*
X372110000Y-128016000D02*
X373126000Y-127000000D01*
X372110000Y-128257000D02*
X372110000Y-128016000D01*
X370217700Y-124574300D02*
X368808000Y-125984000D01*
X371425000Y-124574300D02*
X370217700Y-124574300D01*
X379222000Y-132905000D02*
X379222000Y-134366000D01*
X376708000Y-115458000D02*
X377750000Y-116500000D01*
X376708000Y-115316000D02*
X376708000Y-115458000D01*
X378968000Y-120142000D02*
X379476000Y-119634000D01*
X378968000Y-120370000D02*
X378968000Y-120142000D01*
X403794000Y-121600000D02*
X402844000Y-120650000D01*
X404638000Y-121600000D02*
X403794000Y-121600000D01*
X402094800Y-120650000D02*
X401459800Y-120015000D01*
X402844000Y-120650000D02*
X402094800Y-120650000D01*
X402336000Y-119138800D02*
X401459800Y-120015000D01*
X402336000Y-118312700D02*
X402336000Y-119138800D01*
X407644500Y-110744000D02*
X407416000Y-110972500D01*
X408940000Y-110744000D02*
X407644500Y-110744000D01*
D22*
X390794000Y-125476000D02*
X390794000Y-122682000D01*
X393192000Y-122682000D02*
X393446000Y-122936000D01*
X390794000Y-122682000D02*
X393192000Y-122682000D01*
X393700000Y-122682000D02*
X393446000Y-122936000D01*
D23*
X393825000Y-121346000D02*
X393700000Y-121221000D01*
X396002000Y-121346000D02*
X393825000Y-121346000D01*
X393446000Y-121475000D02*
X393700000Y-121221000D01*
X393446000Y-122682000D02*
X393446000Y-121475000D01*
X404638000Y-121600000D02*
X404638000Y-122190000D01*
X405409500Y-122961500D02*
X405409500Y-124206000D01*
X404638000Y-122190000D02*
X405409500Y-122961500D01*
X409750000Y-124206000D02*
X410464000Y-124920000D01*
X405409500Y-124206000D02*
X409750000Y-124206000D01*
X388418000Y-116332000D02*
X387750000Y-117000000D01*
X390118500Y-116332000D02*
X388418000Y-116332000D01*
X371919000Y-133604000D02*
X372110000Y-133413000D01*
X368808000Y-133604000D02*
X371919000Y-133604000D01*
D22*
X387044700Y-110033300D02*
X387350000Y-109728000D01*
X386232400Y-110033300D02*
X387044700Y-110033300D01*
X382900000Y-114290000D02*
X382524000Y-114666000D01*
X382900000Y-110900000D02*
X382900000Y-114290000D01*
D23*
%TO.N,Net-(C1-Pad1)*%
X376491000Y-119989600D02*
X376529600Y-120028200D01*
X374066200Y-119989600D02*
X376491000Y-119989600D01*
X377266000Y-120028200D02*
X378955300Y-118338900D01*
X376529600Y-120028200D02*
X377266000Y-120028200D01*
X381510400Y-118224600D02*
X381625000Y-118110000D01*
X378980700Y-118224600D02*
X381510400Y-118224600D01*
D22*
X367766200Y-119989600D02*
X369489600Y-119989600D01*
X369489600Y-119989600D02*
X370500000Y-121000000D01*
X373055800Y-121000000D02*
X374066200Y-119989600D01*
X370500000Y-121000000D02*
X373055800Y-121000000D01*
X381625000Y-118110000D02*
X381625000Y-117719000D01*
X381625000Y-117719000D02*
X380238000Y-116332000D01*
X380238000Y-111022000D02*
X380360000Y-110900000D01*
X380238000Y-116332000D02*
X380238000Y-111022000D01*
D23*
%TO.N,Net-(C2-Pad1)*%
X371513100Y-119773700D02*
X371513100Y-118783100D01*
X372606600Y-117689600D02*
X374066200Y-117689600D01*
X371513100Y-118783100D02*
X372606600Y-117689600D01*
D22*
X401459200Y-112790000D02*
X401628100Y-112621100D01*
X392134200Y-114884200D02*
X392750000Y-115500000D01*
D24*
X402477800Y-114477800D02*
X402500000Y-114500000D01*
X401459200Y-114477800D02*
X402477800Y-114477800D01*
X375400000Y-136300000D02*
X376300000Y-136300000D01*
X375360000Y-136260000D02*
X375400000Y-136300000D01*
D23*
X374066200Y-116407800D02*
X375158000Y-115316000D01*
X374066200Y-117689600D02*
X374066200Y-116407800D01*
D25*
X380529500Y-136300000D02*
X382387300Y-134442200D01*
X375400000Y-136300000D02*
X380529500Y-136300000D01*
X375400000Y-136300000D02*
X375822000Y-136300000D01*
X375822000Y-136300000D02*
X378460000Y-138938000D01*
X378460000Y-138938000D02*
X385826000Y-138938000D01*
X388250000Y-136514000D02*
X388250000Y-131000000D01*
X385826000Y-138938000D02*
X388250000Y-136514000D01*
X401628100Y-112621100D02*
X401673100Y-112621100D01*
X402500000Y-113448000D02*
X402500000Y-114500000D01*
X401673100Y-112621100D02*
X402500000Y-113448000D01*
D23*
X393637000Y-123952000D02*
X393637000Y-124651000D01*
X394208000Y-125222000D02*
X395250000Y-125222000D01*
X393637000Y-124651000D02*
X394208000Y-125222000D01*
D25*
X396952000Y-125222000D02*
X397018000Y-125156000D01*
X395250000Y-125222000D02*
X396952000Y-125222000D01*
X375244000Y-136144000D02*
X375400000Y-136300000D01*
X368808000Y-136144000D02*
X375244000Y-136144000D01*
X392750000Y-113572800D02*
X392077700Y-112900500D01*
X392750000Y-115500000D02*
X392750000Y-113572800D01*
D23*
X391804000Y-114554000D02*
X392750000Y-115500000D01*
X391223000Y-114554000D02*
X391804000Y-114554000D01*
D22*
%TO.N,Net-(C3-Pad2)*%
X399961100Y-133540000D02*
X399948400Y-133527300D01*
X399961100Y-135216600D02*
X399961100Y-133540000D01*
%TO.N,Net-(C3-Pad1)*%
X392909600Y-135064500D02*
X392287300Y-134442200D01*
X395582900Y-135064500D02*
X392909600Y-135064500D01*
X399408600Y-136766600D02*
X396437100Y-139738100D01*
X399961100Y-136766600D02*
X399408600Y-136766600D01*
D24*
X392287300Y-135588300D02*
X396437100Y-139738100D01*
X392287300Y-134442200D02*
X392287300Y-135588300D01*
D22*
%TO.N,Net-(C4-Pad1)*%
X400437100Y-139738100D02*
X400437100Y-138812900D01*
X400437100Y-138812900D02*
X401250000Y-138000000D01*
X401250000Y-130993500D02*
X399961100Y-129704600D01*
X401250000Y-138000000D02*
X401250000Y-130993500D01*
D24*
X405142700Y-139738100D02*
X405879300Y-139001500D01*
X400437100Y-139738100D02*
X405142700Y-139738100D01*
D23*
X406228000Y-114760000D02*
X406146000Y-114678000D01*
X410464000Y-114760000D02*
X406228000Y-114760000D01*
%TO.N,Net-(D1-Pad2)*%
X407378500Y-112585000D02*
X407416000Y-112547500D01*
X405422100Y-112585000D02*
X407378500Y-112585000D01*
%TO.N,Net-(D2-Pad2)*%
X391718400Y-116356900D02*
X391693500Y-116332000D01*
X392494100Y-116356900D02*
X391718400Y-116356900D01*
X392494100Y-116356900D02*
X394157200Y-116356900D01*
D22*
%TO.N,Net-(D4-Pad2)*%
X399935700Y-119964100D02*
X399884800Y-120015000D01*
X399935700Y-118376200D02*
X399935700Y-119964100D01*
D23*
%TO.N,Net-(D5-Pad2)*%
X406324000Y-117300000D02*
X406146000Y-117478000D01*
X410464000Y-117300000D02*
X406324000Y-117300000D01*
X406638000Y-117970000D02*
X406146000Y-117478000D01*
X406638000Y-120650000D02*
X406638000Y-117970000D01*
%TO.N,Net-(J2-Pad3)*%
X386575000Y-123190000D02*
X384378200Y-123190000D01*
X384378200Y-123190000D02*
X383921000Y-122732800D01*
D22*
X383921000Y-119761000D02*
X383921000Y-117475000D01*
D23*
X383921000Y-122732800D02*
X383921000Y-119761000D01*
D22*
X383921000Y-117475000D02*
X385064000Y-116332000D01*
X385064000Y-112522000D02*
X385064000Y-109728000D01*
X385064000Y-116332000D02*
X385064000Y-112522000D01*
X385064000Y-112522000D02*
X385064000Y-112014000D01*
X385064000Y-109728000D02*
X384556000Y-109220000D01*
X384556000Y-109220000D02*
X378460000Y-109220000D01*
X377820000Y-109860000D02*
X377820000Y-110900000D01*
X378460000Y-109220000D02*
X377820000Y-109860000D01*
D23*
%TO.N,Net-(Q1-Pad1)*%
X373904000Y-130622000D02*
X374838000Y-130622000D01*
X375475000Y-129985000D02*
X375475000Y-128778000D01*
X374838000Y-130622000D02*
X375475000Y-129985000D01*
X372763000Y-131763000D02*
X373904000Y-130622000D01*
X372110000Y-131763000D02*
X372763000Y-131763000D01*
D22*
%TO.N,Net-(Q2-Pad3)*%
X390280400Y-111912400D02*
X390280400Y-111719600D01*
X390999500Y-111000500D02*
X392077700Y-111000500D01*
X390280400Y-111719600D02*
X390999500Y-111000500D01*
X390106400Y-112086400D02*
X390280400Y-111912400D01*
D23*
X389573000Y-112619800D02*
X390280400Y-111912400D01*
X389573000Y-114554000D02*
X389573000Y-112619800D01*
D22*
%TO.N,Net-(Q2-Pad1)*%
X387559500Y-111683300D02*
X388280400Y-110962400D01*
X386232400Y-111683300D02*
X387559500Y-111683300D01*
X386257800Y-111708700D02*
X386232400Y-111683300D01*
X386257800Y-113335300D02*
X386257800Y-111708700D01*
%TO.N,Net-(Q3-Pad3)*%
X399809200Y-111928900D02*
X399665700Y-111785400D01*
X399809200Y-114477800D02*
X399809200Y-111928900D01*
X400563800Y-111785400D02*
X401628100Y-110721100D01*
X399665700Y-111785400D02*
X400563800Y-111785400D01*
D23*
%TO.N,Net-(Q3-Pad1)*%
X397617400Y-110883700D02*
X397665700Y-110835400D01*
X396201900Y-110883700D02*
X397617400Y-110883700D01*
X379159000Y-131318000D02*
X379222000Y-131255000D01*
X377583700Y-131318000D02*
X379159000Y-131318000D01*
X379222000Y-131255000D02*
X379222000Y-129603000D01*
D22*
%TO.N,Net-(Q6-Pad1)*%
X397000000Y-129525000D02*
X397000000Y-133250000D01*
X397000000Y-133250000D02*
X396500000Y-133750000D01*
X396500000Y-134931600D02*
X397582900Y-136014500D01*
X396500000Y-133750000D02*
X396500000Y-134931600D01*
D23*
X395478000Y-132728000D02*
X396500000Y-133750000D01*
X395478000Y-132143000D02*
X395478000Y-132728000D01*
%TO.N,Net-(Q7-Pad1)*%
X386575000Y-119380000D02*
X388120000Y-119380000D01*
X388120000Y-119380000D02*
X389000000Y-118500000D01*
X399133802Y-116726200D02*
X399935700Y-116726200D01*
X397360002Y-118500000D02*
X399133802Y-116726200D01*
X389000000Y-118500000D02*
X397360002Y-118500000D01*
X402272500Y-116726200D02*
X402336000Y-116662700D01*
X399935700Y-116726200D02*
X402272500Y-116726200D01*
X402336000Y-116662700D02*
X402920700Y-116662700D01*
X404638000Y-118380000D02*
X404638000Y-119700000D01*
X402920700Y-116662700D02*
X404638000Y-118380000D01*
D22*
%TO.N,Net-(R3-Pad2)*%
X375918200Y-122289600D02*
X376529600Y-121678200D01*
X374066200Y-122289600D02*
X375918200Y-122289600D01*
D23*
X373075000Y-124574300D02*
X373425700Y-124574300D01*
X374066200Y-123933800D02*
X374066200Y-122289600D01*
X373425700Y-124574300D02*
X374066200Y-123933800D01*
%TO.N,Net-(R5-Pad2)*%
X386575000Y-121920000D02*
X385025900Y-121920000D01*
X385025900Y-121920000D02*
X384822700Y-121716800D01*
D22*
X384822700Y-119621300D02*
X384822700Y-117843300D01*
D23*
X384822700Y-121716800D02*
X384822700Y-119621300D01*
D22*
X386257800Y-116408200D02*
X386257800Y-114985300D01*
X384822700Y-117843300D02*
X386257800Y-116408200D01*
D23*
%TO.N,Net-(R6-Pad2)*%
X379222000Y-127953000D02*
X379222000Y-126746000D01*
X380238000Y-125730000D02*
X381625000Y-125730000D01*
X379222000Y-126746000D02*
X380238000Y-125730000D01*
%TO.N,Net-(R11-Pad1)*%
X395478000Y-129794000D02*
X395478000Y-130493000D01*
X385024000Y-129500000D02*
X395184000Y-129500000D01*
X395184000Y-129500000D02*
X395478000Y-129794000D01*
X383324100Y-127800100D02*
X385024000Y-129500000D01*
X383324100Y-120992900D02*
X383324100Y-127800100D01*
X382981200Y-120650000D02*
X383324100Y-120992900D01*
X381625000Y-120650000D02*
X382981200Y-120650000D01*
%TO.N,Net-(R17-Pad2)*%
X379628400Y-123190000D02*
X381625000Y-123190000D01*
X377519363Y-124638637D02*
X378968000Y-123190000D01*
X378968000Y-123190000D02*
X379628400Y-123190000D01*
X399961100Y-127063500D02*
X399961100Y-128054600D01*
X399643600Y-126746000D02*
X399846800Y-126949200D01*
X394970000Y-126746000D02*
X399643600Y-126746000D01*
X394665200Y-127050800D02*
X394970000Y-126746000D01*
X384517900Y-127050800D02*
X394665200Y-127050800D01*
X399846800Y-126949200D02*
X399961100Y-127063500D01*
D25*
%TO.N,Net-(J3-Pad4)*%
X397250000Y-115665600D02*
X394157200Y-112572800D01*
X397250000Y-117500000D02*
X397250000Y-115665600D01*
D22*
X394157200Y-114706900D02*
X394157200Y-112572800D01*
D25*
X394157200Y-112030000D02*
X394077700Y-111950500D01*
X394157200Y-112572800D02*
X394157200Y-112030000D01*
%TO.N,Net-(J3-Pad2)*%
X409146000Y-127460000D02*
X407415290Y-125729290D01*
X410464000Y-127460000D02*
X409146000Y-127460000D01*
D23*
X399018000Y-124206000D02*
X400495000Y-124206000D01*
D25*
X399018000Y-124206000D02*
X399018000Y-124952000D01*
X399795290Y-125729290D02*
X407415290Y-125729290D01*
X399018000Y-124952000D02*
X399795290Y-125729290D01*
D23*
%TO.N,Net-(D6-Pad2)*%
X402145000Y-123952000D02*
X403834500Y-123952000D01*
%TO.N,Net-(Q8-Pad3)*%
X395287000Y-123952000D02*
X395287000Y-123635000D01*
X395666000Y-123256000D02*
X397018000Y-123256000D01*
X395287000Y-123635000D02*
X395666000Y-123256000D01*
X398002000Y-122272000D02*
X397018000Y-123256000D01*
X398002000Y-120396000D02*
X398002000Y-122272000D01*
%TO.N,Net-(Q8-Pad1)*%
X393637000Y-119634000D02*
X393700000Y-119571000D01*
X391477000Y-119634000D02*
X393637000Y-119634000D01*
X395877000Y-119571000D02*
X396002000Y-119446000D01*
X393700000Y-119571000D02*
X395877000Y-119571000D01*
%TO.N,Net-(R20-Pad2)*%
X386575000Y-120650000D02*
X387985000Y-120650000D01*
X388911600Y-119723400D02*
X389890000Y-119723400D01*
X387985000Y-120650000D02*
X388911600Y-119723400D01*
D22*
%TO.N,Net-(J3-Pad5)*%
X403628100Y-111671100D02*
X403628100Y-111621900D01*
D25*
X412290000Y-119840000D02*
X410464000Y-119840000D01*
X411495999Y-109743999D02*
X413004000Y-111252000D01*
X413004000Y-119126000D02*
X412290000Y-119840000D01*
X408955999Y-109743999D02*
X411495999Y-109743999D01*
X413004000Y-111252000D02*
X413004000Y-119126000D01*
X408940000Y-109728000D02*
X408955999Y-109743999D01*
X403628100Y-110975900D02*
X404876000Y-109728000D01*
X403628100Y-111671100D02*
X403628100Y-110975900D01*
D23*
X405422100Y-109766100D02*
X405384000Y-109728000D01*
X405422100Y-110935000D02*
X405422100Y-109766100D01*
D25*
X405384000Y-109728000D02*
X408940000Y-109728000D01*
X404876000Y-109728000D02*
X405384000Y-109728000D01*
D23*
%TO.N,Net-(C5-Pad1)*%
X368808000Y-131064000D02*
X370078000Y-129794000D01*
X372097000Y-129794000D02*
X372110000Y-129807000D01*
X370078000Y-129794000D02*
X372097000Y-129794000D01*
X372110000Y-129807000D02*
X372605000Y-129807000D01*
X373634000Y-128778000D02*
X373825000Y-128778000D01*
X372605000Y-129807000D02*
X373634000Y-128778000D01*
%TO.N,Net-(C8-Pad1)*%
X368808000Y-128524000D02*
X370078000Y-128524000D01*
X370078000Y-128524000D02*
X370586000Y-128016000D01*
X370586000Y-128016000D02*
X370586000Y-126492000D01*
X370586000Y-126492000D02*
X371348000Y-125730000D01*
X371348000Y-125730000D02*
X374396000Y-125730000D01*
X378206000Y-121920000D02*
X381625000Y-121920000D01*
X374396000Y-125730000D02*
X378206000Y-121920000D01*
D22*
%TO.N,Net-(JP1-Pad2)*%
X387716000Y-124460000D02*
X389494000Y-122682000D01*
X386575000Y-124460000D02*
X387716000Y-124460000D01*
%TO.N,Net-(JP2-Pad2)*%
X389240000Y-125730000D02*
X389494000Y-125476000D01*
X386575000Y-125730000D02*
X389240000Y-125730000D01*
%TO.N,Net-(JP3-Pad1)*%
X381625000Y-119380000D02*
X382778000Y-119380000D01*
X382778000Y-119380000D02*
X383286000Y-118872000D01*
X383286000Y-116728000D02*
X382524000Y-115966000D01*
X383286000Y-118872000D02*
X383286000Y-116728000D01*
D23*
%TO.N,Net-(Q1-Pad3)*%
X375904000Y-131572000D02*
X375904000Y-131334000D01*
X380238000Y-124460000D02*
X379730000Y-124460000D01*
X380238000Y-124460000D02*
X381625000Y-124460000D01*
D22*
X375904000Y-131572000D02*
X375904000Y-131080000D01*
X375904000Y-131080000D02*
X377444000Y-129540000D01*
X377444000Y-126746000D02*
X379730000Y-124460000D01*
X377444000Y-129540000D02*
X377444000Y-126746000D01*
%TD*%
M02*
