M48
; DRILL file {KiCad 5.1.10-88a1d61d58~90~ubuntu20.04.1} date Fri Oct  1 00:20:30 2021
; FORMAT={-:-/ absolute / metric / decimal}
; #@! TF.CreationDate,2021-10-01T00:20:30+02:00
; #@! TF.GenerationSoftware,Kicad,Pcbnew,5.1.10-88a1d61d58~90~ubuntu20.04.1
; #@! TF.FileFunction,Plated,1,2,PTH
FMAT,2
METRIC
T1C0.400
T2C0.800
T3C1.000
%
G90
G05
T1
X371.513Y-119.774
X373.126Y-127.0
X375.412Y-126.746
X377.584Y-131.318
X377.75Y-116.5
X379.222Y-134.366
X379.476Y-119.634
X379.628Y-123.19
X384.518Y-127.051
X387.35Y-109.728
X387.75Y-117.0
X388.25Y-114.0
X388.25Y-131.0
X392.75Y-115.5
X393.446Y-122.682
X395.25Y-125.222
X395.5Y-127.75
X396.202Y-110.884
X396.5Y-112.75
X397.25Y-117.5
X398.25Y-133.0
X402.5Y-114.5
X408.94Y-110.744
T2
X375.4Y-136.3
X375.4Y-139.8
X405.879Y-136.501
X405.879Y-139.001
T3
X368.808Y-125.984
X368.808Y-128.524
X368.808Y-131.064
X368.808Y-133.604
X368.808Y-136.144
X377.82Y-110.9
X380.36Y-110.9
X382.9Y-110.9
X410.464Y-114.76
X410.464Y-117.3
X410.464Y-119.84
X410.464Y-122.38
X410.464Y-124.92
X410.464Y-127.46
X410.464Y-130.0
T0
M30
