%TF.GenerationSoftware,KiCad,Pcbnew,5.1.12-84ad8e8a86~92~ubuntu20.04.1*%
%TF.CreationDate,2023-10-24T12:46:34+02:00*%
%TF.ProjectId,boost_sequencer,626f6f73-745f-4736-9571-75656e636572,rev?*%
%TF.SameCoordinates,Original*%
%TF.FileFunction,Copper,L1,Top*%
%TF.FilePolarity,Positive*%
%FSLAX46Y46*%
G04 Gerber Fmt 4.6, Leading zero omitted, Abs format (unit mm)*
G04 Created by KiCad (PCBNEW 5.1.12-84ad8e8a86~92~ubuntu20.04.1) date 2023-10-24 12:46:34*
%MOMM*%
%LPD*%
G01*
G04 APERTURE LIST*
%TA.AperFunction,ComponentPad*%
%ADD10O,1.700000X1.700000*%
%TD*%
%TA.AperFunction,ComponentPad*%
%ADD11C,1.700000*%
%TD*%
%TA.AperFunction,SMDPad,CuDef*%
%ADD12R,0.900000X0.800000*%
%TD*%
%TA.AperFunction,SMDPad,CuDef*%
%ADD13R,0.800000X0.900000*%
%TD*%
%TA.AperFunction,SMDPad,CuDef*%
%ADD14R,1.100000X1.100000*%
%TD*%
%TA.AperFunction,SMDPad,CuDef*%
%ADD15R,0.700000X0.450000*%
%TD*%
%TA.AperFunction,SMDPad,CuDef*%
%ADD16R,2.500000X1.800000*%
%TD*%
%TA.AperFunction,SMDPad,CuDef*%
%ADD17R,2.900000X5.400000*%
%TD*%
%TA.AperFunction,SMDPad,CuDef*%
%ADD18R,2.000000X1.500000*%
%TD*%
%TA.AperFunction,SMDPad,CuDef*%
%ADD19R,2.000000X3.800000*%
%TD*%
%TA.AperFunction,ComponentPad*%
%ADD20C,1.600000*%
%TD*%
%TA.AperFunction,ComponentPad*%
%ADD21R,1.600000X1.600000*%
%TD*%
%TA.AperFunction,ViaPad*%
%ADD22C,0.800000*%
%TD*%
%TA.AperFunction,Conductor*%
%ADD23C,0.250000*%
%TD*%
%TA.AperFunction,Conductor*%
%ADD24C,0.800000*%
%TD*%
G04 APERTURE END LIST*
D10*
%TO.P,J2,3*%
%TO.N,Net-(J2-Pad3)*%
X380280000Y-107900000D03*
%TO.P,J2,2*%
%TO.N,Net-(C1-Pad1)*%
X377740000Y-107900000D03*
D11*
%TO.P,J2,1*%
%TO.N,GND*%
X375200000Y-107900000D03*
%TD*%
D10*
%TO.P,J4,7*%
%TO.N,GND*%
X419354000Y-130556000D03*
%TO.P,J4,6*%
%TO.N,Net-(J4-Pad6)*%
X419354000Y-128016000D03*
%TO.P,J4,5*%
%TO.N,Net-(J4-Pad5)*%
X419354000Y-125476000D03*
%TO.P,J4,4*%
%TO.N,Net-(J4-Pad4)*%
X419354000Y-122936000D03*
%TO.P,J4,3*%
%TO.N,Net-(J4-Pad3)*%
X419354000Y-120396000D03*
%TO.P,J4,2*%
%TO.N,Net-(D5-Pad2)*%
X419354000Y-117856000D03*
D11*
%TO.P,J4,1*%
%TO.N,+28V*%
X419354000Y-115316000D03*
%TD*%
D10*
%TO.P,J1,7*%
%TO.N,Net-(C5-Pad1)*%
X369062000Y-130810000D03*
%TO.P,J1,6*%
%TO.N,Net-(C7-Pad1)*%
X369062000Y-128270000D03*
%TO.P,J1,5*%
%TO.N,Net-(C9-Pad1)*%
X369062000Y-125730000D03*
%TO.P,J1,4*%
%TO.N,Net-(C8-Pad1)*%
X369062000Y-123190000D03*
%TO.P,J1,3*%
%TO.N,GND*%
X369062000Y-120650000D03*
%TO.P,J1,2*%
X369062000Y-118110000D03*
D11*
%TO.P,J1,1*%
%TO.N,+12V*%
X369062000Y-115570000D03*
%TD*%
D10*
%TO.P,J3,4*%
%TO.N,Net-(D7-Pad1)*%
X406654000Y-107442000D03*
%TO.P,J3,3*%
%TO.N,Net-(D1-Pad2)*%
X404114000Y-107442000D03*
%TO.P,J3,2*%
%TO.N,Net-(D4-Pad2)*%
X401574000Y-107442000D03*
D11*
%TO.P,J3,1*%
%TO.N,Net-(D8-Pad1)*%
X399034000Y-107442000D03*
%TD*%
%TO.P,R24,2*%
%TO.N,Net-(C7-Pad1)*%
%TA.AperFunction,SMDPad,CuDef*%
G36*
G01*
X379709000Y-127171000D02*
X380259000Y-127171000D01*
G75*
G02*
X380459000Y-127371000I0J-200000D01*
G01*
X380459000Y-127771000D01*
G75*
G02*
X380259000Y-127971000I-200000J0D01*
G01*
X379709000Y-127971000D01*
G75*
G02*
X379509000Y-127771000I0J200000D01*
G01*
X379509000Y-127371000D01*
G75*
G02*
X379709000Y-127171000I200000J0D01*
G01*
G37*
%TD.AperFunction*%
%TO.P,R24,1*%
%TO.N,Net-(C1-Pad1)*%
%TA.AperFunction,SMDPad,CuDef*%
G36*
G01*
X379709000Y-125521000D02*
X380259000Y-125521000D01*
G75*
G02*
X380459000Y-125721000I0J-200000D01*
G01*
X380459000Y-126121000D01*
G75*
G02*
X380259000Y-126321000I-200000J0D01*
G01*
X379709000Y-126321000D01*
G75*
G02*
X379509000Y-126121000I0J200000D01*
G01*
X379509000Y-125721000D01*
G75*
G02*
X379709000Y-125521000I200000J0D01*
G01*
G37*
%TD.AperFunction*%
%TD*%
%TO.P,R21,2*%
%TO.N,GND*%
%TA.AperFunction,SMDPad,CuDef*%
G36*
G01*
X411459000Y-134791000D02*
X412009000Y-134791000D01*
G75*
G02*
X412209000Y-134991000I0J-200000D01*
G01*
X412209000Y-135391000D01*
G75*
G02*
X412009000Y-135591000I-200000J0D01*
G01*
X411459000Y-135591000D01*
G75*
G02*
X411259000Y-135391000I0J200000D01*
G01*
X411259000Y-134991000D01*
G75*
G02*
X411459000Y-134791000I200000J0D01*
G01*
G37*
%TD.AperFunction*%
%TO.P,R21,1*%
%TO.N,Net-(Q14-Pad1)*%
%TA.AperFunction,SMDPad,CuDef*%
G36*
G01*
X411459000Y-133141000D02*
X412009000Y-133141000D01*
G75*
G02*
X412209000Y-133341000I0J-200000D01*
G01*
X412209000Y-133741000D01*
G75*
G02*
X412009000Y-133941000I-200000J0D01*
G01*
X411459000Y-133941000D01*
G75*
G02*
X411259000Y-133741000I0J200000D01*
G01*
X411259000Y-133341000D01*
G75*
G02*
X411459000Y-133141000I200000J0D01*
G01*
G37*
%TD.AperFunction*%
%TD*%
%TO.P,R20,2*%
%TO.N,Net-(Q13-Pad1)*%
%TA.AperFunction,SMDPad,CuDef*%
G36*
G01*
X395457000Y-106597000D02*
X396007000Y-106597000D01*
G75*
G02*
X396207000Y-106797000I0J-200000D01*
G01*
X396207000Y-107197000D01*
G75*
G02*
X396007000Y-107397000I-200000J0D01*
G01*
X395457000Y-107397000D01*
G75*
G02*
X395257000Y-107197000I0J200000D01*
G01*
X395257000Y-106797000D01*
G75*
G02*
X395457000Y-106597000I200000J0D01*
G01*
G37*
%TD.AperFunction*%
%TO.P,R20,1*%
%TO.N,+28V*%
%TA.AperFunction,SMDPad,CuDef*%
G36*
G01*
X395457000Y-104947000D02*
X396007000Y-104947000D01*
G75*
G02*
X396207000Y-105147000I0J-200000D01*
G01*
X396207000Y-105547000D01*
G75*
G02*
X396007000Y-105747000I-200000J0D01*
G01*
X395457000Y-105747000D01*
G75*
G02*
X395257000Y-105547000I0J200000D01*
G01*
X395257000Y-105147000D01*
G75*
G02*
X395457000Y-104947000I200000J0D01*
G01*
G37*
%TD.AperFunction*%
%TD*%
%TO.P,R16,2*%
%TO.N,Net-(Q12-Pad1)*%
%TA.AperFunction,SMDPad,CuDef*%
G36*
G01*
X411055000Y-111485000D02*
X411055000Y-112035000D01*
G75*
G02*
X410855000Y-112235000I-200000J0D01*
G01*
X410455000Y-112235000D01*
G75*
G02*
X410255000Y-112035000I0J200000D01*
G01*
X410255000Y-111485000D01*
G75*
G02*
X410455000Y-111285000I200000J0D01*
G01*
X410855000Y-111285000D01*
G75*
G02*
X411055000Y-111485000I0J-200000D01*
G01*
G37*
%TD.AperFunction*%
%TO.P,R16,1*%
%TO.N,+28V*%
%TA.AperFunction,SMDPad,CuDef*%
G36*
G01*
X412705000Y-111485000D02*
X412705000Y-112035000D01*
G75*
G02*
X412505000Y-112235000I-200000J0D01*
G01*
X412105000Y-112235000D01*
G75*
G02*
X411905000Y-112035000I0J200000D01*
G01*
X411905000Y-111485000D01*
G75*
G02*
X412105000Y-111285000I200000J0D01*
G01*
X412505000Y-111285000D01*
G75*
G02*
X412705000Y-111485000I0J-200000D01*
G01*
G37*
%TD.AperFunction*%
%TD*%
%TO.P,R13,2*%
%TO.N,Net-(D4-Pad2)*%
%TA.AperFunction,SMDPad,CuDef*%
G36*
G01*
X390227000Y-108691000D02*
X390227000Y-109241000D01*
G75*
G02*
X390027000Y-109441000I-200000J0D01*
G01*
X389627000Y-109441000D01*
G75*
G02*
X389427000Y-109241000I0J200000D01*
G01*
X389427000Y-108691000D01*
G75*
G02*
X389627000Y-108491000I200000J0D01*
G01*
X390027000Y-108491000D01*
G75*
G02*
X390227000Y-108691000I0J-200000D01*
G01*
G37*
%TD.AperFunction*%
%TO.P,R13,1*%
%TO.N,Net-(Q13-Pad1)*%
%TA.AperFunction,SMDPad,CuDef*%
G36*
G01*
X391877000Y-108691000D02*
X391877000Y-109241000D01*
G75*
G02*
X391677000Y-109441000I-200000J0D01*
G01*
X391277000Y-109441000D01*
G75*
G02*
X391077000Y-109241000I0J200000D01*
G01*
X391077000Y-108691000D01*
G75*
G02*
X391277000Y-108491000I200000J0D01*
G01*
X391677000Y-108491000D01*
G75*
G02*
X391877000Y-108691000I0J-200000D01*
G01*
G37*
%TD.AperFunction*%
%TD*%
%TO.P,R8,2*%
%TO.N,Net-(D1-Pad2)*%
%TA.AperFunction,SMDPad,CuDef*%
G36*
G01*
X407499000Y-109961000D02*
X407499000Y-110511000D01*
G75*
G02*
X407299000Y-110711000I-200000J0D01*
G01*
X406899000Y-110711000D01*
G75*
G02*
X406699000Y-110511000I0J200000D01*
G01*
X406699000Y-109961000D01*
G75*
G02*
X406899000Y-109761000I200000J0D01*
G01*
X407299000Y-109761000D01*
G75*
G02*
X407499000Y-109961000I0J-200000D01*
G01*
G37*
%TD.AperFunction*%
%TO.P,R8,1*%
%TO.N,Net-(Q12-Pad1)*%
%TA.AperFunction,SMDPad,CuDef*%
G36*
G01*
X409149000Y-109961000D02*
X409149000Y-110511000D01*
G75*
G02*
X408949000Y-110711000I-200000J0D01*
G01*
X408549000Y-110711000D01*
G75*
G02*
X408349000Y-110511000I0J200000D01*
G01*
X408349000Y-109961000D01*
G75*
G02*
X408549000Y-109761000I200000J0D01*
G01*
X408949000Y-109761000D01*
G75*
G02*
X409149000Y-109961000I0J-200000D01*
G01*
G37*
%TD.AperFunction*%
%TD*%
%TO.P,R7,2*%
%TO.N,GND*%
%TA.AperFunction,SMDPad,CuDef*%
G36*
G01*
X384577000Y-108541000D02*
X384027000Y-108541000D01*
G75*
G02*
X383827000Y-108341000I0J200000D01*
G01*
X383827000Y-107941000D01*
G75*
G02*
X384027000Y-107741000I200000J0D01*
G01*
X384577000Y-107741000D01*
G75*
G02*
X384777000Y-107941000I0J-200000D01*
G01*
X384777000Y-108341000D01*
G75*
G02*
X384577000Y-108541000I-200000J0D01*
G01*
G37*
%TD.AperFunction*%
%TO.P,R7,1*%
%TO.N,Net-(Q11-Pad1)*%
%TA.AperFunction,SMDPad,CuDef*%
G36*
G01*
X384577000Y-110191000D02*
X384027000Y-110191000D01*
G75*
G02*
X383827000Y-109991000I0J200000D01*
G01*
X383827000Y-109591000D01*
G75*
G02*
X384027000Y-109391000I200000J0D01*
G01*
X384577000Y-109391000D01*
G75*
G02*
X384777000Y-109591000I0J-200000D01*
G01*
X384777000Y-109991000D01*
G75*
G02*
X384577000Y-110191000I-200000J0D01*
G01*
G37*
%TD.AperFunction*%
%TD*%
%TO.P,R6,2*%
%TO.N,GND*%
%TA.AperFunction,SMDPad,CuDef*%
G36*
G01*
X393213000Y-110827000D02*
X392663000Y-110827000D01*
G75*
G02*
X392463000Y-110627000I0J200000D01*
G01*
X392463000Y-110227000D01*
G75*
G02*
X392663000Y-110027000I200000J0D01*
G01*
X393213000Y-110027000D01*
G75*
G02*
X393413000Y-110227000I0J-200000D01*
G01*
X393413000Y-110627000D01*
G75*
G02*
X393213000Y-110827000I-200000J0D01*
G01*
G37*
%TD.AperFunction*%
%TO.P,R6,1*%
%TO.N,Net-(Q10-Pad1)*%
%TA.AperFunction,SMDPad,CuDef*%
G36*
G01*
X393213000Y-112477000D02*
X392663000Y-112477000D01*
G75*
G02*
X392463000Y-112277000I0J200000D01*
G01*
X392463000Y-111877000D01*
G75*
G02*
X392663000Y-111677000I200000J0D01*
G01*
X393213000Y-111677000D01*
G75*
G02*
X393413000Y-111877000I0J-200000D01*
G01*
X393413000Y-112277000D01*
G75*
G02*
X393213000Y-112477000I-200000J0D01*
G01*
G37*
%TD.AperFunction*%
%TD*%
%TO.P,R5,2*%
%TO.N,Net-(R5-Pad2)*%
%TA.AperFunction,SMDPad,CuDef*%
G36*
G01*
X385489000Y-112543000D02*
X385489000Y-111993000D01*
G75*
G02*
X385689000Y-111793000I200000J0D01*
G01*
X386089000Y-111793000D01*
G75*
G02*
X386289000Y-111993000I0J-200000D01*
G01*
X386289000Y-112543000D01*
G75*
G02*
X386089000Y-112743000I-200000J0D01*
G01*
X385689000Y-112743000D01*
G75*
G02*
X385489000Y-112543000I0J200000D01*
G01*
G37*
%TD.AperFunction*%
%TO.P,R5,1*%
%TO.N,Net-(Q11-Pad1)*%
%TA.AperFunction,SMDPad,CuDef*%
G36*
G01*
X383839000Y-112543000D02*
X383839000Y-111993000D01*
G75*
G02*
X384039000Y-111793000I200000J0D01*
G01*
X384439000Y-111793000D01*
G75*
G02*
X384639000Y-111993000I0J-200000D01*
G01*
X384639000Y-112543000D01*
G75*
G02*
X384439000Y-112743000I-200000J0D01*
G01*
X384039000Y-112743000D01*
G75*
G02*
X383839000Y-112543000I0J200000D01*
G01*
G37*
%TD.AperFunction*%
%TD*%
%TO.P,R2,2*%
%TO.N,Net-(R2-Pad2)*%
%TA.AperFunction,SMDPad,CuDef*%
G36*
G01*
X389211000Y-112247000D02*
X389211000Y-112797000D01*
G75*
G02*
X389011000Y-112997000I-200000J0D01*
G01*
X388611000Y-112997000D01*
G75*
G02*
X388411000Y-112797000I0J200000D01*
G01*
X388411000Y-112247000D01*
G75*
G02*
X388611000Y-112047000I200000J0D01*
G01*
X389011000Y-112047000D01*
G75*
G02*
X389211000Y-112247000I0J-200000D01*
G01*
G37*
%TD.AperFunction*%
%TO.P,R2,1*%
%TO.N,Net-(Q10-Pad1)*%
%TA.AperFunction,SMDPad,CuDef*%
G36*
G01*
X390861000Y-112247000D02*
X390861000Y-112797000D01*
G75*
G02*
X390661000Y-112997000I-200000J0D01*
G01*
X390261000Y-112997000D01*
G75*
G02*
X390061000Y-112797000I0J200000D01*
G01*
X390061000Y-112247000D01*
G75*
G02*
X390261000Y-112047000I200000J0D01*
G01*
X390661000Y-112047000D01*
G75*
G02*
X390861000Y-112247000I0J-200000D01*
G01*
G37*
%TD.AperFunction*%
%TD*%
%TO.P,R1,2*%
%TO.N,Net-(C5-Pad1)*%
%TA.AperFunction,SMDPad,CuDef*%
G36*
G01*
X373875000Y-131275000D02*
X373325000Y-131275000D01*
G75*
G02*
X373125000Y-131075000I0J200000D01*
G01*
X373125000Y-130675000D01*
G75*
G02*
X373325000Y-130475000I200000J0D01*
G01*
X373875000Y-130475000D01*
G75*
G02*
X374075000Y-130675000I0J-200000D01*
G01*
X374075000Y-131075000D01*
G75*
G02*
X373875000Y-131275000I-200000J0D01*
G01*
G37*
%TD.AperFunction*%
%TO.P,R1,1*%
%TO.N,+12V*%
%TA.AperFunction,SMDPad,CuDef*%
G36*
G01*
X373875000Y-132925000D02*
X373325000Y-132925000D01*
G75*
G02*
X373125000Y-132725000I0J200000D01*
G01*
X373125000Y-132325000D01*
G75*
G02*
X373325000Y-132125000I200000J0D01*
G01*
X373875000Y-132125000D01*
G75*
G02*
X374075000Y-132325000I0J-200000D01*
G01*
X374075000Y-132725000D01*
G75*
G02*
X373875000Y-132925000I-200000J0D01*
G01*
G37*
%TD.AperFunction*%
%TD*%
D12*
%TO.P,Q14,3*%
%TO.N,Net-(J4-Pad6)*%
X415782000Y-134366000D03*
%TO.P,Q14,2*%
%TO.N,GND*%
X413782000Y-135316000D03*
%TO.P,Q14,1*%
%TO.N,Net-(Q14-Pad1)*%
X413782000Y-133416000D03*
%TD*%
%TO.P,Q13,3*%
%TO.N,Net-(D8-Pad1)*%
X391938000Y-106172000D03*
%TO.P,Q13,2*%
%TO.N,+28V*%
X393938000Y-105222000D03*
%TO.P,Q13,1*%
%TO.N,Net-(Q13-Pad1)*%
X393938000Y-107122000D03*
%TD*%
D13*
%TO.P,Q12,3*%
%TO.N,Net-(D7-Pad1)*%
X411480000Y-107966000D03*
%TO.P,Q12,2*%
%TO.N,+28V*%
X412430000Y-109966000D03*
%TO.P,Q12,1*%
%TO.N,Net-(Q12-Pad1)*%
X410530000Y-109966000D03*
%TD*%
%TO.P,Q11,3*%
%TO.N,Net-(D4-Pad2)*%
X387096000Y-107712000D03*
%TO.P,Q11,2*%
%TO.N,GND*%
X388046000Y-109712000D03*
%TO.P,Q11,1*%
%TO.N,Net-(Q11-Pad1)*%
X386146000Y-109712000D03*
%TD*%
%TO.P,Q10,3*%
%TO.N,Net-(D1-Pad2)*%
X401828000Y-110252000D03*
%TO.P,Q10,2*%
%TO.N,GND*%
X402778000Y-112252000D03*
%TO.P,Q10,1*%
%TO.N,Net-(Q10-Pad1)*%
X400878000Y-112252000D03*
%TD*%
D14*
%TO.P,D8,2*%
%TO.N,GND*%
X395856000Y-110490000D03*
%TO.P,D8,1*%
%TO.N,Net-(D8-Pad1)*%
X398656000Y-110490000D03*
%TD*%
%TO.P,D7,2*%
%TO.N,GND*%
X413388000Y-105664000D03*
%TO.P,D7,1*%
%TO.N,Net-(D7-Pad1)*%
X410588000Y-105664000D03*
%TD*%
%TO.P,D4,2*%
%TO.N,Net-(D4-Pad2)*%
X386712000Y-105664000D03*
%TO.P,D4,1*%
%TO.N,+28V*%
X389512000Y-105664000D03*
%TD*%
%TO.P,D1,2*%
%TO.N,Net-(D1-Pad2)*%
X405130000Y-110360000D03*
%TO.P,D1,1*%
%TO.N,+28V*%
X405130000Y-113160000D03*
%TD*%
%TO.P,C9,2*%
%TO.N,GND*%
%TA.AperFunction,SMDPad,CuDef*%
G36*
G01*
X375991000Y-126996000D02*
X375991000Y-126496000D01*
G75*
G02*
X376216000Y-126271000I225000J0D01*
G01*
X376666000Y-126271000D01*
G75*
G02*
X376891000Y-126496000I0J-225000D01*
G01*
X376891000Y-126996000D01*
G75*
G02*
X376666000Y-127221000I-225000J0D01*
G01*
X376216000Y-127221000D01*
G75*
G02*
X375991000Y-126996000I0J225000D01*
G01*
G37*
%TD.AperFunction*%
%TO.P,C9,1*%
%TO.N,Net-(C9-Pad1)*%
%TA.AperFunction,SMDPad,CuDef*%
G36*
G01*
X374441000Y-126996000D02*
X374441000Y-126496000D01*
G75*
G02*
X374666000Y-126271000I225000J0D01*
G01*
X375116000Y-126271000D01*
G75*
G02*
X375341000Y-126496000I0J-225000D01*
G01*
X375341000Y-126996000D01*
G75*
G02*
X375116000Y-127221000I-225000J0D01*
G01*
X374666000Y-127221000D01*
G75*
G02*
X374441000Y-126996000I0J225000D01*
G01*
G37*
%TD.AperFunction*%
%TD*%
%TO.P,C7,2*%
%TO.N,GND*%
%TA.AperFunction,SMDPad,CuDef*%
G36*
G01*
X373197000Y-129282000D02*
X373197000Y-128782000D01*
G75*
G02*
X373422000Y-128557000I225000J0D01*
G01*
X373872000Y-128557000D01*
G75*
G02*
X374097000Y-128782000I0J-225000D01*
G01*
X374097000Y-129282000D01*
G75*
G02*
X373872000Y-129507000I-225000J0D01*
G01*
X373422000Y-129507000D01*
G75*
G02*
X373197000Y-129282000I0J225000D01*
G01*
G37*
%TD.AperFunction*%
%TO.P,C7,1*%
%TO.N,Net-(C7-Pad1)*%
%TA.AperFunction,SMDPad,CuDef*%
G36*
G01*
X371647000Y-129282000D02*
X371647000Y-128782000D01*
G75*
G02*
X371872000Y-128557000I225000J0D01*
G01*
X372322000Y-128557000D01*
G75*
G02*
X372547000Y-128782000I0J-225000D01*
G01*
X372547000Y-129282000D01*
G75*
G02*
X372322000Y-129507000I-225000J0D01*
G01*
X371872000Y-129507000D01*
G75*
G02*
X371647000Y-129282000I0J225000D01*
G01*
G37*
%TD.AperFunction*%
%TD*%
D15*
%TO.P,Q8,3*%
%TO.N,Net-(Q8-Pad3)*%
X409940000Y-129286000D03*
%TO.P,Q8,2*%
%TO.N,GND*%
X407940000Y-129936000D03*
%TO.P,Q8,1*%
%TO.N,Net-(Q8-Pad1)*%
X407940000Y-128636000D03*
%TD*%
%TO.P,Q3,3*%
%TO.N,Net-(Q3-Pad3)*%
X404800000Y-120300000D03*
%TO.P,Q3,2*%
%TO.N,GND*%
X402800000Y-120950000D03*
%TO.P,Q3,1*%
%TO.N,Net-(Q3-Pad1)*%
X402800000Y-119650000D03*
%TD*%
%TO.P,Q2,3*%
%TO.N,Net-(Q2-Pad3)*%
X410194000Y-119888000D03*
%TO.P,Q2,2*%
%TO.N,GND*%
X408194000Y-120538000D03*
%TO.P,Q2,1*%
%TO.N,Net-(Q2-Pad1)*%
X408194000Y-119238000D03*
%TD*%
%TO.P,Q1,3*%
%TO.N,Net-(Q1-Pad3)*%
X377428000Y-131572000D03*
%TO.P,Q1,2*%
%TO.N,GND*%
X375428000Y-132222000D03*
%TO.P,Q1,1*%
%TO.N,Net-(C5-Pad1)*%
X375428000Y-130922000D03*
%TD*%
%TO.P,U2,20*%
%TO.N,GND*%
%TA.AperFunction,SMDPad,CuDef*%
G36*
G01*
X385595000Y-117787000D02*
X385295000Y-117787000D01*
G75*
G02*
X385145000Y-117637000I0J150000D01*
G01*
X385145000Y-115887000D01*
G75*
G02*
X385295000Y-115737000I150000J0D01*
G01*
X385595000Y-115737000D01*
G75*
G02*
X385745000Y-115887000I0J-150000D01*
G01*
X385745000Y-117637000D01*
G75*
G02*
X385595000Y-117787000I-150000J0D01*
G01*
G37*
%TD.AperFunction*%
%TO.P,U2,19*%
%TO.N,Net-(R5-Pad2)*%
%TA.AperFunction,SMDPad,CuDef*%
G36*
G01*
X386865000Y-117787000D02*
X386565000Y-117787000D01*
G75*
G02*
X386415000Y-117637000I0J150000D01*
G01*
X386415000Y-115887000D01*
G75*
G02*
X386565000Y-115737000I150000J0D01*
G01*
X386865000Y-115737000D01*
G75*
G02*
X387015000Y-115887000I0J-150000D01*
G01*
X387015000Y-117637000D01*
G75*
G02*
X386865000Y-117787000I-150000J0D01*
G01*
G37*
%TD.AperFunction*%
%TO.P,U2,18*%
%TO.N,Net-(R2-Pad2)*%
%TA.AperFunction,SMDPad,CuDef*%
G36*
G01*
X388135000Y-117787000D02*
X387835000Y-117787000D01*
G75*
G02*
X387685000Y-117637000I0J150000D01*
G01*
X387685000Y-115887000D01*
G75*
G02*
X387835000Y-115737000I150000J0D01*
G01*
X388135000Y-115737000D01*
G75*
G02*
X388285000Y-115887000I0J-150000D01*
G01*
X388285000Y-117637000D01*
G75*
G02*
X388135000Y-117787000I-150000J0D01*
G01*
G37*
%TD.AperFunction*%
%TO.P,U2,17*%
%TO.N,Net-(Q7-Pad1)*%
%TA.AperFunction,SMDPad,CuDef*%
G36*
G01*
X389405000Y-117787000D02*
X389105000Y-117787000D01*
G75*
G02*
X388955000Y-117637000I0J150000D01*
G01*
X388955000Y-115887000D01*
G75*
G02*
X389105000Y-115737000I150000J0D01*
G01*
X389405000Y-115737000D01*
G75*
G02*
X389555000Y-115887000I0J-150000D01*
G01*
X389555000Y-117637000D01*
G75*
G02*
X389405000Y-117787000I-150000J0D01*
G01*
G37*
%TD.AperFunction*%
%TO.P,U2,16*%
%TO.N,Net-(J2-Pad3)*%
%TA.AperFunction,SMDPad,CuDef*%
G36*
G01*
X390675000Y-117787000D02*
X390375000Y-117787000D01*
G75*
G02*
X390225000Y-117637000I0J150000D01*
G01*
X390225000Y-115887000D01*
G75*
G02*
X390375000Y-115737000I150000J0D01*
G01*
X390675000Y-115737000D01*
G75*
G02*
X390825000Y-115887000I0J-150000D01*
G01*
X390825000Y-117637000D01*
G75*
G02*
X390675000Y-117787000I-150000J0D01*
G01*
G37*
%TD.AperFunction*%
%TO.P,U2,15*%
%TO.N,Net-(C8-Pad1)*%
%TA.AperFunction,SMDPad,CuDef*%
G36*
G01*
X391945000Y-117787000D02*
X391645000Y-117787000D01*
G75*
G02*
X391495000Y-117637000I0J150000D01*
G01*
X391495000Y-115887000D01*
G75*
G02*
X391645000Y-115737000I150000J0D01*
G01*
X391945000Y-115737000D01*
G75*
G02*
X392095000Y-115887000I0J-150000D01*
G01*
X392095000Y-117637000D01*
G75*
G02*
X391945000Y-117787000I-150000J0D01*
G01*
G37*
%TD.AperFunction*%
%TO.P,U2,14*%
%TO.N,Net-(C9-Pad1)*%
%TA.AperFunction,SMDPad,CuDef*%
G36*
G01*
X393215000Y-117787000D02*
X392915000Y-117787000D01*
G75*
G02*
X392765000Y-117637000I0J150000D01*
G01*
X392765000Y-115887000D01*
G75*
G02*
X392915000Y-115737000I150000J0D01*
G01*
X393215000Y-115737000D01*
G75*
G02*
X393365000Y-115887000I0J-150000D01*
G01*
X393365000Y-117637000D01*
G75*
G02*
X393215000Y-117787000I-150000J0D01*
G01*
G37*
%TD.AperFunction*%
%TO.P,U2,13*%
%TO.N,Net-(Q2-Pad1)*%
%TA.AperFunction,SMDPad,CuDef*%
G36*
G01*
X394485000Y-117787000D02*
X394185000Y-117787000D01*
G75*
G02*
X394035000Y-117637000I0J150000D01*
G01*
X394035000Y-115887000D01*
G75*
G02*
X394185000Y-115737000I150000J0D01*
G01*
X394485000Y-115737000D01*
G75*
G02*
X394635000Y-115887000I0J-150000D01*
G01*
X394635000Y-117637000D01*
G75*
G02*
X394485000Y-117787000I-150000J0D01*
G01*
G37*
%TD.AperFunction*%
%TO.P,U2,12*%
%TO.N,Net-(Q3-Pad1)*%
%TA.AperFunction,SMDPad,CuDef*%
G36*
G01*
X395755000Y-117787000D02*
X395455000Y-117787000D01*
G75*
G02*
X395305000Y-117637000I0J150000D01*
G01*
X395305000Y-115887000D01*
G75*
G02*
X395455000Y-115737000I150000J0D01*
G01*
X395755000Y-115737000D01*
G75*
G02*
X395905000Y-115887000I0J-150000D01*
G01*
X395905000Y-117637000D01*
G75*
G02*
X395755000Y-117787000I-150000J0D01*
G01*
G37*
%TD.AperFunction*%
%TO.P,U2,11*%
%TO.N,Net-(JP4-Pad2)*%
%TA.AperFunction,SMDPad,CuDef*%
G36*
G01*
X397025000Y-117787000D02*
X396725000Y-117787000D01*
G75*
G02*
X396575000Y-117637000I0J150000D01*
G01*
X396575000Y-115887000D01*
G75*
G02*
X396725000Y-115737000I150000J0D01*
G01*
X397025000Y-115737000D01*
G75*
G02*
X397175000Y-115887000I0J-150000D01*
G01*
X397175000Y-117637000D01*
G75*
G02*
X397025000Y-117787000I-150000J0D01*
G01*
G37*
%TD.AperFunction*%
%TO.P,U2,10*%
%TO.N,Net-(Q14-Pad1)*%
%TA.AperFunction,SMDPad,CuDef*%
G36*
G01*
X397025000Y-127087000D02*
X396725000Y-127087000D01*
G75*
G02*
X396575000Y-126937000I0J150000D01*
G01*
X396575000Y-125187000D01*
G75*
G02*
X396725000Y-125037000I150000J0D01*
G01*
X397025000Y-125037000D01*
G75*
G02*
X397175000Y-125187000I0J-150000D01*
G01*
X397175000Y-126937000D01*
G75*
G02*
X397025000Y-127087000I-150000J0D01*
G01*
G37*
%TD.AperFunction*%
%TO.P,U2,9*%
%TO.N,Net-(JP2-Pad2)*%
%TA.AperFunction,SMDPad,CuDef*%
G36*
G01*
X395755000Y-127087000D02*
X395455000Y-127087000D01*
G75*
G02*
X395305000Y-126937000I0J150000D01*
G01*
X395305000Y-125187000D01*
G75*
G02*
X395455000Y-125037000I150000J0D01*
G01*
X395755000Y-125037000D01*
G75*
G02*
X395905000Y-125187000I0J-150000D01*
G01*
X395905000Y-126937000D01*
G75*
G02*
X395755000Y-127087000I-150000J0D01*
G01*
G37*
%TD.AperFunction*%
%TO.P,U2,8*%
%TO.N,Net-(Q1-Pad3)*%
%TA.AperFunction,SMDPad,CuDef*%
G36*
G01*
X394485000Y-127087000D02*
X394185000Y-127087000D01*
G75*
G02*
X394035000Y-126937000I0J150000D01*
G01*
X394035000Y-125187000D01*
G75*
G02*
X394185000Y-125037000I150000J0D01*
G01*
X394485000Y-125037000D01*
G75*
G02*
X394635000Y-125187000I0J-150000D01*
G01*
X394635000Y-126937000D01*
G75*
G02*
X394485000Y-127087000I-150000J0D01*
G01*
G37*
%TD.AperFunction*%
%TO.P,U2,7*%
%TO.N,Net-(JP3-Pad2)*%
%TA.AperFunction,SMDPad,CuDef*%
G36*
G01*
X393215000Y-127087000D02*
X392915000Y-127087000D01*
G75*
G02*
X392765000Y-126937000I0J150000D01*
G01*
X392765000Y-125187000D01*
G75*
G02*
X392915000Y-125037000I150000J0D01*
G01*
X393215000Y-125037000D01*
G75*
G02*
X393365000Y-125187000I0J-150000D01*
G01*
X393365000Y-126937000D01*
G75*
G02*
X393215000Y-127087000I-150000J0D01*
G01*
G37*
%TD.AperFunction*%
%TO.P,U2,6*%
%TO.N,Net-(Q8-Pad1)*%
%TA.AperFunction,SMDPad,CuDef*%
G36*
G01*
X391945000Y-127087000D02*
X391645000Y-127087000D01*
G75*
G02*
X391495000Y-126937000I0J150000D01*
G01*
X391495000Y-125187000D01*
G75*
G02*
X391645000Y-125037000I150000J0D01*
G01*
X391945000Y-125037000D01*
G75*
G02*
X392095000Y-125187000I0J-150000D01*
G01*
X392095000Y-126937000D01*
G75*
G02*
X391945000Y-127087000I-150000J0D01*
G01*
G37*
%TD.AperFunction*%
%TO.P,U2,5*%
%TO.N,Net-(R17-Pad2)*%
%TA.AperFunction,SMDPad,CuDef*%
G36*
G01*
X390675000Y-127087000D02*
X390375000Y-127087000D01*
G75*
G02*
X390225000Y-126937000I0J150000D01*
G01*
X390225000Y-125187000D01*
G75*
G02*
X390375000Y-125037000I150000J0D01*
G01*
X390675000Y-125037000D01*
G75*
G02*
X390825000Y-125187000I0J-150000D01*
G01*
X390825000Y-126937000D01*
G75*
G02*
X390675000Y-127087000I-150000J0D01*
G01*
G37*
%TD.AperFunction*%
%TO.P,U2,4*%
%TO.N,Net-(C7-Pad1)*%
%TA.AperFunction,SMDPad,CuDef*%
G36*
G01*
X389405000Y-127087000D02*
X389105000Y-127087000D01*
G75*
G02*
X388955000Y-126937000I0J150000D01*
G01*
X388955000Y-125187000D01*
G75*
G02*
X389105000Y-125037000I150000J0D01*
G01*
X389405000Y-125037000D01*
G75*
G02*
X389555000Y-125187000I0J-150000D01*
G01*
X389555000Y-126937000D01*
G75*
G02*
X389405000Y-127087000I-150000J0D01*
G01*
G37*
%TD.AperFunction*%
%TO.P,U2,3*%
%TO.N,Net-(R11-Pad1)*%
%TA.AperFunction,SMDPad,CuDef*%
G36*
G01*
X388135000Y-127087000D02*
X387835000Y-127087000D01*
G75*
G02*
X387685000Y-126937000I0J150000D01*
G01*
X387685000Y-125187000D01*
G75*
G02*
X387835000Y-125037000I150000J0D01*
G01*
X388135000Y-125037000D01*
G75*
G02*
X388285000Y-125187000I0J-150000D01*
G01*
X388285000Y-126937000D01*
G75*
G02*
X388135000Y-127087000I-150000J0D01*
G01*
G37*
%TD.AperFunction*%
%TO.P,U2,2*%
%TO.N,Net-(JP1-Pad2)*%
%TA.AperFunction,SMDPad,CuDef*%
G36*
G01*
X386865000Y-127087000D02*
X386565000Y-127087000D01*
G75*
G02*
X386415000Y-126937000I0J150000D01*
G01*
X386415000Y-125187000D01*
G75*
G02*
X386565000Y-125037000I150000J0D01*
G01*
X386865000Y-125037000D01*
G75*
G02*
X387015000Y-125187000I0J-150000D01*
G01*
X387015000Y-126937000D01*
G75*
G02*
X386865000Y-127087000I-150000J0D01*
G01*
G37*
%TD.AperFunction*%
%TO.P,U2,1*%
%TO.N,Net-(C1-Pad1)*%
%TA.AperFunction,SMDPad,CuDef*%
G36*
G01*
X385595000Y-127087000D02*
X385295000Y-127087000D01*
G75*
G02*
X385145000Y-126937000I0J150000D01*
G01*
X385145000Y-125187000D01*
G75*
G02*
X385295000Y-125037000I150000J0D01*
G01*
X385595000Y-125037000D01*
G75*
G02*
X385745000Y-125187000I0J-150000D01*
G01*
X385745000Y-126937000D01*
G75*
G02*
X385595000Y-127087000I-150000J0D01*
G01*
G37*
%TD.AperFunction*%
%TD*%
D12*
%TO.P,Q7,3*%
%TO.N,Net-(D5-Pad2)*%
X416290000Y-115824000D03*
%TO.P,Q7,2*%
%TO.N,GND*%
X414290000Y-116774000D03*
%TO.P,Q7,1*%
%TO.N,Net-(Q7-Pad1)*%
X414290000Y-114874000D03*
%TD*%
%TO.P,C8,2*%
%TO.N,GND*%
%TA.AperFunction,SMDPad,CuDef*%
G36*
G01*
X372114000Y-124277000D02*
X372614000Y-124277000D01*
G75*
G02*
X372839000Y-124502000I0J-225000D01*
G01*
X372839000Y-124952000D01*
G75*
G02*
X372614000Y-125177000I-225000J0D01*
G01*
X372114000Y-125177000D01*
G75*
G02*
X371889000Y-124952000I0J225000D01*
G01*
X371889000Y-124502000D01*
G75*
G02*
X372114000Y-124277000I225000J0D01*
G01*
G37*
%TD.AperFunction*%
%TO.P,C8,1*%
%TO.N,Net-(C8-Pad1)*%
%TA.AperFunction,SMDPad,CuDef*%
G36*
G01*
X372114000Y-122727000D02*
X372614000Y-122727000D01*
G75*
G02*
X372839000Y-122952000I0J-225000D01*
G01*
X372839000Y-123402000D01*
G75*
G02*
X372614000Y-123627000I-225000J0D01*
G01*
X372114000Y-123627000D01*
G75*
G02*
X371889000Y-123402000I0J225000D01*
G01*
X371889000Y-122952000D01*
G75*
G02*
X372114000Y-122727000I225000J0D01*
G01*
G37*
%TD.AperFunction*%
%TD*%
%TO.P,C6,2*%
%TO.N,GND*%
%TA.AperFunction,SMDPad,CuDef*%
G36*
G01*
X378643000Y-110748000D02*
X378643000Y-111248000D01*
G75*
G02*
X378418000Y-111473000I-225000J0D01*
G01*
X377968000Y-111473000D01*
G75*
G02*
X377743000Y-111248000I0J225000D01*
G01*
X377743000Y-110748000D01*
G75*
G02*
X377968000Y-110523000I225000J0D01*
G01*
X378418000Y-110523000D01*
G75*
G02*
X378643000Y-110748000I0J-225000D01*
G01*
G37*
%TD.AperFunction*%
%TO.P,C6,1*%
%TO.N,+12V*%
%TA.AperFunction,SMDPad,CuDef*%
G36*
G01*
X380193000Y-110748000D02*
X380193000Y-111248000D01*
G75*
G02*
X379968000Y-111473000I-225000J0D01*
G01*
X379518000Y-111473000D01*
G75*
G02*
X379293000Y-111248000I0J225000D01*
G01*
X379293000Y-110748000D01*
G75*
G02*
X379518000Y-110523000I225000J0D01*
G01*
X379968000Y-110523000D01*
G75*
G02*
X380193000Y-110748000I0J-225000D01*
G01*
G37*
%TD.AperFunction*%
%TD*%
%TO.P,C5,2*%
%TO.N,GND*%
%TA.AperFunction,SMDPad,CuDef*%
G36*
G01*
X371550000Y-132025000D02*
X372050000Y-132025000D01*
G75*
G02*
X372275000Y-132250000I0J-225000D01*
G01*
X372275000Y-132700000D01*
G75*
G02*
X372050000Y-132925000I-225000J0D01*
G01*
X371550000Y-132925000D01*
G75*
G02*
X371325000Y-132700000I0J225000D01*
G01*
X371325000Y-132250000D01*
G75*
G02*
X371550000Y-132025000I225000J0D01*
G01*
G37*
%TD.AperFunction*%
%TO.P,C5,1*%
%TO.N,Net-(C5-Pad1)*%
%TA.AperFunction,SMDPad,CuDef*%
G36*
G01*
X371550000Y-130475000D02*
X372050000Y-130475000D01*
G75*
G02*
X372275000Y-130700000I0J-225000D01*
G01*
X372275000Y-131150000D01*
G75*
G02*
X372050000Y-131375000I-225000J0D01*
G01*
X371550000Y-131375000D01*
G75*
G02*
X371325000Y-131150000I0J225000D01*
G01*
X371325000Y-130700000D01*
G75*
G02*
X371550000Y-130475000I225000J0D01*
G01*
G37*
%TD.AperFunction*%
%TD*%
%TO.P,Q9,3*%
%TO.N,Net-(J4-Pad5)*%
X416036000Y-129032000D03*
%TO.P,Q9,2*%
%TO.N,+12V*%
X414036000Y-129982000D03*
%TO.P,Q9,1*%
%TO.N,Net-(Q8-Pad3)*%
X414036000Y-128082000D03*
%TD*%
%TO.P,R23,2*%
%TO.N,Net-(D6-Pad2)*%
%TA.AperFunction,SMDPad,CuDef*%
G36*
G01*
X414865000Y-125455000D02*
X414865000Y-126005000D01*
G75*
G02*
X414665000Y-126205000I-200000J0D01*
G01*
X414265000Y-126205000D01*
G75*
G02*
X414065000Y-126005000I0J200000D01*
G01*
X414065000Y-125455000D01*
G75*
G02*
X414265000Y-125255000I200000J0D01*
G01*
X414665000Y-125255000D01*
G75*
G02*
X414865000Y-125455000I0J-200000D01*
G01*
G37*
%TD.AperFunction*%
%TO.P,R23,1*%
%TO.N,Net-(J4-Pad5)*%
%TA.AperFunction,SMDPad,CuDef*%
G36*
G01*
X416515000Y-125455000D02*
X416515000Y-126005000D01*
G75*
G02*
X416315000Y-126205000I-200000J0D01*
G01*
X415915000Y-126205000D01*
G75*
G02*
X415715000Y-126005000I0J200000D01*
G01*
X415715000Y-125455000D01*
G75*
G02*
X415915000Y-125255000I200000J0D01*
G01*
X416315000Y-125255000D01*
G75*
G02*
X416515000Y-125455000I0J-200000D01*
G01*
G37*
%TD.AperFunction*%
%TD*%
%TO.P,R22,2*%
%TO.N,Net-(Q8-Pad3)*%
%TA.AperFunction,SMDPad,CuDef*%
G36*
G01*
X412263000Y-128607000D02*
X411713000Y-128607000D01*
G75*
G02*
X411513000Y-128407000I0J200000D01*
G01*
X411513000Y-128007000D01*
G75*
G02*
X411713000Y-127807000I200000J0D01*
G01*
X412263000Y-127807000D01*
G75*
G02*
X412463000Y-128007000I0J-200000D01*
G01*
X412463000Y-128407000D01*
G75*
G02*
X412263000Y-128607000I-200000J0D01*
G01*
G37*
%TD.AperFunction*%
%TO.P,R22,1*%
%TO.N,+12V*%
%TA.AperFunction,SMDPad,CuDef*%
G36*
G01*
X412263000Y-130257000D02*
X411713000Y-130257000D01*
G75*
G02*
X411513000Y-130057000I0J200000D01*
G01*
X411513000Y-129657000D01*
G75*
G02*
X411713000Y-129457000I200000J0D01*
G01*
X412263000Y-129457000D01*
G75*
G02*
X412463000Y-129657000I0J-200000D01*
G01*
X412463000Y-130057000D01*
G75*
G02*
X412263000Y-130257000I-200000J0D01*
G01*
G37*
%TD.AperFunction*%
%TD*%
%TO.P,D6,2*%
%TO.N,Net-(D6-Pad2)*%
%TA.AperFunction,SMDPad,CuDef*%
G36*
G01*
X412084000Y-125986250D02*
X412084000Y-125473750D01*
G75*
G02*
X412302750Y-125255000I218750J0D01*
G01*
X412740250Y-125255000D01*
G75*
G02*
X412959000Y-125473750I0J-218750D01*
G01*
X412959000Y-125986250D01*
G75*
G02*
X412740250Y-126205000I-218750J0D01*
G01*
X412302750Y-126205000D01*
G75*
G02*
X412084000Y-125986250I0J218750D01*
G01*
G37*
%TD.AperFunction*%
%TO.P,D6,1*%
%TO.N,GND*%
%TA.AperFunction,SMDPad,CuDef*%
G36*
G01*
X410509000Y-125986250D02*
X410509000Y-125473750D01*
G75*
G02*
X410727750Y-125255000I218750J0D01*
G01*
X411165250Y-125255000D01*
G75*
G02*
X411384000Y-125473750I0J-218750D01*
G01*
X411384000Y-125986250D01*
G75*
G02*
X411165250Y-126205000I-218750J0D01*
G01*
X410727750Y-126205000D01*
G75*
G02*
X410509000Y-125986250I0J218750D01*
G01*
G37*
%TD.AperFunction*%
%TD*%
D16*
%TO.P,D3,2*%
%TO.N,Net-(C3-Pad1)*%
X397288000Y-139738100D03*
%TO.P,D3,1*%
%TO.N,+28V*%
X401288000Y-139738100D03*
%TD*%
D12*
%TO.P,Q6,3*%
%TO.N,Net-(C3-Pad1)*%
X396852900Y-135064500D03*
%TO.P,Q6,2*%
%TO.N,GND*%
X398852900Y-134114500D03*
%TO.P,Q6,1*%
%TO.N,Net-(Q6-Pad1)*%
X398852900Y-136014500D03*
%TD*%
D17*
%TO.P,L1,2*%
%TO.N,Net-(C3-Pad1)*%
X393316000Y-135890000D03*
%TO.P,L1,1*%
%TO.N,+12V*%
X383416000Y-135890000D03*
%TD*%
D18*
%TO.P,U1,1*%
%TO.N,Net-(R3-Pad2)*%
X379832000Y-118124000D03*
%TO.P,U1,3*%
%TO.N,+12V*%
X379832000Y-113524000D03*
%TO.P,U1,2*%
%TO.N,Net-(C1-Pad1)*%
X379832000Y-115824000D03*
D19*
X373532000Y-115824000D03*
%TD*%
%TO.P,R19,2*%
%TO.N,GND*%
%TA.AperFunction,SMDPad,CuDef*%
G36*
G01*
X411967000Y-116249000D02*
X412517000Y-116249000D01*
G75*
G02*
X412717000Y-116449000I0J-200000D01*
G01*
X412717000Y-116849000D01*
G75*
G02*
X412517000Y-117049000I-200000J0D01*
G01*
X411967000Y-117049000D01*
G75*
G02*
X411767000Y-116849000I0J200000D01*
G01*
X411767000Y-116449000D01*
G75*
G02*
X411967000Y-116249000I200000J0D01*
G01*
G37*
%TD.AperFunction*%
%TO.P,R19,1*%
%TO.N,Net-(Q7-Pad1)*%
%TA.AperFunction,SMDPad,CuDef*%
G36*
G01*
X411967000Y-114599000D02*
X412517000Y-114599000D01*
G75*
G02*
X412717000Y-114799000I0J-200000D01*
G01*
X412717000Y-115199000D01*
G75*
G02*
X412517000Y-115399000I-200000J0D01*
G01*
X411967000Y-115399000D01*
G75*
G02*
X411767000Y-115199000I0J200000D01*
G01*
X411767000Y-114799000D01*
G75*
G02*
X411967000Y-114599000I200000J0D01*
G01*
G37*
%TD.AperFunction*%
%TD*%
%TO.P,R18,2*%
%TO.N,GND*%
%TA.AperFunction,SMDPad,CuDef*%
G36*
G01*
X403625000Y-130525000D02*
X404175000Y-130525000D01*
G75*
G02*
X404375000Y-130725000I0J-200000D01*
G01*
X404375000Y-131125000D01*
G75*
G02*
X404175000Y-131325000I-200000J0D01*
G01*
X403625000Y-131325000D01*
G75*
G02*
X403425000Y-131125000I0J200000D01*
G01*
X403425000Y-130725000D01*
G75*
G02*
X403625000Y-130525000I200000J0D01*
G01*
G37*
%TD.AperFunction*%
%TO.P,R18,1*%
%TO.N,Net-(R17-Pad2)*%
%TA.AperFunction,SMDPad,CuDef*%
G36*
G01*
X403625000Y-128875000D02*
X404175000Y-128875000D01*
G75*
G02*
X404375000Y-129075000I0J-200000D01*
G01*
X404375000Y-129475000D01*
G75*
G02*
X404175000Y-129675000I-200000J0D01*
G01*
X403625000Y-129675000D01*
G75*
G02*
X403425000Y-129475000I0J200000D01*
G01*
X403425000Y-129075000D01*
G75*
G02*
X403625000Y-128875000I200000J0D01*
G01*
G37*
%TD.AperFunction*%
%TD*%
%TO.P,R17,2*%
%TO.N,Net-(R17-Pad2)*%
%TA.AperFunction,SMDPad,CuDef*%
G36*
G01*
X401506100Y-128454600D02*
X400956100Y-128454600D01*
G75*
G02*
X400756100Y-128254600I0J200000D01*
G01*
X400756100Y-127854600D01*
G75*
G02*
X400956100Y-127654600I200000J0D01*
G01*
X401506100Y-127654600D01*
G75*
G02*
X401706100Y-127854600I0J-200000D01*
G01*
X401706100Y-128254600D01*
G75*
G02*
X401506100Y-128454600I-200000J0D01*
G01*
G37*
%TD.AperFunction*%
%TO.P,R17,1*%
%TO.N,+28V*%
%TA.AperFunction,SMDPad,CuDef*%
G36*
G01*
X401506100Y-130104600D02*
X400956100Y-130104600D01*
G75*
G02*
X400756100Y-129904600I0J200000D01*
G01*
X400756100Y-129504600D01*
G75*
G02*
X400956100Y-129304600I200000J0D01*
G01*
X401506100Y-129304600D01*
G75*
G02*
X401706100Y-129504600I0J-200000D01*
G01*
X401706100Y-129904600D01*
G75*
G02*
X401506100Y-130104600I-200000J0D01*
G01*
G37*
%TD.AperFunction*%
%TD*%
%TO.P,R15,2*%
%TO.N,GND*%
%TA.AperFunction,SMDPad,CuDef*%
G36*
G01*
X401493400Y-132277300D02*
X400943400Y-132277300D01*
G75*
G02*
X400743400Y-132077300I0J200000D01*
G01*
X400743400Y-131677300D01*
G75*
G02*
X400943400Y-131477300I200000J0D01*
G01*
X401493400Y-131477300D01*
G75*
G02*
X401693400Y-131677300I0J-200000D01*
G01*
X401693400Y-132077300D01*
G75*
G02*
X401493400Y-132277300I-200000J0D01*
G01*
G37*
%TD.AperFunction*%
%TO.P,R15,1*%
%TO.N,Net-(C3-Pad2)*%
%TA.AperFunction,SMDPad,CuDef*%
G36*
G01*
X401493400Y-133927300D02*
X400943400Y-133927300D01*
G75*
G02*
X400743400Y-133727300I0J200000D01*
G01*
X400743400Y-133327300D01*
G75*
G02*
X400943400Y-133127300I200000J0D01*
G01*
X401493400Y-133127300D01*
G75*
G02*
X401693400Y-133327300I0J-200000D01*
G01*
X401693400Y-133727300D01*
G75*
G02*
X401493400Y-133927300I-200000J0D01*
G01*
G37*
%TD.AperFunction*%
%TD*%
%TO.P,R14,2*%
%TO.N,Net-(D2-Pad2)*%
%TA.AperFunction,SMDPad,CuDef*%
G36*
G01*
X414865000Y-122915000D02*
X414865000Y-123465000D01*
G75*
G02*
X414665000Y-123665000I-200000J0D01*
G01*
X414265000Y-123665000D01*
G75*
G02*
X414065000Y-123465000I0J200000D01*
G01*
X414065000Y-122915000D01*
G75*
G02*
X414265000Y-122715000I200000J0D01*
G01*
X414665000Y-122715000D01*
G75*
G02*
X414865000Y-122915000I0J-200000D01*
G01*
G37*
%TD.AperFunction*%
%TO.P,R14,1*%
%TO.N,Net-(J4-Pad4)*%
%TA.AperFunction,SMDPad,CuDef*%
G36*
G01*
X416515000Y-122915000D02*
X416515000Y-123465000D01*
G75*
G02*
X416315000Y-123665000I-200000J0D01*
G01*
X415915000Y-123665000D01*
G75*
G02*
X415715000Y-123465000I0J200000D01*
G01*
X415715000Y-122915000D01*
G75*
G02*
X415915000Y-122715000I200000J0D01*
G01*
X416315000Y-122715000D01*
G75*
G02*
X416515000Y-122915000I0J-200000D01*
G01*
G37*
%TD.AperFunction*%
%TD*%
%TO.P,R12,2*%
%TO.N,GND*%
%TA.AperFunction,SMDPad,CuDef*%
G36*
G01*
X398801000Y-130893000D02*
X398251000Y-130893000D01*
G75*
G02*
X398051000Y-130693000I0J200000D01*
G01*
X398051000Y-130293000D01*
G75*
G02*
X398251000Y-130093000I200000J0D01*
G01*
X398801000Y-130093000D01*
G75*
G02*
X399001000Y-130293000I0J-200000D01*
G01*
X399001000Y-130693000D01*
G75*
G02*
X398801000Y-130893000I-200000J0D01*
G01*
G37*
%TD.AperFunction*%
%TO.P,R12,1*%
%TO.N,Net-(Q6-Pad1)*%
%TA.AperFunction,SMDPad,CuDef*%
G36*
G01*
X398801000Y-132543000D02*
X398251000Y-132543000D01*
G75*
G02*
X398051000Y-132343000I0J200000D01*
G01*
X398051000Y-131943000D01*
G75*
G02*
X398251000Y-131743000I200000J0D01*
G01*
X398801000Y-131743000D01*
G75*
G02*
X399001000Y-131943000I0J-200000D01*
G01*
X399001000Y-132343000D01*
G75*
G02*
X398801000Y-132543000I-200000J0D01*
G01*
G37*
%TD.AperFunction*%
%TD*%
%TO.P,R11,2*%
%TO.N,Net-(Q6-Pad1)*%
%TA.AperFunction,SMDPad,CuDef*%
G36*
G01*
X396473000Y-131743000D02*
X397023000Y-131743000D01*
G75*
G02*
X397223000Y-131943000I0J-200000D01*
G01*
X397223000Y-132343000D01*
G75*
G02*
X397023000Y-132543000I-200000J0D01*
G01*
X396473000Y-132543000D01*
G75*
G02*
X396273000Y-132343000I0J200000D01*
G01*
X396273000Y-131943000D01*
G75*
G02*
X396473000Y-131743000I200000J0D01*
G01*
G37*
%TD.AperFunction*%
%TO.P,R11,1*%
%TO.N,Net-(R11-Pad1)*%
%TA.AperFunction,SMDPad,CuDef*%
G36*
G01*
X396473000Y-130093000D02*
X397023000Y-130093000D01*
G75*
G02*
X397223000Y-130293000I0J-200000D01*
G01*
X397223000Y-130693000D01*
G75*
G02*
X397023000Y-130893000I-200000J0D01*
G01*
X396473000Y-130893000D01*
G75*
G02*
X396273000Y-130693000I0J200000D01*
G01*
X396273000Y-130293000D01*
G75*
G02*
X396473000Y-130093000I200000J0D01*
G01*
G37*
%TD.AperFunction*%
%TD*%
%TO.P,R10,2*%
%TO.N,Net-(Q2-Pad3)*%
%TA.AperFunction,SMDPad,CuDef*%
G36*
G01*
X412517000Y-119463000D02*
X411967000Y-119463000D01*
G75*
G02*
X411767000Y-119263000I0J200000D01*
G01*
X411767000Y-118863000D01*
G75*
G02*
X411967000Y-118663000I200000J0D01*
G01*
X412517000Y-118663000D01*
G75*
G02*
X412717000Y-118863000I0J-200000D01*
G01*
X412717000Y-119263000D01*
G75*
G02*
X412517000Y-119463000I-200000J0D01*
G01*
G37*
%TD.AperFunction*%
%TO.P,R10,1*%
%TO.N,+12V*%
%TA.AperFunction,SMDPad,CuDef*%
G36*
G01*
X412517000Y-121113000D02*
X411967000Y-121113000D01*
G75*
G02*
X411767000Y-120913000I0J200000D01*
G01*
X411767000Y-120513000D01*
G75*
G02*
X411967000Y-120313000I200000J0D01*
G01*
X412517000Y-120313000D01*
G75*
G02*
X412717000Y-120513000I0J-200000D01*
G01*
X412717000Y-120913000D01*
G75*
G02*
X412517000Y-121113000I-200000J0D01*
G01*
G37*
%TD.AperFunction*%
%TD*%
%TO.P,R9,2*%
%TO.N,Net-(Q3-Pad3)*%
%TA.AperFunction,SMDPad,CuDef*%
G36*
G01*
X405405000Y-124035000D02*
X404855000Y-124035000D01*
G75*
G02*
X404655000Y-123835000I0J200000D01*
G01*
X404655000Y-123435000D01*
G75*
G02*
X404855000Y-123235000I200000J0D01*
G01*
X405405000Y-123235000D01*
G75*
G02*
X405605000Y-123435000I0J-200000D01*
G01*
X405605000Y-123835000D01*
G75*
G02*
X405405000Y-124035000I-200000J0D01*
G01*
G37*
%TD.AperFunction*%
%TO.P,R9,1*%
%TO.N,+12V*%
%TA.AperFunction,SMDPad,CuDef*%
G36*
G01*
X405405000Y-125685000D02*
X404855000Y-125685000D01*
G75*
G02*
X404655000Y-125485000I0J200000D01*
G01*
X404655000Y-125085000D01*
G75*
G02*
X404855000Y-124885000I200000J0D01*
G01*
X405405000Y-124885000D01*
G75*
G02*
X405605000Y-125085000I0J-200000D01*
G01*
X405605000Y-125485000D01*
G75*
G02*
X405405000Y-125685000I-200000J0D01*
G01*
G37*
%TD.AperFunction*%
%TD*%
%TO.P,R4,2*%
%TO.N,Net-(C1-Pad1)*%
%TA.AperFunction,SMDPad,CuDef*%
G36*
G01*
X375241000Y-120121000D02*
X375241000Y-120671000D01*
G75*
G02*
X375041000Y-120871000I-200000J0D01*
G01*
X374641000Y-120871000D01*
G75*
G02*
X374441000Y-120671000I0J200000D01*
G01*
X374441000Y-120121000D01*
G75*
G02*
X374641000Y-119921000I200000J0D01*
G01*
X375041000Y-119921000D01*
G75*
G02*
X375241000Y-120121000I0J-200000D01*
G01*
G37*
%TD.AperFunction*%
%TO.P,R4,1*%
%TO.N,Net-(R3-Pad2)*%
%TA.AperFunction,SMDPad,CuDef*%
G36*
G01*
X376891000Y-120121000D02*
X376891000Y-120671000D01*
G75*
G02*
X376691000Y-120871000I-200000J0D01*
G01*
X376291000Y-120871000D01*
G75*
G02*
X376091000Y-120671000I0J200000D01*
G01*
X376091000Y-120121000D01*
G75*
G02*
X376291000Y-119921000I200000J0D01*
G01*
X376691000Y-119921000D01*
G75*
G02*
X376891000Y-120121000I0J-200000D01*
G01*
G37*
%TD.AperFunction*%
%TD*%
%TO.P,R3,2*%
%TO.N,Net-(R3-Pad2)*%
%TA.AperFunction,SMDPad,CuDef*%
G36*
G01*
X378543000Y-120121000D02*
X378543000Y-120671000D01*
G75*
G02*
X378343000Y-120871000I-200000J0D01*
G01*
X377943000Y-120871000D01*
G75*
G02*
X377743000Y-120671000I0J200000D01*
G01*
X377743000Y-120121000D01*
G75*
G02*
X377943000Y-119921000I200000J0D01*
G01*
X378343000Y-119921000D01*
G75*
G02*
X378543000Y-120121000I0J-200000D01*
G01*
G37*
%TD.AperFunction*%
%TO.P,R3,1*%
%TO.N,GND*%
%TA.AperFunction,SMDPad,CuDef*%
G36*
G01*
X380193000Y-120121000D02*
X380193000Y-120671000D01*
G75*
G02*
X379993000Y-120871000I-200000J0D01*
G01*
X379593000Y-120871000D01*
G75*
G02*
X379393000Y-120671000I0J200000D01*
G01*
X379393000Y-120121000D01*
G75*
G02*
X379593000Y-119921000I200000J0D01*
G01*
X379993000Y-119921000D01*
G75*
G02*
X380193000Y-120121000I0J-200000D01*
G01*
G37*
%TD.AperFunction*%
%TD*%
D12*
%TO.P,Q5,3*%
%TO.N,Net-(J4-Pad3)*%
X416290000Y-119888000D03*
%TO.P,Q5,2*%
%TO.N,+12V*%
X414290000Y-120838000D03*
%TO.P,Q5,1*%
%TO.N,Net-(Q2-Pad3)*%
X414290000Y-118938000D03*
%TD*%
%TO.P,Q4,3*%
%TO.N,Net-(J4-Pad4)*%
X408924000Y-124206000D03*
%TO.P,Q4,2*%
%TO.N,+12V*%
X406924000Y-125156000D03*
%TO.P,Q4,1*%
%TO.N,Net-(Q3-Pad3)*%
X406924000Y-123256000D03*
%TD*%
D14*
%TO.P,D5,2*%
%TO.N,Net-(D5-Pad2)*%
X414652000Y-112268000D03*
%TO.P,D5,1*%
%TO.N,+28V*%
X417452000Y-112268000D03*
%TD*%
%TO.P,D2,2*%
%TO.N,Net-(D2-Pad2)*%
%TA.AperFunction,SMDPad,CuDef*%
G36*
G01*
X412084000Y-123446250D02*
X412084000Y-122933750D01*
G75*
G02*
X412302750Y-122715000I218750J0D01*
G01*
X412740250Y-122715000D01*
G75*
G02*
X412959000Y-122933750I0J-218750D01*
G01*
X412959000Y-123446250D01*
G75*
G02*
X412740250Y-123665000I-218750J0D01*
G01*
X412302750Y-123665000D01*
G75*
G02*
X412084000Y-123446250I0J218750D01*
G01*
G37*
%TD.AperFunction*%
%TO.P,D2,1*%
%TO.N,GND*%
%TA.AperFunction,SMDPad,CuDef*%
G36*
G01*
X410509000Y-123446250D02*
X410509000Y-122933750D01*
G75*
G02*
X410727750Y-122715000I218750J0D01*
G01*
X411165250Y-122715000D01*
G75*
G02*
X411384000Y-122933750I0J-218750D01*
G01*
X411384000Y-123446250D01*
G75*
G02*
X411165250Y-123665000I-218750J0D01*
G01*
X410727750Y-123665000D01*
G75*
G02*
X410509000Y-123446250I0J218750D01*
G01*
G37*
%TD.AperFunction*%
%TD*%
D20*
%TO.P,C4,2*%
%TO.N,GND*%
X406908000Y-137708000D03*
D21*
%TO.P,C4,1*%
%TO.N,+28V*%
X406908000Y-140208000D03*
%TD*%
%TO.P,C3,2*%
%TO.N,Net-(C3-Pad2)*%
%TA.AperFunction,SMDPad,CuDef*%
G36*
G01*
X401481100Y-135666600D02*
X400981100Y-135666600D01*
G75*
G02*
X400756100Y-135441600I0J225000D01*
G01*
X400756100Y-134991600D01*
G75*
G02*
X400981100Y-134766600I225000J0D01*
G01*
X401481100Y-134766600D01*
G75*
G02*
X401706100Y-134991600I0J-225000D01*
G01*
X401706100Y-135441600D01*
G75*
G02*
X401481100Y-135666600I-225000J0D01*
G01*
G37*
%TD.AperFunction*%
%TO.P,C3,1*%
%TO.N,Net-(C3-Pad1)*%
%TA.AperFunction,SMDPad,CuDef*%
G36*
G01*
X401481100Y-137216600D02*
X400981100Y-137216600D01*
G75*
G02*
X400756100Y-136991600I0J225000D01*
G01*
X400756100Y-136541600D01*
G75*
G02*
X400981100Y-136316600I225000J0D01*
G01*
X401481100Y-136316600D01*
G75*
G02*
X401706100Y-136541600I0J-225000D01*
G01*
X401706100Y-136991600D01*
G75*
G02*
X401481100Y-137216600I-225000J0D01*
G01*
G37*
%TD.AperFunction*%
%TD*%
D20*
%TO.P,C2,2*%
%TO.N,GND*%
X376682000Y-139644000D03*
D21*
%TO.P,C2,1*%
%TO.N,+12V*%
X376682000Y-136144000D03*
%TD*%
%TO.P,C1,2*%
%TO.N,GND*%
%TA.AperFunction,SMDPad,CuDef*%
G36*
G01*
X382774000Y-124897000D02*
X382274000Y-124897000D01*
G75*
G02*
X382049000Y-124672000I0J225000D01*
G01*
X382049000Y-124222000D01*
G75*
G02*
X382274000Y-123997000I225000J0D01*
G01*
X382774000Y-123997000D01*
G75*
G02*
X382999000Y-124222000I0J-225000D01*
G01*
X382999000Y-124672000D01*
G75*
G02*
X382774000Y-124897000I-225000J0D01*
G01*
G37*
%TD.AperFunction*%
%TO.P,C1,1*%
%TO.N,Net-(C1-Pad1)*%
%TA.AperFunction,SMDPad,CuDef*%
G36*
G01*
X382774000Y-126447000D02*
X382274000Y-126447000D01*
G75*
G02*
X382049000Y-126222000I0J225000D01*
G01*
X382049000Y-125772000D01*
G75*
G02*
X382274000Y-125547000I225000J0D01*
G01*
X382774000Y-125547000D01*
G75*
G02*
X382999000Y-125772000I0J-225000D01*
G01*
X382999000Y-126222000D01*
G75*
G02*
X382774000Y-126447000I-225000J0D01*
G01*
G37*
%TD.AperFunction*%
%TD*%
D22*
%TO.N,GND*%
X381000000Y-120400000D03*
X370700000Y-133200000D03*
X376400000Y-132900000D03*
X374800000Y-129200000D03*
X376400000Y-125700000D03*
X373500000Y-124700000D03*
X383900000Y-124300000D03*
X413800000Y-136500000D03*
X409700000Y-125700000D03*
X407900000Y-131000000D03*
X403800000Y-131900000D03*
X409500000Y-122900000D03*
X407400000Y-121300000D03*
X403600000Y-121800000D03*
X410900000Y-116800000D03*
X394400000Y-110600000D03*
X388800000Y-110500000D03*
X384200000Y-107000000D03*
X403200000Y-111200000D03*
X384400000Y-116700000D03*
X398400000Y-129300000D03*
X400100000Y-131000000D03*
X399400000Y-133500000D03*
X414700000Y-106000000D03*
%TO.N,Net-(C1-Pad1)*%
X378400000Y-125200000D03*
X378300000Y-122100000D03*
%TO.N,Net-(JP1-Pad2)*%
X386700000Y-124200000D03*
%TO.N,Net-(JP2-Pad2)*%
X396100000Y-124100000D03*
%TO.N,Net-(Q1-Pad3)*%
X388800000Y-128900000D03*
X392100000Y-128700000D03*
%TO.N,Net-(JP3-Pad2)*%
X393100000Y-124200000D03*
%TO.N,Net-(JP4-Pad2)*%
X398000000Y-116800000D03*
%TO.N,+12V*%
X366300000Y-134500000D03*
X415300000Y-140900000D03*
X415300000Y-131700000D03*
%TO.N,+28V*%
X421000000Y-134200000D03*
%TO.N,Net-(D4-Pad2)*%
X390600000Y-107600000D03*
%TD*%
D23*
%TO.N,GND*%
X380996000Y-120396000D02*
X381000000Y-120400000D01*
X379793000Y-120396000D02*
X380996000Y-120396000D01*
X378193000Y-110998000D02*
X375998000Y-110998000D01*
X375200000Y-110200000D02*
X375200000Y-107900000D01*
X375998000Y-110998000D02*
X375200000Y-110200000D01*
X371425000Y-132475000D02*
X370700000Y-133200000D01*
X371800000Y-132475000D02*
X371425000Y-132475000D01*
X375722000Y-132222000D02*
X376400000Y-132900000D01*
X375428000Y-132222000D02*
X375722000Y-132222000D01*
X374632000Y-129032000D02*
X374800000Y-129200000D01*
X373647000Y-129032000D02*
X374632000Y-129032000D01*
X376441000Y-125741000D02*
X376400000Y-125700000D01*
X376441000Y-126746000D02*
X376441000Y-125741000D01*
X373473000Y-124727000D02*
X373500000Y-124700000D01*
X372364000Y-124727000D02*
X373473000Y-124727000D01*
X383753000Y-124447000D02*
X383900000Y-124300000D01*
X382524000Y-124447000D02*
X383753000Y-124447000D01*
X413657000Y-135191000D02*
X413782000Y-135316000D01*
X411734000Y-135191000D02*
X413657000Y-135191000D01*
X413782000Y-136482000D02*
X413800000Y-136500000D01*
X413782000Y-135316000D02*
X413782000Y-136482000D01*
X409730000Y-125730000D02*
X409700000Y-125700000D01*
X410946500Y-125730000D02*
X409730000Y-125730000D01*
X407940000Y-130960000D02*
X407900000Y-131000000D01*
X407940000Y-129936000D02*
X407940000Y-130960000D01*
X403900000Y-131800000D02*
X403800000Y-131900000D01*
X403900000Y-130925000D02*
X403900000Y-131800000D01*
X409790000Y-123190000D02*
X409500000Y-122900000D01*
X410946500Y-123190000D02*
X409790000Y-123190000D01*
X408162000Y-120538000D02*
X407400000Y-121300000D01*
X408194000Y-120538000D02*
X408162000Y-120538000D01*
X402800000Y-121000000D02*
X403600000Y-121800000D01*
X402800000Y-120950000D02*
X402800000Y-121000000D01*
X414165000Y-116649000D02*
X414290000Y-116774000D01*
X412242000Y-116649000D02*
X414165000Y-116649000D01*
X411051000Y-116649000D02*
X410900000Y-116800000D01*
X412242000Y-116649000D02*
X411051000Y-116649000D01*
X394510000Y-110490000D02*
X394400000Y-110600000D01*
X395856000Y-110490000D02*
X394510000Y-110490000D01*
X394227000Y-110427000D02*
X394400000Y-110600000D01*
X392938000Y-110427000D02*
X394227000Y-110427000D01*
X388046000Y-109746000D02*
X388800000Y-110500000D01*
X388046000Y-109712000D02*
X388046000Y-109746000D01*
X384302000Y-107102000D02*
X384200000Y-107000000D01*
X384302000Y-108141000D02*
X384302000Y-107102000D01*
X402778000Y-111622000D02*
X403200000Y-111200000D01*
X402778000Y-112252000D02*
X402778000Y-111622000D01*
X384462000Y-116762000D02*
X384400000Y-116700000D01*
X385445000Y-116762000D02*
X384462000Y-116762000D01*
X398526000Y-129426000D02*
X398400000Y-129300000D01*
X398526000Y-130493000D02*
X398526000Y-129426000D01*
X400977300Y-131877300D02*
X400100000Y-131000000D01*
X401218400Y-131877300D02*
X400977300Y-131877300D01*
X398852900Y-134047100D02*
X399400000Y-133500000D01*
X398852900Y-134114500D02*
X398852900Y-134047100D01*
X414364000Y-105664000D02*
X414700000Y-106000000D01*
X413388000Y-105664000D02*
X414364000Y-105664000D01*
%TO.N,Net-(C1-Pad1)*%
X382589000Y-126062000D02*
X382524000Y-125997000D01*
X385445000Y-126062000D02*
X382589000Y-126062000D01*
X380060000Y-125997000D02*
X379984000Y-125921000D01*
X382524000Y-125997000D02*
X380060000Y-125997000D01*
X373532000Y-115824000D02*
X379832000Y-115824000D01*
X373532000Y-119087000D02*
X374841000Y-120396000D01*
X373532000Y-115824000D02*
X373532000Y-119087000D01*
X379832000Y-115824000D02*
X381076000Y-115824000D01*
X381076000Y-115824000D02*
X381800000Y-115100000D01*
X381800000Y-115100000D02*
X381800000Y-110600000D01*
X381800000Y-110600000D02*
X380500000Y-109300000D01*
X379140000Y-109300000D02*
X377740000Y-107900000D01*
X380500000Y-109300000D02*
X379140000Y-109300000D01*
X379121000Y-125921000D02*
X378400000Y-125200000D01*
X379984000Y-125921000D02*
X379121000Y-125921000D01*
X378300000Y-122100000D02*
X375000000Y-122100000D01*
X374841000Y-121941000D02*
X374841000Y-120396000D01*
X375000000Y-122100000D02*
X374841000Y-121941000D01*
%TO.N,Net-(C3-Pad2)*%
X401231100Y-133540000D02*
X401218400Y-133527300D01*
X401231100Y-135216600D02*
X401231100Y-133540000D01*
%TO.N,Net-(C3-Pad1)*%
X397288000Y-137812000D02*
X397288000Y-139738100D01*
X397600000Y-137500000D02*
X397288000Y-137812000D01*
X400500000Y-137500000D02*
X397600000Y-137500000D01*
X401231100Y-136768900D02*
X400500000Y-137500000D01*
X401231100Y-136766600D02*
X401231100Y-136768900D01*
D24*
X396027400Y-135890000D02*
X396852900Y-135064500D01*
X393316000Y-135890000D02*
X396027400Y-135890000D01*
X396027400Y-135890000D02*
X396027400Y-135927400D01*
X397288000Y-137188000D02*
X397288000Y-139738100D01*
X396027400Y-135927400D02*
X397288000Y-137188000D01*
D23*
%TO.N,Net-(D2-Pad2)*%
X412521500Y-123190000D02*
X412521500Y-123178500D01*
X414465000Y-123190000D02*
X414465000Y-123435000D01*
X414465000Y-123190000D02*
X412521500Y-123190000D01*
%TO.N,Net-(D5-Pad2)*%
X416290000Y-115824000D02*
X416290000Y-116090000D01*
X418056000Y-117856000D02*
X419354000Y-117856000D01*
X416290000Y-116090000D02*
X418056000Y-117856000D01*
X414652000Y-112268000D02*
X414652000Y-112752000D01*
X416290000Y-114390000D02*
X416290000Y-115824000D01*
X414652000Y-112752000D02*
X416290000Y-114390000D01*
%TO.N,Net-(J2-Pad3)*%
X382600000Y-110220000D02*
X380280000Y-107900000D01*
X382600000Y-116700000D02*
X382600000Y-110220000D01*
X384500000Y-118600000D02*
X382600000Y-116700000D01*
X390000000Y-118600000D02*
X384500000Y-118600000D01*
X390525000Y-118075000D02*
X390000000Y-118600000D01*
X390525000Y-116762000D02*
X390525000Y-118075000D01*
%TO.N,Net-(Q2-Pad3)*%
X412367000Y-118938000D02*
X412242000Y-119063000D01*
X414290000Y-118938000D02*
X412367000Y-118938000D01*
X411019000Y-119063000D02*
X410194000Y-119888000D01*
X412242000Y-119063000D02*
X411019000Y-119063000D01*
%TO.N,Net-(Q2-Pad1)*%
X403694000Y-116394000D02*
X402100000Y-114800000D01*
X402100000Y-114800000D02*
X394900000Y-114800000D01*
X394335000Y-115365000D02*
X394335000Y-116762000D01*
X394900000Y-114800000D02*
X394335000Y-115365000D01*
X408194000Y-118194000D02*
X406394000Y-116394000D01*
X408194000Y-119238000D02*
X408194000Y-118194000D01*
X406394000Y-116394000D02*
X403694000Y-116394000D01*
%TO.N,Net-(Q3-Pad3)*%
X405509000Y-123256000D02*
X405130000Y-123635000D01*
X406924000Y-123256000D02*
X405509000Y-123256000D01*
X404800000Y-123305000D02*
X405130000Y-123635000D01*
X404800000Y-120300000D02*
X404800000Y-123305000D01*
%TO.N,Net-(Q3-Pad1)*%
X402800000Y-119650000D02*
X397050000Y-119650000D01*
X395605000Y-118205000D02*
X395605000Y-116762000D01*
X397050000Y-119650000D02*
X395605000Y-118205000D01*
%TO.N,Net-(Q6-Pad1)*%
X396748000Y-132143000D02*
X398526000Y-132143000D01*
X398526000Y-132143000D02*
X398526000Y-132474000D01*
X398526000Y-132474000D02*
X397900000Y-133100000D01*
X397900000Y-135061600D02*
X398852900Y-136014500D01*
X397900000Y-133100000D02*
X397900000Y-135061600D01*
%TO.N,Net-(Q7-Pad1)*%
X389255000Y-116762000D02*
X389255000Y-115045000D01*
X389255000Y-115045000D02*
X390300000Y-114000000D01*
X390300000Y-114000000D02*
X402500000Y-114000000D01*
X403499000Y-114999000D02*
X412242000Y-114999000D01*
X402500000Y-114000000D02*
X403499000Y-114999000D01*
X414165000Y-114999000D02*
X414290000Y-114874000D01*
X412242000Y-114999000D02*
X414165000Y-114999000D01*
%TO.N,Net-(R3-Pad2)*%
X376491000Y-120396000D02*
X378143000Y-120396000D01*
X378143000Y-120396000D02*
X378143000Y-118957000D01*
X378976000Y-118124000D02*
X379832000Y-118124000D01*
X378143000Y-118957000D02*
X378976000Y-118124000D01*
%TO.N,Net-(R11-Pad1)*%
X387985000Y-126062000D02*
X387985000Y-124815000D01*
X387985000Y-124815000D02*
X388200000Y-124600000D01*
X388200000Y-124600000D02*
X389600000Y-124600000D01*
X389600000Y-124600000D02*
X389900000Y-124900000D01*
X389900000Y-124900000D02*
X389900000Y-129000000D01*
X391393000Y-130493000D02*
X396748000Y-130493000D01*
X389900000Y-129000000D02*
X391393000Y-130493000D01*
%TO.N,Net-(R17-Pad2)*%
X401085700Y-128200000D02*
X401231100Y-128054600D01*
X390525000Y-126062000D02*
X390525000Y-128625000D01*
X390525000Y-128625000D02*
X391800000Y-129900000D01*
X395000000Y-129900000D02*
X396700000Y-128200000D01*
X391800000Y-129900000D02*
X395000000Y-129900000D01*
X396700000Y-128200000D02*
X401085700Y-128200000D01*
X402679600Y-128054600D02*
X403900000Y-129275000D01*
X401231100Y-128054600D02*
X402679600Y-128054600D01*
%TO.N,Net-(D6-Pad2)*%
X412521500Y-125730000D02*
X414465000Y-125730000D01*
%TO.N,Net-(Q8-Pad3)*%
X409940000Y-129286000D02*
X409940000Y-129060000D01*
X410793000Y-128207000D02*
X411988000Y-128207000D01*
X409940000Y-129060000D02*
X410793000Y-128207000D01*
X413911000Y-128207000D02*
X414036000Y-128082000D01*
X411988000Y-128207000D02*
X413911000Y-128207000D01*
%TO.N,Net-(Q8-Pad1)*%
X407940000Y-128636000D02*
X407940000Y-127840000D01*
X407940000Y-127840000D02*
X406700000Y-126600000D01*
X406700000Y-126600000D02*
X404200000Y-126600000D01*
X404200000Y-126600000D02*
X402800000Y-125200000D01*
X402800000Y-125200000D02*
X402800000Y-123300000D01*
X402800000Y-123300000D02*
X401200000Y-121700000D01*
X401200000Y-121700000D02*
X393200000Y-121700000D01*
X391795000Y-123105000D02*
X391795000Y-126062000D01*
X393200000Y-121700000D02*
X391795000Y-123105000D01*
%TO.N,Net-(C5-Pad1)*%
X371850000Y-130875000D02*
X371800000Y-130925000D01*
X373600000Y-130875000D02*
X371850000Y-130875000D01*
X369177000Y-130925000D02*
X369062000Y-130810000D01*
X371800000Y-130925000D02*
X369177000Y-130925000D01*
X373647000Y-130922000D02*
X373600000Y-130875000D01*
X375428000Y-130922000D02*
X373647000Y-130922000D01*
%TO.N,Net-(C8-Pad1)*%
X372364000Y-123177000D02*
X380023000Y-123177000D01*
X380023000Y-123177000D02*
X382800000Y-120400000D01*
X382800000Y-120400000D02*
X390300000Y-120400000D01*
X391795000Y-118905000D02*
X391795000Y-116762000D01*
X390300000Y-120400000D02*
X391795000Y-118905000D01*
X369075000Y-123177000D02*
X369062000Y-123190000D01*
X372364000Y-123177000D02*
X369075000Y-123177000D01*
%TO.N,Net-(JP1-Pad2)*%
X386715000Y-124215000D02*
X386700000Y-124200000D01*
X386715000Y-126062000D02*
X386715000Y-124215000D01*
%TO.N,Net-(JP2-Pad2)*%
X395605000Y-124595000D02*
X396100000Y-124100000D01*
X395605000Y-126062000D02*
X395605000Y-124595000D01*
%TO.N,Net-(Q1-Pad3)*%
X377428000Y-131572000D02*
X379428000Y-131572000D01*
X379428000Y-131572000D02*
X381428000Y-131572000D01*
X384100000Y-128900000D02*
X388800000Y-128900000D01*
X381428000Y-131572000D02*
X384100000Y-128900000D01*
X392100000Y-128700000D02*
X393700000Y-128700000D01*
X394335000Y-128065000D02*
X394335000Y-126062000D01*
X393700000Y-128700000D02*
X394335000Y-128065000D01*
%TO.N,Net-(JP3-Pad2)*%
X393065000Y-124235000D02*
X393100000Y-124200000D01*
X393065000Y-126062000D02*
X393065000Y-124235000D01*
%TO.N,Net-(JP4-Pad2)*%
X397962000Y-116762000D02*
X398000000Y-116800000D01*
X396875000Y-116762000D02*
X397962000Y-116762000D01*
%TO.N,Net-(Q10-Pad1)*%
X393113000Y-112252000D02*
X392938000Y-112077000D01*
X400878000Y-112252000D02*
X393113000Y-112252000D01*
X390906000Y-112077000D02*
X390461000Y-112522000D01*
X392938000Y-112077000D02*
X390906000Y-112077000D01*
%TO.N,+12V*%
X369062000Y-115570000D02*
X369062000Y-114638000D01*
X369062000Y-114638000D02*
X370800000Y-112900000D01*
X370800000Y-112900000D02*
X377000000Y-112900000D01*
X377624000Y-113524000D02*
X379832000Y-113524000D01*
X377000000Y-112900000D02*
X377624000Y-113524000D01*
X379832000Y-111087000D02*
X379743000Y-110998000D01*
X379832000Y-113524000D02*
X379832000Y-111087000D01*
D24*
X376936000Y-135890000D02*
X376682000Y-136144000D01*
X383416000Y-135890000D02*
X376936000Y-135890000D01*
X376682000Y-136144000D02*
X373844000Y-136144000D01*
X372200000Y-134500000D02*
X366300000Y-134500000D01*
X373844000Y-136144000D02*
X372200000Y-134500000D01*
D23*
X373600000Y-132525000D02*
X373600000Y-133200000D01*
X373600000Y-133200000D02*
X375000000Y-134600000D01*
X375000000Y-134600000D02*
X376000000Y-134600000D01*
X376682000Y-135282000D02*
X376682000Y-136144000D01*
X376000000Y-134600000D02*
X376682000Y-135282000D01*
X406924000Y-125156000D02*
X406924000Y-125424000D01*
X406924000Y-125424000D02*
X408900000Y-127400000D01*
X408900000Y-127400000D02*
X408900000Y-129900000D01*
X408900000Y-129900000D02*
X409200000Y-130200000D01*
X411645000Y-130200000D02*
X411988000Y-129857000D01*
X409200000Y-130200000D02*
X411645000Y-130200000D01*
X413911000Y-129857000D02*
X414036000Y-129982000D01*
X411988000Y-129857000D02*
X413911000Y-129857000D01*
X406924000Y-125156000D02*
X407244000Y-125156000D01*
X407244000Y-125156000D02*
X408000000Y-124400000D01*
X408000000Y-124400000D02*
X408000000Y-122400000D01*
X408000000Y-122400000D02*
X408600000Y-121800000D01*
X408600000Y-121800000D02*
X412000000Y-121800000D01*
X412242000Y-121558000D02*
X412242000Y-120713000D01*
X412000000Y-121800000D02*
X412242000Y-121558000D01*
X414165000Y-120713000D02*
X414290000Y-120838000D01*
X412242000Y-120713000D02*
X414165000Y-120713000D01*
X405259000Y-125156000D02*
X405130000Y-125285000D01*
X406924000Y-125156000D02*
X405259000Y-125156000D01*
D24*
X376682000Y-136144000D02*
X377544000Y-136144000D01*
X377544000Y-136144000D02*
X379800000Y-138400000D01*
X379800000Y-138400000D02*
X379800000Y-141200000D01*
X379800000Y-141200000D02*
X381000000Y-142400000D01*
X381000000Y-142400000D02*
X413800000Y-142400000D01*
X413800000Y-142400000D02*
X415300000Y-140900000D01*
D23*
X415300000Y-131246000D02*
X414036000Y-129982000D01*
X415300000Y-131700000D02*
X415300000Y-131246000D01*
%TO.N,+28V*%
X401231100Y-129704600D02*
X401904600Y-129704600D01*
X401904600Y-129704600D02*
X402600000Y-130400000D01*
X402600000Y-135900000D02*
X406908000Y-140208000D01*
X402600000Y-130400000D02*
X402600000Y-135900000D01*
D24*
X406438100Y-139738100D02*
X406908000Y-140208000D01*
X401288000Y-139738100D02*
X406438100Y-139738100D01*
D23*
X417452000Y-113414000D02*
X419354000Y-115316000D01*
X417452000Y-112268000D02*
X417452000Y-113414000D01*
X412305000Y-110091000D02*
X412430000Y-109966000D01*
X412305000Y-111760000D02*
X412305000Y-110091000D01*
X417452000Y-111452000D02*
X417452000Y-112268000D01*
X415966000Y-109966000D02*
X417452000Y-111452000D01*
X405130000Y-113160000D02*
X411940000Y-113160000D01*
X412305000Y-112795000D02*
X412305000Y-111760000D01*
X411940000Y-113160000D02*
X412305000Y-112795000D01*
X389512000Y-105664000D02*
X390236000Y-105664000D01*
X390678000Y-105222000D02*
X393938000Y-105222000D01*
X390236000Y-105664000D02*
X390678000Y-105222000D01*
X395607000Y-105222000D02*
X395732000Y-105347000D01*
X393938000Y-105222000D02*
X395607000Y-105222000D01*
X396207000Y-105347000D02*
X396454000Y-105100000D01*
X395732000Y-105347000D02*
X396207000Y-105347000D01*
X396454000Y-105100000D02*
X408700000Y-105100000D01*
X408700000Y-105100000D02*
X409400000Y-104400000D01*
X409400000Y-104400000D02*
X414800000Y-104400000D01*
X415866000Y-105466000D02*
X415866000Y-109966000D01*
X414800000Y-104400000D02*
X415866000Y-105466000D01*
X415866000Y-109966000D02*
X415966000Y-109966000D01*
X412430000Y-109966000D02*
X415866000Y-109966000D01*
D24*
X406908000Y-140208000D02*
X412792000Y-140208000D01*
X412792000Y-140208000D02*
X418800000Y-134200000D01*
X418800000Y-134200000D02*
X421000000Y-134200000D01*
D23*
%TO.N,Net-(C7-Pad1)*%
X371335000Y-128270000D02*
X372097000Y-129032000D01*
X369062000Y-128270000D02*
X371335000Y-128270000D01*
X372097000Y-129032000D02*
X372097000Y-128703000D01*
X372097000Y-128703000D02*
X372800000Y-128000000D01*
X379555000Y-128000000D02*
X379984000Y-127571000D01*
X372800000Y-128000000D02*
X379555000Y-128000000D01*
X379984000Y-127571000D02*
X382971000Y-127571000D01*
X382971000Y-127571000D02*
X383400000Y-128000000D01*
X383400000Y-128000000D02*
X388700000Y-128000000D01*
X389255000Y-127445000D02*
X389255000Y-126062000D01*
X388700000Y-128000000D02*
X389255000Y-127445000D01*
%TO.N,Net-(C9-Pad1)*%
X374891000Y-126746000D02*
X374891000Y-125509000D01*
X374891000Y-125509000D02*
X376600000Y-123800000D01*
X376600000Y-123800000D02*
X380300000Y-123800000D01*
X380300000Y-123800000D02*
X383100000Y-121000000D01*
X383100000Y-121000000D02*
X390700000Y-121000000D01*
X393065000Y-118635000D02*
X393065000Y-116762000D01*
X390700000Y-121000000D02*
X393065000Y-118635000D01*
X373875000Y-125730000D02*
X374891000Y-126746000D01*
X369062000Y-125730000D02*
X373875000Y-125730000D01*
%TO.N,Net-(D1-Pad2)*%
X405254000Y-110236000D02*
X405130000Y-110360000D01*
X407099000Y-110236000D02*
X405254000Y-110236000D01*
X404114000Y-109344000D02*
X405130000Y-110360000D01*
X404114000Y-107442000D02*
X404114000Y-109344000D01*
X403206000Y-110252000D02*
X404114000Y-109344000D01*
X401828000Y-110252000D02*
X403206000Y-110252000D01*
%TO.N,Net-(D4-Pad2)*%
X386712000Y-107328000D02*
X387096000Y-107712000D01*
X386712000Y-105664000D02*
X386712000Y-107328000D01*
X389827000Y-108966000D02*
X389827000Y-108527000D01*
X389012000Y-107712000D02*
X387096000Y-107712000D01*
X389827000Y-108527000D02*
X389012000Y-107712000D01*
X389827000Y-108373000D02*
X390600000Y-107600000D01*
X389827000Y-108966000D02*
X389827000Y-108373000D01*
%TO.N,Net-(D7-Pad1)*%
X408432000Y-105664000D02*
X406654000Y-107442000D01*
X410588000Y-105664000D02*
X408432000Y-105664000D01*
X410588000Y-107074000D02*
X411480000Y-107966000D01*
X410588000Y-105664000D02*
X410588000Y-107074000D01*
%TO.N,Net-(D8-Pad1)*%
X398656000Y-107820000D02*
X399034000Y-107442000D01*
X398656000Y-110490000D02*
X398656000Y-107820000D01*
X397764000Y-106172000D02*
X399034000Y-107442000D01*
X391938000Y-106172000D02*
X397764000Y-106172000D01*
%TO.N,Net-(J4-Pad4)*%
X413694000Y-124206000D02*
X408924000Y-124206000D01*
X418084000Y-124206000D02*
X419354000Y-122936000D01*
X416115000Y-124115000D02*
X416206000Y-124206000D01*
X416115000Y-123190000D02*
X416115000Y-124115000D01*
X416206000Y-124206000D02*
X418084000Y-124206000D01*
X413694000Y-124206000D02*
X416206000Y-124206000D01*
%TO.N,Net-(J4-Pad3)*%
X416798000Y-120396000D02*
X416290000Y-119888000D01*
X419354000Y-120396000D02*
X416798000Y-120396000D01*
%TO.N,Net-(J4-Pad5)*%
X416036000Y-125809000D02*
X416115000Y-125730000D01*
X416036000Y-129032000D02*
X416036000Y-125809000D01*
X419100000Y-125730000D02*
X419354000Y-125476000D01*
X416115000Y-125730000D02*
X419100000Y-125730000D01*
%TO.N,Net-(Q11-Pad1)*%
X384381000Y-109712000D02*
X384302000Y-109791000D01*
X386146000Y-109712000D02*
X384381000Y-109712000D01*
X384239000Y-109854000D02*
X384302000Y-109791000D01*
X384239000Y-112268000D02*
X384239000Y-109854000D01*
%TO.N,Net-(Q12-Pad1)*%
X410655000Y-110091000D02*
X410530000Y-109966000D01*
X410655000Y-111760000D02*
X410655000Y-110091000D01*
X409019000Y-109966000D02*
X408749000Y-110236000D01*
X410530000Y-109966000D02*
X409019000Y-109966000D01*
%TO.N,Net-(Q13-Pad1)*%
X391477000Y-108966000D02*
X393234000Y-108966000D01*
X393938000Y-108262000D02*
X393938000Y-107122000D01*
X393234000Y-108966000D02*
X393938000Y-108262000D01*
X395607000Y-107122000D02*
X395732000Y-106997000D01*
X393938000Y-107122000D02*
X395607000Y-107122000D01*
%TO.N,Net-(J4-Pad6)*%
X415782000Y-134366000D02*
X416334000Y-134366000D01*
X416334000Y-134366000D02*
X417300000Y-133400000D01*
X417300000Y-133400000D02*
X417300000Y-128800000D01*
X418084000Y-128016000D02*
X419354000Y-128016000D01*
X417300000Y-128800000D02*
X418084000Y-128016000D01*
%TO.N,Net-(Q14-Pad1)*%
X411734000Y-133541000D02*
X408241000Y-133541000D01*
X408241000Y-133541000D02*
X406600000Y-131900000D01*
X406600000Y-131900000D02*
X406600000Y-127700000D01*
X406600000Y-127700000D02*
X406100000Y-127200000D01*
X406100000Y-127200000D02*
X403900000Y-127200000D01*
X402762000Y-126062000D02*
X396875000Y-126062000D01*
X403900000Y-127200000D02*
X402762000Y-126062000D01*
X411859000Y-133416000D02*
X411734000Y-133541000D01*
X413782000Y-133416000D02*
X411859000Y-133416000D01*
%TO.N,Net-(R2-Pad2)*%
X387985000Y-113348000D02*
X388811000Y-112522000D01*
X387985000Y-116762000D02*
X387985000Y-113348000D01*
%TO.N,Net-(R5-Pad2)*%
X386715000Y-113094000D02*
X385889000Y-112268000D01*
X386715000Y-116762000D02*
X386715000Y-113094000D01*
%TD*%
M02*
