M48
; DRILL file {KiCad 5.1.12-84ad8e8a86~92~ubuntu20.04.1} date Tue 24 Oct 2023 12:46:43 PM CEST
; FORMAT={-:-/ absolute / metric / decimal}
; #@! TF.CreationDate,2023-10-24T12:46:43+02:00
; #@! TF.GenerationSoftware,Kicad,Pcbnew,5.1.12-84ad8e8a86~92~ubuntu20.04.1
; #@! TF.FileFunction,Plated,1,2,PTH
FMAT,2
METRIC
T1C0.400
T2C0.800
T3C1.000
%
G90
G05
T1
X366.3Y-134.5
X370.7Y-133.2
X373.5Y-124.7
X374.8Y-129.2
X376.4Y-125.7
X376.4Y-132.9
X378.3Y-122.1
X378.4Y-125.2
X381.0Y-120.4
X383.9Y-124.3
X384.2Y-107.0
X384.4Y-116.7
X386.7Y-124.2
X388.8Y-110.5
X388.8Y-128.9
X390.6Y-107.6
X392.1Y-128.7
X393.1Y-124.2
X394.4Y-110.6
X396.1Y-124.1
X398.0Y-116.8
X398.4Y-129.3
X399.4Y-133.5
X400.1Y-131.0
X403.2Y-111.2
X403.6Y-121.8
X403.8Y-131.9
X407.4Y-121.3
X407.9Y-131.0
X409.5Y-122.9
X409.7Y-125.7
X410.9Y-116.8
X413.8Y-136.5
X414.7Y-106.0
X415.3Y-131.7
X415.3Y-140.9
X421.0Y-134.2
T2
X376.682Y-136.144
X376.682Y-139.644
X406.908Y-137.708
X406.908Y-140.208
T3
X369.062Y-115.57
X369.062Y-118.11
X369.062Y-120.65
X369.062Y-123.19
X369.062Y-125.73
X369.062Y-128.27
X369.062Y-130.81
X375.2Y-107.9
X377.74Y-107.9
X380.28Y-107.9
X399.034Y-107.442
X401.574Y-107.442
X404.114Y-107.442
X406.654Y-107.442
X419.354Y-115.316
X419.354Y-117.856
X419.354Y-120.396
X419.354Y-122.936
X419.354Y-125.476
X419.354Y-128.016
X419.354Y-130.556
T0
M30
