%TF.GenerationSoftware,KiCad,Pcbnew,5.1.12-84ad8e8a86~92~ubuntu20.04.1*%
%TF.CreationDate,2023-10-24T12:46:34+02:00*%
%TF.ProjectId,boost_sequencer,626f6f73-745f-4736-9571-75656e636572,rev?*%
%TF.SameCoordinates,Original*%
%TF.FileFunction,Copper,L2,Bot*%
%TF.FilePolarity,Positive*%
%FSLAX46Y46*%
G04 Gerber Fmt 4.6, Leading zero omitted, Abs format (unit mm)*
G04 Created by KiCad (PCBNEW 5.1.12-84ad8e8a86~92~ubuntu20.04.1) date 2023-10-24 12:46:34*
%MOMM*%
%LPD*%
G01*
G04 APERTURE LIST*
%TA.AperFunction,ComponentPad*%
%ADD10O,1.700000X1.700000*%
%TD*%
%TA.AperFunction,ComponentPad*%
%ADD11C,1.700000*%
%TD*%
%TA.AperFunction,SMDPad,CuDef*%
%ADD12C,0.100000*%
%TD*%
%TA.AperFunction,ComponentPad*%
%ADD13C,1.600000*%
%TD*%
%TA.AperFunction,ComponentPad*%
%ADD14R,1.600000X1.600000*%
%TD*%
%TA.AperFunction,ViaPad*%
%ADD15C,0.800000*%
%TD*%
%TA.AperFunction,Conductor*%
%ADD16C,0.250000*%
%TD*%
%TA.AperFunction,Conductor*%
%ADD17C,0.800000*%
%TD*%
%TA.AperFunction,Conductor*%
%ADD18C,0.254000*%
%TD*%
%TA.AperFunction,Conductor*%
%ADD19C,0.100000*%
%TD*%
G04 APERTURE END LIST*
D10*
%TO.P,J2,3*%
%TO.N,Net-(J2-Pad3)*%
X380280000Y-107900000D03*
%TO.P,J2,2*%
%TO.N,Net-(C1-Pad1)*%
X377740000Y-107900000D03*
D11*
%TO.P,J2,1*%
%TO.N,GND*%
X375200000Y-107900000D03*
%TD*%
D10*
%TO.P,J4,7*%
%TO.N,GND*%
X419354000Y-130556000D03*
%TO.P,J4,6*%
%TO.N,Net-(J4-Pad6)*%
X419354000Y-128016000D03*
%TO.P,J4,5*%
%TO.N,Net-(J4-Pad5)*%
X419354000Y-125476000D03*
%TO.P,J4,4*%
%TO.N,Net-(J4-Pad4)*%
X419354000Y-122936000D03*
%TO.P,J4,3*%
%TO.N,Net-(J4-Pad3)*%
X419354000Y-120396000D03*
%TO.P,J4,2*%
%TO.N,Net-(D5-Pad2)*%
X419354000Y-117856000D03*
D11*
%TO.P,J4,1*%
%TO.N,+28V*%
X419354000Y-115316000D03*
%TD*%
D10*
%TO.P,J1,7*%
%TO.N,Net-(C5-Pad1)*%
X369062000Y-130810000D03*
%TO.P,J1,6*%
%TO.N,Net-(C7-Pad1)*%
X369062000Y-128270000D03*
%TO.P,J1,5*%
%TO.N,Net-(C9-Pad1)*%
X369062000Y-125730000D03*
%TO.P,J1,4*%
%TO.N,Net-(C8-Pad1)*%
X369062000Y-123190000D03*
%TO.P,J1,3*%
%TO.N,GND*%
X369062000Y-120650000D03*
%TO.P,J1,2*%
X369062000Y-118110000D03*
D11*
%TO.P,J1,1*%
%TO.N,+12V*%
X369062000Y-115570000D03*
%TD*%
D10*
%TO.P,J3,4*%
%TO.N,Net-(D7-Pad1)*%
X406654000Y-107442000D03*
%TO.P,J3,3*%
%TO.N,Net-(D1-Pad2)*%
X404114000Y-107442000D03*
%TO.P,J3,2*%
%TO.N,Net-(D4-Pad2)*%
X401574000Y-107442000D03*
D11*
%TO.P,J3,1*%
%TO.N,Net-(D8-Pad1)*%
X399034000Y-107442000D03*
%TD*%
%TA.AperFunction,SMDPad,CuDef*%
D12*
%TO.P,JP2,2*%
%TO.N,Net-(JP2-Pad2)*%
G36*
X396849398Y-122850000D02*
G01*
X396849398Y-122874534D01*
X396844588Y-122923365D01*
X396835016Y-122971490D01*
X396820772Y-123018445D01*
X396801995Y-123063778D01*
X396778864Y-123107051D01*
X396751604Y-123147850D01*
X396720476Y-123185779D01*
X396685779Y-123220476D01*
X396647850Y-123251604D01*
X396607051Y-123278864D01*
X396563778Y-123301995D01*
X396518445Y-123320772D01*
X396471490Y-123335016D01*
X396423365Y-123344588D01*
X396374534Y-123349398D01*
X396350000Y-123349398D01*
X396350000Y-123350000D01*
X395850000Y-123350000D01*
X395850000Y-123349398D01*
X395825466Y-123349398D01*
X395776635Y-123344588D01*
X395728510Y-123335016D01*
X395681555Y-123320772D01*
X395636222Y-123301995D01*
X395592949Y-123278864D01*
X395552150Y-123251604D01*
X395514221Y-123220476D01*
X395479524Y-123185779D01*
X395448396Y-123147850D01*
X395421136Y-123107051D01*
X395398005Y-123063778D01*
X395379228Y-123018445D01*
X395364984Y-122971490D01*
X395355412Y-122923365D01*
X395350602Y-122874534D01*
X395350602Y-122850000D01*
X395350000Y-122850000D01*
X395350000Y-122350000D01*
X396850000Y-122350000D01*
X396850000Y-122850000D01*
X396849398Y-122850000D01*
G37*
%TD.AperFunction*%
%TA.AperFunction,SMDPad,CuDef*%
%TO.P,JP2,1*%
%TO.N,GND*%
G36*
X395350000Y-122050000D02*
G01*
X395350000Y-121550000D01*
X395350602Y-121550000D01*
X395350602Y-121525466D01*
X395355412Y-121476635D01*
X395364984Y-121428510D01*
X395379228Y-121381555D01*
X395398005Y-121336222D01*
X395421136Y-121292949D01*
X395448396Y-121252150D01*
X395479524Y-121214221D01*
X395514221Y-121179524D01*
X395552150Y-121148396D01*
X395592949Y-121121136D01*
X395636222Y-121098005D01*
X395681555Y-121079228D01*
X395728510Y-121064984D01*
X395776635Y-121055412D01*
X395825466Y-121050602D01*
X395850000Y-121050602D01*
X395850000Y-121050000D01*
X396350000Y-121050000D01*
X396350000Y-121050602D01*
X396374534Y-121050602D01*
X396423365Y-121055412D01*
X396471490Y-121064984D01*
X396518445Y-121079228D01*
X396563778Y-121098005D01*
X396607051Y-121121136D01*
X396647850Y-121148396D01*
X396685779Y-121179524D01*
X396720476Y-121214221D01*
X396751604Y-121252150D01*
X396778864Y-121292949D01*
X396801995Y-121336222D01*
X396820772Y-121381555D01*
X396835016Y-121428510D01*
X396844588Y-121476635D01*
X396849398Y-121525466D01*
X396849398Y-121550000D01*
X396850000Y-121550000D01*
X396850000Y-122050000D01*
X395350000Y-122050000D01*
G37*
%TD.AperFunction*%
%TD*%
%TA.AperFunction,SMDPad,CuDef*%
%TO.P,JP4,2*%
%TO.N,Net-(JP4-Pad2)*%
G36*
X399250000Y-117449398D02*
G01*
X399225466Y-117449398D01*
X399176635Y-117444588D01*
X399128510Y-117435016D01*
X399081555Y-117420772D01*
X399036222Y-117401995D01*
X398992949Y-117378864D01*
X398952150Y-117351604D01*
X398914221Y-117320476D01*
X398879524Y-117285779D01*
X398848396Y-117247850D01*
X398821136Y-117207051D01*
X398798005Y-117163778D01*
X398779228Y-117118445D01*
X398764984Y-117071490D01*
X398755412Y-117023365D01*
X398750602Y-116974534D01*
X398750602Y-116950000D01*
X398750000Y-116950000D01*
X398750000Y-116450000D01*
X398750602Y-116450000D01*
X398750602Y-116425466D01*
X398755412Y-116376635D01*
X398764984Y-116328510D01*
X398779228Y-116281555D01*
X398798005Y-116236222D01*
X398821136Y-116192949D01*
X398848396Y-116152150D01*
X398879524Y-116114221D01*
X398914221Y-116079524D01*
X398952150Y-116048396D01*
X398992949Y-116021136D01*
X399036222Y-115998005D01*
X399081555Y-115979228D01*
X399128510Y-115964984D01*
X399176635Y-115955412D01*
X399225466Y-115950602D01*
X399250000Y-115950602D01*
X399250000Y-115950000D01*
X399750000Y-115950000D01*
X399750000Y-117450000D01*
X399250000Y-117450000D01*
X399250000Y-117449398D01*
G37*
%TD.AperFunction*%
%TA.AperFunction,SMDPad,CuDef*%
%TO.P,JP4,1*%
%TO.N,GND*%
G36*
X400050000Y-115950000D02*
G01*
X400550000Y-115950000D01*
X400550000Y-115950602D01*
X400574534Y-115950602D01*
X400623365Y-115955412D01*
X400671490Y-115964984D01*
X400718445Y-115979228D01*
X400763778Y-115998005D01*
X400807051Y-116021136D01*
X400847850Y-116048396D01*
X400885779Y-116079524D01*
X400920476Y-116114221D01*
X400951604Y-116152150D01*
X400978864Y-116192949D01*
X401001995Y-116236222D01*
X401020772Y-116281555D01*
X401035016Y-116328510D01*
X401044588Y-116376635D01*
X401049398Y-116425466D01*
X401049398Y-116450000D01*
X401050000Y-116450000D01*
X401050000Y-116950000D01*
X401049398Y-116950000D01*
X401049398Y-116974534D01*
X401044588Y-117023365D01*
X401035016Y-117071490D01*
X401020772Y-117118445D01*
X401001995Y-117163778D01*
X400978864Y-117207051D01*
X400951604Y-117247850D01*
X400920476Y-117285779D01*
X400885779Y-117320476D01*
X400847850Y-117351604D01*
X400807051Y-117378864D01*
X400763778Y-117401995D01*
X400718445Y-117420772D01*
X400671490Y-117435016D01*
X400623365Y-117444588D01*
X400574534Y-117449398D01*
X400550000Y-117449398D01*
X400550000Y-117450000D01*
X400050000Y-117450000D01*
X400050000Y-115950000D01*
G37*
%TD.AperFunction*%
%TD*%
%TA.AperFunction,SMDPad,CuDef*%
%TO.P,JP3,2*%
%TO.N,Net-(JP3-Pad2)*%
G36*
X393849398Y-122850000D02*
G01*
X393849398Y-122874534D01*
X393844588Y-122923365D01*
X393835016Y-122971490D01*
X393820772Y-123018445D01*
X393801995Y-123063778D01*
X393778864Y-123107051D01*
X393751604Y-123147850D01*
X393720476Y-123185779D01*
X393685779Y-123220476D01*
X393647850Y-123251604D01*
X393607051Y-123278864D01*
X393563778Y-123301995D01*
X393518445Y-123320772D01*
X393471490Y-123335016D01*
X393423365Y-123344588D01*
X393374534Y-123349398D01*
X393350000Y-123349398D01*
X393350000Y-123350000D01*
X392850000Y-123350000D01*
X392850000Y-123349398D01*
X392825466Y-123349398D01*
X392776635Y-123344588D01*
X392728510Y-123335016D01*
X392681555Y-123320772D01*
X392636222Y-123301995D01*
X392592949Y-123278864D01*
X392552150Y-123251604D01*
X392514221Y-123220476D01*
X392479524Y-123185779D01*
X392448396Y-123147850D01*
X392421136Y-123107051D01*
X392398005Y-123063778D01*
X392379228Y-123018445D01*
X392364984Y-122971490D01*
X392355412Y-122923365D01*
X392350602Y-122874534D01*
X392350602Y-122850000D01*
X392350000Y-122850000D01*
X392350000Y-122350000D01*
X393850000Y-122350000D01*
X393850000Y-122850000D01*
X393849398Y-122850000D01*
G37*
%TD.AperFunction*%
%TA.AperFunction,SMDPad,CuDef*%
%TO.P,JP3,1*%
%TO.N,GND*%
G36*
X392350000Y-122050000D02*
G01*
X392350000Y-121550000D01*
X392350602Y-121550000D01*
X392350602Y-121525466D01*
X392355412Y-121476635D01*
X392364984Y-121428510D01*
X392379228Y-121381555D01*
X392398005Y-121336222D01*
X392421136Y-121292949D01*
X392448396Y-121252150D01*
X392479524Y-121214221D01*
X392514221Y-121179524D01*
X392552150Y-121148396D01*
X392592949Y-121121136D01*
X392636222Y-121098005D01*
X392681555Y-121079228D01*
X392728510Y-121064984D01*
X392776635Y-121055412D01*
X392825466Y-121050602D01*
X392850000Y-121050602D01*
X392850000Y-121050000D01*
X393350000Y-121050000D01*
X393350000Y-121050602D01*
X393374534Y-121050602D01*
X393423365Y-121055412D01*
X393471490Y-121064984D01*
X393518445Y-121079228D01*
X393563778Y-121098005D01*
X393607051Y-121121136D01*
X393647850Y-121148396D01*
X393685779Y-121179524D01*
X393720476Y-121214221D01*
X393751604Y-121252150D01*
X393778864Y-121292949D01*
X393801995Y-121336222D01*
X393820772Y-121381555D01*
X393835016Y-121428510D01*
X393844588Y-121476635D01*
X393849398Y-121525466D01*
X393849398Y-121550000D01*
X393850000Y-121550000D01*
X393850000Y-122050000D01*
X392350000Y-122050000D01*
G37*
%TD.AperFunction*%
%TD*%
%TA.AperFunction,SMDPad,CuDef*%
%TO.P,JP1,2*%
%TO.N,Net-(JP1-Pad2)*%
G36*
X387449398Y-122850000D02*
G01*
X387449398Y-122874534D01*
X387444588Y-122923365D01*
X387435016Y-122971490D01*
X387420772Y-123018445D01*
X387401995Y-123063778D01*
X387378864Y-123107051D01*
X387351604Y-123147850D01*
X387320476Y-123185779D01*
X387285779Y-123220476D01*
X387247850Y-123251604D01*
X387207051Y-123278864D01*
X387163778Y-123301995D01*
X387118445Y-123320772D01*
X387071490Y-123335016D01*
X387023365Y-123344588D01*
X386974534Y-123349398D01*
X386950000Y-123349398D01*
X386950000Y-123350000D01*
X386450000Y-123350000D01*
X386450000Y-123349398D01*
X386425466Y-123349398D01*
X386376635Y-123344588D01*
X386328510Y-123335016D01*
X386281555Y-123320772D01*
X386236222Y-123301995D01*
X386192949Y-123278864D01*
X386152150Y-123251604D01*
X386114221Y-123220476D01*
X386079524Y-123185779D01*
X386048396Y-123147850D01*
X386021136Y-123107051D01*
X385998005Y-123063778D01*
X385979228Y-123018445D01*
X385964984Y-122971490D01*
X385955412Y-122923365D01*
X385950602Y-122874534D01*
X385950602Y-122850000D01*
X385950000Y-122850000D01*
X385950000Y-122350000D01*
X387450000Y-122350000D01*
X387450000Y-122850000D01*
X387449398Y-122850000D01*
G37*
%TD.AperFunction*%
%TA.AperFunction,SMDPad,CuDef*%
%TO.P,JP1,1*%
%TO.N,GND*%
G36*
X385950000Y-122050000D02*
G01*
X385950000Y-121550000D01*
X385950602Y-121550000D01*
X385950602Y-121525466D01*
X385955412Y-121476635D01*
X385964984Y-121428510D01*
X385979228Y-121381555D01*
X385998005Y-121336222D01*
X386021136Y-121292949D01*
X386048396Y-121252150D01*
X386079524Y-121214221D01*
X386114221Y-121179524D01*
X386152150Y-121148396D01*
X386192949Y-121121136D01*
X386236222Y-121098005D01*
X386281555Y-121079228D01*
X386328510Y-121064984D01*
X386376635Y-121055412D01*
X386425466Y-121050602D01*
X386450000Y-121050602D01*
X386450000Y-121050000D01*
X386950000Y-121050000D01*
X386950000Y-121050602D01*
X386974534Y-121050602D01*
X387023365Y-121055412D01*
X387071490Y-121064984D01*
X387118445Y-121079228D01*
X387163778Y-121098005D01*
X387207051Y-121121136D01*
X387247850Y-121148396D01*
X387285779Y-121179524D01*
X387320476Y-121214221D01*
X387351604Y-121252150D01*
X387378864Y-121292949D01*
X387401995Y-121336222D01*
X387420772Y-121381555D01*
X387435016Y-121428510D01*
X387444588Y-121476635D01*
X387449398Y-121525466D01*
X387449398Y-121550000D01*
X387450000Y-121550000D01*
X387450000Y-122050000D01*
X385950000Y-122050000D01*
G37*
%TD.AperFunction*%
%TD*%
D13*
%TO.P,C4,2*%
%TO.N,GND*%
X406908000Y-137708000D03*
D14*
%TO.P,C4,1*%
%TO.N,+28V*%
X406908000Y-140208000D03*
%TD*%
D13*
%TO.P,C2,2*%
%TO.N,GND*%
X376682000Y-139644000D03*
D14*
%TO.P,C2,1*%
%TO.N,+12V*%
X376682000Y-136144000D03*
%TD*%
D15*
%TO.N,GND*%
X381000000Y-120400000D03*
X370700000Y-133200000D03*
X376400000Y-132900000D03*
X374800000Y-129200000D03*
X376400000Y-125700000D03*
X373500000Y-124700000D03*
X383900000Y-124300000D03*
X413800000Y-136500000D03*
X409700000Y-125700000D03*
X407900000Y-131000000D03*
X403800000Y-131900000D03*
X409500000Y-122900000D03*
X407400000Y-121300000D03*
X403600000Y-121800000D03*
X410900000Y-116800000D03*
X394400000Y-110600000D03*
X388800000Y-110500000D03*
X384200000Y-107000000D03*
X403200000Y-111200000D03*
X384400000Y-116700000D03*
X398400000Y-129300000D03*
X400100000Y-131000000D03*
X399400000Y-133500000D03*
X414700000Y-106000000D03*
%TO.N,Net-(C1-Pad1)*%
X378400000Y-125200000D03*
X378300000Y-122100000D03*
%TO.N,Net-(JP1-Pad2)*%
X386700000Y-124200000D03*
%TO.N,Net-(JP2-Pad2)*%
X396100000Y-124100000D03*
%TO.N,Net-(Q1-Pad3)*%
X388800000Y-128900000D03*
X392100000Y-128700000D03*
%TO.N,Net-(JP3-Pad2)*%
X393100000Y-124200000D03*
%TO.N,Net-(JP4-Pad2)*%
X398000000Y-116800000D03*
%TO.N,+12V*%
X366300000Y-134500000D03*
X415300000Y-140900000D03*
X415300000Y-131700000D03*
%TO.N,+28V*%
X421000000Y-134200000D03*
%TO.N,Net-(D4-Pad2)*%
X390600000Y-107600000D03*
%TD*%
D16*
%TO.N,Net-(C1-Pad1)*%
X378400000Y-122200000D02*
X378300000Y-122100000D01*
X378400000Y-125200000D02*
X378400000Y-122200000D01*
%TO.N,Net-(JP1-Pad2)*%
X386700000Y-124200000D02*
X386700000Y-122850000D01*
%TO.N,Net-(JP2-Pad2)*%
X396100000Y-124100000D02*
X396100000Y-122850000D01*
%TO.N,Net-(Q1-Pad3)*%
X388800000Y-128900000D02*
X392000000Y-128900000D01*
X392100000Y-128800000D02*
X392100000Y-128700000D01*
X392000000Y-128900000D02*
X392100000Y-128800000D01*
%TO.N,Net-(JP3-Pad2)*%
X393100000Y-124200000D02*
X393100000Y-122850000D01*
%TO.N,Net-(JP4-Pad2)*%
X399150000Y-116800000D02*
X399250000Y-116700000D01*
X398000000Y-116800000D02*
X399150000Y-116800000D01*
D17*
%TO.N,+12V*%
X366300000Y-134500000D02*
X366300000Y-116700000D01*
X367430000Y-115570000D02*
X369062000Y-115570000D01*
X366300000Y-116700000D02*
X367430000Y-115570000D01*
X415300000Y-140900000D02*
X415300000Y-131700000D01*
%TO.N,+28V*%
X421000000Y-134200000D02*
X422000000Y-133200000D01*
X422000000Y-133200000D02*
X422000000Y-116500000D01*
X420816000Y-115316000D02*
X419354000Y-115316000D01*
X422000000Y-116500000D02*
X420816000Y-115316000D01*
D16*
%TO.N,Net-(D4-Pad2)*%
X390600000Y-107600000D02*
X392300000Y-105900000D01*
X392300000Y-105900000D02*
X400700000Y-105900000D01*
X401574000Y-106774000D02*
X401574000Y-107442000D01*
X400700000Y-105900000D02*
X401574000Y-106774000D01*
%TD*%
D18*
%TO.N,GND*%
X367263962Y-108924729D02*
X367575271Y-109236038D01*
X367941331Y-109480631D01*
X368348075Y-109649110D01*
X368779872Y-109735000D01*
X369220128Y-109735000D01*
X369651925Y-109649110D01*
X370058669Y-109480631D01*
X370424729Y-109236038D01*
X370736038Y-108924729D01*
X370934974Y-108627000D01*
X373898926Y-108627000D01*
X373922528Y-108671157D01*
X374171603Y-108748792D01*
X374293395Y-108627000D01*
X374652605Y-108627000D01*
X374351208Y-108928397D01*
X374428843Y-109177472D01*
X374692883Y-109303371D01*
X374976411Y-109375339D01*
X375268531Y-109390611D01*
X375558019Y-109348599D01*
X375833747Y-109250919D01*
X375971157Y-109177472D01*
X376048792Y-108928397D01*
X375747395Y-108627000D01*
X376106605Y-108627000D01*
X376228397Y-108748792D01*
X376470689Y-108673271D01*
X376586525Y-108846632D01*
X376793368Y-109053475D01*
X377036589Y-109215990D01*
X377306842Y-109327932D01*
X377593740Y-109385000D01*
X377886260Y-109385000D01*
X378173158Y-109327932D01*
X378443411Y-109215990D01*
X378686632Y-109053475D01*
X378893475Y-108846632D01*
X379010000Y-108672240D01*
X379126525Y-108846632D01*
X379333368Y-109053475D01*
X379576589Y-109215990D01*
X379846842Y-109327932D01*
X380133740Y-109385000D01*
X380426260Y-109385000D01*
X380713158Y-109327932D01*
X380983411Y-109215990D01*
X381226632Y-109053475D01*
X381433475Y-108846632D01*
X381580228Y-108627000D01*
X390457842Y-108627000D01*
X390498061Y-108635000D01*
X390701939Y-108635000D01*
X390742158Y-108627000D01*
X398134549Y-108627000D01*
X398330589Y-108757990D01*
X398600842Y-108869932D01*
X398887740Y-108927000D01*
X399180260Y-108927000D01*
X399467158Y-108869932D01*
X399737411Y-108757990D01*
X399933451Y-108627000D01*
X400674549Y-108627000D01*
X400870589Y-108757990D01*
X401140842Y-108869932D01*
X401427740Y-108927000D01*
X401720260Y-108927000D01*
X402007158Y-108869932D01*
X402277411Y-108757990D01*
X402473451Y-108627000D01*
X403214549Y-108627000D01*
X403410589Y-108757990D01*
X403680842Y-108869932D01*
X403967740Y-108927000D01*
X404260260Y-108927000D01*
X404547158Y-108869932D01*
X404817411Y-108757990D01*
X405013451Y-108627000D01*
X405754549Y-108627000D01*
X405950589Y-108757990D01*
X406220842Y-108869932D01*
X406507740Y-108927000D01*
X406800260Y-108927000D01*
X407087158Y-108869932D01*
X407357411Y-108757990D01*
X407553451Y-108627000D01*
X414873000Y-108627000D01*
X414873000Y-130754664D01*
X414856962Y-130763237D01*
X414809744Y-130782795D01*
X414767250Y-130811188D01*
X414722204Y-130835266D01*
X414682721Y-130867669D01*
X414640226Y-130896063D01*
X414604087Y-130932202D01*
X414564605Y-130964604D01*
X414532203Y-131004086D01*
X414496063Y-131040226D01*
X414467668Y-131082722D01*
X414435267Y-131122203D01*
X414411191Y-131167247D01*
X414382795Y-131209744D01*
X414363235Y-131256966D01*
X414339160Y-131302007D01*
X414324335Y-131350878D01*
X414304774Y-131398102D01*
X414294803Y-131448232D01*
X414279977Y-131497105D01*
X414274971Y-131547933D01*
X414265000Y-131598061D01*
X414265000Y-131801939D01*
X414265001Y-131801944D01*
X414265000Y-140798061D01*
X414265000Y-141001939D01*
X414274969Y-141052058D01*
X414279976Y-141102894D01*
X414294804Y-141151774D01*
X414304774Y-141201898D01*
X414324332Y-141249116D01*
X414339159Y-141297992D01*
X414363237Y-141343039D01*
X414382795Y-141390256D01*
X414411186Y-141432747D01*
X414435266Y-141477797D01*
X414467672Y-141517284D01*
X414496063Y-141559774D01*
X414532197Y-141595908D01*
X414564604Y-141635396D01*
X414604092Y-141667803D01*
X414640226Y-141703937D01*
X414682716Y-141732328D01*
X414722203Y-141764734D01*
X414767254Y-141788814D01*
X414809744Y-141817205D01*
X414856958Y-141836762D01*
X414873000Y-141845337D01*
X414873000Y-142840000D01*
X365660000Y-142840000D01*
X365660000Y-139279872D01*
X366765000Y-139279872D01*
X366765000Y-139720128D01*
X366850890Y-140151925D01*
X367019369Y-140558669D01*
X367263962Y-140924729D01*
X367575271Y-141236038D01*
X367941331Y-141480631D01*
X368348075Y-141649110D01*
X368779872Y-141735000D01*
X369220128Y-141735000D01*
X369651925Y-141649110D01*
X370058669Y-141480631D01*
X370424729Y-141236038D01*
X370736038Y-140924729D01*
X370928491Y-140636702D01*
X375868903Y-140636702D01*
X375940486Y-140880671D01*
X376195996Y-141001571D01*
X376470184Y-141070300D01*
X376752512Y-141084217D01*
X377032130Y-141042787D01*
X377298292Y-140947603D01*
X377423514Y-140880671D01*
X377495097Y-140636702D01*
X376682000Y-139823605D01*
X375868903Y-140636702D01*
X370928491Y-140636702D01*
X370980631Y-140558669D01*
X371149110Y-140151925D01*
X371235000Y-139720128D01*
X371235000Y-139714512D01*
X375241783Y-139714512D01*
X375283213Y-139994130D01*
X375378397Y-140260292D01*
X375445329Y-140385514D01*
X375689298Y-140457097D01*
X376502395Y-139644000D01*
X376861605Y-139644000D01*
X377674702Y-140457097D01*
X377918671Y-140385514D01*
X378039571Y-140130004D01*
X378108300Y-139855816D01*
X378122217Y-139573488D01*
X378097698Y-139408000D01*
X405469928Y-139408000D01*
X405469928Y-141008000D01*
X405482188Y-141132482D01*
X405518498Y-141252180D01*
X405577463Y-141362494D01*
X405656815Y-141459185D01*
X405753506Y-141538537D01*
X405863820Y-141597502D01*
X405983518Y-141633812D01*
X406108000Y-141646072D01*
X407708000Y-141646072D01*
X407832482Y-141633812D01*
X407952180Y-141597502D01*
X408062494Y-141538537D01*
X408159185Y-141459185D01*
X408238537Y-141362494D01*
X408297502Y-141252180D01*
X408333812Y-141132482D01*
X408346072Y-141008000D01*
X408346072Y-139408000D01*
X408333812Y-139283518D01*
X408297502Y-139163820D01*
X408238537Y-139053506D01*
X408159185Y-138956815D01*
X408062494Y-138877463D01*
X407952180Y-138818498D01*
X407832482Y-138782188D01*
X407708000Y-138769928D01*
X407700785Y-138769928D01*
X407721097Y-138700702D01*
X406908000Y-137887605D01*
X406094903Y-138700702D01*
X406115215Y-138769928D01*
X406108000Y-138769928D01*
X405983518Y-138782188D01*
X405863820Y-138818498D01*
X405753506Y-138877463D01*
X405656815Y-138956815D01*
X405577463Y-139053506D01*
X405518498Y-139163820D01*
X405482188Y-139283518D01*
X405469928Y-139408000D01*
X378097698Y-139408000D01*
X378080787Y-139293870D01*
X377985603Y-139027708D01*
X377918671Y-138902486D01*
X377674702Y-138830903D01*
X376861605Y-139644000D01*
X376502395Y-139644000D01*
X375689298Y-138830903D01*
X375445329Y-138902486D01*
X375324429Y-139157996D01*
X375255700Y-139432184D01*
X375241783Y-139714512D01*
X371235000Y-139714512D01*
X371235000Y-139279872D01*
X371149110Y-138848075D01*
X371067603Y-138651298D01*
X375868903Y-138651298D01*
X376682000Y-139464395D01*
X377495097Y-138651298D01*
X377423514Y-138407329D01*
X377168004Y-138286429D01*
X376893816Y-138217700D01*
X376611488Y-138203783D01*
X376331870Y-138245213D01*
X376065708Y-138340397D01*
X375940486Y-138407329D01*
X375868903Y-138651298D01*
X371067603Y-138651298D01*
X370980631Y-138441331D01*
X370736038Y-138075271D01*
X370439279Y-137778512D01*
X405467783Y-137778512D01*
X405509213Y-138058130D01*
X405604397Y-138324292D01*
X405671329Y-138449514D01*
X405915298Y-138521097D01*
X406728395Y-137708000D01*
X407087605Y-137708000D01*
X407900702Y-138521097D01*
X408144671Y-138449514D01*
X408265571Y-138194004D01*
X408334300Y-137919816D01*
X408348217Y-137637488D01*
X408306787Y-137357870D01*
X408211603Y-137091708D01*
X408144671Y-136966486D01*
X407900702Y-136894903D01*
X407087605Y-137708000D01*
X406728395Y-137708000D01*
X405915298Y-136894903D01*
X405671329Y-136966486D01*
X405550429Y-137221996D01*
X405481700Y-137496184D01*
X405467783Y-137778512D01*
X370439279Y-137778512D01*
X370424729Y-137763962D01*
X370058669Y-137519369D01*
X369651925Y-137350890D01*
X369220128Y-137265000D01*
X368779872Y-137265000D01*
X368348075Y-137350890D01*
X367941331Y-137519369D01*
X367575271Y-137763962D01*
X367263962Y-138075271D01*
X367019369Y-138441331D01*
X366850890Y-138848075D01*
X366765000Y-139279872D01*
X365660000Y-139279872D01*
X365660000Y-135317150D01*
X365682716Y-135332328D01*
X365722203Y-135364734D01*
X365767254Y-135388814D01*
X365809744Y-135417205D01*
X365856958Y-135436762D01*
X365902007Y-135460841D01*
X365950887Y-135475669D01*
X365998102Y-135495226D01*
X366048223Y-135505196D01*
X366097105Y-135520024D01*
X366147943Y-135525031D01*
X366198061Y-135535000D01*
X366249162Y-135535000D01*
X366300000Y-135540007D01*
X366350838Y-135535000D01*
X366401939Y-135535000D01*
X366452058Y-135525031D01*
X366502894Y-135520024D01*
X366551774Y-135505196D01*
X366601898Y-135495226D01*
X366649116Y-135475668D01*
X366697992Y-135460841D01*
X366743039Y-135436763D01*
X366790256Y-135417205D01*
X366832747Y-135388814D01*
X366877797Y-135364734D01*
X366903061Y-135344000D01*
X375243928Y-135344000D01*
X375243928Y-136944000D01*
X375256188Y-137068482D01*
X375292498Y-137188180D01*
X375351463Y-137298494D01*
X375430815Y-137395185D01*
X375527506Y-137474537D01*
X375637820Y-137533502D01*
X375757518Y-137569812D01*
X375882000Y-137582072D01*
X377482000Y-137582072D01*
X377606482Y-137569812D01*
X377726180Y-137533502D01*
X377836494Y-137474537D01*
X377933185Y-137395185D01*
X378012537Y-137298494D01*
X378071502Y-137188180D01*
X378107812Y-137068482D01*
X378120072Y-136944000D01*
X378120072Y-136715298D01*
X406094903Y-136715298D01*
X406908000Y-137528395D01*
X407721097Y-136715298D01*
X407649514Y-136471329D01*
X407394004Y-136350429D01*
X407119816Y-136281700D01*
X406837488Y-136267783D01*
X406557870Y-136309213D01*
X406291708Y-136404397D01*
X406166486Y-136471329D01*
X406094903Y-136715298D01*
X378120072Y-136715298D01*
X378120072Y-135344000D01*
X378107812Y-135219518D01*
X378071502Y-135099820D01*
X378012537Y-134989506D01*
X377933185Y-134892815D01*
X377836494Y-134813463D01*
X377726180Y-134754498D01*
X377606482Y-134718188D01*
X377482000Y-134705928D01*
X375882000Y-134705928D01*
X375757518Y-134718188D01*
X375637820Y-134754498D01*
X375527506Y-134813463D01*
X375430815Y-134892815D01*
X375351463Y-134989506D01*
X375292498Y-135099820D01*
X375256188Y-135219518D01*
X375243928Y-135344000D01*
X366903061Y-135344000D01*
X366917284Y-135332328D01*
X366959774Y-135303937D01*
X366995908Y-135267803D01*
X367035396Y-135235396D01*
X367067803Y-135195908D01*
X367103937Y-135159774D01*
X367132328Y-135117284D01*
X367164734Y-135077797D01*
X367188814Y-135032746D01*
X367217205Y-134990256D01*
X367236762Y-134943042D01*
X367260841Y-134897993D01*
X367275669Y-134849113D01*
X367295226Y-134801898D01*
X367305196Y-134751777D01*
X367320024Y-134702895D01*
X367325031Y-134652057D01*
X367335000Y-134601939D01*
X367335000Y-123043740D01*
X367577000Y-123043740D01*
X367577000Y-123336260D01*
X367634068Y-123623158D01*
X367746010Y-123893411D01*
X367908525Y-124136632D01*
X368115368Y-124343475D01*
X368289760Y-124460000D01*
X368115368Y-124576525D01*
X367908525Y-124783368D01*
X367746010Y-125026589D01*
X367634068Y-125296842D01*
X367577000Y-125583740D01*
X367577000Y-125876260D01*
X367634068Y-126163158D01*
X367746010Y-126433411D01*
X367908525Y-126676632D01*
X368115368Y-126883475D01*
X368289760Y-127000000D01*
X368115368Y-127116525D01*
X367908525Y-127323368D01*
X367746010Y-127566589D01*
X367634068Y-127836842D01*
X367577000Y-128123740D01*
X367577000Y-128416260D01*
X367634068Y-128703158D01*
X367746010Y-128973411D01*
X367908525Y-129216632D01*
X368115368Y-129423475D01*
X368289760Y-129540000D01*
X368115368Y-129656525D01*
X367908525Y-129863368D01*
X367746010Y-130106589D01*
X367634068Y-130376842D01*
X367577000Y-130663740D01*
X367577000Y-130956260D01*
X367634068Y-131243158D01*
X367746010Y-131513411D01*
X367908525Y-131756632D01*
X368115368Y-131963475D01*
X368358589Y-132125990D01*
X368628842Y-132237932D01*
X368915740Y-132295000D01*
X369208260Y-132295000D01*
X369495158Y-132237932D01*
X369765411Y-132125990D01*
X370008632Y-131963475D01*
X370215475Y-131756632D01*
X370377990Y-131513411D01*
X370489932Y-131243158D01*
X370547000Y-130956260D01*
X370547000Y-130663740D01*
X370489932Y-130376842D01*
X370377990Y-130106589D01*
X370215475Y-129863368D01*
X370008632Y-129656525D01*
X369834240Y-129540000D01*
X370008632Y-129423475D01*
X370215475Y-129216632D01*
X370377990Y-128973411D01*
X370450622Y-128798061D01*
X387765000Y-128798061D01*
X387765000Y-129001939D01*
X387804774Y-129201898D01*
X387882795Y-129390256D01*
X387996063Y-129559774D01*
X388140226Y-129703937D01*
X388309744Y-129817205D01*
X388498102Y-129895226D01*
X388698061Y-129935000D01*
X388901939Y-129935000D01*
X389101898Y-129895226D01*
X389290256Y-129817205D01*
X389459774Y-129703937D01*
X389503711Y-129660000D01*
X391713060Y-129660000D01*
X391798102Y-129695226D01*
X391998061Y-129735000D01*
X392201939Y-129735000D01*
X392401898Y-129695226D01*
X392590256Y-129617205D01*
X392759774Y-129503937D01*
X392903937Y-129359774D01*
X393017205Y-129190256D01*
X393095226Y-129001898D01*
X393135000Y-128801939D01*
X393135000Y-128598061D01*
X393095226Y-128398102D01*
X393017205Y-128209744D01*
X392903937Y-128040226D01*
X392759774Y-127896063D01*
X392590256Y-127782795D01*
X392401898Y-127704774D01*
X392201939Y-127665000D01*
X391998061Y-127665000D01*
X391798102Y-127704774D01*
X391609744Y-127782795D01*
X391440226Y-127896063D01*
X391296063Y-128040226D01*
X391229396Y-128140000D01*
X389503711Y-128140000D01*
X389459774Y-128096063D01*
X389290256Y-127982795D01*
X389101898Y-127904774D01*
X388901939Y-127865000D01*
X388698061Y-127865000D01*
X388498102Y-127904774D01*
X388309744Y-127982795D01*
X388140226Y-128096063D01*
X387996063Y-128240226D01*
X387882795Y-128409744D01*
X387804774Y-128598102D01*
X387765000Y-128798061D01*
X370450622Y-128798061D01*
X370489932Y-128703158D01*
X370547000Y-128416260D01*
X370547000Y-128123740D01*
X370489932Y-127836842D01*
X370377990Y-127566589D01*
X370215475Y-127323368D01*
X370008632Y-127116525D01*
X369834240Y-127000000D01*
X370008632Y-126883475D01*
X370215475Y-126676632D01*
X370377990Y-126433411D01*
X370489932Y-126163158D01*
X370547000Y-125876260D01*
X370547000Y-125583740D01*
X370489932Y-125296842D01*
X370377990Y-125026589D01*
X370215475Y-124783368D01*
X370008632Y-124576525D01*
X369834240Y-124460000D01*
X370008632Y-124343475D01*
X370215475Y-124136632D01*
X370377990Y-123893411D01*
X370489932Y-123623158D01*
X370547000Y-123336260D01*
X370547000Y-123043740D01*
X370489932Y-122756842D01*
X370377990Y-122486589D01*
X370215475Y-122243368D01*
X370008632Y-122036525D01*
X369951067Y-121998061D01*
X377265000Y-121998061D01*
X377265000Y-122201939D01*
X377304774Y-122401898D01*
X377382795Y-122590256D01*
X377496063Y-122759774D01*
X377640001Y-122903712D01*
X377640000Y-124496289D01*
X377596063Y-124540226D01*
X377482795Y-124709744D01*
X377404774Y-124898102D01*
X377365000Y-125098061D01*
X377365000Y-125301939D01*
X377404774Y-125501898D01*
X377482795Y-125690256D01*
X377596063Y-125859774D01*
X377740226Y-126003937D01*
X377909744Y-126117205D01*
X378098102Y-126195226D01*
X378298061Y-126235000D01*
X378501939Y-126235000D01*
X378701898Y-126195226D01*
X378890256Y-126117205D01*
X379059774Y-126003937D01*
X379203937Y-125859774D01*
X379317205Y-125690256D01*
X379395226Y-125501898D01*
X379435000Y-125301939D01*
X379435000Y-125098061D01*
X379395226Y-124898102D01*
X379317205Y-124709744D01*
X379203937Y-124540226D01*
X379160000Y-124496289D01*
X379160000Y-122675870D01*
X379217205Y-122590256D01*
X379295226Y-122401898D01*
X379305549Y-122350000D01*
X385311928Y-122350000D01*
X385311928Y-122850000D01*
X385314336Y-122874450D01*
X385314336Y-122899009D01*
X385326596Y-123023490D01*
X385345718Y-123119623D01*
X385382027Y-123239319D01*
X385419536Y-123329875D01*
X385478502Y-123440192D01*
X385532958Y-123521691D01*
X385612310Y-123618382D01*
X385681618Y-123687690D01*
X385763944Y-123755253D01*
X385704774Y-123898102D01*
X385665000Y-124098061D01*
X385665000Y-124301939D01*
X385704774Y-124501898D01*
X385782795Y-124690256D01*
X385896063Y-124859774D01*
X386040226Y-125003937D01*
X386209744Y-125117205D01*
X386398102Y-125195226D01*
X386598061Y-125235000D01*
X386801939Y-125235000D01*
X387001898Y-125195226D01*
X387190256Y-125117205D01*
X387359774Y-125003937D01*
X387503937Y-124859774D01*
X387617205Y-124690256D01*
X387695226Y-124501898D01*
X387735000Y-124301939D01*
X387735000Y-124098061D01*
X387695226Y-123898102D01*
X387636056Y-123755253D01*
X387718382Y-123687690D01*
X387787690Y-123618382D01*
X387867042Y-123521691D01*
X387921498Y-123440192D01*
X387980464Y-123329875D01*
X388017973Y-123239319D01*
X388054282Y-123119623D01*
X388073404Y-123023490D01*
X388085664Y-122899009D01*
X388085664Y-122874450D01*
X388088072Y-122850000D01*
X388088072Y-122350000D01*
X391711928Y-122350000D01*
X391711928Y-122850000D01*
X391714336Y-122874450D01*
X391714336Y-122899009D01*
X391726596Y-123023490D01*
X391745718Y-123119623D01*
X391782027Y-123239319D01*
X391819536Y-123329875D01*
X391878502Y-123440192D01*
X391932958Y-123521691D01*
X392012310Y-123618382D01*
X392081618Y-123687690D01*
X392163944Y-123755253D01*
X392104774Y-123898102D01*
X392065000Y-124098061D01*
X392065000Y-124301939D01*
X392104774Y-124501898D01*
X392182795Y-124690256D01*
X392296063Y-124859774D01*
X392440226Y-125003937D01*
X392609744Y-125117205D01*
X392798102Y-125195226D01*
X392998061Y-125235000D01*
X393201939Y-125235000D01*
X393401898Y-125195226D01*
X393590256Y-125117205D01*
X393759774Y-125003937D01*
X393903937Y-124859774D01*
X394017205Y-124690256D01*
X394095226Y-124501898D01*
X394135000Y-124301939D01*
X394135000Y-124098061D01*
X394095226Y-123898102D01*
X394036056Y-123755253D01*
X394118382Y-123687690D01*
X394187690Y-123618382D01*
X394267042Y-123521691D01*
X394321498Y-123440192D01*
X394380464Y-123329875D01*
X394417973Y-123239319D01*
X394454282Y-123119623D01*
X394473404Y-123023490D01*
X394485664Y-122899009D01*
X394485664Y-122874450D01*
X394488072Y-122850000D01*
X394488072Y-122350000D01*
X394711928Y-122350000D01*
X394711928Y-122850000D01*
X394714336Y-122874450D01*
X394714336Y-122899009D01*
X394726596Y-123023490D01*
X394745718Y-123119623D01*
X394782027Y-123239319D01*
X394819536Y-123329875D01*
X394878502Y-123440192D01*
X394932958Y-123521691D01*
X395012310Y-123618382D01*
X395081618Y-123687690D01*
X395133031Y-123729884D01*
X395104774Y-123798102D01*
X395065000Y-123998061D01*
X395065000Y-124201939D01*
X395104774Y-124401898D01*
X395182795Y-124590256D01*
X395296063Y-124759774D01*
X395440226Y-124903937D01*
X395609744Y-125017205D01*
X395798102Y-125095226D01*
X395998061Y-125135000D01*
X396201939Y-125135000D01*
X396401898Y-125095226D01*
X396590256Y-125017205D01*
X396759774Y-124903937D01*
X396903937Y-124759774D01*
X397017205Y-124590256D01*
X397095226Y-124401898D01*
X397135000Y-124201939D01*
X397135000Y-123998061D01*
X397095226Y-123798102D01*
X397066969Y-123729884D01*
X397118382Y-123687690D01*
X397187690Y-123618382D01*
X397267042Y-123521691D01*
X397321498Y-123440192D01*
X397380464Y-123329875D01*
X397417973Y-123239319D01*
X397454282Y-123119623D01*
X397473404Y-123023490D01*
X397485664Y-122899009D01*
X397485664Y-122874450D01*
X397488072Y-122850000D01*
X397488072Y-122350000D01*
X397475812Y-122225518D01*
X397439502Y-122105820D01*
X397380537Y-121995506D01*
X397301185Y-121898815D01*
X397204494Y-121819463D01*
X397094180Y-121760498D01*
X396974482Y-121724188D01*
X396850000Y-121711928D01*
X395350000Y-121711928D01*
X395225518Y-121724188D01*
X395105820Y-121760498D01*
X394995506Y-121819463D01*
X394898815Y-121898815D01*
X394819463Y-121995506D01*
X394760498Y-122105820D01*
X394724188Y-122225518D01*
X394711928Y-122350000D01*
X394488072Y-122350000D01*
X394475812Y-122225518D01*
X394439502Y-122105820D01*
X394380537Y-121995506D01*
X394301185Y-121898815D01*
X394204494Y-121819463D01*
X394094180Y-121760498D01*
X393974482Y-121724188D01*
X393850000Y-121711928D01*
X392350000Y-121711928D01*
X392225518Y-121724188D01*
X392105820Y-121760498D01*
X391995506Y-121819463D01*
X391898815Y-121898815D01*
X391819463Y-121995506D01*
X391760498Y-122105820D01*
X391724188Y-122225518D01*
X391711928Y-122350000D01*
X388088072Y-122350000D01*
X388075812Y-122225518D01*
X388039502Y-122105820D01*
X387980537Y-121995506D01*
X387901185Y-121898815D01*
X387804494Y-121819463D01*
X387694180Y-121760498D01*
X387574482Y-121724188D01*
X387450000Y-121711928D01*
X385950000Y-121711928D01*
X385825518Y-121724188D01*
X385705820Y-121760498D01*
X385595506Y-121819463D01*
X385498815Y-121898815D01*
X385419463Y-121995506D01*
X385360498Y-122105820D01*
X385324188Y-122225518D01*
X385311928Y-122350000D01*
X379305549Y-122350000D01*
X379335000Y-122201939D01*
X379335000Y-121998061D01*
X379295226Y-121798102D01*
X379217205Y-121609744D01*
X379103937Y-121440226D01*
X378959774Y-121296063D01*
X378790256Y-121182795D01*
X378601898Y-121104774D01*
X378401939Y-121065000D01*
X378198061Y-121065000D01*
X377998102Y-121104774D01*
X377809744Y-121182795D01*
X377640226Y-121296063D01*
X377496063Y-121440226D01*
X377382795Y-121609744D01*
X377304774Y-121798102D01*
X377265000Y-121998061D01*
X369951067Y-121998061D01*
X369826466Y-121914805D01*
X369943355Y-121845178D01*
X370159588Y-121650269D01*
X370333641Y-121416920D01*
X370458825Y-121154099D01*
X370503476Y-121006890D01*
X370382155Y-120777000D01*
X369189000Y-120777000D01*
X369189000Y-120797000D01*
X368935000Y-120797000D01*
X368935000Y-120777000D01*
X367741845Y-120777000D01*
X367620524Y-121006890D01*
X367665175Y-121154099D01*
X367790359Y-121416920D01*
X367964412Y-121650269D01*
X368180645Y-121845178D01*
X368297534Y-121914805D01*
X368115368Y-122036525D01*
X367908525Y-122243368D01*
X367746010Y-122486589D01*
X367634068Y-122756842D01*
X367577000Y-123043740D01*
X367335000Y-123043740D01*
X367335000Y-118466890D01*
X367620524Y-118466890D01*
X367665175Y-118614099D01*
X367790359Y-118876920D01*
X367964412Y-119110269D01*
X368180645Y-119305178D01*
X368306255Y-119380000D01*
X368180645Y-119454822D01*
X367964412Y-119649731D01*
X367790359Y-119883080D01*
X367665175Y-120145901D01*
X367620524Y-120293110D01*
X367741845Y-120523000D01*
X368935000Y-120523000D01*
X368935000Y-118237000D01*
X369189000Y-118237000D01*
X369189000Y-120523000D01*
X370382155Y-120523000D01*
X370503476Y-120293110D01*
X370458825Y-120145901D01*
X370333641Y-119883080D01*
X370159588Y-119649731D01*
X369943355Y-119454822D01*
X369817745Y-119380000D01*
X369943355Y-119305178D01*
X370159588Y-119110269D01*
X370333641Y-118876920D01*
X370458825Y-118614099D01*
X370503476Y-118466890D01*
X370382155Y-118237000D01*
X369189000Y-118237000D01*
X368935000Y-118237000D01*
X367741845Y-118237000D01*
X367620524Y-118466890D01*
X367335000Y-118466890D01*
X367335000Y-117128710D01*
X367858711Y-116605000D01*
X367996893Y-116605000D01*
X368115368Y-116723475D01*
X368297534Y-116845195D01*
X368180645Y-116914822D01*
X367964412Y-117109731D01*
X367790359Y-117343080D01*
X367665175Y-117605901D01*
X367620524Y-117753110D01*
X367741845Y-117983000D01*
X368935000Y-117983000D01*
X368935000Y-117963000D01*
X369189000Y-117963000D01*
X369189000Y-117983000D01*
X370382155Y-117983000D01*
X370503476Y-117753110D01*
X370458825Y-117605901D01*
X370333641Y-117343080D01*
X370159588Y-117109731D01*
X369943355Y-116914822D01*
X369826466Y-116845195D01*
X370008632Y-116723475D01*
X370034046Y-116698061D01*
X396965000Y-116698061D01*
X396965000Y-116901939D01*
X397004774Y-117101898D01*
X397082795Y-117290256D01*
X397196063Y-117459774D01*
X397340226Y-117603937D01*
X397509744Y-117717205D01*
X397698102Y-117795226D01*
X397898061Y-117835000D01*
X398101939Y-117835000D01*
X398301898Y-117795226D01*
X398434308Y-117740380D01*
X398481618Y-117787690D01*
X398578309Y-117867042D01*
X398659808Y-117921498D01*
X398770125Y-117980464D01*
X398860681Y-118017973D01*
X398980377Y-118054282D01*
X399076510Y-118073404D01*
X399200991Y-118085664D01*
X399225550Y-118085664D01*
X399250000Y-118088072D01*
X399750000Y-118088072D01*
X399874482Y-118075812D01*
X399994180Y-118039502D01*
X400104494Y-117980537D01*
X400201185Y-117901185D01*
X400280537Y-117804494D01*
X400339502Y-117694180D01*
X400375812Y-117574482D01*
X400388072Y-117450000D01*
X400388072Y-115950000D01*
X400375812Y-115825518D01*
X400339502Y-115705820D01*
X400280537Y-115595506D01*
X400201185Y-115498815D01*
X400104494Y-115419463D01*
X399994180Y-115360498D01*
X399874482Y-115324188D01*
X399750000Y-115311928D01*
X399250000Y-115311928D01*
X399225550Y-115314336D01*
X399200991Y-115314336D01*
X399076510Y-115326596D01*
X398980377Y-115345718D01*
X398860681Y-115382027D01*
X398770125Y-115419536D01*
X398659808Y-115478502D01*
X398578309Y-115532958D01*
X398481618Y-115612310D01*
X398412310Y-115681618D01*
X398332958Y-115778309D01*
X398312375Y-115809114D01*
X398301898Y-115804774D01*
X398101939Y-115765000D01*
X397898061Y-115765000D01*
X397698102Y-115804774D01*
X397509744Y-115882795D01*
X397340226Y-115996063D01*
X397196063Y-116140226D01*
X397082795Y-116309744D01*
X397004774Y-116498102D01*
X396965000Y-116698061D01*
X370034046Y-116698061D01*
X370215475Y-116516632D01*
X370377990Y-116273411D01*
X370489932Y-116003158D01*
X370547000Y-115716260D01*
X370547000Y-115423740D01*
X370489932Y-115136842D01*
X370377990Y-114866589D01*
X370215475Y-114623368D01*
X370008632Y-114416525D01*
X369765411Y-114254010D01*
X369495158Y-114142068D01*
X369208260Y-114085000D01*
X368915740Y-114085000D01*
X368628842Y-114142068D01*
X368358589Y-114254010D01*
X368115368Y-114416525D01*
X367996893Y-114535000D01*
X367480827Y-114535000D01*
X367429999Y-114529994D01*
X367379171Y-114535000D01*
X367379162Y-114535000D01*
X367227105Y-114549976D01*
X367032007Y-114609159D01*
X367005424Y-114623368D01*
X366852202Y-114705266D01*
X366734092Y-114802197D01*
X366694604Y-114834604D01*
X366662197Y-114874092D01*
X365660000Y-115876290D01*
X365660000Y-108627000D01*
X367065026Y-108627000D01*
X367263962Y-108924729D01*
%TA.AperFunction,Conductor*%
D19*
G36*
X367263962Y-108924729D02*
G01*
X367575271Y-109236038D01*
X367941331Y-109480631D01*
X368348075Y-109649110D01*
X368779872Y-109735000D01*
X369220128Y-109735000D01*
X369651925Y-109649110D01*
X370058669Y-109480631D01*
X370424729Y-109236038D01*
X370736038Y-108924729D01*
X370934974Y-108627000D01*
X373898926Y-108627000D01*
X373922528Y-108671157D01*
X374171603Y-108748792D01*
X374293395Y-108627000D01*
X374652605Y-108627000D01*
X374351208Y-108928397D01*
X374428843Y-109177472D01*
X374692883Y-109303371D01*
X374976411Y-109375339D01*
X375268531Y-109390611D01*
X375558019Y-109348599D01*
X375833747Y-109250919D01*
X375971157Y-109177472D01*
X376048792Y-108928397D01*
X375747395Y-108627000D01*
X376106605Y-108627000D01*
X376228397Y-108748792D01*
X376470689Y-108673271D01*
X376586525Y-108846632D01*
X376793368Y-109053475D01*
X377036589Y-109215990D01*
X377306842Y-109327932D01*
X377593740Y-109385000D01*
X377886260Y-109385000D01*
X378173158Y-109327932D01*
X378443411Y-109215990D01*
X378686632Y-109053475D01*
X378893475Y-108846632D01*
X379010000Y-108672240D01*
X379126525Y-108846632D01*
X379333368Y-109053475D01*
X379576589Y-109215990D01*
X379846842Y-109327932D01*
X380133740Y-109385000D01*
X380426260Y-109385000D01*
X380713158Y-109327932D01*
X380983411Y-109215990D01*
X381226632Y-109053475D01*
X381433475Y-108846632D01*
X381580228Y-108627000D01*
X390457842Y-108627000D01*
X390498061Y-108635000D01*
X390701939Y-108635000D01*
X390742158Y-108627000D01*
X398134549Y-108627000D01*
X398330589Y-108757990D01*
X398600842Y-108869932D01*
X398887740Y-108927000D01*
X399180260Y-108927000D01*
X399467158Y-108869932D01*
X399737411Y-108757990D01*
X399933451Y-108627000D01*
X400674549Y-108627000D01*
X400870589Y-108757990D01*
X401140842Y-108869932D01*
X401427740Y-108927000D01*
X401720260Y-108927000D01*
X402007158Y-108869932D01*
X402277411Y-108757990D01*
X402473451Y-108627000D01*
X403214549Y-108627000D01*
X403410589Y-108757990D01*
X403680842Y-108869932D01*
X403967740Y-108927000D01*
X404260260Y-108927000D01*
X404547158Y-108869932D01*
X404817411Y-108757990D01*
X405013451Y-108627000D01*
X405754549Y-108627000D01*
X405950589Y-108757990D01*
X406220842Y-108869932D01*
X406507740Y-108927000D01*
X406800260Y-108927000D01*
X407087158Y-108869932D01*
X407357411Y-108757990D01*
X407553451Y-108627000D01*
X414873000Y-108627000D01*
X414873000Y-130754664D01*
X414856962Y-130763237D01*
X414809744Y-130782795D01*
X414767250Y-130811188D01*
X414722204Y-130835266D01*
X414682721Y-130867669D01*
X414640226Y-130896063D01*
X414604087Y-130932202D01*
X414564605Y-130964604D01*
X414532203Y-131004086D01*
X414496063Y-131040226D01*
X414467668Y-131082722D01*
X414435267Y-131122203D01*
X414411191Y-131167247D01*
X414382795Y-131209744D01*
X414363235Y-131256966D01*
X414339160Y-131302007D01*
X414324335Y-131350878D01*
X414304774Y-131398102D01*
X414294803Y-131448232D01*
X414279977Y-131497105D01*
X414274971Y-131547933D01*
X414265000Y-131598061D01*
X414265000Y-131801939D01*
X414265001Y-131801944D01*
X414265000Y-140798061D01*
X414265000Y-141001939D01*
X414274969Y-141052058D01*
X414279976Y-141102894D01*
X414294804Y-141151774D01*
X414304774Y-141201898D01*
X414324332Y-141249116D01*
X414339159Y-141297992D01*
X414363237Y-141343039D01*
X414382795Y-141390256D01*
X414411186Y-141432747D01*
X414435266Y-141477797D01*
X414467672Y-141517284D01*
X414496063Y-141559774D01*
X414532197Y-141595908D01*
X414564604Y-141635396D01*
X414604092Y-141667803D01*
X414640226Y-141703937D01*
X414682716Y-141732328D01*
X414722203Y-141764734D01*
X414767254Y-141788814D01*
X414809744Y-141817205D01*
X414856958Y-141836762D01*
X414873000Y-141845337D01*
X414873000Y-142840000D01*
X365660000Y-142840000D01*
X365660000Y-139279872D01*
X366765000Y-139279872D01*
X366765000Y-139720128D01*
X366850890Y-140151925D01*
X367019369Y-140558669D01*
X367263962Y-140924729D01*
X367575271Y-141236038D01*
X367941331Y-141480631D01*
X368348075Y-141649110D01*
X368779872Y-141735000D01*
X369220128Y-141735000D01*
X369651925Y-141649110D01*
X370058669Y-141480631D01*
X370424729Y-141236038D01*
X370736038Y-140924729D01*
X370928491Y-140636702D01*
X375868903Y-140636702D01*
X375940486Y-140880671D01*
X376195996Y-141001571D01*
X376470184Y-141070300D01*
X376752512Y-141084217D01*
X377032130Y-141042787D01*
X377298292Y-140947603D01*
X377423514Y-140880671D01*
X377495097Y-140636702D01*
X376682000Y-139823605D01*
X375868903Y-140636702D01*
X370928491Y-140636702D01*
X370980631Y-140558669D01*
X371149110Y-140151925D01*
X371235000Y-139720128D01*
X371235000Y-139714512D01*
X375241783Y-139714512D01*
X375283213Y-139994130D01*
X375378397Y-140260292D01*
X375445329Y-140385514D01*
X375689298Y-140457097D01*
X376502395Y-139644000D01*
X376861605Y-139644000D01*
X377674702Y-140457097D01*
X377918671Y-140385514D01*
X378039571Y-140130004D01*
X378108300Y-139855816D01*
X378122217Y-139573488D01*
X378097698Y-139408000D01*
X405469928Y-139408000D01*
X405469928Y-141008000D01*
X405482188Y-141132482D01*
X405518498Y-141252180D01*
X405577463Y-141362494D01*
X405656815Y-141459185D01*
X405753506Y-141538537D01*
X405863820Y-141597502D01*
X405983518Y-141633812D01*
X406108000Y-141646072D01*
X407708000Y-141646072D01*
X407832482Y-141633812D01*
X407952180Y-141597502D01*
X408062494Y-141538537D01*
X408159185Y-141459185D01*
X408238537Y-141362494D01*
X408297502Y-141252180D01*
X408333812Y-141132482D01*
X408346072Y-141008000D01*
X408346072Y-139408000D01*
X408333812Y-139283518D01*
X408297502Y-139163820D01*
X408238537Y-139053506D01*
X408159185Y-138956815D01*
X408062494Y-138877463D01*
X407952180Y-138818498D01*
X407832482Y-138782188D01*
X407708000Y-138769928D01*
X407700785Y-138769928D01*
X407721097Y-138700702D01*
X406908000Y-137887605D01*
X406094903Y-138700702D01*
X406115215Y-138769928D01*
X406108000Y-138769928D01*
X405983518Y-138782188D01*
X405863820Y-138818498D01*
X405753506Y-138877463D01*
X405656815Y-138956815D01*
X405577463Y-139053506D01*
X405518498Y-139163820D01*
X405482188Y-139283518D01*
X405469928Y-139408000D01*
X378097698Y-139408000D01*
X378080787Y-139293870D01*
X377985603Y-139027708D01*
X377918671Y-138902486D01*
X377674702Y-138830903D01*
X376861605Y-139644000D01*
X376502395Y-139644000D01*
X375689298Y-138830903D01*
X375445329Y-138902486D01*
X375324429Y-139157996D01*
X375255700Y-139432184D01*
X375241783Y-139714512D01*
X371235000Y-139714512D01*
X371235000Y-139279872D01*
X371149110Y-138848075D01*
X371067603Y-138651298D01*
X375868903Y-138651298D01*
X376682000Y-139464395D01*
X377495097Y-138651298D01*
X377423514Y-138407329D01*
X377168004Y-138286429D01*
X376893816Y-138217700D01*
X376611488Y-138203783D01*
X376331870Y-138245213D01*
X376065708Y-138340397D01*
X375940486Y-138407329D01*
X375868903Y-138651298D01*
X371067603Y-138651298D01*
X370980631Y-138441331D01*
X370736038Y-138075271D01*
X370439279Y-137778512D01*
X405467783Y-137778512D01*
X405509213Y-138058130D01*
X405604397Y-138324292D01*
X405671329Y-138449514D01*
X405915298Y-138521097D01*
X406728395Y-137708000D01*
X407087605Y-137708000D01*
X407900702Y-138521097D01*
X408144671Y-138449514D01*
X408265571Y-138194004D01*
X408334300Y-137919816D01*
X408348217Y-137637488D01*
X408306787Y-137357870D01*
X408211603Y-137091708D01*
X408144671Y-136966486D01*
X407900702Y-136894903D01*
X407087605Y-137708000D01*
X406728395Y-137708000D01*
X405915298Y-136894903D01*
X405671329Y-136966486D01*
X405550429Y-137221996D01*
X405481700Y-137496184D01*
X405467783Y-137778512D01*
X370439279Y-137778512D01*
X370424729Y-137763962D01*
X370058669Y-137519369D01*
X369651925Y-137350890D01*
X369220128Y-137265000D01*
X368779872Y-137265000D01*
X368348075Y-137350890D01*
X367941331Y-137519369D01*
X367575271Y-137763962D01*
X367263962Y-138075271D01*
X367019369Y-138441331D01*
X366850890Y-138848075D01*
X366765000Y-139279872D01*
X365660000Y-139279872D01*
X365660000Y-135317150D01*
X365682716Y-135332328D01*
X365722203Y-135364734D01*
X365767254Y-135388814D01*
X365809744Y-135417205D01*
X365856958Y-135436762D01*
X365902007Y-135460841D01*
X365950887Y-135475669D01*
X365998102Y-135495226D01*
X366048223Y-135505196D01*
X366097105Y-135520024D01*
X366147943Y-135525031D01*
X366198061Y-135535000D01*
X366249162Y-135535000D01*
X366300000Y-135540007D01*
X366350838Y-135535000D01*
X366401939Y-135535000D01*
X366452058Y-135525031D01*
X366502894Y-135520024D01*
X366551774Y-135505196D01*
X366601898Y-135495226D01*
X366649116Y-135475668D01*
X366697992Y-135460841D01*
X366743039Y-135436763D01*
X366790256Y-135417205D01*
X366832747Y-135388814D01*
X366877797Y-135364734D01*
X366903061Y-135344000D01*
X375243928Y-135344000D01*
X375243928Y-136944000D01*
X375256188Y-137068482D01*
X375292498Y-137188180D01*
X375351463Y-137298494D01*
X375430815Y-137395185D01*
X375527506Y-137474537D01*
X375637820Y-137533502D01*
X375757518Y-137569812D01*
X375882000Y-137582072D01*
X377482000Y-137582072D01*
X377606482Y-137569812D01*
X377726180Y-137533502D01*
X377836494Y-137474537D01*
X377933185Y-137395185D01*
X378012537Y-137298494D01*
X378071502Y-137188180D01*
X378107812Y-137068482D01*
X378120072Y-136944000D01*
X378120072Y-136715298D01*
X406094903Y-136715298D01*
X406908000Y-137528395D01*
X407721097Y-136715298D01*
X407649514Y-136471329D01*
X407394004Y-136350429D01*
X407119816Y-136281700D01*
X406837488Y-136267783D01*
X406557870Y-136309213D01*
X406291708Y-136404397D01*
X406166486Y-136471329D01*
X406094903Y-136715298D01*
X378120072Y-136715298D01*
X378120072Y-135344000D01*
X378107812Y-135219518D01*
X378071502Y-135099820D01*
X378012537Y-134989506D01*
X377933185Y-134892815D01*
X377836494Y-134813463D01*
X377726180Y-134754498D01*
X377606482Y-134718188D01*
X377482000Y-134705928D01*
X375882000Y-134705928D01*
X375757518Y-134718188D01*
X375637820Y-134754498D01*
X375527506Y-134813463D01*
X375430815Y-134892815D01*
X375351463Y-134989506D01*
X375292498Y-135099820D01*
X375256188Y-135219518D01*
X375243928Y-135344000D01*
X366903061Y-135344000D01*
X366917284Y-135332328D01*
X366959774Y-135303937D01*
X366995908Y-135267803D01*
X367035396Y-135235396D01*
X367067803Y-135195908D01*
X367103937Y-135159774D01*
X367132328Y-135117284D01*
X367164734Y-135077797D01*
X367188814Y-135032746D01*
X367217205Y-134990256D01*
X367236762Y-134943042D01*
X367260841Y-134897993D01*
X367275669Y-134849113D01*
X367295226Y-134801898D01*
X367305196Y-134751777D01*
X367320024Y-134702895D01*
X367325031Y-134652057D01*
X367335000Y-134601939D01*
X367335000Y-123043740D01*
X367577000Y-123043740D01*
X367577000Y-123336260D01*
X367634068Y-123623158D01*
X367746010Y-123893411D01*
X367908525Y-124136632D01*
X368115368Y-124343475D01*
X368289760Y-124460000D01*
X368115368Y-124576525D01*
X367908525Y-124783368D01*
X367746010Y-125026589D01*
X367634068Y-125296842D01*
X367577000Y-125583740D01*
X367577000Y-125876260D01*
X367634068Y-126163158D01*
X367746010Y-126433411D01*
X367908525Y-126676632D01*
X368115368Y-126883475D01*
X368289760Y-127000000D01*
X368115368Y-127116525D01*
X367908525Y-127323368D01*
X367746010Y-127566589D01*
X367634068Y-127836842D01*
X367577000Y-128123740D01*
X367577000Y-128416260D01*
X367634068Y-128703158D01*
X367746010Y-128973411D01*
X367908525Y-129216632D01*
X368115368Y-129423475D01*
X368289760Y-129540000D01*
X368115368Y-129656525D01*
X367908525Y-129863368D01*
X367746010Y-130106589D01*
X367634068Y-130376842D01*
X367577000Y-130663740D01*
X367577000Y-130956260D01*
X367634068Y-131243158D01*
X367746010Y-131513411D01*
X367908525Y-131756632D01*
X368115368Y-131963475D01*
X368358589Y-132125990D01*
X368628842Y-132237932D01*
X368915740Y-132295000D01*
X369208260Y-132295000D01*
X369495158Y-132237932D01*
X369765411Y-132125990D01*
X370008632Y-131963475D01*
X370215475Y-131756632D01*
X370377990Y-131513411D01*
X370489932Y-131243158D01*
X370547000Y-130956260D01*
X370547000Y-130663740D01*
X370489932Y-130376842D01*
X370377990Y-130106589D01*
X370215475Y-129863368D01*
X370008632Y-129656525D01*
X369834240Y-129540000D01*
X370008632Y-129423475D01*
X370215475Y-129216632D01*
X370377990Y-128973411D01*
X370450622Y-128798061D01*
X387765000Y-128798061D01*
X387765000Y-129001939D01*
X387804774Y-129201898D01*
X387882795Y-129390256D01*
X387996063Y-129559774D01*
X388140226Y-129703937D01*
X388309744Y-129817205D01*
X388498102Y-129895226D01*
X388698061Y-129935000D01*
X388901939Y-129935000D01*
X389101898Y-129895226D01*
X389290256Y-129817205D01*
X389459774Y-129703937D01*
X389503711Y-129660000D01*
X391713060Y-129660000D01*
X391798102Y-129695226D01*
X391998061Y-129735000D01*
X392201939Y-129735000D01*
X392401898Y-129695226D01*
X392590256Y-129617205D01*
X392759774Y-129503937D01*
X392903937Y-129359774D01*
X393017205Y-129190256D01*
X393095226Y-129001898D01*
X393135000Y-128801939D01*
X393135000Y-128598061D01*
X393095226Y-128398102D01*
X393017205Y-128209744D01*
X392903937Y-128040226D01*
X392759774Y-127896063D01*
X392590256Y-127782795D01*
X392401898Y-127704774D01*
X392201939Y-127665000D01*
X391998061Y-127665000D01*
X391798102Y-127704774D01*
X391609744Y-127782795D01*
X391440226Y-127896063D01*
X391296063Y-128040226D01*
X391229396Y-128140000D01*
X389503711Y-128140000D01*
X389459774Y-128096063D01*
X389290256Y-127982795D01*
X389101898Y-127904774D01*
X388901939Y-127865000D01*
X388698061Y-127865000D01*
X388498102Y-127904774D01*
X388309744Y-127982795D01*
X388140226Y-128096063D01*
X387996063Y-128240226D01*
X387882795Y-128409744D01*
X387804774Y-128598102D01*
X387765000Y-128798061D01*
X370450622Y-128798061D01*
X370489932Y-128703158D01*
X370547000Y-128416260D01*
X370547000Y-128123740D01*
X370489932Y-127836842D01*
X370377990Y-127566589D01*
X370215475Y-127323368D01*
X370008632Y-127116525D01*
X369834240Y-127000000D01*
X370008632Y-126883475D01*
X370215475Y-126676632D01*
X370377990Y-126433411D01*
X370489932Y-126163158D01*
X370547000Y-125876260D01*
X370547000Y-125583740D01*
X370489932Y-125296842D01*
X370377990Y-125026589D01*
X370215475Y-124783368D01*
X370008632Y-124576525D01*
X369834240Y-124460000D01*
X370008632Y-124343475D01*
X370215475Y-124136632D01*
X370377990Y-123893411D01*
X370489932Y-123623158D01*
X370547000Y-123336260D01*
X370547000Y-123043740D01*
X370489932Y-122756842D01*
X370377990Y-122486589D01*
X370215475Y-122243368D01*
X370008632Y-122036525D01*
X369951067Y-121998061D01*
X377265000Y-121998061D01*
X377265000Y-122201939D01*
X377304774Y-122401898D01*
X377382795Y-122590256D01*
X377496063Y-122759774D01*
X377640001Y-122903712D01*
X377640000Y-124496289D01*
X377596063Y-124540226D01*
X377482795Y-124709744D01*
X377404774Y-124898102D01*
X377365000Y-125098061D01*
X377365000Y-125301939D01*
X377404774Y-125501898D01*
X377482795Y-125690256D01*
X377596063Y-125859774D01*
X377740226Y-126003937D01*
X377909744Y-126117205D01*
X378098102Y-126195226D01*
X378298061Y-126235000D01*
X378501939Y-126235000D01*
X378701898Y-126195226D01*
X378890256Y-126117205D01*
X379059774Y-126003937D01*
X379203937Y-125859774D01*
X379317205Y-125690256D01*
X379395226Y-125501898D01*
X379435000Y-125301939D01*
X379435000Y-125098061D01*
X379395226Y-124898102D01*
X379317205Y-124709744D01*
X379203937Y-124540226D01*
X379160000Y-124496289D01*
X379160000Y-122675870D01*
X379217205Y-122590256D01*
X379295226Y-122401898D01*
X379305549Y-122350000D01*
X385311928Y-122350000D01*
X385311928Y-122850000D01*
X385314336Y-122874450D01*
X385314336Y-122899009D01*
X385326596Y-123023490D01*
X385345718Y-123119623D01*
X385382027Y-123239319D01*
X385419536Y-123329875D01*
X385478502Y-123440192D01*
X385532958Y-123521691D01*
X385612310Y-123618382D01*
X385681618Y-123687690D01*
X385763944Y-123755253D01*
X385704774Y-123898102D01*
X385665000Y-124098061D01*
X385665000Y-124301939D01*
X385704774Y-124501898D01*
X385782795Y-124690256D01*
X385896063Y-124859774D01*
X386040226Y-125003937D01*
X386209744Y-125117205D01*
X386398102Y-125195226D01*
X386598061Y-125235000D01*
X386801939Y-125235000D01*
X387001898Y-125195226D01*
X387190256Y-125117205D01*
X387359774Y-125003937D01*
X387503937Y-124859774D01*
X387617205Y-124690256D01*
X387695226Y-124501898D01*
X387735000Y-124301939D01*
X387735000Y-124098061D01*
X387695226Y-123898102D01*
X387636056Y-123755253D01*
X387718382Y-123687690D01*
X387787690Y-123618382D01*
X387867042Y-123521691D01*
X387921498Y-123440192D01*
X387980464Y-123329875D01*
X388017973Y-123239319D01*
X388054282Y-123119623D01*
X388073404Y-123023490D01*
X388085664Y-122899009D01*
X388085664Y-122874450D01*
X388088072Y-122850000D01*
X388088072Y-122350000D01*
X391711928Y-122350000D01*
X391711928Y-122850000D01*
X391714336Y-122874450D01*
X391714336Y-122899009D01*
X391726596Y-123023490D01*
X391745718Y-123119623D01*
X391782027Y-123239319D01*
X391819536Y-123329875D01*
X391878502Y-123440192D01*
X391932958Y-123521691D01*
X392012310Y-123618382D01*
X392081618Y-123687690D01*
X392163944Y-123755253D01*
X392104774Y-123898102D01*
X392065000Y-124098061D01*
X392065000Y-124301939D01*
X392104774Y-124501898D01*
X392182795Y-124690256D01*
X392296063Y-124859774D01*
X392440226Y-125003937D01*
X392609744Y-125117205D01*
X392798102Y-125195226D01*
X392998061Y-125235000D01*
X393201939Y-125235000D01*
X393401898Y-125195226D01*
X393590256Y-125117205D01*
X393759774Y-125003937D01*
X393903937Y-124859774D01*
X394017205Y-124690256D01*
X394095226Y-124501898D01*
X394135000Y-124301939D01*
X394135000Y-124098061D01*
X394095226Y-123898102D01*
X394036056Y-123755253D01*
X394118382Y-123687690D01*
X394187690Y-123618382D01*
X394267042Y-123521691D01*
X394321498Y-123440192D01*
X394380464Y-123329875D01*
X394417973Y-123239319D01*
X394454282Y-123119623D01*
X394473404Y-123023490D01*
X394485664Y-122899009D01*
X394485664Y-122874450D01*
X394488072Y-122850000D01*
X394488072Y-122350000D01*
X394711928Y-122350000D01*
X394711928Y-122850000D01*
X394714336Y-122874450D01*
X394714336Y-122899009D01*
X394726596Y-123023490D01*
X394745718Y-123119623D01*
X394782027Y-123239319D01*
X394819536Y-123329875D01*
X394878502Y-123440192D01*
X394932958Y-123521691D01*
X395012310Y-123618382D01*
X395081618Y-123687690D01*
X395133031Y-123729884D01*
X395104774Y-123798102D01*
X395065000Y-123998061D01*
X395065000Y-124201939D01*
X395104774Y-124401898D01*
X395182795Y-124590256D01*
X395296063Y-124759774D01*
X395440226Y-124903937D01*
X395609744Y-125017205D01*
X395798102Y-125095226D01*
X395998061Y-125135000D01*
X396201939Y-125135000D01*
X396401898Y-125095226D01*
X396590256Y-125017205D01*
X396759774Y-124903937D01*
X396903937Y-124759774D01*
X397017205Y-124590256D01*
X397095226Y-124401898D01*
X397135000Y-124201939D01*
X397135000Y-123998061D01*
X397095226Y-123798102D01*
X397066969Y-123729884D01*
X397118382Y-123687690D01*
X397187690Y-123618382D01*
X397267042Y-123521691D01*
X397321498Y-123440192D01*
X397380464Y-123329875D01*
X397417973Y-123239319D01*
X397454282Y-123119623D01*
X397473404Y-123023490D01*
X397485664Y-122899009D01*
X397485664Y-122874450D01*
X397488072Y-122850000D01*
X397488072Y-122350000D01*
X397475812Y-122225518D01*
X397439502Y-122105820D01*
X397380537Y-121995506D01*
X397301185Y-121898815D01*
X397204494Y-121819463D01*
X397094180Y-121760498D01*
X396974482Y-121724188D01*
X396850000Y-121711928D01*
X395350000Y-121711928D01*
X395225518Y-121724188D01*
X395105820Y-121760498D01*
X394995506Y-121819463D01*
X394898815Y-121898815D01*
X394819463Y-121995506D01*
X394760498Y-122105820D01*
X394724188Y-122225518D01*
X394711928Y-122350000D01*
X394488072Y-122350000D01*
X394475812Y-122225518D01*
X394439502Y-122105820D01*
X394380537Y-121995506D01*
X394301185Y-121898815D01*
X394204494Y-121819463D01*
X394094180Y-121760498D01*
X393974482Y-121724188D01*
X393850000Y-121711928D01*
X392350000Y-121711928D01*
X392225518Y-121724188D01*
X392105820Y-121760498D01*
X391995506Y-121819463D01*
X391898815Y-121898815D01*
X391819463Y-121995506D01*
X391760498Y-122105820D01*
X391724188Y-122225518D01*
X391711928Y-122350000D01*
X388088072Y-122350000D01*
X388075812Y-122225518D01*
X388039502Y-122105820D01*
X387980537Y-121995506D01*
X387901185Y-121898815D01*
X387804494Y-121819463D01*
X387694180Y-121760498D01*
X387574482Y-121724188D01*
X387450000Y-121711928D01*
X385950000Y-121711928D01*
X385825518Y-121724188D01*
X385705820Y-121760498D01*
X385595506Y-121819463D01*
X385498815Y-121898815D01*
X385419463Y-121995506D01*
X385360498Y-122105820D01*
X385324188Y-122225518D01*
X385311928Y-122350000D01*
X379305549Y-122350000D01*
X379335000Y-122201939D01*
X379335000Y-121998061D01*
X379295226Y-121798102D01*
X379217205Y-121609744D01*
X379103937Y-121440226D01*
X378959774Y-121296063D01*
X378790256Y-121182795D01*
X378601898Y-121104774D01*
X378401939Y-121065000D01*
X378198061Y-121065000D01*
X377998102Y-121104774D01*
X377809744Y-121182795D01*
X377640226Y-121296063D01*
X377496063Y-121440226D01*
X377382795Y-121609744D01*
X377304774Y-121798102D01*
X377265000Y-121998061D01*
X369951067Y-121998061D01*
X369826466Y-121914805D01*
X369943355Y-121845178D01*
X370159588Y-121650269D01*
X370333641Y-121416920D01*
X370458825Y-121154099D01*
X370503476Y-121006890D01*
X370382155Y-120777000D01*
X369189000Y-120777000D01*
X369189000Y-120797000D01*
X368935000Y-120797000D01*
X368935000Y-120777000D01*
X367741845Y-120777000D01*
X367620524Y-121006890D01*
X367665175Y-121154099D01*
X367790359Y-121416920D01*
X367964412Y-121650269D01*
X368180645Y-121845178D01*
X368297534Y-121914805D01*
X368115368Y-122036525D01*
X367908525Y-122243368D01*
X367746010Y-122486589D01*
X367634068Y-122756842D01*
X367577000Y-123043740D01*
X367335000Y-123043740D01*
X367335000Y-118466890D01*
X367620524Y-118466890D01*
X367665175Y-118614099D01*
X367790359Y-118876920D01*
X367964412Y-119110269D01*
X368180645Y-119305178D01*
X368306255Y-119380000D01*
X368180645Y-119454822D01*
X367964412Y-119649731D01*
X367790359Y-119883080D01*
X367665175Y-120145901D01*
X367620524Y-120293110D01*
X367741845Y-120523000D01*
X368935000Y-120523000D01*
X368935000Y-118237000D01*
X369189000Y-118237000D01*
X369189000Y-120523000D01*
X370382155Y-120523000D01*
X370503476Y-120293110D01*
X370458825Y-120145901D01*
X370333641Y-119883080D01*
X370159588Y-119649731D01*
X369943355Y-119454822D01*
X369817745Y-119380000D01*
X369943355Y-119305178D01*
X370159588Y-119110269D01*
X370333641Y-118876920D01*
X370458825Y-118614099D01*
X370503476Y-118466890D01*
X370382155Y-118237000D01*
X369189000Y-118237000D01*
X368935000Y-118237000D01*
X367741845Y-118237000D01*
X367620524Y-118466890D01*
X367335000Y-118466890D01*
X367335000Y-117128710D01*
X367858711Y-116605000D01*
X367996893Y-116605000D01*
X368115368Y-116723475D01*
X368297534Y-116845195D01*
X368180645Y-116914822D01*
X367964412Y-117109731D01*
X367790359Y-117343080D01*
X367665175Y-117605901D01*
X367620524Y-117753110D01*
X367741845Y-117983000D01*
X368935000Y-117983000D01*
X368935000Y-117963000D01*
X369189000Y-117963000D01*
X369189000Y-117983000D01*
X370382155Y-117983000D01*
X370503476Y-117753110D01*
X370458825Y-117605901D01*
X370333641Y-117343080D01*
X370159588Y-117109731D01*
X369943355Y-116914822D01*
X369826466Y-116845195D01*
X370008632Y-116723475D01*
X370034046Y-116698061D01*
X396965000Y-116698061D01*
X396965000Y-116901939D01*
X397004774Y-117101898D01*
X397082795Y-117290256D01*
X397196063Y-117459774D01*
X397340226Y-117603937D01*
X397509744Y-117717205D01*
X397698102Y-117795226D01*
X397898061Y-117835000D01*
X398101939Y-117835000D01*
X398301898Y-117795226D01*
X398434308Y-117740380D01*
X398481618Y-117787690D01*
X398578309Y-117867042D01*
X398659808Y-117921498D01*
X398770125Y-117980464D01*
X398860681Y-118017973D01*
X398980377Y-118054282D01*
X399076510Y-118073404D01*
X399200991Y-118085664D01*
X399225550Y-118085664D01*
X399250000Y-118088072D01*
X399750000Y-118088072D01*
X399874482Y-118075812D01*
X399994180Y-118039502D01*
X400104494Y-117980537D01*
X400201185Y-117901185D01*
X400280537Y-117804494D01*
X400339502Y-117694180D01*
X400375812Y-117574482D01*
X400388072Y-117450000D01*
X400388072Y-115950000D01*
X400375812Y-115825518D01*
X400339502Y-115705820D01*
X400280537Y-115595506D01*
X400201185Y-115498815D01*
X400104494Y-115419463D01*
X399994180Y-115360498D01*
X399874482Y-115324188D01*
X399750000Y-115311928D01*
X399250000Y-115311928D01*
X399225550Y-115314336D01*
X399200991Y-115314336D01*
X399076510Y-115326596D01*
X398980377Y-115345718D01*
X398860681Y-115382027D01*
X398770125Y-115419536D01*
X398659808Y-115478502D01*
X398578309Y-115532958D01*
X398481618Y-115612310D01*
X398412310Y-115681618D01*
X398332958Y-115778309D01*
X398312375Y-115809114D01*
X398301898Y-115804774D01*
X398101939Y-115765000D01*
X397898061Y-115765000D01*
X397698102Y-115804774D01*
X397509744Y-115882795D01*
X397340226Y-115996063D01*
X397196063Y-116140226D01*
X397082795Y-116309744D01*
X397004774Y-116498102D01*
X396965000Y-116698061D01*
X370034046Y-116698061D01*
X370215475Y-116516632D01*
X370377990Y-116273411D01*
X370489932Y-116003158D01*
X370547000Y-115716260D01*
X370547000Y-115423740D01*
X370489932Y-115136842D01*
X370377990Y-114866589D01*
X370215475Y-114623368D01*
X370008632Y-114416525D01*
X369765411Y-114254010D01*
X369495158Y-114142068D01*
X369208260Y-114085000D01*
X368915740Y-114085000D01*
X368628842Y-114142068D01*
X368358589Y-114254010D01*
X368115368Y-114416525D01*
X367996893Y-114535000D01*
X367480827Y-114535000D01*
X367429999Y-114529994D01*
X367379171Y-114535000D01*
X367379162Y-114535000D01*
X367227105Y-114549976D01*
X367032007Y-114609159D01*
X367005424Y-114623368D01*
X366852202Y-114705266D01*
X366734092Y-114802197D01*
X366694604Y-114834604D01*
X366662197Y-114874092D01*
X365660000Y-115876290D01*
X365660000Y-108627000D01*
X367065026Y-108627000D01*
X367263962Y-108924729D01*
G37*
%TD.AperFunction*%
%TD*%
D18*
%TO.N,GND*%
X423340000Y-142840000D02*
X365660000Y-142840000D01*
X365660000Y-139279872D01*
X366765000Y-139279872D01*
X366765000Y-139720128D01*
X366850890Y-140151925D01*
X367019369Y-140558669D01*
X367263962Y-140924729D01*
X367575271Y-141236038D01*
X367941331Y-141480631D01*
X368348075Y-141649110D01*
X368779872Y-141735000D01*
X369220128Y-141735000D01*
X369651925Y-141649110D01*
X370058669Y-141480631D01*
X370424729Y-141236038D01*
X370736038Y-140924729D01*
X370928491Y-140636702D01*
X375868903Y-140636702D01*
X375940486Y-140880671D01*
X376195996Y-141001571D01*
X376470184Y-141070300D01*
X376752512Y-141084217D01*
X377032130Y-141042787D01*
X377298292Y-140947603D01*
X377423514Y-140880671D01*
X377495097Y-140636702D01*
X376682000Y-139823605D01*
X375868903Y-140636702D01*
X370928491Y-140636702D01*
X370980631Y-140558669D01*
X371149110Y-140151925D01*
X371235000Y-139720128D01*
X371235000Y-139714512D01*
X375241783Y-139714512D01*
X375283213Y-139994130D01*
X375378397Y-140260292D01*
X375445329Y-140385514D01*
X375689298Y-140457097D01*
X376502395Y-139644000D01*
X376861605Y-139644000D01*
X377674702Y-140457097D01*
X377918671Y-140385514D01*
X378039571Y-140130004D01*
X378108300Y-139855816D01*
X378122217Y-139573488D01*
X378097698Y-139408000D01*
X405469928Y-139408000D01*
X405469928Y-141008000D01*
X405482188Y-141132482D01*
X405518498Y-141252180D01*
X405577463Y-141362494D01*
X405656815Y-141459185D01*
X405753506Y-141538537D01*
X405863820Y-141597502D01*
X405983518Y-141633812D01*
X406108000Y-141646072D01*
X407708000Y-141646072D01*
X407832482Y-141633812D01*
X407952180Y-141597502D01*
X408062494Y-141538537D01*
X408159185Y-141459185D01*
X408238537Y-141362494D01*
X408297502Y-141252180D01*
X408333812Y-141132482D01*
X408346072Y-141008000D01*
X408346072Y-139408000D01*
X408333812Y-139283518D01*
X408297502Y-139163820D01*
X408238537Y-139053506D01*
X408159185Y-138956815D01*
X408062494Y-138877463D01*
X407952180Y-138818498D01*
X407832482Y-138782188D01*
X407708000Y-138769928D01*
X407700785Y-138769928D01*
X407721097Y-138700702D01*
X406908000Y-137887605D01*
X406094903Y-138700702D01*
X406115215Y-138769928D01*
X406108000Y-138769928D01*
X405983518Y-138782188D01*
X405863820Y-138818498D01*
X405753506Y-138877463D01*
X405656815Y-138956815D01*
X405577463Y-139053506D01*
X405518498Y-139163820D01*
X405482188Y-139283518D01*
X405469928Y-139408000D01*
X378097698Y-139408000D01*
X378080787Y-139293870D01*
X377985603Y-139027708D01*
X377918671Y-138902486D01*
X377674702Y-138830903D01*
X376861605Y-139644000D01*
X376502395Y-139644000D01*
X375689298Y-138830903D01*
X375445329Y-138902486D01*
X375324429Y-139157996D01*
X375255700Y-139432184D01*
X375241783Y-139714512D01*
X371235000Y-139714512D01*
X371235000Y-139279872D01*
X371149110Y-138848075D01*
X371067603Y-138651298D01*
X375868903Y-138651298D01*
X376682000Y-139464395D01*
X377495097Y-138651298D01*
X377423514Y-138407329D01*
X377168004Y-138286429D01*
X376893816Y-138217700D01*
X376611488Y-138203783D01*
X376331870Y-138245213D01*
X376065708Y-138340397D01*
X375940486Y-138407329D01*
X375868903Y-138651298D01*
X371067603Y-138651298D01*
X370980631Y-138441331D01*
X370736038Y-138075271D01*
X370439279Y-137778512D01*
X405467783Y-137778512D01*
X405509213Y-138058130D01*
X405604397Y-138324292D01*
X405671329Y-138449514D01*
X405915298Y-138521097D01*
X406728395Y-137708000D01*
X407087605Y-137708000D01*
X407900702Y-138521097D01*
X408144671Y-138449514D01*
X408265571Y-138194004D01*
X408334300Y-137919816D01*
X408348217Y-137637488D01*
X408306787Y-137357870D01*
X408211603Y-137091708D01*
X408144671Y-136966486D01*
X407900702Y-136894903D01*
X407087605Y-137708000D01*
X406728395Y-137708000D01*
X405915298Y-136894903D01*
X405671329Y-136966486D01*
X405550429Y-137221996D01*
X405481700Y-137496184D01*
X405467783Y-137778512D01*
X370439279Y-137778512D01*
X370424729Y-137763962D01*
X370058669Y-137519369D01*
X369651925Y-137350890D01*
X369220128Y-137265000D01*
X368779872Y-137265000D01*
X368348075Y-137350890D01*
X367941331Y-137519369D01*
X367575271Y-137763962D01*
X367263962Y-138075271D01*
X367019369Y-138441331D01*
X366850890Y-138848075D01*
X366765000Y-139279872D01*
X365660000Y-139279872D01*
X365660000Y-135317150D01*
X365682716Y-135332328D01*
X365722203Y-135364734D01*
X365767254Y-135388814D01*
X365809744Y-135417205D01*
X365856958Y-135436762D01*
X365902007Y-135460841D01*
X365950887Y-135475669D01*
X365998102Y-135495226D01*
X366048223Y-135505196D01*
X366097105Y-135520024D01*
X366147943Y-135525031D01*
X366198061Y-135535000D01*
X366249162Y-135535000D01*
X366300000Y-135540007D01*
X366350838Y-135535000D01*
X366401939Y-135535000D01*
X366452058Y-135525031D01*
X366502894Y-135520024D01*
X366551774Y-135505196D01*
X366601898Y-135495226D01*
X366649116Y-135475668D01*
X366697992Y-135460841D01*
X366743039Y-135436763D01*
X366790256Y-135417205D01*
X366832747Y-135388814D01*
X366877797Y-135364734D01*
X366903061Y-135344000D01*
X375243928Y-135344000D01*
X375243928Y-136944000D01*
X375256188Y-137068482D01*
X375292498Y-137188180D01*
X375351463Y-137298494D01*
X375430815Y-137395185D01*
X375527506Y-137474537D01*
X375637820Y-137533502D01*
X375757518Y-137569812D01*
X375882000Y-137582072D01*
X377482000Y-137582072D01*
X377606482Y-137569812D01*
X377726180Y-137533502D01*
X377836494Y-137474537D01*
X377933185Y-137395185D01*
X378012537Y-137298494D01*
X378071502Y-137188180D01*
X378107812Y-137068482D01*
X378120072Y-136944000D01*
X378120072Y-136715298D01*
X406094903Y-136715298D01*
X406908000Y-137528395D01*
X407721097Y-136715298D01*
X407649514Y-136471329D01*
X407394004Y-136350429D01*
X407119816Y-136281700D01*
X406837488Y-136267783D01*
X406557870Y-136309213D01*
X406291708Y-136404397D01*
X406166486Y-136471329D01*
X406094903Y-136715298D01*
X378120072Y-136715298D01*
X378120072Y-135344000D01*
X378107812Y-135219518D01*
X378071502Y-135099820D01*
X378012537Y-134989506D01*
X377933185Y-134892815D01*
X377836494Y-134813463D01*
X377726180Y-134754498D01*
X377606482Y-134718188D01*
X377482000Y-134705928D01*
X375882000Y-134705928D01*
X375757518Y-134718188D01*
X375637820Y-134754498D01*
X375527506Y-134813463D01*
X375430815Y-134892815D01*
X375351463Y-134989506D01*
X375292498Y-135099820D01*
X375256188Y-135219518D01*
X375243928Y-135344000D01*
X366903061Y-135344000D01*
X366917284Y-135332328D01*
X366959774Y-135303937D01*
X366995908Y-135267803D01*
X367035396Y-135235396D01*
X367067803Y-135195908D01*
X367103937Y-135159774D01*
X367132328Y-135117284D01*
X367164734Y-135077797D01*
X367188814Y-135032746D01*
X367217205Y-134990256D01*
X367236762Y-134943042D01*
X367260841Y-134897993D01*
X367275669Y-134849113D01*
X367295226Y-134801898D01*
X367305196Y-134751777D01*
X367320024Y-134702895D01*
X367325031Y-134652057D01*
X367335000Y-134601939D01*
X367335000Y-123043740D01*
X367577000Y-123043740D01*
X367577000Y-123336260D01*
X367634068Y-123623158D01*
X367746010Y-123893411D01*
X367908525Y-124136632D01*
X368115368Y-124343475D01*
X368289760Y-124460000D01*
X368115368Y-124576525D01*
X367908525Y-124783368D01*
X367746010Y-125026589D01*
X367634068Y-125296842D01*
X367577000Y-125583740D01*
X367577000Y-125876260D01*
X367634068Y-126163158D01*
X367746010Y-126433411D01*
X367908525Y-126676632D01*
X368115368Y-126883475D01*
X368289760Y-127000000D01*
X368115368Y-127116525D01*
X367908525Y-127323368D01*
X367746010Y-127566589D01*
X367634068Y-127836842D01*
X367577000Y-128123740D01*
X367577000Y-128416260D01*
X367634068Y-128703158D01*
X367746010Y-128973411D01*
X367908525Y-129216632D01*
X368115368Y-129423475D01*
X368289760Y-129540000D01*
X368115368Y-129656525D01*
X367908525Y-129863368D01*
X367746010Y-130106589D01*
X367634068Y-130376842D01*
X367577000Y-130663740D01*
X367577000Y-130956260D01*
X367634068Y-131243158D01*
X367746010Y-131513411D01*
X367908525Y-131756632D01*
X368115368Y-131963475D01*
X368358589Y-132125990D01*
X368628842Y-132237932D01*
X368915740Y-132295000D01*
X369208260Y-132295000D01*
X369495158Y-132237932D01*
X369765411Y-132125990D01*
X370008632Y-131963475D01*
X370215475Y-131756632D01*
X370321428Y-131598061D01*
X414265000Y-131598061D01*
X414265000Y-131801939D01*
X414265001Y-131801944D01*
X414265000Y-140798061D01*
X414265000Y-141001939D01*
X414274969Y-141052058D01*
X414279976Y-141102894D01*
X414294804Y-141151774D01*
X414304774Y-141201898D01*
X414324332Y-141249116D01*
X414339159Y-141297992D01*
X414363237Y-141343039D01*
X414382795Y-141390256D01*
X414411186Y-141432747D01*
X414435266Y-141477797D01*
X414467672Y-141517284D01*
X414496063Y-141559774D01*
X414532197Y-141595908D01*
X414564604Y-141635396D01*
X414604092Y-141667803D01*
X414640226Y-141703937D01*
X414682716Y-141732328D01*
X414722203Y-141764734D01*
X414767254Y-141788814D01*
X414809744Y-141817205D01*
X414856958Y-141836762D01*
X414902007Y-141860841D01*
X414950887Y-141875669D01*
X414998102Y-141895226D01*
X415048223Y-141905196D01*
X415097105Y-141920024D01*
X415147943Y-141925031D01*
X415198061Y-141935000D01*
X415249162Y-141935000D01*
X415300000Y-141940007D01*
X415350838Y-141935000D01*
X415401939Y-141935000D01*
X415452058Y-141925031D01*
X415502894Y-141920024D01*
X415551774Y-141905196D01*
X415601898Y-141895226D01*
X415649116Y-141875668D01*
X415697992Y-141860841D01*
X415743039Y-141836763D01*
X415790256Y-141817205D01*
X415832747Y-141788814D01*
X415877797Y-141764734D01*
X415917284Y-141732328D01*
X415959774Y-141703937D01*
X415995908Y-141667803D01*
X416035396Y-141635396D01*
X416067803Y-141595908D01*
X416103937Y-141559774D01*
X416132328Y-141517284D01*
X416164734Y-141477797D01*
X416188814Y-141432746D01*
X416217205Y-141390256D01*
X416236762Y-141343042D01*
X416260841Y-141297993D01*
X416275669Y-141249113D01*
X416295226Y-141201898D01*
X416305196Y-141151777D01*
X416320024Y-141102895D01*
X416325031Y-141052057D01*
X416335000Y-141001939D01*
X416335000Y-139279872D01*
X417765000Y-139279872D01*
X417765000Y-139720128D01*
X417850890Y-140151925D01*
X418019369Y-140558669D01*
X418263962Y-140924729D01*
X418575271Y-141236038D01*
X418941331Y-141480631D01*
X419348075Y-141649110D01*
X419779872Y-141735000D01*
X420220128Y-141735000D01*
X420651925Y-141649110D01*
X421058669Y-141480631D01*
X421424729Y-141236038D01*
X421736038Y-140924729D01*
X421980631Y-140558669D01*
X422149110Y-140151925D01*
X422235000Y-139720128D01*
X422235000Y-139279872D01*
X422149110Y-138848075D01*
X421980631Y-138441331D01*
X421736038Y-138075271D01*
X421424729Y-137763962D01*
X421058669Y-137519369D01*
X420651925Y-137350890D01*
X420220128Y-137265000D01*
X419779872Y-137265000D01*
X419348075Y-137350890D01*
X418941331Y-137519369D01*
X418575271Y-137763962D01*
X418263962Y-138075271D01*
X418019369Y-138441331D01*
X417850890Y-138848075D01*
X417765000Y-139279872D01*
X416335000Y-139279872D01*
X416335000Y-131598061D01*
X416325031Y-131547943D01*
X416320024Y-131497105D01*
X416305196Y-131448223D01*
X416295226Y-131398102D01*
X416275669Y-131350887D01*
X416260841Y-131302007D01*
X416236762Y-131256958D01*
X416217205Y-131209744D01*
X416188814Y-131167254D01*
X416164734Y-131122203D01*
X416132328Y-131082716D01*
X416103937Y-131040226D01*
X416067803Y-131004092D01*
X416035396Y-130964604D01*
X415995908Y-130932197D01*
X415976601Y-130912890D01*
X417912524Y-130912890D01*
X417957175Y-131060099D01*
X418082359Y-131322920D01*
X418256412Y-131556269D01*
X418472645Y-131751178D01*
X418722748Y-131900157D01*
X418997109Y-131997481D01*
X419227000Y-131876814D01*
X419227000Y-130683000D01*
X419481000Y-130683000D01*
X419481000Y-131876814D01*
X419710891Y-131997481D01*
X419985252Y-131900157D01*
X420235355Y-131751178D01*
X420451588Y-131556269D01*
X420625641Y-131322920D01*
X420750825Y-131060099D01*
X420795476Y-130912890D01*
X420674155Y-130683000D01*
X419481000Y-130683000D01*
X419227000Y-130683000D01*
X418033845Y-130683000D01*
X417912524Y-130912890D01*
X415976601Y-130912890D01*
X415959774Y-130896063D01*
X415917284Y-130867672D01*
X415877797Y-130835266D01*
X415832746Y-130811186D01*
X415790256Y-130782795D01*
X415743042Y-130763238D01*
X415697993Y-130739159D01*
X415649113Y-130724331D01*
X415601898Y-130704774D01*
X415551777Y-130694804D01*
X415502895Y-130679976D01*
X415452057Y-130674969D01*
X415401939Y-130665000D01*
X415350838Y-130665000D01*
X415300000Y-130659993D01*
X415249162Y-130665000D01*
X415198061Y-130665000D01*
X415147942Y-130674969D01*
X415097106Y-130679976D01*
X415048226Y-130694804D01*
X414998102Y-130704774D01*
X414950884Y-130724332D01*
X414902008Y-130739159D01*
X414856962Y-130763237D01*
X414809744Y-130782795D01*
X414767250Y-130811188D01*
X414722204Y-130835266D01*
X414682721Y-130867669D01*
X414640226Y-130896063D01*
X414604087Y-130932202D01*
X414564605Y-130964604D01*
X414532203Y-131004086D01*
X414496063Y-131040226D01*
X414467668Y-131082722D01*
X414435267Y-131122203D01*
X414411191Y-131167247D01*
X414382795Y-131209744D01*
X414363235Y-131256966D01*
X414339160Y-131302007D01*
X414324335Y-131350878D01*
X414304774Y-131398102D01*
X414294803Y-131448232D01*
X414279977Y-131497105D01*
X414274971Y-131547933D01*
X414265000Y-131598061D01*
X370321428Y-131598061D01*
X370377990Y-131513411D01*
X370489932Y-131243158D01*
X370547000Y-130956260D01*
X370547000Y-130663740D01*
X370489932Y-130376842D01*
X370377990Y-130106589D01*
X370215475Y-129863368D01*
X370008632Y-129656525D01*
X369834240Y-129540000D01*
X370008632Y-129423475D01*
X370215475Y-129216632D01*
X370377990Y-128973411D01*
X370450622Y-128798061D01*
X387765000Y-128798061D01*
X387765000Y-129001939D01*
X387804774Y-129201898D01*
X387882795Y-129390256D01*
X387996063Y-129559774D01*
X388140226Y-129703937D01*
X388309744Y-129817205D01*
X388498102Y-129895226D01*
X388698061Y-129935000D01*
X388901939Y-129935000D01*
X389101898Y-129895226D01*
X389290256Y-129817205D01*
X389459774Y-129703937D01*
X389503711Y-129660000D01*
X391713060Y-129660000D01*
X391798102Y-129695226D01*
X391998061Y-129735000D01*
X392201939Y-129735000D01*
X392401898Y-129695226D01*
X392590256Y-129617205D01*
X392759774Y-129503937D01*
X392903937Y-129359774D01*
X393017205Y-129190256D01*
X393095226Y-129001898D01*
X393135000Y-128801939D01*
X393135000Y-128598061D01*
X393095226Y-128398102D01*
X393017205Y-128209744D01*
X392903937Y-128040226D01*
X392759774Y-127896063D01*
X392590256Y-127782795D01*
X392401898Y-127704774D01*
X392201939Y-127665000D01*
X391998061Y-127665000D01*
X391798102Y-127704774D01*
X391609744Y-127782795D01*
X391440226Y-127896063D01*
X391296063Y-128040226D01*
X391229396Y-128140000D01*
X389503711Y-128140000D01*
X389459774Y-128096063D01*
X389290256Y-127982795D01*
X389101898Y-127904774D01*
X388901939Y-127865000D01*
X388698061Y-127865000D01*
X388498102Y-127904774D01*
X388309744Y-127982795D01*
X388140226Y-128096063D01*
X387996063Y-128240226D01*
X387882795Y-128409744D01*
X387804774Y-128598102D01*
X387765000Y-128798061D01*
X370450622Y-128798061D01*
X370489932Y-128703158D01*
X370547000Y-128416260D01*
X370547000Y-128123740D01*
X370489932Y-127836842D01*
X370377990Y-127566589D01*
X370215475Y-127323368D01*
X370008632Y-127116525D01*
X369834240Y-127000000D01*
X370008632Y-126883475D01*
X370215475Y-126676632D01*
X370377990Y-126433411D01*
X370489932Y-126163158D01*
X370547000Y-125876260D01*
X370547000Y-125583740D01*
X370489932Y-125296842D01*
X370377990Y-125026589D01*
X370215475Y-124783368D01*
X370008632Y-124576525D01*
X369834240Y-124460000D01*
X370008632Y-124343475D01*
X370215475Y-124136632D01*
X370377990Y-123893411D01*
X370489932Y-123623158D01*
X370547000Y-123336260D01*
X370547000Y-123043740D01*
X370489932Y-122756842D01*
X370377990Y-122486589D01*
X370215475Y-122243368D01*
X370008632Y-122036525D01*
X369951067Y-121998061D01*
X377265000Y-121998061D01*
X377265000Y-122201939D01*
X377304774Y-122401898D01*
X377382795Y-122590256D01*
X377496063Y-122759774D01*
X377640001Y-122903712D01*
X377640000Y-124496289D01*
X377596063Y-124540226D01*
X377482795Y-124709744D01*
X377404774Y-124898102D01*
X377365000Y-125098061D01*
X377365000Y-125301939D01*
X377404774Y-125501898D01*
X377482795Y-125690256D01*
X377596063Y-125859774D01*
X377740226Y-126003937D01*
X377909744Y-126117205D01*
X378098102Y-126195226D01*
X378298061Y-126235000D01*
X378501939Y-126235000D01*
X378701898Y-126195226D01*
X378890256Y-126117205D01*
X379059774Y-126003937D01*
X379203937Y-125859774D01*
X379317205Y-125690256D01*
X379395226Y-125501898D01*
X379435000Y-125301939D01*
X379435000Y-125098061D01*
X379395226Y-124898102D01*
X379317205Y-124709744D01*
X379203937Y-124540226D01*
X379160000Y-124496289D01*
X379160000Y-122675870D01*
X379217205Y-122590256D01*
X379295226Y-122401898D01*
X379305549Y-122350000D01*
X385311928Y-122350000D01*
X385311928Y-122850000D01*
X385314336Y-122874450D01*
X385314336Y-122899009D01*
X385326596Y-123023490D01*
X385345718Y-123119623D01*
X385382027Y-123239319D01*
X385419536Y-123329875D01*
X385478502Y-123440192D01*
X385532958Y-123521691D01*
X385612310Y-123618382D01*
X385681618Y-123687690D01*
X385763944Y-123755253D01*
X385704774Y-123898102D01*
X385665000Y-124098061D01*
X385665000Y-124301939D01*
X385704774Y-124501898D01*
X385782795Y-124690256D01*
X385896063Y-124859774D01*
X386040226Y-125003937D01*
X386209744Y-125117205D01*
X386398102Y-125195226D01*
X386598061Y-125235000D01*
X386801939Y-125235000D01*
X387001898Y-125195226D01*
X387190256Y-125117205D01*
X387359774Y-125003937D01*
X387503937Y-124859774D01*
X387617205Y-124690256D01*
X387695226Y-124501898D01*
X387735000Y-124301939D01*
X387735000Y-124098061D01*
X387695226Y-123898102D01*
X387636056Y-123755253D01*
X387718382Y-123687690D01*
X387787690Y-123618382D01*
X387867042Y-123521691D01*
X387921498Y-123440192D01*
X387980464Y-123329875D01*
X388017973Y-123239319D01*
X388054282Y-123119623D01*
X388073404Y-123023490D01*
X388085664Y-122899009D01*
X388085664Y-122874450D01*
X388088072Y-122850000D01*
X388088072Y-122350000D01*
X391711928Y-122350000D01*
X391711928Y-122850000D01*
X391714336Y-122874450D01*
X391714336Y-122899009D01*
X391726596Y-123023490D01*
X391745718Y-123119623D01*
X391782027Y-123239319D01*
X391819536Y-123329875D01*
X391878502Y-123440192D01*
X391932958Y-123521691D01*
X392012310Y-123618382D01*
X392081618Y-123687690D01*
X392163944Y-123755253D01*
X392104774Y-123898102D01*
X392065000Y-124098061D01*
X392065000Y-124301939D01*
X392104774Y-124501898D01*
X392182795Y-124690256D01*
X392296063Y-124859774D01*
X392440226Y-125003937D01*
X392609744Y-125117205D01*
X392798102Y-125195226D01*
X392998061Y-125235000D01*
X393201939Y-125235000D01*
X393401898Y-125195226D01*
X393590256Y-125117205D01*
X393759774Y-125003937D01*
X393903937Y-124859774D01*
X394017205Y-124690256D01*
X394095226Y-124501898D01*
X394135000Y-124301939D01*
X394135000Y-124098061D01*
X394095226Y-123898102D01*
X394036056Y-123755253D01*
X394118382Y-123687690D01*
X394187690Y-123618382D01*
X394267042Y-123521691D01*
X394321498Y-123440192D01*
X394380464Y-123329875D01*
X394417973Y-123239319D01*
X394454282Y-123119623D01*
X394473404Y-123023490D01*
X394485664Y-122899009D01*
X394485664Y-122874450D01*
X394488072Y-122850000D01*
X394488072Y-122350000D01*
X394711928Y-122350000D01*
X394711928Y-122850000D01*
X394714336Y-122874450D01*
X394714336Y-122899009D01*
X394726596Y-123023490D01*
X394745718Y-123119623D01*
X394782027Y-123239319D01*
X394819536Y-123329875D01*
X394878502Y-123440192D01*
X394932958Y-123521691D01*
X395012310Y-123618382D01*
X395081618Y-123687690D01*
X395133031Y-123729884D01*
X395104774Y-123798102D01*
X395065000Y-123998061D01*
X395065000Y-124201939D01*
X395104774Y-124401898D01*
X395182795Y-124590256D01*
X395296063Y-124759774D01*
X395440226Y-124903937D01*
X395609744Y-125017205D01*
X395798102Y-125095226D01*
X395998061Y-125135000D01*
X396201939Y-125135000D01*
X396401898Y-125095226D01*
X396590256Y-125017205D01*
X396759774Y-124903937D01*
X396903937Y-124759774D01*
X397017205Y-124590256D01*
X397095226Y-124401898D01*
X397135000Y-124201939D01*
X397135000Y-123998061D01*
X397095226Y-123798102D01*
X397066969Y-123729884D01*
X397118382Y-123687690D01*
X397187690Y-123618382D01*
X397267042Y-123521691D01*
X397321498Y-123440192D01*
X397380464Y-123329875D01*
X397417973Y-123239319D01*
X397454282Y-123119623D01*
X397473404Y-123023490D01*
X397485664Y-122899009D01*
X397485664Y-122874450D01*
X397488072Y-122850000D01*
X397488072Y-122350000D01*
X397475812Y-122225518D01*
X397439502Y-122105820D01*
X397380537Y-121995506D01*
X397301185Y-121898815D01*
X397204494Y-121819463D01*
X397094180Y-121760498D01*
X396974482Y-121724188D01*
X396850000Y-121711928D01*
X395350000Y-121711928D01*
X395225518Y-121724188D01*
X395105820Y-121760498D01*
X394995506Y-121819463D01*
X394898815Y-121898815D01*
X394819463Y-121995506D01*
X394760498Y-122105820D01*
X394724188Y-122225518D01*
X394711928Y-122350000D01*
X394488072Y-122350000D01*
X394475812Y-122225518D01*
X394439502Y-122105820D01*
X394380537Y-121995506D01*
X394301185Y-121898815D01*
X394204494Y-121819463D01*
X394094180Y-121760498D01*
X393974482Y-121724188D01*
X393850000Y-121711928D01*
X392350000Y-121711928D01*
X392225518Y-121724188D01*
X392105820Y-121760498D01*
X391995506Y-121819463D01*
X391898815Y-121898815D01*
X391819463Y-121995506D01*
X391760498Y-122105820D01*
X391724188Y-122225518D01*
X391711928Y-122350000D01*
X388088072Y-122350000D01*
X388075812Y-122225518D01*
X388039502Y-122105820D01*
X387980537Y-121995506D01*
X387901185Y-121898815D01*
X387804494Y-121819463D01*
X387694180Y-121760498D01*
X387574482Y-121724188D01*
X387450000Y-121711928D01*
X385950000Y-121711928D01*
X385825518Y-121724188D01*
X385705820Y-121760498D01*
X385595506Y-121819463D01*
X385498815Y-121898815D01*
X385419463Y-121995506D01*
X385360498Y-122105820D01*
X385324188Y-122225518D01*
X385311928Y-122350000D01*
X379305549Y-122350000D01*
X379335000Y-122201939D01*
X379335000Y-121998061D01*
X379295226Y-121798102D01*
X379217205Y-121609744D01*
X379103937Y-121440226D01*
X378959774Y-121296063D01*
X378790256Y-121182795D01*
X378601898Y-121104774D01*
X378401939Y-121065000D01*
X378198061Y-121065000D01*
X377998102Y-121104774D01*
X377809744Y-121182795D01*
X377640226Y-121296063D01*
X377496063Y-121440226D01*
X377382795Y-121609744D01*
X377304774Y-121798102D01*
X377265000Y-121998061D01*
X369951067Y-121998061D01*
X369826466Y-121914805D01*
X369943355Y-121845178D01*
X370159588Y-121650269D01*
X370333641Y-121416920D01*
X370458825Y-121154099D01*
X370503476Y-121006890D01*
X370382155Y-120777000D01*
X369189000Y-120777000D01*
X369189000Y-120797000D01*
X368935000Y-120797000D01*
X368935000Y-120777000D01*
X367741845Y-120777000D01*
X367620524Y-121006890D01*
X367665175Y-121154099D01*
X367790359Y-121416920D01*
X367964412Y-121650269D01*
X368180645Y-121845178D01*
X368297534Y-121914805D01*
X368115368Y-122036525D01*
X367908525Y-122243368D01*
X367746010Y-122486589D01*
X367634068Y-122756842D01*
X367577000Y-123043740D01*
X367335000Y-123043740D01*
X367335000Y-118466890D01*
X367620524Y-118466890D01*
X367665175Y-118614099D01*
X367790359Y-118876920D01*
X367964412Y-119110269D01*
X368180645Y-119305178D01*
X368306255Y-119380000D01*
X368180645Y-119454822D01*
X367964412Y-119649731D01*
X367790359Y-119883080D01*
X367665175Y-120145901D01*
X367620524Y-120293110D01*
X367741845Y-120523000D01*
X368935000Y-120523000D01*
X368935000Y-118237000D01*
X369189000Y-118237000D01*
X369189000Y-120523000D01*
X370382155Y-120523000D01*
X370503476Y-120293110D01*
X370458825Y-120145901D01*
X370333641Y-119883080D01*
X370159588Y-119649731D01*
X369943355Y-119454822D01*
X369817745Y-119380000D01*
X369943355Y-119305178D01*
X370159588Y-119110269D01*
X370333641Y-118876920D01*
X370458825Y-118614099D01*
X370503476Y-118466890D01*
X370382155Y-118237000D01*
X369189000Y-118237000D01*
X368935000Y-118237000D01*
X367741845Y-118237000D01*
X367620524Y-118466890D01*
X367335000Y-118466890D01*
X367335000Y-117128710D01*
X367858711Y-116605000D01*
X367996893Y-116605000D01*
X368115368Y-116723475D01*
X368297534Y-116845195D01*
X368180645Y-116914822D01*
X367964412Y-117109731D01*
X367790359Y-117343080D01*
X367665175Y-117605901D01*
X367620524Y-117753110D01*
X367741845Y-117983000D01*
X368935000Y-117983000D01*
X368935000Y-117963000D01*
X369189000Y-117963000D01*
X369189000Y-117983000D01*
X370382155Y-117983000D01*
X370503476Y-117753110D01*
X370458825Y-117605901D01*
X370333641Y-117343080D01*
X370159588Y-117109731D01*
X369943355Y-116914822D01*
X369826466Y-116845195D01*
X370008632Y-116723475D01*
X370034046Y-116698061D01*
X396965000Y-116698061D01*
X396965000Y-116901939D01*
X397004774Y-117101898D01*
X397082795Y-117290256D01*
X397196063Y-117459774D01*
X397340226Y-117603937D01*
X397509744Y-117717205D01*
X397698102Y-117795226D01*
X397898061Y-117835000D01*
X398101939Y-117835000D01*
X398301898Y-117795226D01*
X398434308Y-117740380D01*
X398481618Y-117787690D01*
X398578309Y-117867042D01*
X398659808Y-117921498D01*
X398770125Y-117980464D01*
X398860681Y-118017973D01*
X398980377Y-118054282D01*
X399076510Y-118073404D01*
X399200991Y-118085664D01*
X399225550Y-118085664D01*
X399250000Y-118088072D01*
X399750000Y-118088072D01*
X399874482Y-118075812D01*
X399994180Y-118039502D01*
X400104494Y-117980537D01*
X400201185Y-117901185D01*
X400280537Y-117804494D01*
X400339502Y-117694180D01*
X400375812Y-117574482D01*
X400388072Y-117450000D01*
X400388072Y-115950000D01*
X400375812Y-115825518D01*
X400339502Y-115705820D01*
X400280537Y-115595506D01*
X400201185Y-115498815D01*
X400104494Y-115419463D01*
X399994180Y-115360498D01*
X399874482Y-115324188D01*
X399750000Y-115311928D01*
X399250000Y-115311928D01*
X399225550Y-115314336D01*
X399200991Y-115314336D01*
X399076510Y-115326596D01*
X398980377Y-115345718D01*
X398860681Y-115382027D01*
X398770125Y-115419536D01*
X398659808Y-115478502D01*
X398578309Y-115532958D01*
X398481618Y-115612310D01*
X398412310Y-115681618D01*
X398332958Y-115778309D01*
X398312375Y-115809114D01*
X398301898Y-115804774D01*
X398101939Y-115765000D01*
X397898061Y-115765000D01*
X397698102Y-115804774D01*
X397509744Y-115882795D01*
X397340226Y-115996063D01*
X397196063Y-116140226D01*
X397082795Y-116309744D01*
X397004774Y-116498102D01*
X396965000Y-116698061D01*
X370034046Y-116698061D01*
X370215475Y-116516632D01*
X370377990Y-116273411D01*
X370489932Y-116003158D01*
X370547000Y-115716260D01*
X370547000Y-115423740D01*
X370496476Y-115169740D01*
X417869000Y-115169740D01*
X417869000Y-115462260D01*
X417926068Y-115749158D01*
X418038010Y-116019411D01*
X418200525Y-116262632D01*
X418407368Y-116469475D01*
X418581760Y-116586000D01*
X418407368Y-116702525D01*
X418200525Y-116909368D01*
X418038010Y-117152589D01*
X417926068Y-117422842D01*
X417869000Y-117709740D01*
X417869000Y-118002260D01*
X417926068Y-118289158D01*
X418038010Y-118559411D01*
X418200525Y-118802632D01*
X418407368Y-119009475D01*
X418581760Y-119126000D01*
X418407368Y-119242525D01*
X418200525Y-119449368D01*
X418038010Y-119692589D01*
X417926068Y-119962842D01*
X417869000Y-120249740D01*
X417869000Y-120542260D01*
X417926068Y-120829158D01*
X418038010Y-121099411D01*
X418200525Y-121342632D01*
X418407368Y-121549475D01*
X418581760Y-121666000D01*
X418407368Y-121782525D01*
X418200525Y-121989368D01*
X418038010Y-122232589D01*
X417926068Y-122502842D01*
X417869000Y-122789740D01*
X417869000Y-123082260D01*
X417926068Y-123369158D01*
X418038010Y-123639411D01*
X418200525Y-123882632D01*
X418407368Y-124089475D01*
X418581760Y-124206000D01*
X418407368Y-124322525D01*
X418200525Y-124529368D01*
X418038010Y-124772589D01*
X417926068Y-125042842D01*
X417869000Y-125329740D01*
X417869000Y-125622260D01*
X417926068Y-125909158D01*
X418038010Y-126179411D01*
X418200525Y-126422632D01*
X418407368Y-126629475D01*
X418581760Y-126746000D01*
X418407368Y-126862525D01*
X418200525Y-127069368D01*
X418038010Y-127312589D01*
X417926068Y-127582842D01*
X417869000Y-127869740D01*
X417869000Y-128162260D01*
X417926068Y-128449158D01*
X418038010Y-128719411D01*
X418200525Y-128962632D01*
X418407368Y-129169475D01*
X418589534Y-129291195D01*
X418472645Y-129360822D01*
X418256412Y-129555731D01*
X418082359Y-129789080D01*
X417957175Y-130051901D01*
X417912524Y-130199110D01*
X418033845Y-130429000D01*
X419227000Y-130429000D01*
X419227000Y-130409000D01*
X419481000Y-130409000D01*
X419481000Y-130429000D01*
X420674155Y-130429000D01*
X420795476Y-130199110D01*
X420750825Y-130051901D01*
X420625641Y-129789080D01*
X420451588Y-129555731D01*
X420235355Y-129360822D01*
X420118466Y-129291195D01*
X420300632Y-129169475D01*
X420507475Y-128962632D01*
X420669990Y-128719411D01*
X420781932Y-128449158D01*
X420839000Y-128162260D01*
X420839000Y-127869740D01*
X420781932Y-127582842D01*
X420669990Y-127312589D01*
X420507475Y-127069368D01*
X420300632Y-126862525D01*
X420126240Y-126746000D01*
X420300632Y-126629475D01*
X420507475Y-126422632D01*
X420669990Y-126179411D01*
X420781932Y-125909158D01*
X420839000Y-125622260D01*
X420839000Y-125329740D01*
X420781932Y-125042842D01*
X420669990Y-124772589D01*
X420507475Y-124529368D01*
X420300632Y-124322525D01*
X420126240Y-124206000D01*
X420300632Y-124089475D01*
X420507475Y-123882632D01*
X420669990Y-123639411D01*
X420781932Y-123369158D01*
X420839000Y-123082260D01*
X420839000Y-122789740D01*
X420781932Y-122502842D01*
X420669990Y-122232589D01*
X420507475Y-121989368D01*
X420300632Y-121782525D01*
X420126240Y-121666000D01*
X420300632Y-121549475D01*
X420507475Y-121342632D01*
X420669990Y-121099411D01*
X420781932Y-120829158D01*
X420839000Y-120542260D01*
X420839000Y-120249740D01*
X420781932Y-119962842D01*
X420669990Y-119692589D01*
X420507475Y-119449368D01*
X420300632Y-119242525D01*
X420126240Y-119126000D01*
X420300632Y-119009475D01*
X420507475Y-118802632D01*
X420669990Y-118559411D01*
X420781932Y-118289158D01*
X420839000Y-118002260D01*
X420839000Y-117709740D01*
X420781932Y-117422842D01*
X420669990Y-117152589D01*
X420507475Y-116909368D01*
X420300632Y-116702525D01*
X420126240Y-116586000D01*
X420300632Y-116469475D01*
X420403198Y-116366909D01*
X420965001Y-116928712D01*
X420965000Y-132771289D01*
X420340229Y-133396061D01*
X420340226Y-133396063D01*
X420196063Y-133540226D01*
X420167671Y-133582717D01*
X420135266Y-133622203D01*
X420111187Y-133667252D01*
X420082795Y-133709744D01*
X420063236Y-133756964D01*
X420039160Y-133802007D01*
X420024335Y-133850878D01*
X420004774Y-133898102D01*
X419994803Y-133948232D01*
X419979977Y-133997105D01*
X419974971Y-134047933D01*
X419965000Y-134098061D01*
X419965000Y-134149172D01*
X419959994Y-134200000D01*
X419965000Y-134250828D01*
X419965000Y-134301939D01*
X419974971Y-134352067D01*
X419979977Y-134402895D01*
X419994803Y-134451768D01*
X420004774Y-134501898D01*
X420024335Y-134549122D01*
X420039160Y-134597993D01*
X420063236Y-134643036D01*
X420082795Y-134690256D01*
X420111187Y-134732748D01*
X420135266Y-134777797D01*
X420167672Y-134817284D01*
X420196063Y-134859774D01*
X420232197Y-134895908D01*
X420264604Y-134935396D01*
X420304092Y-134967803D01*
X420340226Y-135003937D01*
X420382716Y-135032328D01*
X420422203Y-135064734D01*
X420467252Y-135088813D01*
X420509744Y-135117205D01*
X420556964Y-135136764D01*
X420602007Y-135160840D01*
X420650878Y-135175665D01*
X420698102Y-135195226D01*
X420748232Y-135205197D01*
X420797105Y-135220023D01*
X420847933Y-135225029D01*
X420898061Y-135235000D01*
X420949172Y-135235000D01*
X421000000Y-135240006D01*
X421050828Y-135235000D01*
X421101939Y-135235000D01*
X421152067Y-135225029D01*
X421202895Y-135220023D01*
X421251768Y-135205197D01*
X421301898Y-135195226D01*
X421349122Y-135175665D01*
X421397993Y-135160840D01*
X421443036Y-135136764D01*
X421490256Y-135117205D01*
X421532748Y-135088813D01*
X421577797Y-135064734D01*
X421617283Y-135032329D01*
X421659774Y-135003937D01*
X421803937Y-134859774D01*
X421803939Y-134859771D01*
X422695908Y-133967803D01*
X422735396Y-133935396D01*
X422813500Y-133840226D01*
X422864734Y-133777798D01*
X422960841Y-133597994D01*
X422989119Y-133504774D01*
X423020024Y-133402895D01*
X423035000Y-133250838D01*
X423035000Y-133250835D01*
X423040007Y-133200000D01*
X423035000Y-133149165D01*
X423035000Y-116550835D01*
X423040007Y-116500000D01*
X423032674Y-116425550D01*
X423020024Y-116297105D01*
X422960841Y-116102007D01*
X422904213Y-115996063D01*
X422864734Y-115922202D01*
X422767803Y-115804092D01*
X422735396Y-115764604D01*
X422695908Y-115732197D01*
X421583807Y-114620097D01*
X421551396Y-114580604D01*
X421393797Y-114451266D01*
X421213993Y-114355159D01*
X421018895Y-114295976D01*
X420866838Y-114281000D01*
X420866828Y-114281000D01*
X420816000Y-114275994D01*
X420765172Y-114281000D01*
X420419107Y-114281000D01*
X420300632Y-114162525D01*
X420057411Y-114000010D01*
X419787158Y-113888068D01*
X419500260Y-113831000D01*
X419207740Y-113831000D01*
X418920842Y-113888068D01*
X418650589Y-114000010D01*
X418407368Y-114162525D01*
X418200525Y-114369368D01*
X418038010Y-114612589D01*
X417926068Y-114882842D01*
X417869000Y-115169740D01*
X370496476Y-115169740D01*
X370489932Y-115136842D01*
X370377990Y-114866589D01*
X370215475Y-114623368D01*
X370008632Y-114416525D01*
X369765411Y-114254010D01*
X369495158Y-114142068D01*
X369208260Y-114085000D01*
X368915740Y-114085000D01*
X368628842Y-114142068D01*
X368358589Y-114254010D01*
X368115368Y-114416525D01*
X367996893Y-114535000D01*
X367480827Y-114535000D01*
X367429999Y-114529994D01*
X367379171Y-114535000D01*
X367379162Y-114535000D01*
X367227105Y-114549976D01*
X367032007Y-114609159D01*
X367005424Y-114623368D01*
X366852202Y-114705266D01*
X366734092Y-114802197D01*
X366694604Y-114834604D01*
X366662197Y-114874092D01*
X365660000Y-115876290D01*
X365660000Y-107279872D01*
X366765000Y-107279872D01*
X366765000Y-107720128D01*
X366850890Y-108151925D01*
X367019369Y-108558669D01*
X367263962Y-108924729D01*
X367575271Y-109236038D01*
X367941331Y-109480631D01*
X368348075Y-109649110D01*
X368779872Y-109735000D01*
X369220128Y-109735000D01*
X369651925Y-109649110D01*
X370058669Y-109480631D01*
X370424729Y-109236038D01*
X370732370Y-108928397D01*
X374351208Y-108928397D01*
X374428843Y-109177472D01*
X374692883Y-109303371D01*
X374976411Y-109375339D01*
X375268531Y-109390611D01*
X375558019Y-109348599D01*
X375833747Y-109250919D01*
X375971157Y-109177472D01*
X376048792Y-108928397D01*
X375200000Y-108079605D01*
X374351208Y-108928397D01*
X370732370Y-108928397D01*
X370736038Y-108924729D01*
X370980631Y-108558669D01*
X371149110Y-108151925D01*
X371185589Y-107968531D01*
X373709389Y-107968531D01*
X373751401Y-108258019D01*
X373849081Y-108533747D01*
X373922528Y-108671157D01*
X374171603Y-108748792D01*
X375020395Y-107900000D01*
X375379605Y-107900000D01*
X376228397Y-108748792D01*
X376470689Y-108673271D01*
X376586525Y-108846632D01*
X376793368Y-109053475D01*
X377036589Y-109215990D01*
X377306842Y-109327932D01*
X377593740Y-109385000D01*
X377886260Y-109385000D01*
X378173158Y-109327932D01*
X378443411Y-109215990D01*
X378686632Y-109053475D01*
X378893475Y-108846632D01*
X379010000Y-108672240D01*
X379126525Y-108846632D01*
X379333368Y-109053475D01*
X379576589Y-109215990D01*
X379846842Y-109327932D01*
X380133740Y-109385000D01*
X380426260Y-109385000D01*
X380713158Y-109327932D01*
X380983411Y-109215990D01*
X381226632Y-109053475D01*
X381433475Y-108846632D01*
X381595990Y-108603411D01*
X381707932Y-108333158D01*
X381765000Y-108046260D01*
X381765000Y-107753740D01*
X381714142Y-107498061D01*
X389565000Y-107498061D01*
X389565000Y-107701939D01*
X389604774Y-107901898D01*
X389682795Y-108090256D01*
X389796063Y-108259774D01*
X389940226Y-108403937D01*
X390109744Y-108517205D01*
X390298102Y-108595226D01*
X390498061Y-108635000D01*
X390701939Y-108635000D01*
X390901898Y-108595226D01*
X391090256Y-108517205D01*
X391259774Y-108403937D01*
X391403937Y-108259774D01*
X391517205Y-108090256D01*
X391595226Y-107901898D01*
X391635000Y-107701939D01*
X391635000Y-107639801D01*
X392614802Y-106660000D01*
X397770521Y-106660000D01*
X397718010Y-106738589D01*
X397606068Y-107008842D01*
X397549000Y-107295740D01*
X397549000Y-107588260D01*
X397606068Y-107875158D01*
X397718010Y-108145411D01*
X397880525Y-108388632D01*
X398087368Y-108595475D01*
X398330589Y-108757990D01*
X398600842Y-108869932D01*
X398887740Y-108927000D01*
X399180260Y-108927000D01*
X399467158Y-108869932D01*
X399737411Y-108757990D01*
X399980632Y-108595475D01*
X400187475Y-108388632D01*
X400304000Y-108214240D01*
X400420525Y-108388632D01*
X400627368Y-108595475D01*
X400870589Y-108757990D01*
X401140842Y-108869932D01*
X401427740Y-108927000D01*
X401720260Y-108927000D01*
X402007158Y-108869932D01*
X402277411Y-108757990D01*
X402520632Y-108595475D01*
X402727475Y-108388632D01*
X402844000Y-108214240D01*
X402960525Y-108388632D01*
X403167368Y-108595475D01*
X403410589Y-108757990D01*
X403680842Y-108869932D01*
X403967740Y-108927000D01*
X404260260Y-108927000D01*
X404547158Y-108869932D01*
X404817411Y-108757990D01*
X405060632Y-108595475D01*
X405267475Y-108388632D01*
X405384000Y-108214240D01*
X405500525Y-108388632D01*
X405707368Y-108595475D01*
X405950589Y-108757990D01*
X406220842Y-108869932D01*
X406507740Y-108927000D01*
X406800260Y-108927000D01*
X407087158Y-108869932D01*
X407357411Y-108757990D01*
X407600632Y-108595475D01*
X407807475Y-108388632D01*
X407969990Y-108145411D01*
X408081932Y-107875158D01*
X408139000Y-107588260D01*
X408139000Y-107295740D01*
X408135844Y-107279872D01*
X417765000Y-107279872D01*
X417765000Y-107720128D01*
X417850890Y-108151925D01*
X418019369Y-108558669D01*
X418263962Y-108924729D01*
X418575271Y-109236038D01*
X418941331Y-109480631D01*
X419348075Y-109649110D01*
X419779872Y-109735000D01*
X420220128Y-109735000D01*
X420651925Y-109649110D01*
X421058669Y-109480631D01*
X421424729Y-109236038D01*
X421736038Y-108924729D01*
X421980631Y-108558669D01*
X422149110Y-108151925D01*
X422235000Y-107720128D01*
X422235000Y-107279872D01*
X422149110Y-106848075D01*
X421980631Y-106441331D01*
X421736038Y-106075271D01*
X421424729Y-105763962D01*
X421058669Y-105519369D01*
X420651925Y-105350890D01*
X420220128Y-105265000D01*
X419779872Y-105265000D01*
X419348075Y-105350890D01*
X418941331Y-105519369D01*
X418575271Y-105763962D01*
X418263962Y-106075271D01*
X418019369Y-106441331D01*
X417850890Y-106848075D01*
X417765000Y-107279872D01*
X408135844Y-107279872D01*
X408081932Y-107008842D01*
X407969990Y-106738589D01*
X407807475Y-106495368D01*
X407600632Y-106288525D01*
X407357411Y-106126010D01*
X407087158Y-106014068D01*
X406800260Y-105957000D01*
X406507740Y-105957000D01*
X406220842Y-106014068D01*
X405950589Y-106126010D01*
X405707368Y-106288525D01*
X405500525Y-106495368D01*
X405384000Y-106669760D01*
X405267475Y-106495368D01*
X405060632Y-106288525D01*
X404817411Y-106126010D01*
X404547158Y-106014068D01*
X404260260Y-105957000D01*
X403967740Y-105957000D01*
X403680842Y-106014068D01*
X403410589Y-106126010D01*
X403167368Y-106288525D01*
X402960525Y-106495368D01*
X402844000Y-106669760D01*
X402727475Y-106495368D01*
X402520632Y-106288525D01*
X402277411Y-106126010D01*
X402007158Y-106014068D01*
X401859498Y-105984696D01*
X401263803Y-105389002D01*
X401240001Y-105359999D01*
X401124276Y-105265026D01*
X400992247Y-105194454D01*
X400848986Y-105150997D01*
X400737333Y-105140000D01*
X400737322Y-105140000D01*
X400700000Y-105136324D01*
X400662678Y-105140000D01*
X392337322Y-105140000D01*
X392299999Y-105136324D01*
X392262676Y-105140000D01*
X392262667Y-105140000D01*
X392151014Y-105150997D01*
X392007753Y-105194454D01*
X391875723Y-105265026D01*
X391792083Y-105333668D01*
X391759999Y-105359999D01*
X391736201Y-105388997D01*
X390560199Y-106565000D01*
X390498061Y-106565000D01*
X390298102Y-106604774D01*
X390109744Y-106682795D01*
X389940226Y-106796063D01*
X389796063Y-106940226D01*
X389682795Y-107109744D01*
X389604774Y-107298102D01*
X389565000Y-107498061D01*
X381714142Y-107498061D01*
X381707932Y-107466842D01*
X381595990Y-107196589D01*
X381433475Y-106953368D01*
X381226632Y-106746525D01*
X380983411Y-106584010D01*
X380713158Y-106472068D01*
X380426260Y-106415000D01*
X380133740Y-106415000D01*
X379846842Y-106472068D01*
X379576589Y-106584010D01*
X379333368Y-106746525D01*
X379126525Y-106953368D01*
X379010000Y-107127760D01*
X378893475Y-106953368D01*
X378686632Y-106746525D01*
X378443411Y-106584010D01*
X378173158Y-106472068D01*
X377886260Y-106415000D01*
X377593740Y-106415000D01*
X377306842Y-106472068D01*
X377036589Y-106584010D01*
X376793368Y-106746525D01*
X376586525Y-106953368D01*
X376470689Y-107126729D01*
X376228397Y-107051208D01*
X375379605Y-107900000D01*
X375020395Y-107900000D01*
X374171603Y-107051208D01*
X373922528Y-107128843D01*
X373796629Y-107392883D01*
X373724661Y-107676411D01*
X373709389Y-107968531D01*
X371185589Y-107968531D01*
X371235000Y-107720128D01*
X371235000Y-107279872D01*
X371153791Y-106871603D01*
X374351208Y-106871603D01*
X375200000Y-107720395D01*
X376048792Y-106871603D01*
X375971157Y-106622528D01*
X375707117Y-106496629D01*
X375423589Y-106424661D01*
X375131469Y-106409389D01*
X374841981Y-106451401D01*
X374566253Y-106549081D01*
X374428843Y-106622528D01*
X374351208Y-106871603D01*
X371153791Y-106871603D01*
X371149110Y-106848075D01*
X370980631Y-106441331D01*
X370736038Y-106075271D01*
X370424729Y-105763962D01*
X370058669Y-105519369D01*
X369651925Y-105350890D01*
X369220128Y-105265000D01*
X368779872Y-105265000D01*
X368348075Y-105350890D01*
X367941331Y-105519369D01*
X367575271Y-105763962D01*
X367263962Y-106075271D01*
X367019369Y-106441331D01*
X366850890Y-106848075D01*
X366765000Y-107279872D01*
X365660000Y-107279872D01*
X365660000Y-104160000D01*
X423340001Y-104160000D01*
X423340000Y-142840000D01*
%TA.AperFunction,Conductor*%
D19*
G36*
X423340000Y-142840000D02*
G01*
X365660000Y-142840000D01*
X365660000Y-139279872D01*
X366765000Y-139279872D01*
X366765000Y-139720128D01*
X366850890Y-140151925D01*
X367019369Y-140558669D01*
X367263962Y-140924729D01*
X367575271Y-141236038D01*
X367941331Y-141480631D01*
X368348075Y-141649110D01*
X368779872Y-141735000D01*
X369220128Y-141735000D01*
X369651925Y-141649110D01*
X370058669Y-141480631D01*
X370424729Y-141236038D01*
X370736038Y-140924729D01*
X370928491Y-140636702D01*
X375868903Y-140636702D01*
X375940486Y-140880671D01*
X376195996Y-141001571D01*
X376470184Y-141070300D01*
X376752512Y-141084217D01*
X377032130Y-141042787D01*
X377298292Y-140947603D01*
X377423514Y-140880671D01*
X377495097Y-140636702D01*
X376682000Y-139823605D01*
X375868903Y-140636702D01*
X370928491Y-140636702D01*
X370980631Y-140558669D01*
X371149110Y-140151925D01*
X371235000Y-139720128D01*
X371235000Y-139714512D01*
X375241783Y-139714512D01*
X375283213Y-139994130D01*
X375378397Y-140260292D01*
X375445329Y-140385514D01*
X375689298Y-140457097D01*
X376502395Y-139644000D01*
X376861605Y-139644000D01*
X377674702Y-140457097D01*
X377918671Y-140385514D01*
X378039571Y-140130004D01*
X378108300Y-139855816D01*
X378122217Y-139573488D01*
X378097698Y-139408000D01*
X405469928Y-139408000D01*
X405469928Y-141008000D01*
X405482188Y-141132482D01*
X405518498Y-141252180D01*
X405577463Y-141362494D01*
X405656815Y-141459185D01*
X405753506Y-141538537D01*
X405863820Y-141597502D01*
X405983518Y-141633812D01*
X406108000Y-141646072D01*
X407708000Y-141646072D01*
X407832482Y-141633812D01*
X407952180Y-141597502D01*
X408062494Y-141538537D01*
X408159185Y-141459185D01*
X408238537Y-141362494D01*
X408297502Y-141252180D01*
X408333812Y-141132482D01*
X408346072Y-141008000D01*
X408346072Y-139408000D01*
X408333812Y-139283518D01*
X408297502Y-139163820D01*
X408238537Y-139053506D01*
X408159185Y-138956815D01*
X408062494Y-138877463D01*
X407952180Y-138818498D01*
X407832482Y-138782188D01*
X407708000Y-138769928D01*
X407700785Y-138769928D01*
X407721097Y-138700702D01*
X406908000Y-137887605D01*
X406094903Y-138700702D01*
X406115215Y-138769928D01*
X406108000Y-138769928D01*
X405983518Y-138782188D01*
X405863820Y-138818498D01*
X405753506Y-138877463D01*
X405656815Y-138956815D01*
X405577463Y-139053506D01*
X405518498Y-139163820D01*
X405482188Y-139283518D01*
X405469928Y-139408000D01*
X378097698Y-139408000D01*
X378080787Y-139293870D01*
X377985603Y-139027708D01*
X377918671Y-138902486D01*
X377674702Y-138830903D01*
X376861605Y-139644000D01*
X376502395Y-139644000D01*
X375689298Y-138830903D01*
X375445329Y-138902486D01*
X375324429Y-139157996D01*
X375255700Y-139432184D01*
X375241783Y-139714512D01*
X371235000Y-139714512D01*
X371235000Y-139279872D01*
X371149110Y-138848075D01*
X371067603Y-138651298D01*
X375868903Y-138651298D01*
X376682000Y-139464395D01*
X377495097Y-138651298D01*
X377423514Y-138407329D01*
X377168004Y-138286429D01*
X376893816Y-138217700D01*
X376611488Y-138203783D01*
X376331870Y-138245213D01*
X376065708Y-138340397D01*
X375940486Y-138407329D01*
X375868903Y-138651298D01*
X371067603Y-138651298D01*
X370980631Y-138441331D01*
X370736038Y-138075271D01*
X370439279Y-137778512D01*
X405467783Y-137778512D01*
X405509213Y-138058130D01*
X405604397Y-138324292D01*
X405671329Y-138449514D01*
X405915298Y-138521097D01*
X406728395Y-137708000D01*
X407087605Y-137708000D01*
X407900702Y-138521097D01*
X408144671Y-138449514D01*
X408265571Y-138194004D01*
X408334300Y-137919816D01*
X408348217Y-137637488D01*
X408306787Y-137357870D01*
X408211603Y-137091708D01*
X408144671Y-136966486D01*
X407900702Y-136894903D01*
X407087605Y-137708000D01*
X406728395Y-137708000D01*
X405915298Y-136894903D01*
X405671329Y-136966486D01*
X405550429Y-137221996D01*
X405481700Y-137496184D01*
X405467783Y-137778512D01*
X370439279Y-137778512D01*
X370424729Y-137763962D01*
X370058669Y-137519369D01*
X369651925Y-137350890D01*
X369220128Y-137265000D01*
X368779872Y-137265000D01*
X368348075Y-137350890D01*
X367941331Y-137519369D01*
X367575271Y-137763962D01*
X367263962Y-138075271D01*
X367019369Y-138441331D01*
X366850890Y-138848075D01*
X366765000Y-139279872D01*
X365660000Y-139279872D01*
X365660000Y-135317150D01*
X365682716Y-135332328D01*
X365722203Y-135364734D01*
X365767254Y-135388814D01*
X365809744Y-135417205D01*
X365856958Y-135436762D01*
X365902007Y-135460841D01*
X365950887Y-135475669D01*
X365998102Y-135495226D01*
X366048223Y-135505196D01*
X366097105Y-135520024D01*
X366147943Y-135525031D01*
X366198061Y-135535000D01*
X366249162Y-135535000D01*
X366300000Y-135540007D01*
X366350838Y-135535000D01*
X366401939Y-135535000D01*
X366452058Y-135525031D01*
X366502894Y-135520024D01*
X366551774Y-135505196D01*
X366601898Y-135495226D01*
X366649116Y-135475668D01*
X366697992Y-135460841D01*
X366743039Y-135436763D01*
X366790256Y-135417205D01*
X366832747Y-135388814D01*
X366877797Y-135364734D01*
X366903061Y-135344000D01*
X375243928Y-135344000D01*
X375243928Y-136944000D01*
X375256188Y-137068482D01*
X375292498Y-137188180D01*
X375351463Y-137298494D01*
X375430815Y-137395185D01*
X375527506Y-137474537D01*
X375637820Y-137533502D01*
X375757518Y-137569812D01*
X375882000Y-137582072D01*
X377482000Y-137582072D01*
X377606482Y-137569812D01*
X377726180Y-137533502D01*
X377836494Y-137474537D01*
X377933185Y-137395185D01*
X378012537Y-137298494D01*
X378071502Y-137188180D01*
X378107812Y-137068482D01*
X378120072Y-136944000D01*
X378120072Y-136715298D01*
X406094903Y-136715298D01*
X406908000Y-137528395D01*
X407721097Y-136715298D01*
X407649514Y-136471329D01*
X407394004Y-136350429D01*
X407119816Y-136281700D01*
X406837488Y-136267783D01*
X406557870Y-136309213D01*
X406291708Y-136404397D01*
X406166486Y-136471329D01*
X406094903Y-136715298D01*
X378120072Y-136715298D01*
X378120072Y-135344000D01*
X378107812Y-135219518D01*
X378071502Y-135099820D01*
X378012537Y-134989506D01*
X377933185Y-134892815D01*
X377836494Y-134813463D01*
X377726180Y-134754498D01*
X377606482Y-134718188D01*
X377482000Y-134705928D01*
X375882000Y-134705928D01*
X375757518Y-134718188D01*
X375637820Y-134754498D01*
X375527506Y-134813463D01*
X375430815Y-134892815D01*
X375351463Y-134989506D01*
X375292498Y-135099820D01*
X375256188Y-135219518D01*
X375243928Y-135344000D01*
X366903061Y-135344000D01*
X366917284Y-135332328D01*
X366959774Y-135303937D01*
X366995908Y-135267803D01*
X367035396Y-135235396D01*
X367067803Y-135195908D01*
X367103937Y-135159774D01*
X367132328Y-135117284D01*
X367164734Y-135077797D01*
X367188814Y-135032746D01*
X367217205Y-134990256D01*
X367236762Y-134943042D01*
X367260841Y-134897993D01*
X367275669Y-134849113D01*
X367295226Y-134801898D01*
X367305196Y-134751777D01*
X367320024Y-134702895D01*
X367325031Y-134652057D01*
X367335000Y-134601939D01*
X367335000Y-123043740D01*
X367577000Y-123043740D01*
X367577000Y-123336260D01*
X367634068Y-123623158D01*
X367746010Y-123893411D01*
X367908525Y-124136632D01*
X368115368Y-124343475D01*
X368289760Y-124460000D01*
X368115368Y-124576525D01*
X367908525Y-124783368D01*
X367746010Y-125026589D01*
X367634068Y-125296842D01*
X367577000Y-125583740D01*
X367577000Y-125876260D01*
X367634068Y-126163158D01*
X367746010Y-126433411D01*
X367908525Y-126676632D01*
X368115368Y-126883475D01*
X368289760Y-127000000D01*
X368115368Y-127116525D01*
X367908525Y-127323368D01*
X367746010Y-127566589D01*
X367634068Y-127836842D01*
X367577000Y-128123740D01*
X367577000Y-128416260D01*
X367634068Y-128703158D01*
X367746010Y-128973411D01*
X367908525Y-129216632D01*
X368115368Y-129423475D01*
X368289760Y-129540000D01*
X368115368Y-129656525D01*
X367908525Y-129863368D01*
X367746010Y-130106589D01*
X367634068Y-130376842D01*
X367577000Y-130663740D01*
X367577000Y-130956260D01*
X367634068Y-131243158D01*
X367746010Y-131513411D01*
X367908525Y-131756632D01*
X368115368Y-131963475D01*
X368358589Y-132125990D01*
X368628842Y-132237932D01*
X368915740Y-132295000D01*
X369208260Y-132295000D01*
X369495158Y-132237932D01*
X369765411Y-132125990D01*
X370008632Y-131963475D01*
X370215475Y-131756632D01*
X370321428Y-131598061D01*
X414265000Y-131598061D01*
X414265000Y-131801939D01*
X414265001Y-131801944D01*
X414265000Y-140798061D01*
X414265000Y-141001939D01*
X414274969Y-141052058D01*
X414279976Y-141102894D01*
X414294804Y-141151774D01*
X414304774Y-141201898D01*
X414324332Y-141249116D01*
X414339159Y-141297992D01*
X414363237Y-141343039D01*
X414382795Y-141390256D01*
X414411186Y-141432747D01*
X414435266Y-141477797D01*
X414467672Y-141517284D01*
X414496063Y-141559774D01*
X414532197Y-141595908D01*
X414564604Y-141635396D01*
X414604092Y-141667803D01*
X414640226Y-141703937D01*
X414682716Y-141732328D01*
X414722203Y-141764734D01*
X414767254Y-141788814D01*
X414809744Y-141817205D01*
X414856958Y-141836762D01*
X414902007Y-141860841D01*
X414950887Y-141875669D01*
X414998102Y-141895226D01*
X415048223Y-141905196D01*
X415097105Y-141920024D01*
X415147943Y-141925031D01*
X415198061Y-141935000D01*
X415249162Y-141935000D01*
X415300000Y-141940007D01*
X415350838Y-141935000D01*
X415401939Y-141935000D01*
X415452058Y-141925031D01*
X415502894Y-141920024D01*
X415551774Y-141905196D01*
X415601898Y-141895226D01*
X415649116Y-141875668D01*
X415697992Y-141860841D01*
X415743039Y-141836763D01*
X415790256Y-141817205D01*
X415832747Y-141788814D01*
X415877797Y-141764734D01*
X415917284Y-141732328D01*
X415959774Y-141703937D01*
X415995908Y-141667803D01*
X416035396Y-141635396D01*
X416067803Y-141595908D01*
X416103937Y-141559774D01*
X416132328Y-141517284D01*
X416164734Y-141477797D01*
X416188814Y-141432746D01*
X416217205Y-141390256D01*
X416236762Y-141343042D01*
X416260841Y-141297993D01*
X416275669Y-141249113D01*
X416295226Y-141201898D01*
X416305196Y-141151777D01*
X416320024Y-141102895D01*
X416325031Y-141052057D01*
X416335000Y-141001939D01*
X416335000Y-139279872D01*
X417765000Y-139279872D01*
X417765000Y-139720128D01*
X417850890Y-140151925D01*
X418019369Y-140558669D01*
X418263962Y-140924729D01*
X418575271Y-141236038D01*
X418941331Y-141480631D01*
X419348075Y-141649110D01*
X419779872Y-141735000D01*
X420220128Y-141735000D01*
X420651925Y-141649110D01*
X421058669Y-141480631D01*
X421424729Y-141236038D01*
X421736038Y-140924729D01*
X421980631Y-140558669D01*
X422149110Y-140151925D01*
X422235000Y-139720128D01*
X422235000Y-139279872D01*
X422149110Y-138848075D01*
X421980631Y-138441331D01*
X421736038Y-138075271D01*
X421424729Y-137763962D01*
X421058669Y-137519369D01*
X420651925Y-137350890D01*
X420220128Y-137265000D01*
X419779872Y-137265000D01*
X419348075Y-137350890D01*
X418941331Y-137519369D01*
X418575271Y-137763962D01*
X418263962Y-138075271D01*
X418019369Y-138441331D01*
X417850890Y-138848075D01*
X417765000Y-139279872D01*
X416335000Y-139279872D01*
X416335000Y-131598061D01*
X416325031Y-131547943D01*
X416320024Y-131497105D01*
X416305196Y-131448223D01*
X416295226Y-131398102D01*
X416275669Y-131350887D01*
X416260841Y-131302007D01*
X416236762Y-131256958D01*
X416217205Y-131209744D01*
X416188814Y-131167254D01*
X416164734Y-131122203D01*
X416132328Y-131082716D01*
X416103937Y-131040226D01*
X416067803Y-131004092D01*
X416035396Y-130964604D01*
X415995908Y-130932197D01*
X415976601Y-130912890D01*
X417912524Y-130912890D01*
X417957175Y-131060099D01*
X418082359Y-131322920D01*
X418256412Y-131556269D01*
X418472645Y-131751178D01*
X418722748Y-131900157D01*
X418997109Y-131997481D01*
X419227000Y-131876814D01*
X419227000Y-130683000D01*
X419481000Y-130683000D01*
X419481000Y-131876814D01*
X419710891Y-131997481D01*
X419985252Y-131900157D01*
X420235355Y-131751178D01*
X420451588Y-131556269D01*
X420625641Y-131322920D01*
X420750825Y-131060099D01*
X420795476Y-130912890D01*
X420674155Y-130683000D01*
X419481000Y-130683000D01*
X419227000Y-130683000D01*
X418033845Y-130683000D01*
X417912524Y-130912890D01*
X415976601Y-130912890D01*
X415959774Y-130896063D01*
X415917284Y-130867672D01*
X415877797Y-130835266D01*
X415832746Y-130811186D01*
X415790256Y-130782795D01*
X415743042Y-130763238D01*
X415697993Y-130739159D01*
X415649113Y-130724331D01*
X415601898Y-130704774D01*
X415551777Y-130694804D01*
X415502895Y-130679976D01*
X415452057Y-130674969D01*
X415401939Y-130665000D01*
X415350838Y-130665000D01*
X415300000Y-130659993D01*
X415249162Y-130665000D01*
X415198061Y-130665000D01*
X415147942Y-130674969D01*
X415097106Y-130679976D01*
X415048226Y-130694804D01*
X414998102Y-130704774D01*
X414950884Y-130724332D01*
X414902008Y-130739159D01*
X414856962Y-130763237D01*
X414809744Y-130782795D01*
X414767250Y-130811188D01*
X414722204Y-130835266D01*
X414682721Y-130867669D01*
X414640226Y-130896063D01*
X414604087Y-130932202D01*
X414564605Y-130964604D01*
X414532203Y-131004086D01*
X414496063Y-131040226D01*
X414467668Y-131082722D01*
X414435267Y-131122203D01*
X414411191Y-131167247D01*
X414382795Y-131209744D01*
X414363235Y-131256966D01*
X414339160Y-131302007D01*
X414324335Y-131350878D01*
X414304774Y-131398102D01*
X414294803Y-131448232D01*
X414279977Y-131497105D01*
X414274971Y-131547933D01*
X414265000Y-131598061D01*
X370321428Y-131598061D01*
X370377990Y-131513411D01*
X370489932Y-131243158D01*
X370547000Y-130956260D01*
X370547000Y-130663740D01*
X370489932Y-130376842D01*
X370377990Y-130106589D01*
X370215475Y-129863368D01*
X370008632Y-129656525D01*
X369834240Y-129540000D01*
X370008632Y-129423475D01*
X370215475Y-129216632D01*
X370377990Y-128973411D01*
X370450622Y-128798061D01*
X387765000Y-128798061D01*
X387765000Y-129001939D01*
X387804774Y-129201898D01*
X387882795Y-129390256D01*
X387996063Y-129559774D01*
X388140226Y-129703937D01*
X388309744Y-129817205D01*
X388498102Y-129895226D01*
X388698061Y-129935000D01*
X388901939Y-129935000D01*
X389101898Y-129895226D01*
X389290256Y-129817205D01*
X389459774Y-129703937D01*
X389503711Y-129660000D01*
X391713060Y-129660000D01*
X391798102Y-129695226D01*
X391998061Y-129735000D01*
X392201939Y-129735000D01*
X392401898Y-129695226D01*
X392590256Y-129617205D01*
X392759774Y-129503937D01*
X392903937Y-129359774D01*
X393017205Y-129190256D01*
X393095226Y-129001898D01*
X393135000Y-128801939D01*
X393135000Y-128598061D01*
X393095226Y-128398102D01*
X393017205Y-128209744D01*
X392903937Y-128040226D01*
X392759774Y-127896063D01*
X392590256Y-127782795D01*
X392401898Y-127704774D01*
X392201939Y-127665000D01*
X391998061Y-127665000D01*
X391798102Y-127704774D01*
X391609744Y-127782795D01*
X391440226Y-127896063D01*
X391296063Y-128040226D01*
X391229396Y-128140000D01*
X389503711Y-128140000D01*
X389459774Y-128096063D01*
X389290256Y-127982795D01*
X389101898Y-127904774D01*
X388901939Y-127865000D01*
X388698061Y-127865000D01*
X388498102Y-127904774D01*
X388309744Y-127982795D01*
X388140226Y-128096063D01*
X387996063Y-128240226D01*
X387882795Y-128409744D01*
X387804774Y-128598102D01*
X387765000Y-128798061D01*
X370450622Y-128798061D01*
X370489932Y-128703158D01*
X370547000Y-128416260D01*
X370547000Y-128123740D01*
X370489932Y-127836842D01*
X370377990Y-127566589D01*
X370215475Y-127323368D01*
X370008632Y-127116525D01*
X369834240Y-127000000D01*
X370008632Y-126883475D01*
X370215475Y-126676632D01*
X370377990Y-126433411D01*
X370489932Y-126163158D01*
X370547000Y-125876260D01*
X370547000Y-125583740D01*
X370489932Y-125296842D01*
X370377990Y-125026589D01*
X370215475Y-124783368D01*
X370008632Y-124576525D01*
X369834240Y-124460000D01*
X370008632Y-124343475D01*
X370215475Y-124136632D01*
X370377990Y-123893411D01*
X370489932Y-123623158D01*
X370547000Y-123336260D01*
X370547000Y-123043740D01*
X370489932Y-122756842D01*
X370377990Y-122486589D01*
X370215475Y-122243368D01*
X370008632Y-122036525D01*
X369951067Y-121998061D01*
X377265000Y-121998061D01*
X377265000Y-122201939D01*
X377304774Y-122401898D01*
X377382795Y-122590256D01*
X377496063Y-122759774D01*
X377640001Y-122903712D01*
X377640000Y-124496289D01*
X377596063Y-124540226D01*
X377482795Y-124709744D01*
X377404774Y-124898102D01*
X377365000Y-125098061D01*
X377365000Y-125301939D01*
X377404774Y-125501898D01*
X377482795Y-125690256D01*
X377596063Y-125859774D01*
X377740226Y-126003937D01*
X377909744Y-126117205D01*
X378098102Y-126195226D01*
X378298061Y-126235000D01*
X378501939Y-126235000D01*
X378701898Y-126195226D01*
X378890256Y-126117205D01*
X379059774Y-126003937D01*
X379203937Y-125859774D01*
X379317205Y-125690256D01*
X379395226Y-125501898D01*
X379435000Y-125301939D01*
X379435000Y-125098061D01*
X379395226Y-124898102D01*
X379317205Y-124709744D01*
X379203937Y-124540226D01*
X379160000Y-124496289D01*
X379160000Y-122675870D01*
X379217205Y-122590256D01*
X379295226Y-122401898D01*
X379305549Y-122350000D01*
X385311928Y-122350000D01*
X385311928Y-122850000D01*
X385314336Y-122874450D01*
X385314336Y-122899009D01*
X385326596Y-123023490D01*
X385345718Y-123119623D01*
X385382027Y-123239319D01*
X385419536Y-123329875D01*
X385478502Y-123440192D01*
X385532958Y-123521691D01*
X385612310Y-123618382D01*
X385681618Y-123687690D01*
X385763944Y-123755253D01*
X385704774Y-123898102D01*
X385665000Y-124098061D01*
X385665000Y-124301939D01*
X385704774Y-124501898D01*
X385782795Y-124690256D01*
X385896063Y-124859774D01*
X386040226Y-125003937D01*
X386209744Y-125117205D01*
X386398102Y-125195226D01*
X386598061Y-125235000D01*
X386801939Y-125235000D01*
X387001898Y-125195226D01*
X387190256Y-125117205D01*
X387359774Y-125003937D01*
X387503937Y-124859774D01*
X387617205Y-124690256D01*
X387695226Y-124501898D01*
X387735000Y-124301939D01*
X387735000Y-124098061D01*
X387695226Y-123898102D01*
X387636056Y-123755253D01*
X387718382Y-123687690D01*
X387787690Y-123618382D01*
X387867042Y-123521691D01*
X387921498Y-123440192D01*
X387980464Y-123329875D01*
X388017973Y-123239319D01*
X388054282Y-123119623D01*
X388073404Y-123023490D01*
X388085664Y-122899009D01*
X388085664Y-122874450D01*
X388088072Y-122850000D01*
X388088072Y-122350000D01*
X391711928Y-122350000D01*
X391711928Y-122850000D01*
X391714336Y-122874450D01*
X391714336Y-122899009D01*
X391726596Y-123023490D01*
X391745718Y-123119623D01*
X391782027Y-123239319D01*
X391819536Y-123329875D01*
X391878502Y-123440192D01*
X391932958Y-123521691D01*
X392012310Y-123618382D01*
X392081618Y-123687690D01*
X392163944Y-123755253D01*
X392104774Y-123898102D01*
X392065000Y-124098061D01*
X392065000Y-124301939D01*
X392104774Y-124501898D01*
X392182795Y-124690256D01*
X392296063Y-124859774D01*
X392440226Y-125003937D01*
X392609744Y-125117205D01*
X392798102Y-125195226D01*
X392998061Y-125235000D01*
X393201939Y-125235000D01*
X393401898Y-125195226D01*
X393590256Y-125117205D01*
X393759774Y-125003937D01*
X393903937Y-124859774D01*
X394017205Y-124690256D01*
X394095226Y-124501898D01*
X394135000Y-124301939D01*
X394135000Y-124098061D01*
X394095226Y-123898102D01*
X394036056Y-123755253D01*
X394118382Y-123687690D01*
X394187690Y-123618382D01*
X394267042Y-123521691D01*
X394321498Y-123440192D01*
X394380464Y-123329875D01*
X394417973Y-123239319D01*
X394454282Y-123119623D01*
X394473404Y-123023490D01*
X394485664Y-122899009D01*
X394485664Y-122874450D01*
X394488072Y-122850000D01*
X394488072Y-122350000D01*
X394711928Y-122350000D01*
X394711928Y-122850000D01*
X394714336Y-122874450D01*
X394714336Y-122899009D01*
X394726596Y-123023490D01*
X394745718Y-123119623D01*
X394782027Y-123239319D01*
X394819536Y-123329875D01*
X394878502Y-123440192D01*
X394932958Y-123521691D01*
X395012310Y-123618382D01*
X395081618Y-123687690D01*
X395133031Y-123729884D01*
X395104774Y-123798102D01*
X395065000Y-123998061D01*
X395065000Y-124201939D01*
X395104774Y-124401898D01*
X395182795Y-124590256D01*
X395296063Y-124759774D01*
X395440226Y-124903937D01*
X395609744Y-125017205D01*
X395798102Y-125095226D01*
X395998061Y-125135000D01*
X396201939Y-125135000D01*
X396401898Y-125095226D01*
X396590256Y-125017205D01*
X396759774Y-124903937D01*
X396903937Y-124759774D01*
X397017205Y-124590256D01*
X397095226Y-124401898D01*
X397135000Y-124201939D01*
X397135000Y-123998061D01*
X397095226Y-123798102D01*
X397066969Y-123729884D01*
X397118382Y-123687690D01*
X397187690Y-123618382D01*
X397267042Y-123521691D01*
X397321498Y-123440192D01*
X397380464Y-123329875D01*
X397417973Y-123239319D01*
X397454282Y-123119623D01*
X397473404Y-123023490D01*
X397485664Y-122899009D01*
X397485664Y-122874450D01*
X397488072Y-122850000D01*
X397488072Y-122350000D01*
X397475812Y-122225518D01*
X397439502Y-122105820D01*
X397380537Y-121995506D01*
X397301185Y-121898815D01*
X397204494Y-121819463D01*
X397094180Y-121760498D01*
X396974482Y-121724188D01*
X396850000Y-121711928D01*
X395350000Y-121711928D01*
X395225518Y-121724188D01*
X395105820Y-121760498D01*
X394995506Y-121819463D01*
X394898815Y-121898815D01*
X394819463Y-121995506D01*
X394760498Y-122105820D01*
X394724188Y-122225518D01*
X394711928Y-122350000D01*
X394488072Y-122350000D01*
X394475812Y-122225518D01*
X394439502Y-122105820D01*
X394380537Y-121995506D01*
X394301185Y-121898815D01*
X394204494Y-121819463D01*
X394094180Y-121760498D01*
X393974482Y-121724188D01*
X393850000Y-121711928D01*
X392350000Y-121711928D01*
X392225518Y-121724188D01*
X392105820Y-121760498D01*
X391995506Y-121819463D01*
X391898815Y-121898815D01*
X391819463Y-121995506D01*
X391760498Y-122105820D01*
X391724188Y-122225518D01*
X391711928Y-122350000D01*
X388088072Y-122350000D01*
X388075812Y-122225518D01*
X388039502Y-122105820D01*
X387980537Y-121995506D01*
X387901185Y-121898815D01*
X387804494Y-121819463D01*
X387694180Y-121760498D01*
X387574482Y-121724188D01*
X387450000Y-121711928D01*
X385950000Y-121711928D01*
X385825518Y-121724188D01*
X385705820Y-121760498D01*
X385595506Y-121819463D01*
X385498815Y-121898815D01*
X385419463Y-121995506D01*
X385360498Y-122105820D01*
X385324188Y-122225518D01*
X385311928Y-122350000D01*
X379305549Y-122350000D01*
X379335000Y-122201939D01*
X379335000Y-121998061D01*
X379295226Y-121798102D01*
X379217205Y-121609744D01*
X379103937Y-121440226D01*
X378959774Y-121296063D01*
X378790256Y-121182795D01*
X378601898Y-121104774D01*
X378401939Y-121065000D01*
X378198061Y-121065000D01*
X377998102Y-121104774D01*
X377809744Y-121182795D01*
X377640226Y-121296063D01*
X377496063Y-121440226D01*
X377382795Y-121609744D01*
X377304774Y-121798102D01*
X377265000Y-121998061D01*
X369951067Y-121998061D01*
X369826466Y-121914805D01*
X369943355Y-121845178D01*
X370159588Y-121650269D01*
X370333641Y-121416920D01*
X370458825Y-121154099D01*
X370503476Y-121006890D01*
X370382155Y-120777000D01*
X369189000Y-120777000D01*
X369189000Y-120797000D01*
X368935000Y-120797000D01*
X368935000Y-120777000D01*
X367741845Y-120777000D01*
X367620524Y-121006890D01*
X367665175Y-121154099D01*
X367790359Y-121416920D01*
X367964412Y-121650269D01*
X368180645Y-121845178D01*
X368297534Y-121914805D01*
X368115368Y-122036525D01*
X367908525Y-122243368D01*
X367746010Y-122486589D01*
X367634068Y-122756842D01*
X367577000Y-123043740D01*
X367335000Y-123043740D01*
X367335000Y-118466890D01*
X367620524Y-118466890D01*
X367665175Y-118614099D01*
X367790359Y-118876920D01*
X367964412Y-119110269D01*
X368180645Y-119305178D01*
X368306255Y-119380000D01*
X368180645Y-119454822D01*
X367964412Y-119649731D01*
X367790359Y-119883080D01*
X367665175Y-120145901D01*
X367620524Y-120293110D01*
X367741845Y-120523000D01*
X368935000Y-120523000D01*
X368935000Y-118237000D01*
X369189000Y-118237000D01*
X369189000Y-120523000D01*
X370382155Y-120523000D01*
X370503476Y-120293110D01*
X370458825Y-120145901D01*
X370333641Y-119883080D01*
X370159588Y-119649731D01*
X369943355Y-119454822D01*
X369817745Y-119380000D01*
X369943355Y-119305178D01*
X370159588Y-119110269D01*
X370333641Y-118876920D01*
X370458825Y-118614099D01*
X370503476Y-118466890D01*
X370382155Y-118237000D01*
X369189000Y-118237000D01*
X368935000Y-118237000D01*
X367741845Y-118237000D01*
X367620524Y-118466890D01*
X367335000Y-118466890D01*
X367335000Y-117128710D01*
X367858711Y-116605000D01*
X367996893Y-116605000D01*
X368115368Y-116723475D01*
X368297534Y-116845195D01*
X368180645Y-116914822D01*
X367964412Y-117109731D01*
X367790359Y-117343080D01*
X367665175Y-117605901D01*
X367620524Y-117753110D01*
X367741845Y-117983000D01*
X368935000Y-117983000D01*
X368935000Y-117963000D01*
X369189000Y-117963000D01*
X369189000Y-117983000D01*
X370382155Y-117983000D01*
X370503476Y-117753110D01*
X370458825Y-117605901D01*
X370333641Y-117343080D01*
X370159588Y-117109731D01*
X369943355Y-116914822D01*
X369826466Y-116845195D01*
X370008632Y-116723475D01*
X370034046Y-116698061D01*
X396965000Y-116698061D01*
X396965000Y-116901939D01*
X397004774Y-117101898D01*
X397082795Y-117290256D01*
X397196063Y-117459774D01*
X397340226Y-117603937D01*
X397509744Y-117717205D01*
X397698102Y-117795226D01*
X397898061Y-117835000D01*
X398101939Y-117835000D01*
X398301898Y-117795226D01*
X398434308Y-117740380D01*
X398481618Y-117787690D01*
X398578309Y-117867042D01*
X398659808Y-117921498D01*
X398770125Y-117980464D01*
X398860681Y-118017973D01*
X398980377Y-118054282D01*
X399076510Y-118073404D01*
X399200991Y-118085664D01*
X399225550Y-118085664D01*
X399250000Y-118088072D01*
X399750000Y-118088072D01*
X399874482Y-118075812D01*
X399994180Y-118039502D01*
X400104494Y-117980537D01*
X400201185Y-117901185D01*
X400280537Y-117804494D01*
X400339502Y-117694180D01*
X400375812Y-117574482D01*
X400388072Y-117450000D01*
X400388072Y-115950000D01*
X400375812Y-115825518D01*
X400339502Y-115705820D01*
X400280537Y-115595506D01*
X400201185Y-115498815D01*
X400104494Y-115419463D01*
X399994180Y-115360498D01*
X399874482Y-115324188D01*
X399750000Y-115311928D01*
X399250000Y-115311928D01*
X399225550Y-115314336D01*
X399200991Y-115314336D01*
X399076510Y-115326596D01*
X398980377Y-115345718D01*
X398860681Y-115382027D01*
X398770125Y-115419536D01*
X398659808Y-115478502D01*
X398578309Y-115532958D01*
X398481618Y-115612310D01*
X398412310Y-115681618D01*
X398332958Y-115778309D01*
X398312375Y-115809114D01*
X398301898Y-115804774D01*
X398101939Y-115765000D01*
X397898061Y-115765000D01*
X397698102Y-115804774D01*
X397509744Y-115882795D01*
X397340226Y-115996063D01*
X397196063Y-116140226D01*
X397082795Y-116309744D01*
X397004774Y-116498102D01*
X396965000Y-116698061D01*
X370034046Y-116698061D01*
X370215475Y-116516632D01*
X370377990Y-116273411D01*
X370489932Y-116003158D01*
X370547000Y-115716260D01*
X370547000Y-115423740D01*
X370496476Y-115169740D01*
X417869000Y-115169740D01*
X417869000Y-115462260D01*
X417926068Y-115749158D01*
X418038010Y-116019411D01*
X418200525Y-116262632D01*
X418407368Y-116469475D01*
X418581760Y-116586000D01*
X418407368Y-116702525D01*
X418200525Y-116909368D01*
X418038010Y-117152589D01*
X417926068Y-117422842D01*
X417869000Y-117709740D01*
X417869000Y-118002260D01*
X417926068Y-118289158D01*
X418038010Y-118559411D01*
X418200525Y-118802632D01*
X418407368Y-119009475D01*
X418581760Y-119126000D01*
X418407368Y-119242525D01*
X418200525Y-119449368D01*
X418038010Y-119692589D01*
X417926068Y-119962842D01*
X417869000Y-120249740D01*
X417869000Y-120542260D01*
X417926068Y-120829158D01*
X418038010Y-121099411D01*
X418200525Y-121342632D01*
X418407368Y-121549475D01*
X418581760Y-121666000D01*
X418407368Y-121782525D01*
X418200525Y-121989368D01*
X418038010Y-122232589D01*
X417926068Y-122502842D01*
X417869000Y-122789740D01*
X417869000Y-123082260D01*
X417926068Y-123369158D01*
X418038010Y-123639411D01*
X418200525Y-123882632D01*
X418407368Y-124089475D01*
X418581760Y-124206000D01*
X418407368Y-124322525D01*
X418200525Y-124529368D01*
X418038010Y-124772589D01*
X417926068Y-125042842D01*
X417869000Y-125329740D01*
X417869000Y-125622260D01*
X417926068Y-125909158D01*
X418038010Y-126179411D01*
X418200525Y-126422632D01*
X418407368Y-126629475D01*
X418581760Y-126746000D01*
X418407368Y-126862525D01*
X418200525Y-127069368D01*
X418038010Y-127312589D01*
X417926068Y-127582842D01*
X417869000Y-127869740D01*
X417869000Y-128162260D01*
X417926068Y-128449158D01*
X418038010Y-128719411D01*
X418200525Y-128962632D01*
X418407368Y-129169475D01*
X418589534Y-129291195D01*
X418472645Y-129360822D01*
X418256412Y-129555731D01*
X418082359Y-129789080D01*
X417957175Y-130051901D01*
X417912524Y-130199110D01*
X418033845Y-130429000D01*
X419227000Y-130429000D01*
X419227000Y-130409000D01*
X419481000Y-130409000D01*
X419481000Y-130429000D01*
X420674155Y-130429000D01*
X420795476Y-130199110D01*
X420750825Y-130051901D01*
X420625641Y-129789080D01*
X420451588Y-129555731D01*
X420235355Y-129360822D01*
X420118466Y-129291195D01*
X420300632Y-129169475D01*
X420507475Y-128962632D01*
X420669990Y-128719411D01*
X420781932Y-128449158D01*
X420839000Y-128162260D01*
X420839000Y-127869740D01*
X420781932Y-127582842D01*
X420669990Y-127312589D01*
X420507475Y-127069368D01*
X420300632Y-126862525D01*
X420126240Y-126746000D01*
X420300632Y-126629475D01*
X420507475Y-126422632D01*
X420669990Y-126179411D01*
X420781932Y-125909158D01*
X420839000Y-125622260D01*
X420839000Y-125329740D01*
X420781932Y-125042842D01*
X420669990Y-124772589D01*
X420507475Y-124529368D01*
X420300632Y-124322525D01*
X420126240Y-124206000D01*
X420300632Y-124089475D01*
X420507475Y-123882632D01*
X420669990Y-123639411D01*
X420781932Y-123369158D01*
X420839000Y-123082260D01*
X420839000Y-122789740D01*
X420781932Y-122502842D01*
X420669990Y-122232589D01*
X420507475Y-121989368D01*
X420300632Y-121782525D01*
X420126240Y-121666000D01*
X420300632Y-121549475D01*
X420507475Y-121342632D01*
X420669990Y-121099411D01*
X420781932Y-120829158D01*
X420839000Y-120542260D01*
X420839000Y-120249740D01*
X420781932Y-119962842D01*
X420669990Y-119692589D01*
X420507475Y-119449368D01*
X420300632Y-119242525D01*
X420126240Y-119126000D01*
X420300632Y-119009475D01*
X420507475Y-118802632D01*
X420669990Y-118559411D01*
X420781932Y-118289158D01*
X420839000Y-118002260D01*
X420839000Y-117709740D01*
X420781932Y-117422842D01*
X420669990Y-117152589D01*
X420507475Y-116909368D01*
X420300632Y-116702525D01*
X420126240Y-116586000D01*
X420300632Y-116469475D01*
X420403198Y-116366909D01*
X420965001Y-116928712D01*
X420965000Y-132771289D01*
X420340229Y-133396061D01*
X420340226Y-133396063D01*
X420196063Y-133540226D01*
X420167671Y-133582717D01*
X420135266Y-133622203D01*
X420111187Y-133667252D01*
X420082795Y-133709744D01*
X420063236Y-133756964D01*
X420039160Y-133802007D01*
X420024335Y-133850878D01*
X420004774Y-133898102D01*
X419994803Y-133948232D01*
X419979977Y-133997105D01*
X419974971Y-134047933D01*
X419965000Y-134098061D01*
X419965000Y-134149172D01*
X419959994Y-134200000D01*
X419965000Y-134250828D01*
X419965000Y-134301939D01*
X419974971Y-134352067D01*
X419979977Y-134402895D01*
X419994803Y-134451768D01*
X420004774Y-134501898D01*
X420024335Y-134549122D01*
X420039160Y-134597993D01*
X420063236Y-134643036D01*
X420082795Y-134690256D01*
X420111187Y-134732748D01*
X420135266Y-134777797D01*
X420167672Y-134817284D01*
X420196063Y-134859774D01*
X420232197Y-134895908D01*
X420264604Y-134935396D01*
X420304092Y-134967803D01*
X420340226Y-135003937D01*
X420382716Y-135032328D01*
X420422203Y-135064734D01*
X420467252Y-135088813D01*
X420509744Y-135117205D01*
X420556964Y-135136764D01*
X420602007Y-135160840D01*
X420650878Y-135175665D01*
X420698102Y-135195226D01*
X420748232Y-135205197D01*
X420797105Y-135220023D01*
X420847933Y-135225029D01*
X420898061Y-135235000D01*
X420949172Y-135235000D01*
X421000000Y-135240006D01*
X421050828Y-135235000D01*
X421101939Y-135235000D01*
X421152067Y-135225029D01*
X421202895Y-135220023D01*
X421251768Y-135205197D01*
X421301898Y-135195226D01*
X421349122Y-135175665D01*
X421397993Y-135160840D01*
X421443036Y-135136764D01*
X421490256Y-135117205D01*
X421532748Y-135088813D01*
X421577797Y-135064734D01*
X421617283Y-135032329D01*
X421659774Y-135003937D01*
X421803937Y-134859774D01*
X421803939Y-134859771D01*
X422695908Y-133967803D01*
X422735396Y-133935396D01*
X422813500Y-133840226D01*
X422864734Y-133777798D01*
X422960841Y-133597994D01*
X422989119Y-133504774D01*
X423020024Y-133402895D01*
X423035000Y-133250838D01*
X423035000Y-133250835D01*
X423040007Y-133200000D01*
X423035000Y-133149165D01*
X423035000Y-116550835D01*
X423040007Y-116500000D01*
X423032674Y-116425550D01*
X423020024Y-116297105D01*
X422960841Y-116102007D01*
X422904213Y-115996063D01*
X422864734Y-115922202D01*
X422767803Y-115804092D01*
X422735396Y-115764604D01*
X422695908Y-115732197D01*
X421583807Y-114620097D01*
X421551396Y-114580604D01*
X421393797Y-114451266D01*
X421213993Y-114355159D01*
X421018895Y-114295976D01*
X420866838Y-114281000D01*
X420866828Y-114281000D01*
X420816000Y-114275994D01*
X420765172Y-114281000D01*
X420419107Y-114281000D01*
X420300632Y-114162525D01*
X420057411Y-114000010D01*
X419787158Y-113888068D01*
X419500260Y-113831000D01*
X419207740Y-113831000D01*
X418920842Y-113888068D01*
X418650589Y-114000010D01*
X418407368Y-114162525D01*
X418200525Y-114369368D01*
X418038010Y-114612589D01*
X417926068Y-114882842D01*
X417869000Y-115169740D01*
X370496476Y-115169740D01*
X370489932Y-115136842D01*
X370377990Y-114866589D01*
X370215475Y-114623368D01*
X370008632Y-114416525D01*
X369765411Y-114254010D01*
X369495158Y-114142068D01*
X369208260Y-114085000D01*
X368915740Y-114085000D01*
X368628842Y-114142068D01*
X368358589Y-114254010D01*
X368115368Y-114416525D01*
X367996893Y-114535000D01*
X367480827Y-114535000D01*
X367429999Y-114529994D01*
X367379171Y-114535000D01*
X367379162Y-114535000D01*
X367227105Y-114549976D01*
X367032007Y-114609159D01*
X367005424Y-114623368D01*
X366852202Y-114705266D01*
X366734092Y-114802197D01*
X366694604Y-114834604D01*
X366662197Y-114874092D01*
X365660000Y-115876290D01*
X365660000Y-107279872D01*
X366765000Y-107279872D01*
X366765000Y-107720128D01*
X366850890Y-108151925D01*
X367019369Y-108558669D01*
X367263962Y-108924729D01*
X367575271Y-109236038D01*
X367941331Y-109480631D01*
X368348075Y-109649110D01*
X368779872Y-109735000D01*
X369220128Y-109735000D01*
X369651925Y-109649110D01*
X370058669Y-109480631D01*
X370424729Y-109236038D01*
X370732370Y-108928397D01*
X374351208Y-108928397D01*
X374428843Y-109177472D01*
X374692883Y-109303371D01*
X374976411Y-109375339D01*
X375268531Y-109390611D01*
X375558019Y-109348599D01*
X375833747Y-109250919D01*
X375971157Y-109177472D01*
X376048792Y-108928397D01*
X375200000Y-108079605D01*
X374351208Y-108928397D01*
X370732370Y-108928397D01*
X370736038Y-108924729D01*
X370980631Y-108558669D01*
X371149110Y-108151925D01*
X371185589Y-107968531D01*
X373709389Y-107968531D01*
X373751401Y-108258019D01*
X373849081Y-108533747D01*
X373922528Y-108671157D01*
X374171603Y-108748792D01*
X375020395Y-107900000D01*
X375379605Y-107900000D01*
X376228397Y-108748792D01*
X376470689Y-108673271D01*
X376586525Y-108846632D01*
X376793368Y-109053475D01*
X377036589Y-109215990D01*
X377306842Y-109327932D01*
X377593740Y-109385000D01*
X377886260Y-109385000D01*
X378173158Y-109327932D01*
X378443411Y-109215990D01*
X378686632Y-109053475D01*
X378893475Y-108846632D01*
X379010000Y-108672240D01*
X379126525Y-108846632D01*
X379333368Y-109053475D01*
X379576589Y-109215990D01*
X379846842Y-109327932D01*
X380133740Y-109385000D01*
X380426260Y-109385000D01*
X380713158Y-109327932D01*
X380983411Y-109215990D01*
X381226632Y-109053475D01*
X381433475Y-108846632D01*
X381595990Y-108603411D01*
X381707932Y-108333158D01*
X381765000Y-108046260D01*
X381765000Y-107753740D01*
X381714142Y-107498061D01*
X389565000Y-107498061D01*
X389565000Y-107701939D01*
X389604774Y-107901898D01*
X389682795Y-108090256D01*
X389796063Y-108259774D01*
X389940226Y-108403937D01*
X390109744Y-108517205D01*
X390298102Y-108595226D01*
X390498061Y-108635000D01*
X390701939Y-108635000D01*
X390901898Y-108595226D01*
X391090256Y-108517205D01*
X391259774Y-108403937D01*
X391403937Y-108259774D01*
X391517205Y-108090256D01*
X391595226Y-107901898D01*
X391635000Y-107701939D01*
X391635000Y-107639801D01*
X392614802Y-106660000D01*
X397770521Y-106660000D01*
X397718010Y-106738589D01*
X397606068Y-107008842D01*
X397549000Y-107295740D01*
X397549000Y-107588260D01*
X397606068Y-107875158D01*
X397718010Y-108145411D01*
X397880525Y-108388632D01*
X398087368Y-108595475D01*
X398330589Y-108757990D01*
X398600842Y-108869932D01*
X398887740Y-108927000D01*
X399180260Y-108927000D01*
X399467158Y-108869932D01*
X399737411Y-108757990D01*
X399980632Y-108595475D01*
X400187475Y-108388632D01*
X400304000Y-108214240D01*
X400420525Y-108388632D01*
X400627368Y-108595475D01*
X400870589Y-108757990D01*
X401140842Y-108869932D01*
X401427740Y-108927000D01*
X401720260Y-108927000D01*
X402007158Y-108869932D01*
X402277411Y-108757990D01*
X402520632Y-108595475D01*
X402727475Y-108388632D01*
X402844000Y-108214240D01*
X402960525Y-108388632D01*
X403167368Y-108595475D01*
X403410589Y-108757990D01*
X403680842Y-108869932D01*
X403967740Y-108927000D01*
X404260260Y-108927000D01*
X404547158Y-108869932D01*
X404817411Y-108757990D01*
X405060632Y-108595475D01*
X405267475Y-108388632D01*
X405384000Y-108214240D01*
X405500525Y-108388632D01*
X405707368Y-108595475D01*
X405950589Y-108757990D01*
X406220842Y-108869932D01*
X406507740Y-108927000D01*
X406800260Y-108927000D01*
X407087158Y-108869932D01*
X407357411Y-108757990D01*
X407600632Y-108595475D01*
X407807475Y-108388632D01*
X407969990Y-108145411D01*
X408081932Y-107875158D01*
X408139000Y-107588260D01*
X408139000Y-107295740D01*
X408135844Y-107279872D01*
X417765000Y-107279872D01*
X417765000Y-107720128D01*
X417850890Y-108151925D01*
X418019369Y-108558669D01*
X418263962Y-108924729D01*
X418575271Y-109236038D01*
X418941331Y-109480631D01*
X419348075Y-109649110D01*
X419779872Y-109735000D01*
X420220128Y-109735000D01*
X420651925Y-109649110D01*
X421058669Y-109480631D01*
X421424729Y-109236038D01*
X421736038Y-108924729D01*
X421980631Y-108558669D01*
X422149110Y-108151925D01*
X422235000Y-107720128D01*
X422235000Y-107279872D01*
X422149110Y-106848075D01*
X421980631Y-106441331D01*
X421736038Y-106075271D01*
X421424729Y-105763962D01*
X421058669Y-105519369D01*
X420651925Y-105350890D01*
X420220128Y-105265000D01*
X419779872Y-105265000D01*
X419348075Y-105350890D01*
X418941331Y-105519369D01*
X418575271Y-105763962D01*
X418263962Y-106075271D01*
X418019369Y-106441331D01*
X417850890Y-106848075D01*
X417765000Y-107279872D01*
X408135844Y-107279872D01*
X408081932Y-107008842D01*
X407969990Y-106738589D01*
X407807475Y-106495368D01*
X407600632Y-106288525D01*
X407357411Y-106126010D01*
X407087158Y-106014068D01*
X406800260Y-105957000D01*
X406507740Y-105957000D01*
X406220842Y-106014068D01*
X405950589Y-106126010D01*
X405707368Y-106288525D01*
X405500525Y-106495368D01*
X405384000Y-106669760D01*
X405267475Y-106495368D01*
X405060632Y-106288525D01*
X404817411Y-106126010D01*
X404547158Y-106014068D01*
X404260260Y-105957000D01*
X403967740Y-105957000D01*
X403680842Y-106014068D01*
X403410589Y-106126010D01*
X403167368Y-106288525D01*
X402960525Y-106495368D01*
X402844000Y-106669760D01*
X402727475Y-106495368D01*
X402520632Y-106288525D01*
X402277411Y-106126010D01*
X402007158Y-106014068D01*
X401859498Y-105984696D01*
X401263803Y-105389002D01*
X401240001Y-105359999D01*
X401124276Y-105265026D01*
X400992247Y-105194454D01*
X400848986Y-105150997D01*
X400737333Y-105140000D01*
X400737322Y-105140000D01*
X400700000Y-105136324D01*
X400662678Y-105140000D01*
X392337322Y-105140000D01*
X392299999Y-105136324D01*
X392262676Y-105140000D01*
X392262667Y-105140000D01*
X392151014Y-105150997D01*
X392007753Y-105194454D01*
X391875723Y-105265026D01*
X391792083Y-105333668D01*
X391759999Y-105359999D01*
X391736201Y-105388997D01*
X390560199Y-106565000D01*
X390498061Y-106565000D01*
X390298102Y-106604774D01*
X390109744Y-106682795D01*
X389940226Y-106796063D01*
X389796063Y-106940226D01*
X389682795Y-107109744D01*
X389604774Y-107298102D01*
X389565000Y-107498061D01*
X381714142Y-107498061D01*
X381707932Y-107466842D01*
X381595990Y-107196589D01*
X381433475Y-106953368D01*
X381226632Y-106746525D01*
X380983411Y-106584010D01*
X380713158Y-106472068D01*
X380426260Y-106415000D01*
X380133740Y-106415000D01*
X379846842Y-106472068D01*
X379576589Y-106584010D01*
X379333368Y-106746525D01*
X379126525Y-106953368D01*
X379010000Y-107127760D01*
X378893475Y-106953368D01*
X378686632Y-106746525D01*
X378443411Y-106584010D01*
X378173158Y-106472068D01*
X377886260Y-106415000D01*
X377593740Y-106415000D01*
X377306842Y-106472068D01*
X377036589Y-106584010D01*
X376793368Y-106746525D01*
X376586525Y-106953368D01*
X376470689Y-107126729D01*
X376228397Y-107051208D01*
X375379605Y-107900000D01*
X375020395Y-107900000D01*
X374171603Y-107051208D01*
X373922528Y-107128843D01*
X373796629Y-107392883D01*
X373724661Y-107676411D01*
X373709389Y-107968531D01*
X371185589Y-107968531D01*
X371235000Y-107720128D01*
X371235000Y-107279872D01*
X371153791Y-106871603D01*
X374351208Y-106871603D01*
X375200000Y-107720395D01*
X376048792Y-106871603D01*
X375971157Y-106622528D01*
X375707117Y-106496629D01*
X375423589Y-106424661D01*
X375131469Y-106409389D01*
X374841981Y-106451401D01*
X374566253Y-106549081D01*
X374428843Y-106622528D01*
X374351208Y-106871603D01*
X371153791Y-106871603D01*
X371149110Y-106848075D01*
X370980631Y-106441331D01*
X370736038Y-106075271D01*
X370424729Y-105763962D01*
X370058669Y-105519369D01*
X369651925Y-105350890D01*
X369220128Y-105265000D01*
X368779872Y-105265000D01*
X368348075Y-105350890D01*
X367941331Y-105519369D01*
X367575271Y-105763962D01*
X367263962Y-106075271D01*
X367019369Y-106441331D01*
X366850890Y-106848075D01*
X366765000Y-107279872D01*
X365660000Y-107279872D01*
X365660000Y-104160000D01*
X423340001Y-104160000D01*
X423340000Y-142840000D01*
G37*
%TD.AperFunction*%
%TD*%
M02*
