%TF.GenerationSoftware,KiCad,Pcbnew,5.1.12-84ad8e8a86~92~ubuntu20.04.1*%
%TF.CreationDate,2023-10-24T12:46:34+02:00*%
%TF.ProjectId,boost_sequencer,626f6f73-745f-4736-9571-75656e636572,rev?*%
%TF.SameCoordinates,Original*%
%TF.FileFunction,Legend,Top*%
%TF.FilePolarity,Positive*%
%FSLAX46Y46*%
G04 Gerber Fmt 4.6, Leading zero omitted, Abs format (unit mm)*
G04 Created by KiCad (PCBNEW 5.1.12-84ad8e8a86~92~ubuntu20.04.1) date 2023-10-24 12:46:34*
%MOMM*%
%LPD*%
G01*
G04 APERTURE LIST*
%ADD10C,0.150000*%
%ADD11C,0.120000*%
G04 APERTURE END LIST*
D10*
X407147619Y-105338095D02*
X406690476Y-105338095D01*
X406919047Y-104538095D02*
X406919047Y-105338095D01*
X406423809Y-104538095D02*
X406423809Y-105338095D01*
X405966666Y-104538095D01*
X405966666Y-105338095D01*
X404628571Y-105338095D02*
X404171428Y-105338095D01*
X404400000Y-104538095D02*
X404400000Y-105338095D01*
X403904761Y-104538095D02*
X403904761Y-105338095D01*
X403600000Y-105338095D01*
X403523809Y-105300000D01*
X403485714Y-105261904D01*
X403447619Y-105185714D01*
X403447619Y-105071428D01*
X403485714Y-104995238D01*
X403523809Y-104957142D01*
X403600000Y-104919047D01*
X403904761Y-104919047D01*
X401671428Y-104538095D02*
X401938095Y-104919047D01*
X402128571Y-104538095D02*
X402128571Y-105338095D01*
X401823809Y-105338095D01*
X401747619Y-105300000D01*
X401709523Y-105261904D01*
X401671428Y-105185714D01*
X401671428Y-105071428D01*
X401709523Y-104995238D01*
X401747619Y-104957142D01*
X401823809Y-104919047D01*
X402128571Y-104919047D01*
X401328571Y-104538095D02*
X401328571Y-105338095D01*
X400871428Y-104538095D01*
X400871428Y-105338095D01*
X399252380Y-104538095D02*
X399519047Y-104919047D01*
X399709523Y-104538095D02*
X399709523Y-105338095D01*
X399404761Y-105338095D01*
X399328571Y-105300000D01*
X399290476Y-105261904D01*
X399252380Y-105185714D01*
X399252380Y-105071428D01*
X399290476Y-104995238D01*
X399328571Y-104957142D01*
X399404761Y-104919047D01*
X399709523Y-104919047D01*
X398909523Y-104538095D02*
X398909523Y-105338095D01*
X398604761Y-105338095D01*
X398528571Y-105300000D01*
X398490476Y-105261904D01*
X398452380Y-105185714D01*
X398452380Y-105071428D01*
X398490476Y-104995238D01*
X398528571Y-104957142D01*
X398604761Y-104919047D01*
X398909523Y-104919047D01*
X366804142Y-127638285D02*
X366775571Y-127724000D01*
X366775571Y-127866857D01*
X366804142Y-127924000D01*
X366832714Y-127952571D01*
X366889857Y-127981142D01*
X366947000Y-127981142D01*
X367004142Y-127952571D01*
X367032714Y-127924000D01*
X367061285Y-127866857D01*
X367089857Y-127752571D01*
X367118428Y-127695428D01*
X367147000Y-127666857D01*
X367204142Y-127638285D01*
X367261285Y-127638285D01*
X367318428Y-127666857D01*
X367347000Y-127695428D01*
X367375571Y-127752571D01*
X367375571Y-127895428D01*
X367347000Y-127981142D01*
X367175571Y-128152571D02*
X367175571Y-128381142D01*
X367375571Y-128238285D02*
X366861285Y-128238285D01*
X366804142Y-128266857D01*
X366775571Y-128324000D01*
X366775571Y-128381142D01*
X366775571Y-128666857D02*
X366804142Y-128609714D01*
X366832714Y-128581142D01*
X366889857Y-128552571D01*
X367061285Y-128552571D01*
X367118428Y-128581142D01*
X367147000Y-128609714D01*
X367175571Y-128666857D01*
X367175571Y-128752571D01*
X367147000Y-128809714D01*
X367118428Y-128838285D01*
X367061285Y-128866857D01*
X366889857Y-128866857D01*
X366832714Y-128838285D01*
X366804142Y-128809714D01*
X366775571Y-128752571D01*
X366775571Y-128666857D01*
X367175571Y-129124000D02*
X366575571Y-129124000D01*
X367147000Y-129124000D02*
X367175571Y-129181142D01*
X367175571Y-129295428D01*
X367147000Y-129352571D01*
X367118428Y-129381142D01*
X367061285Y-129409714D01*
X366889857Y-129409714D01*
X366832714Y-129381142D01*
X366804142Y-129352571D01*
X366775571Y-129295428D01*
X366775571Y-129181142D01*
X366804142Y-129124000D01*
X365725571Y-127824000D02*
X366325571Y-127824000D01*
X365725571Y-128166857D01*
X366325571Y-128166857D01*
X366325571Y-128366857D02*
X366325571Y-128709714D01*
X365725571Y-128538285D02*
X366325571Y-128538285D01*
X365782714Y-129252571D02*
X365754142Y-129224000D01*
X365725571Y-129138285D01*
X365725571Y-129081142D01*
X365754142Y-128995428D01*
X365811285Y-128938285D01*
X365868428Y-128909714D01*
X365982714Y-128881142D01*
X366068428Y-128881142D01*
X366182714Y-128909714D01*
X366239857Y-128938285D01*
X366297000Y-128995428D01*
X366325571Y-129081142D01*
X366325571Y-129138285D01*
X366297000Y-129224000D01*
X366268428Y-129252571D01*
X367089857Y-125515714D02*
X367089857Y-125315714D01*
X366775571Y-125315714D02*
X367375571Y-125315714D01*
X367375571Y-125601428D01*
X367089857Y-126030000D02*
X367061285Y-126115714D01*
X367032714Y-126144285D01*
X366975571Y-126172857D01*
X366889857Y-126172857D01*
X366832714Y-126144285D01*
X366804142Y-126115714D01*
X366775571Y-126058571D01*
X366775571Y-125830000D01*
X367375571Y-125830000D01*
X367375571Y-126030000D01*
X367347000Y-126087142D01*
X367318428Y-126115714D01*
X367261285Y-126144285D01*
X367204142Y-126144285D01*
X367147000Y-126115714D01*
X367118428Y-126087142D01*
X367089857Y-126030000D01*
X367089857Y-125830000D01*
X365725571Y-125630000D02*
X366011285Y-125430000D01*
X365725571Y-125287142D02*
X366325571Y-125287142D01*
X366325571Y-125515714D01*
X366297000Y-125572857D01*
X366268428Y-125601428D01*
X366211285Y-125630000D01*
X366125571Y-125630000D01*
X366068428Y-125601428D01*
X366039857Y-125572857D01*
X366011285Y-125515714D01*
X366011285Y-125287142D01*
X366325571Y-125830000D02*
X365725571Y-126230000D01*
X366325571Y-126230000D02*
X365725571Y-125830000D01*
X423371428Y-123528571D02*
X422771428Y-123528571D01*
X423371428Y-123242857D02*
X422771428Y-123242857D01*
X423371428Y-122900000D01*
X422771428Y-122900000D01*
X423371428Y-122614285D02*
X422771428Y-122614285D01*
X423057142Y-122614285D02*
X423057142Y-122271428D01*
X423371428Y-122271428D02*
X422771428Y-122271428D01*
X367089857Y-122975714D02*
X367089857Y-122775714D01*
X366775571Y-122775714D02*
X367375571Y-122775714D01*
X367375571Y-123061428D01*
X367089857Y-123490000D02*
X367061285Y-123575714D01*
X367032714Y-123604285D01*
X366975571Y-123632857D01*
X366889857Y-123632857D01*
X366832714Y-123604285D01*
X366804142Y-123575714D01*
X366775571Y-123518571D01*
X366775571Y-123290000D01*
X367375571Y-123290000D01*
X367375571Y-123490000D01*
X367347000Y-123547142D01*
X367318428Y-123575714D01*
X367261285Y-123604285D01*
X367204142Y-123604285D01*
X367147000Y-123575714D01*
X367118428Y-123547142D01*
X367089857Y-123490000D01*
X367089857Y-123290000D01*
X366325571Y-122732857D02*
X366325571Y-123075714D01*
X365725571Y-122904285D02*
X366325571Y-122904285D01*
X366325571Y-123218571D02*
X365725571Y-123618571D01*
X366325571Y-123618571D02*
X365725571Y-123218571D01*
X378551428Y-105737142D02*
X378094285Y-105737142D01*
X378322857Y-105508571D02*
X378322857Y-105965714D01*
X377522857Y-106108571D02*
X377808571Y-106108571D01*
X377837142Y-105822857D01*
X377808571Y-105851428D01*
X377751428Y-105880000D01*
X377608571Y-105880000D01*
X377551428Y-105851428D01*
X377522857Y-105822857D01*
X377494285Y-105765714D01*
X377494285Y-105622857D01*
X377522857Y-105565714D01*
X377551428Y-105537142D01*
X377608571Y-105508571D01*
X377751428Y-105508571D01*
X377808571Y-105537142D01*
X377837142Y-105565714D01*
X377322857Y-106108571D02*
X377122857Y-105508571D01*
X376922857Y-106108571D01*
X375434285Y-106068571D02*
X375434285Y-105582857D01*
X375462857Y-105525714D01*
X375491428Y-105497142D01*
X375548571Y-105468571D01*
X375634285Y-105468571D01*
X375691428Y-105497142D01*
X375434285Y-105697142D02*
X375491428Y-105668571D01*
X375605714Y-105668571D01*
X375662857Y-105697142D01*
X375691428Y-105725714D01*
X375720000Y-105782857D01*
X375720000Y-105954285D01*
X375691428Y-106011428D01*
X375662857Y-106040000D01*
X375605714Y-106068571D01*
X375491428Y-106068571D01*
X375434285Y-106040000D01*
X375148571Y-106068571D02*
X375148571Y-105668571D01*
X375148571Y-106011428D02*
X375120000Y-106040000D01*
X375062857Y-106068571D01*
X374977142Y-106068571D01*
X374920000Y-106040000D01*
X374891428Y-105982857D01*
X374891428Y-105668571D01*
X374348571Y-105668571D02*
X374348571Y-106268571D01*
X374348571Y-105697142D02*
X374405714Y-105668571D01*
X374520000Y-105668571D01*
X374577142Y-105697142D01*
X374605714Y-105725714D01*
X374634285Y-105782857D01*
X374634285Y-105954285D01*
X374605714Y-106011428D01*
X374577142Y-106040000D01*
X374520000Y-106068571D01*
X374405714Y-106068571D01*
X374348571Y-106040000D01*
X381314285Y-106088571D02*
X381314285Y-105602857D01*
X381285714Y-105545714D01*
X381257142Y-105517142D01*
X381200000Y-105488571D01*
X381085714Y-105488571D01*
X381028571Y-105517142D01*
X381000000Y-105545714D01*
X380971428Y-105602857D01*
X380971428Y-106088571D01*
X380685714Y-105488571D02*
X380685714Y-106088571D01*
X380457142Y-106088571D01*
X380400000Y-106060000D01*
X380371428Y-106031428D01*
X380342857Y-105974285D01*
X380342857Y-105888571D01*
X380371428Y-105831428D01*
X380400000Y-105802857D01*
X380457142Y-105774285D01*
X380685714Y-105774285D01*
X380085714Y-105488571D02*
X380085714Y-106088571D01*
X379942857Y-106088571D01*
X379857142Y-106060000D01*
X379800000Y-106002857D01*
X379771428Y-105945714D01*
X379742857Y-105831428D01*
X379742857Y-105745714D01*
X379771428Y-105631428D01*
X379800000Y-105574285D01*
X379857142Y-105517142D01*
X379942857Y-105488571D01*
X380085714Y-105488571D01*
X379485714Y-105488571D02*
X379485714Y-106088571D01*
X421728571Y-131452380D02*
X422376190Y-131452380D01*
X422452380Y-131490476D01*
X422490476Y-131528571D01*
X422528571Y-131604761D01*
X422528571Y-131719047D01*
X422490476Y-131795238D01*
X422223809Y-131452380D02*
X422261904Y-131528571D01*
X422261904Y-131680952D01*
X422223809Y-131757142D01*
X422185714Y-131795238D01*
X422109523Y-131833333D01*
X421880952Y-131833333D01*
X421804761Y-131795238D01*
X421766666Y-131757142D01*
X421728571Y-131680952D01*
X421728571Y-131528571D01*
X421766666Y-131452380D01*
X421728571Y-131071428D02*
X422261904Y-131071428D01*
X421804761Y-131071428D02*
X421766666Y-131033333D01*
X421728571Y-130957142D01*
X421728571Y-130842857D01*
X421766666Y-130766666D01*
X421842857Y-130728571D01*
X422261904Y-130728571D01*
X422261904Y-130004761D02*
X421461904Y-130004761D01*
X422223809Y-130004761D02*
X422261904Y-130080952D01*
X422261904Y-130233333D01*
X422223809Y-130309523D01*
X422185714Y-130347619D01*
X422109523Y-130385714D01*
X421880952Y-130385714D01*
X421804761Y-130347619D01*
X421766666Y-130309523D01*
X421728571Y-130233333D01*
X421728571Y-130080952D01*
X421766666Y-130004761D01*
X422361904Y-125633333D02*
X421980952Y-125900000D01*
X422361904Y-126090476D02*
X421561904Y-126090476D01*
X421561904Y-125785714D01*
X421600000Y-125709523D01*
X421638095Y-125671428D01*
X421714285Y-125633333D01*
X421828571Y-125633333D01*
X421904761Y-125671428D01*
X421942857Y-125709523D01*
X421980952Y-125785714D01*
X421980952Y-126090476D01*
X421561904Y-125366666D02*
X422361904Y-124833333D01*
X421561904Y-124833333D02*
X422361904Y-125366666D01*
X421942857Y-128747619D02*
X421942857Y-129014285D01*
X422361904Y-129014285D02*
X421561904Y-129014285D01*
X421561904Y-128633333D01*
X422133333Y-128366666D02*
X422133333Y-127985714D01*
X422361904Y-128442857D02*
X421561904Y-128176190D01*
X422361904Y-127909523D01*
X422361904Y-127642857D02*
X421561904Y-127642857D01*
X422361904Y-127185714D01*
X421561904Y-127185714D01*
X421561904Y-123609523D02*
X421561904Y-123152380D01*
X422361904Y-123380952D02*
X421561904Y-123380952D01*
X421561904Y-122961904D02*
X422361904Y-122428571D01*
X421561904Y-122428571D02*
X422361904Y-122961904D01*
X422361904Y-121052380D02*
X421561904Y-121052380D01*
X421561904Y-120747619D01*
X421600000Y-120671428D01*
X421638095Y-120633333D01*
X421714285Y-120595238D01*
X421828571Y-120595238D01*
X421904761Y-120633333D01*
X421942857Y-120671428D01*
X421980952Y-120747619D01*
X421980952Y-121052380D01*
X422133333Y-120290476D02*
X422133333Y-119909523D01*
X422361904Y-120366666D02*
X421561904Y-120100000D01*
X422361904Y-119833333D01*
X422361904Y-118338095D02*
X421980952Y-118604761D01*
X422361904Y-118795238D02*
X421561904Y-118795238D01*
X421561904Y-118490476D01*
X421600000Y-118414285D01*
X421638095Y-118376190D01*
X421714285Y-118338095D01*
X421828571Y-118338095D01*
X421904761Y-118376190D01*
X421942857Y-118414285D01*
X421980952Y-118490476D01*
X421980952Y-118795238D01*
X421942857Y-117995238D02*
X421942857Y-117728571D01*
X422361904Y-117614285D02*
X422361904Y-117995238D01*
X421561904Y-117995238D01*
X421561904Y-117614285D01*
X422361904Y-116890476D02*
X422361904Y-117271428D01*
X421561904Y-117271428D01*
X422057142Y-116309523D02*
X422057142Y-115700000D01*
X422361904Y-116004761D02*
X421752380Y-116004761D01*
X421638095Y-115357142D02*
X421600000Y-115319047D01*
X421561904Y-115242857D01*
X421561904Y-115052380D01*
X421600000Y-114976190D01*
X421638095Y-114938095D01*
X421714285Y-114900000D01*
X421790476Y-114900000D01*
X421904761Y-114938095D01*
X422361904Y-115395238D01*
X422361904Y-114900000D01*
X421904761Y-114442857D02*
X421866666Y-114519047D01*
X421828571Y-114557142D01*
X421752380Y-114595238D01*
X421714285Y-114595238D01*
X421638095Y-114557142D01*
X421600000Y-114519047D01*
X421561904Y-114442857D01*
X421561904Y-114290476D01*
X421600000Y-114214285D01*
X421638095Y-114176190D01*
X421714285Y-114138095D01*
X421752380Y-114138095D01*
X421828571Y-114176190D01*
X421866666Y-114214285D01*
X421904761Y-114290476D01*
X421904761Y-114442857D01*
X421942857Y-114519047D01*
X421980952Y-114557142D01*
X422057142Y-114595238D01*
X422209523Y-114595238D01*
X422285714Y-114557142D01*
X422323809Y-114519047D01*
X422361904Y-114442857D01*
X422361904Y-114290476D01*
X422323809Y-114214285D01*
X422285714Y-114176190D01*
X422209523Y-114138095D01*
X422057142Y-114138095D01*
X421980952Y-114176190D01*
X421942857Y-114214285D01*
X421904761Y-114290476D01*
X421561904Y-113909523D02*
X422361904Y-113642857D01*
X421561904Y-113376190D01*
X366464857Y-113398476D02*
X366464857Y-114008000D01*
X366160095Y-113703238D02*
X366769619Y-113703238D01*
X366160095Y-114808000D02*
X366160095Y-114350857D01*
X366160095Y-114579428D02*
X366960095Y-114579428D01*
X366845809Y-114503238D01*
X366769619Y-114427047D01*
X366731523Y-114350857D01*
X366883904Y-115112761D02*
X366922000Y-115150857D01*
X366960095Y-115227047D01*
X366960095Y-115417523D01*
X366922000Y-115493714D01*
X366883904Y-115531809D01*
X366807714Y-115569904D01*
X366731523Y-115569904D01*
X366617238Y-115531809D01*
X366160095Y-115074666D01*
X366160095Y-115569904D01*
X366960095Y-115798476D02*
X366160095Y-116065142D01*
X366960095Y-116331809D01*
X366971428Y-120247619D02*
X366323809Y-120247619D01*
X366247619Y-120209523D01*
X366209523Y-120171428D01*
X366171428Y-120095238D01*
X366171428Y-119980952D01*
X366209523Y-119904761D01*
X366476190Y-120247619D02*
X366438095Y-120171428D01*
X366438095Y-120019047D01*
X366476190Y-119942857D01*
X366514285Y-119904761D01*
X366590476Y-119866666D01*
X366819047Y-119866666D01*
X366895238Y-119904761D01*
X366933333Y-119942857D01*
X366971428Y-120019047D01*
X366971428Y-120171428D01*
X366933333Y-120247619D01*
X366971428Y-120628571D02*
X366438095Y-120628571D01*
X366895238Y-120628571D02*
X366933333Y-120666666D01*
X366971428Y-120742857D01*
X366971428Y-120857142D01*
X366933333Y-120933333D01*
X366857142Y-120971428D01*
X366438095Y-120971428D01*
X366438095Y-121695238D02*
X367238095Y-121695238D01*
X366476190Y-121695238D02*
X366438095Y-121619047D01*
X366438095Y-121466666D01*
X366476190Y-121390476D01*
X366514285Y-121352380D01*
X366590476Y-121314285D01*
X366819047Y-121314285D01*
X366895238Y-121352380D01*
X366933333Y-121390476D01*
X366971428Y-121466666D01*
X366971428Y-121619047D01*
X366933333Y-121695238D01*
X366160095Y-130498952D02*
X366960095Y-130498952D01*
X366960095Y-130803714D01*
X366922000Y-130879904D01*
X366883904Y-130918000D01*
X366807714Y-130956095D01*
X366693428Y-130956095D01*
X366617238Y-130918000D01*
X366579142Y-130879904D01*
X366541047Y-130803714D01*
X366541047Y-130498952D01*
X366960095Y-131184666D02*
X366960095Y-131641809D01*
X366160095Y-131413238D02*
X366960095Y-131413238D01*
X366960095Y-131794190D02*
X366960095Y-132251333D01*
X366160095Y-132022761D02*
X366960095Y-132022761D01*
X366947428Y-117557619D02*
X366299809Y-117557619D01*
X366223619Y-117519523D01*
X366185523Y-117481428D01*
X366147428Y-117405238D01*
X366147428Y-117290952D01*
X366185523Y-117214761D01*
X366452190Y-117557619D02*
X366414095Y-117481428D01*
X366414095Y-117329047D01*
X366452190Y-117252857D01*
X366490285Y-117214761D01*
X366566476Y-117176666D01*
X366795047Y-117176666D01*
X366871238Y-117214761D01*
X366909333Y-117252857D01*
X366947428Y-117329047D01*
X366947428Y-117481428D01*
X366909333Y-117557619D01*
X366947428Y-117938571D02*
X366414095Y-117938571D01*
X366871238Y-117938571D02*
X366909333Y-117976666D01*
X366947428Y-118052857D01*
X366947428Y-118167142D01*
X366909333Y-118243333D01*
X366833142Y-118281428D01*
X366414095Y-118281428D01*
X366414095Y-119005238D02*
X367214095Y-119005238D01*
X366452190Y-119005238D02*
X366414095Y-118929047D01*
X366414095Y-118776666D01*
X366452190Y-118700476D01*
X366490285Y-118662380D01*
X366566476Y-118624285D01*
X366795047Y-118624285D01*
X366871238Y-118662380D01*
X366909333Y-118700476D01*
X366947428Y-118776666D01*
X366947428Y-118929047D01*
X366909333Y-119005238D01*
D11*
%TO.C,R24*%
X379461500Y-126508742D02*
X379461500Y-126983258D01*
X380506500Y-126508742D02*
X380506500Y-126983258D01*
%TO.C,R21*%
X411211500Y-134128742D02*
X411211500Y-134603258D01*
X412256500Y-134128742D02*
X412256500Y-134603258D01*
%TO.C,R20*%
X395209500Y-105934742D02*
X395209500Y-106409258D01*
X396254500Y-105934742D02*
X396254500Y-106409258D01*
%TO.C,R16*%
X411717258Y-111237500D02*
X411242742Y-111237500D01*
X411717258Y-112282500D02*
X411242742Y-112282500D01*
%TO.C,R13*%
X390889258Y-108443500D02*
X390414742Y-108443500D01*
X390889258Y-109488500D02*
X390414742Y-109488500D01*
%TO.C,R8*%
X408161258Y-109713500D02*
X407686742Y-109713500D01*
X408161258Y-110758500D02*
X407686742Y-110758500D01*
%TO.C,R7*%
X384824500Y-109203258D02*
X384824500Y-108728742D01*
X383779500Y-109203258D02*
X383779500Y-108728742D01*
%TO.C,R6*%
X393460500Y-111489258D02*
X393460500Y-111014742D01*
X392415500Y-111489258D02*
X392415500Y-111014742D01*
%TO.C,R5*%
X384826742Y-112790500D02*
X385301258Y-112790500D01*
X384826742Y-111745500D02*
X385301258Y-111745500D01*
%TO.C,R2*%
X389873258Y-111999500D02*
X389398742Y-111999500D01*
X389873258Y-113044500D02*
X389398742Y-113044500D01*
%TO.C,R1*%
X374122500Y-131937258D02*
X374122500Y-131462742D01*
X373077500Y-131937258D02*
X373077500Y-131462742D01*
%TO.C,Q14*%
X415542000Y-135946000D02*
X414082000Y-135946000D01*
X415542000Y-132786000D02*
X413382000Y-132786000D01*
X415542000Y-132786000D02*
X415542000Y-133716000D01*
X415542000Y-135946000D02*
X415542000Y-135016000D01*
%TO.C,Q13*%
X392178000Y-104592000D02*
X393638000Y-104592000D01*
X392178000Y-107752000D02*
X394338000Y-107752000D01*
X392178000Y-107752000D02*
X392178000Y-106822000D01*
X392178000Y-104592000D02*
X392178000Y-105522000D01*
%TO.C,Q12*%
X413060000Y-108206000D02*
X413060000Y-109666000D01*
X409900000Y-108206000D02*
X409900000Y-110366000D01*
X409900000Y-108206000D02*
X410830000Y-108206000D01*
X413060000Y-108206000D02*
X412130000Y-108206000D01*
%TO.C,Q11*%
X388676000Y-107952000D02*
X388676000Y-109412000D01*
X385516000Y-107952000D02*
X385516000Y-110112000D01*
X385516000Y-107952000D02*
X386446000Y-107952000D01*
X388676000Y-107952000D02*
X387746000Y-107952000D01*
%TO.C,Q10*%
X403408000Y-110492000D02*
X403408000Y-111952000D01*
X400248000Y-110492000D02*
X400248000Y-112652000D01*
X400248000Y-110492000D02*
X401178000Y-110492000D01*
X403408000Y-110492000D02*
X402478000Y-110492000D01*
%TO.C,D8*%
X399456000Y-111490000D02*
X395606000Y-111490000D01*
X399456000Y-109490000D02*
X395606000Y-109490000D01*
X399456000Y-111490000D02*
X399456000Y-109490000D01*
%TO.C,D7*%
X409788000Y-104664000D02*
X413638000Y-104664000D01*
X409788000Y-106664000D02*
X413638000Y-106664000D01*
X409788000Y-104664000D02*
X409788000Y-106664000D01*
%TO.C,D4*%
X390312000Y-106664000D02*
X386462000Y-106664000D01*
X390312000Y-104664000D02*
X386462000Y-104664000D01*
X390312000Y-106664000D02*
X390312000Y-104664000D01*
%TO.C,D1*%
X404130000Y-113960000D02*
X404130000Y-110110000D01*
X406130000Y-113960000D02*
X406130000Y-110110000D01*
X404130000Y-113960000D02*
X406130000Y-113960000D01*
%TO.C,C9*%
X375525420Y-127256000D02*
X375806580Y-127256000D01*
X375525420Y-126236000D02*
X375806580Y-126236000D01*
%TO.C,C7*%
X372731420Y-129542000D02*
X373012580Y-129542000D01*
X372731420Y-128522000D02*
X373012580Y-128522000D01*
%TO.C,Q8*%
X409670000Y-129786000D02*
X409670000Y-130446000D01*
X409670000Y-128126000D02*
X409670000Y-128786000D01*
X409670000Y-128126000D02*
X407640000Y-128126000D01*
X408260000Y-130446000D02*
X409670000Y-130446000D01*
%TO.C,Q3*%
X404530000Y-120800000D02*
X404530000Y-121460000D01*
X404530000Y-119140000D02*
X404530000Y-119800000D01*
X404530000Y-119140000D02*
X402500000Y-119140000D01*
X403120000Y-121460000D02*
X404530000Y-121460000D01*
%TO.C,Q2*%
X409924000Y-120388000D02*
X409924000Y-121048000D01*
X409924000Y-118728000D02*
X409924000Y-119388000D01*
X409924000Y-118728000D02*
X407894000Y-118728000D01*
X408514000Y-121048000D02*
X409924000Y-121048000D01*
%TO.C,Q1*%
X377158000Y-132072000D02*
X377158000Y-132732000D01*
X377158000Y-130412000D02*
X377158000Y-131072000D01*
X377158000Y-130412000D02*
X375128000Y-130412000D01*
X375748000Y-132732000D02*
X377158000Y-132732000D01*
%TO.C,U2*%
X397670000Y-121412000D02*
X397670000Y-117552000D01*
X397670000Y-117552000D02*
X397435000Y-117552000D01*
X397670000Y-121412000D02*
X397670000Y-125272000D01*
X397670000Y-125272000D02*
X397435000Y-125272000D01*
X384650000Y-121412000D02*
X384650000Y-117552000D01*
X384650000Y-117552000D02*
X384885000Y-117552000D01*
X384650000Y-121412000D02*
X384650000Y-125272000D01*
X384650000Y-125272000D02*
X384885000Y-125272000D01*
X384885000Y-125272000D02*
X384885000Y-127087000D01*
%TO.C,Q7*%
X416050000Y-117404000D02*
X416050000Y-116474000D01*
X416050000Y-114244000D02*
X416050000Y-115174000D01*
X416050000Y-114244000D02*
X413890000Y-114244000D01*
X416050000Y-117404000D02*
X414590000Y-117404000D01*
%TO.C,C8*%
X372874000Y-123811420D02*
X372874000Y-124092580D01*
X371854000Y-123811420D02*
X371854000Y-124092580D01*
%TO.C,C6*%
X379108580Y-111508000D02*
X378827420Y-111508000D01*
X379108580Y-110488000D02*
X378827420Y-110488000D01*
%TO.C,C5*%
X372310000Y-131559420D02*
X372310000Y-131840580D01*
X371290000Y-131559420D02*
X371290000Y-131840580D01*
%TO.C,Q9*%
X415796000Y-130612000D02*
X415796000Y-129682000D01*
X415796000Y-127452000D02*
X415796000Y-128382000D01*
X415796000Y-127452000D02*
X413636000Y-127452000D01*
X415796000Y-130612000D02*
X414336000Y-130612000D01*
%TO.C,R23*%
X415527258Y-126252500D02*
X415052742Y-126252500D01*
X415527258Y-125207500D02*
X415052742Y-125207500D01*
%TO.C,R22*%
X411465500Y-129269258D02*
X411465500Y-128794742D01*
X412510500Y-129269258D02*
X412510500Y-128794742D01*
%TO.C,D6*%
X412534000Y-124995000D02*
X410249000Y-124995000D01*
X410249000Y-124995000D02*
X410249000Y-126465000D01*
X410249000Y-126465000D02*
X412534000Y-126465000D01*
%TO.C,D3*%
X402688000Y-141388100D02*
X402688000Y-138088100D01*
X402688000Y-138088100D02*
X397288000Y-138088100D01*
X402688000Y-141388100D02*
X397288000Y-141388100D01*
%TO.C,Q6*%
X397092900Y-133484500D02*
X397092900Y-134414500D01*
X397092900Y-136644500D02*
X397092900Y-135714500D01*
X397092900Y-136644500D02*
X399252900Y-136644500D01*
X397092900Y-133484500D02*
X398552900Y-133484500D01*
%TO.C,L1*%
X394666000Y-139190000D02*
X394666000Y-142190000D01*
X394666000Y-142190000D02*
X382066000Y-142190000D01*
X382066000Y-142190000D02*
X382066000Y-139190000D01*
X382066000Y-132590000D02*
X382066000Y-129590000D01*
X382066000Y-129590000D02*
X394666000Y-129590000D01*
X394666000Y-129590000D02*
X394666000Y-132590000D01*
%TO.C,U1*%
X380782000Y-119234000D02*
X374772000Y-119234000D01*
X378532000Y-112414000D02*
X374772000Y-112414000D01*
X374772000Y-119234000D02*
X374772000Y-117974000D01*
X374772000Y-112414000D02*
X374772000Y-113674000D01*
%TO.C,R19*%
X411719500Y-115586742D02*
X411719500Y-116061258D01*
X412764500Y-115586742D02*
X412764500Y-116061258D01*
%TO.C,R18*%
X403377500Y-129862742D02*
X403377500Y-130337258D01*
X404422500Y-129862742D02*
X404422500Y-130337258D01*
%TO.C,R17*%
X401753600Y-129116858D02*
X401753600Y-128642342D01*
X400708600Y-129116858D02*
X400708600Y-128642342D01*
%TO.C,R15*%
X401740900Y-132939558D02*
X401740900Y-132465042D01*
X400695900Y-132939558D02*
X400695900Y-132465042D01*
%TO.C,R14*%
X415527258Y-122667500D02*
X415052742Y-122667500D01*
X415527258Y-123712500D02*
X415052742Y-123712500D01*
%TO.C,R12*%
X399048500Y-131555258D02*
X399048500Y-131080742D01*
X398003500Y-131555258D02*
X398003500Y-131080742D01*
%TO.C,R11*%
X396225500Y-131080742D02*
X396225500Y-131555258D01*
X397270500Y-131080742D02*
X397270500Y-131555258D01*
%TO.C,R10*%
X412764500Y-120125258D02*
X412764500Y-119650742D01*
X411719500Y-120125258D02*
X411719500Y-119650742D01*
%TO.C,R9*%
X405652500Y-124697258D02*
X405652500Y-124222742D01*
X404607500Y-124697258D02*
X404607500Y-124222742D01*
%TO.C,R4*%
X375903258Y-119873500D02*
X375428742Y-119873500D01*
X375903258Y-120918500D02*
X375428742Y-120918500D01*
%TO.C,R3*%
X379205258Y-119873500D02*
X378730742Y-119873500D01*
X379205258Y-120918500D02*
X378730742Y-120918500D01*
%TO.C,Q5*%
X416050000Y-121468000D02*
X414590000Y-121468000D01*
X416050000Y-118308000D02*
X413890000Y-118308000D01*
X416050000Y-118308000D02*
X416050000Y-119238000D01*
X416050000Y-121468000D02*
X416050000Y-120538000D01*
%TO.C,Q4*%
X408684000Y-125786000D02*
X407224000Y-125786000D01*
X408684000Y-122626000D02*
X406524000Y-122626000D01*
X408684000Y-122626000D02*
X408684000Y-123556000D01*
X408684000Y-125786000D02*
X408684000Y-124856000D01*
%TO.C,D5*%
X418252000Y-113268000D02*
X414402000Y-113268000D01*
X418252000Y-111268000D02*
X414402000Y-111268000D01*
X418252000Y-113268000D02*
X418252000Y-111268000D01*
%TO.C,D2*%
X410249000Y-123925000D02*
X412534000Y-123925000D01*
X410249000Y-122455000D02*
X410249000Y-123925000D01*
X412534000Y-122455000D02*
X410249000Y-122455000D01*
%TO.C,C4*%
X404754000Y-142143241D02*
X405384000Y-142143241D01*
X405069000Y-142458241D02*
X405069000Y-141828241D01*
X406506000Y-135717000D02*
X407310000Y-135717000D01*
X406275000Y-135757000D02*
X407541000Y-135757000D01*
X406106000Y-135797000D02*
X407710000Y-135797000D01*
X405968000Y-135837000D02*
X407848000Y-135837000D01*
X405849000Y-135877000D02*
X407967000Y-135877000D01*
X405743000Y-135917000D02*
X408073000Y-135917000D01*
X405646000Y-135957000D02*
X408170000Y-135957000D01*
X405558000Y-135997000D02*
X408258000Y-135997000D01*
X405476000Y-136037000D02*
X408340000Y-136037000D01*
X405399000Y-136077000D02*
X408417000Y-136077000D01*
X405327000Y-136117000D02*
X408489000Y-136117000D01*
X405258000Y-136157000D02*
X408558000Y-136157000D01*
X405194000Y-136197000D02*
X408622000Y-136197000D01*
X405132000Y-136237000D02*
X408684000Y-136237000D01*
X405074000Y-136277000D02*
X408742000Y-136277000D01*
X405018000Y-136317000D02*
X408798000Y-136317000D01*
X404964000Y-136357000D02*
X408852000Y-136357000D01*
X404913000Y-136397000D02*
X408903000Y-136397000D01*
X404864000Y-136437000D02*
X408952000Y-136437000D01*
X404816000Y-136477000D02*
X409000000Y-136477000D01*
X404771000Y-136517000D02*
X409045000Y-136517000D01*
X404726000Y-136557000D02*
X409090000Y-136557000D01*
X404684000Y-136597000D02*
X409132000Y-136597000D01*
X404643000Y-136637000D02*
X409173000Y-136637000D01*
X407948000Y-136677000D02*
X409213000Y-136677000D01*
X404603000Y-136677000D02*
X405868000Y-136677000D01*
X407948000Y-136717000D02*
X409251000Y-136717000D01*
X404565000Y-136717000D02*
X405868000Y-136717000D01*
X407948000Y-136757000D02*
X409288000Y-136757000D01*
X404528000Y-136757000D02*
X405868000Y-136757000D01*
X407948000Y-136797000D02*
X409324000Y-136797000D01*
X404492000Y-136797000D02*
X405868000Y-136797000D01*
X407948000Y-136837000D02*
X409358000Y-136837000D01*
X404458000Y-136837000D02*
X405868000Y-136837000D01*
X407948000Y-136877000D02*
X409392000Y-136877000D01*
X404424000Y-136877000D02*
X405868000Y-136877000D01*
X407948000Y-136917000D02*
X409424000Y-136917000D01*
X404392000Y-136917000D02*
X405868000Y-136917000D01*
X407948000Y-136957000D02*
X409456000Y-136957000D01*
X404360000Y-136957000D02*
X405868000Y-136957000D01*
X407948000Y-136997000D02*
X409486000Y-136997000D01*
X404330000Y-136997000D02*
X405868000Y-136997000D01*
X407948000Y-137037000D02*
X409515000Y-137037000D01*
X404301000Y-137037000D02*
X405868000Y-137037000D01*
X407948000Y-137077000D02*
X409544000Y-137077000D01*
X404272000Y-137077000D02*
X405868000Y-137077000D01*
X407948000Y-137117000D02*
X409572000Y-137117000D01*
X404244000Y-137117000D02*
X405868000Y-137117000D01*
X407948000Y-137157000D02*
X409598000Y-137157000D01*
X404218000Y-137157000D02*
X405868000Y-137157000D01*
X407948000Y-137197000D02*
X409624000Y-137197000D01*
X404192000Y-137197000D02*
X405868000Y-137197000D01*
X407948000Y-137237000D02*
X409650000Y-137237000D01*
X404166000Y-137237000D02*
X405868000Y-137237000D01*
X407948000Y-137277000D02*
X409674000Y-137277000D01*
X404142000Y-137277000D02*
X405868000Y-137277000D01*
X407948000Y-137317000D02*
X409698000Y-137317000D01*
X404118000Y-137317000D02*
X405868000Y-137317000D01*
X407948000Y-137357000D02*
X409720000Y-137357000D01*
X404096000Y-137357000D02*
X405868000Y-137357000D01*
X407948000Y-137397000D02*
X409742000Y-137397000D01*
X404074000Y-137397000D02*
X405868000Y-137397000D01*
X407948000Y-137437000D02*
X409764000Y-137437000D01*
X404052000Y-137437000D02*
X405868000Y-137437000D01*
X407948000Y-137477000D02*
X409784000Y-137477000D01*
X404032000Y-137477000D02*
X405868000Y-137477000D01*
X407948000Y-137517000D02*
X409804000Y-137517000D01*
X404012000Y-137517000D02*
X405868000Y-137517000D01*
X407948000Y-137557000D02*
X409824000Y-137557000D01*
X403992000Y-137557000D02*
X405868000Y-137557000D01*
X407948000Y-137597000D02*
X409842000Y-137597000D01*
X403974000Y-137597000D02*
X405868000Y-137597000D01*
X407948000Y-137637000D02*
X409860000Y-137637000D01*
X403956000Y-137637000D02*
X405868000Y-137637000D01*
X407948000Y-137677000D02*
X409878000Y-137677000D01*
X403938000Y-137677000D02*
X405868000Y-137677000D01*
X407948000Y-137717000D02*
X409894000Y-137717000D01*
X403922000Y-137717000D02*
X405868000Y-137717000D01*
X407948000Y-137757000D02*
X409910000Y-137757000D01*
X403906000Y-137757000D02*
X405868000Y-137757000D01*
X407948000Y-137797000D02*
X409926000Y-137797000D01*
X403890000Y-137797000D02*
X405868000Y-137797000D01*
X407948000Y-137837000D02*
X409941000Y-137837000D01*
X403875000Y-137837000D02*
X405868000Y-137837000D01*
X407948000Y-137877000D02*
X409955000Y-137877000D01*
X403861000Y-137877000D02*
X405868000Y-137877000D01*
X407948000Y-137917000D02*
X409969000Y-137917000D01*
X403847000Y-137917000D02*
X405868000Y-137917000D01*
X407948000Y-137957000D02*
X409982000Y-137957000D01*
X403834000Y-137957000D02*
X405868000Y-137957000D01*
X407948000Y-137997000D02*
X409994000Y-137997000D01*
X403822000Y-137997000D02*
X405868000Y-137997000D01*
X407948000Y-138037000D02*
X410006000Y-138037000D01*
X403810000Y-138037000D02*
X405868000Y-138037000D01*
X407948000Y-138077000D02*
X410018000Y-138077000D01*
X403798000Y-138077000D02*
X405868000Y-138077000D01*
X407948000Y-138117000D02*
X410029000Y-138117000D01*
X403787000Y-138117000D02*
X405868000Y-138117000D01*
X407948000Y-138157000D02*
X410039000Y-138157000D01*
X403777000Y-138157000D02*
X405868000Y-138157000D01*
X407948000Y-138197000D02*
X410049000Y-138197000D01*
X403767000Y-138197000D02*
X405868000Y-138197000D01*
X407948000Y-138237000D02*
X410058000Y-138237000D01*
X403758000Y-138237000D02*
X405868000Y-138237000D01*
X407948000Y-138278000D02*
X410067000Y-138278000D01*
X403749000Y-138278000D02*
X405868000Y-138278000D01*
X407948000Y-138318000D02*
X410075000Y-138318000D01*
X403741000Y-138318000D02*
X405868000Y-138318000D01*
X407948000Y-138358000D02*
X410083000Y-138358000D01*
X403733000Y-138358000D02*
X405868000Y-138358000D01*
X407948000Y-138398000D02*
X410090000Y-138398000D01*
X403726000Y-138398000D02*
X405868000Y-138398000D01*
X407948000Y-138438000D02*
X410097000Y-138438000D01*
X403719000Y-138438000D02*
X405868000Y-138438000D01*
X407948000Y-138478000D02*
X410103000Y-138478000D01*
X403713000Y-138478000D02*
X405868000Y-138478000D01*
X407948000Y-138518000D02*
X410109000Y-138518000D01*
X403707000Y-138518000D02*
X405868000Y-138518000D01*
X407948000Y-138558000D02*
X410114000Y-138558000D01*
X403702000Y-138558000D02*
X405868000Y-138558000D01*
X407948000Y-138598000D02*
X410119000Y-138598000D01*
X403697000Y-138598000D02*
X405868000Y-138598000D01*
X407948000Y-138638000D02*
X410123000Y-138638000D01*
X403693000Y-138638000D02*
X405868000Y-138638000D01*
X407948000Y-138678000D02*
X410126000Y-138678000D01*
X403690000Y-138678000D02*
X405868000Y-138678000D01*
X407948000Y-138718000D02*
X410130000Y-138718000D01*
X403686000Y-138718000D02*
X405868000Y-138718000D01*
X403684000Y-138758000D02*
X410132000Y-138758000D01*
X403681000Y-138798000D02*
X410135000Y-138798000D01*
X403680000Y-138838000D02*
X410136000Y-138838000D01*
X403678000Y-138878000D02*
X410138000Y-138878000D01*
X403678000Y-138918000D02*
X410138000Y-138918000D01*
X403678000Y-138958000D02*
X410138000Y-138958000D01*
X410178000Y-138958000D02*
G75*
G03*
X410178000Y-138958000I-3270000J0D01*
G01*
%TO.C,C3*%
X401741100Y-136132180D02*
X401741100Y-135851020D01*
X400721100Y-136132180D02*
X400721100Y-135851020D01*
%TO.C,C2*%
X379397000Y-133884302D02*
X378597000Y-133884302D01*
X378997000Y-133484302D02*
X378997000Y-134284302D01*
X377215000Y-141975000D02*
X376149000Y-141975000D01*
X377450000Y-141935000D02*
X375914000Y-141935000D01*
X377630000Y-141895000D02*
X375734000Y-141895000D01*
X377780000Y-141855000D02*
X375584000Y-141855000D01*
X377911000Y-141815000D02*
X375453000Y-141815000D01*
X378028000Y-141775000D02*
X375336000Y-141775000D01*
X378135000Y-141735000D02*
X375229000Y-141735000D01*
X378234000Y-141695000D02*
X375130000Y-141695000D01*
X378327000Y-141655000D02*
X375037000Y-141655000D01*
X378413000Y-141615000D02*
X374951000Y-141615000D01*
X378495000Y-141575000D02*
X374869000Y-141575000D01*
X378572000Y-141535000D02*
X374792000Y-141535000D01*
X378646000Y-141495000D02*
X374718000Y-141495000D01*
X378716000Y-141455000D02*
X374648000Y-141455000D01*
X378784000Y-141415000D02*
X374580000Y-141415000D01*
X378848000Y-141375000D02*
X374516000Y-141375000D01*
X378910000Y-141335000D02*
X374454000Y-141335000D01*
X378969000Y-141295000D02*
X374395000Y-141295000D01*
X379027000Y-141255000D02*
X374337000Y-141255000D01*
X379082000Y-141215000D02*
X374282000Y-141215000D01*
X379136000Y-141175000D02*
X374228000Y-141175000D01*
X379187000Y-141135000D02*
X374177000Y-141135000D01*
X379238000Y-141095000D02*
X374126000Y-141095000D01*
X379286000Y-141055000D02*
X374078000Y-141055000D01*
X379333000Y-141015000D02*
X374031000Y-141015000D01*
X379379000Y-140975000D02*
X373985000Y-140975000D01*
X379423000Y-140935000D02*
X373941000Y-140935000D01*
X379466000Y-140895000D02*
X373898000Y-140895000D01*
X379508000Y-140855000D02*
X373856000Y-140855000D01*
X379549000Y-140815000D02*
X373815000Y-140815000D01*
X379589000Y-140775000D02*
X373775000Y-140775000D01*
X379627000Y-140735000D02*
X373737000Y-140735000D01*
X379665000Y-140695000D02*
X373699000Y-140695000D01*
X375642000Y-140655000D02*
X373663000Y-140655000D01*
X379701000Y-140655000D02*
X377722000Y-140655000D01*
X375642000Y-140615000D02*
X373627000Y-140615000D01*
X379737000Y-140615000D02*
X377722000Y-140615000D01*
X375642000Y-140575000D02*
X373592000Y-140575000D01*
X379772000Y-140575000D02*
X377722000Y-140575000D01*
X375642000Y-140535000D02*
X373558000Y-140535000D01*
X379806000Y-140535000D02*
X377722000Y-140535000D01*
X375642000Y-140495000D02*
X373526000Y-140495000D01*
X379838000Y-140495000D02*
X377722000Y-140495000D01*
X375642000Y-140455000D02*
X373493000Y-140455000D01*
X379871000Y-140455000D02*
X377722000Y-140455000D01*
X375642000Y-140415000D02*
X373462000Y-140415000D01*
X379902000Y-140415000D02*
X377722000Y-140415000D01*
X375642000Y-140375000D02*
X373432000Y-140375000D01*
X379932000Y-140375000D02*
X377722000Y-140375000D01*
X375642000Y-140335000D02*
X373402000Y-140335000D01*
X379962000Y-140335000D02*
X377722000Y-140335000D01*
X375642000Y-140295000D02*
X373373000Y-140295000D01*
X379991000Y-140295000D02*
X377722000Y-140295000D01*
X375642000Y-140255000D02*
X373344000Y-140255000D01*
X380020000Y-140255000D02*
X377722000Y-140255000D01*
X375642000Y-140215000D02*
X373317000Y-140215000D01*
X380047000Y-140215000D02*
X377722000Y-140215000D01*
X375642000Y-140175000D02*
X373290000Y-140175000D01*
X380074000Y-140175000D02*
X377722000Y-140175000D01*
X375642000Y-140135000D02*
X373264000Y-140135000D01*
X380100000Y-140135000D02*
X377722000Y-140135000D01*
X375642000Y-140095000D02*
X373238000Y-140095000D01*
X380126000Y-140095000D02*
X377722000Y-140095000D01*
X375642000Y-140055000D02*
X373213000Y-140055000D01*
X380151000Y-140055000D02*
X377722000Y-140055000D01*
X375642000Y-140015000D02*
X373189000Y-140015000D01*
X380175000Y-140015000D02*
X377722000Y-140015000D01*
X375642000Y-139975000D02*
X373165000Y-139975000D01*
X380199000Y-139975000D02*
X377722000Y-139975000D01*
X375642000Y-139935000D02*
X373142000Y-139935000D01*
X380222000Y-139935000D02*
X377722000Y-139935000D01*
X375642000Y-139895000D02*
X373120000Y-139895000D01*
X380244000Y-139895000D02*
X377722000Y-139895000D01*
X375642000Y-139855000D02*
X373098000Y-139855000D01*
X380266000Y-139855000D02*
X377722000Y-139855000D01*
X375642000Y-139815000D02*
X373076000Y-139815000D01*
X380288000Y-139815000D02*
X377722000Y-139815000D01*
X375642000Y-139775000D02*
X373055000Y-139775000D01*
X380309000Y-139775000D02*
X377722000Y-139775000D01*
X375642000Y-139735000D02*
X373035000Y-139735000D01*
X380329000Y-139735000D02*
X377722000Y-139735000D01*
X375642000Y-139695000D02*
X373016000Y-139695000D01*
X380348000Y-139695000D02*
X377722000Y-139695000D01*
X375642000Y-139655000D02*
X372996000Y-139655000D01*
X380368000Y-139655000D02*
X377722000Y-139655000D01*
X375642000Y-139615000D02*
X372978000Y-139615000D01*
X380386000Y-139615000D02*
X377722000Y-139615000D01*
X375642000Y-139575000D02*
X372960000Y-139575000D01*
X380404000Y-139575000D02*
X377722000Y-139575000D01*
X375642000Y-139535000D02*
X372942000Y-139535000D01*
X380422000Y-139535000D02*
X377722000Y-139535000D01*
X375642000Y-139495000D02*
X372925000Y-139495000D01*
X380439000Y-139495000D02*
X377722000Y-139495000D01*
X375642000Y-139455000D02*
X372908000Y-139455000D01*
X380456000Y-139455000D02*
X377722000Y-139455000D01*
X375642000Y-139415000D02*
X372892000Y-139415000D01*
X380472000Y-139415000D02*
X377722000Y-139415000D01*
X375642000Y-139375000D02*
X372877000Y-139375000D01*
X380487000Y-139375000D02*
X377722000Y-139375000D01*
X375642000Y-139335000D02*
X372861000Y-139335000D01*
X380503000Y-139335000D02*
X377722000Y-139335000D01*
X375642000Y-139295000D02*
X372847000Y-139295000D01*
X380517000Y-139295000D02*
X377722000Y-139295000D01*
X375642000Y-139255000D02*
X372832000Y-139255000D01*
X380532000Y-139255000D02*
X377722000Y-139255000D01*
X375642000Y-139215000D02*
X372819000Y-139215000D01*
X380545000Y-139215000D02*
X377722000Y-139215000D01*
X375642000Y-139175000D02*
X372805000Y-139175000D01*
X380559000Y-139175000D02*
X377722000Y-139175000D01*
X375642000Y-139135000D02*
X372793000Y-139135000D01*
X380571000Y-139135000D02*
X377722000Y-139135000D01*
X375642000Y-139095000D02*
X372780000Y-139095000D01*
X380584000Y-139095000D02*
X377722000Y-139095000D01*
X375642000Y-139055000D02*
X372768000Y-139055000D01*
X380596000Y-139055000D02*
X377722000Y-139055000D01*
X375642000Y-139015000D02*
X372757000Y-139015000D01*
X380607000Y-139015000D02*
X377722000Y-139015000D01*
X375642000Y-138975000D02*
X372746000Y-138975000D01*
X380618000Y-138975000D02*
X377722000Y-138975000D01*
X375642000Y-138935000D02*
X372735000Y-138935000D01*
X380629000Y-138935000D02*
X377722000Y-138935000D01*
X375642000Y-138895000D02*
X372725000Y-138895000D01*
X380639000Y-138895000D02*
X377722000Y-138895000D01*
X375642000Y-138855000D02*
X372715000Y-138855000D01*
X380649000Y-138855000D02*
X377722000Y-138855000D01*
X375642000Y-138815000D02*
X372706000Y-138815000D01*
X380658000Y-138815000D02*
X377722000Y-138815000D01*
X375642000Y-138775000D02*
X372697000Y-138775000D01*
X380667000Y-138775000D02*
X377722000Y-138775000D01*
X375642000Y-138735000D02*
X372688000Y-138735000D01*
X380676000Y-138735000D02*
X377722000Y-138735000D01*
X375642000Y-138695000D02*
X372680000Y-138695000D01*
X380684000Y-138695000D02*
X377722000Y-138695000D01*
X375642000Y-138655000D02*
X372672000Y-138655000D01*
X380692000Y-138655000D02*
X377722000Y-138655000D01*
X375642000Y-138615000D02*
X372665000Y-138615000D01*
X380699000Y-138615000D02*
X377722000Y-138615000D01*
X380706000Y-138574000D02*
X372658000Y-138574000D01*
X380712000Y-138534000D02*
X372652000Y-138534000D01*
X380719000Y-138494000D02*
X372645000Y-138494000D01*
X380724000Y-138454000D02*
X372640000Y-138454000D01*
X380730000Y-138414000D02*
X372634000Y-138414000D01*
X380734000Y-138374000D02*
X372630000Y-138374000D01*
X380739000Y-138334000D02*
X372625000Y-138334000D01*
X380743000Y-138294000D02*
X372621000Y-138294000D01*
X380747000Y-138254000D02*
X372617000Y-138254000D01*
X380750000Y-138214000D02*
X372614000Y-138214000D01*
X380753000Y-138174000D02*
X372611000Y-138174000D01*
X380756000Y-138134000D02*
X372608000Y-138134000D01*
X380758000Y-138094000D02*
X372606000Y-138094000D01*
X380759000Y-138054000D02*
X372605000Y-138054000D01*
X380761000Y-138014000D02*
X372603000Y-138014000D01*
X380762000Y-137974000D02*
X372602000Y-137974000D01*
X380762000Y-137934000D02*
X372602000Y-137934000D01*
X380762000Y-137894000D02*
X372602000Y-137894000D01*
X380802000Y-137894000D02*
G75*
G03*
X380802000Y-137894000I-4120000J0D01*
G01*
%TO.C,C1*%
X383034000Y-125362580D02*
X383034000Y-125081420D01*
X382014000Y-125362580D02*
X382014000Y-125081420D01*
%TD*%
M02*
