%TF.GenerationSoftware,KiCad,Pcbnew,5.1.10-88a1d61d58~90~ubuntu20.04.1*%
%TF.CreationDate,2021-10-01T00:20:27+02:00*%
%TF.ProjectId,boost_sequencer,626f6f73-745f-4736-9571-75656e636572,rev?*%
%TF.SameCoordinates,Original*%
%TF.FileFunction,Copper,L2,Bot*%
%TF.FilePolarity,Positive*%
%FSLAX46Y46*%
G04 Gerber Fmt 4.6, Leading zero omitted, Abs format (unit mm)*
G04 Created by KiCad (PCBNEW 5.1.10-88a1d61d58~90~ubuntu20.04.1) date 2021-10-01 00:20:27*
%MOMM*%
%LPD*%
G01*
G04 APERTURE LIST*
%TA.AperFunction,ComponentPad*%
%ADD10O,1.700000X1.700000*%
%TD*%
%TA.AperFunction,ComponentPad*%
%ADD11R,1.700000X1.700000*%
%TD*%
%TA.AperFunction,ComponentPad*%
%ADD12C,1.600000*%
%TD*%
%TA.AperFunction,ComponentPad*%
%ADD13R,1.600000X1.600000*%
%TD*%
%TA.AperFunction,ViaPad*%
%ADD14C,0.800000*%
%TD*%
%TA.AperFunction,Conductor*%
%ADD15C,0.300000*%
%TD*%
%TA.AperFunction,Conductor*%
%ADD16C,0.800000*%
%TD*%
%TA.AperFunction,Conductor*%
%ADD17C,0.250000*%
%TD*%
%TA.AperFunction,Conductor*%
%ADD18C,0.500000*%
%TD*%
%TA.AperFunction,Conductor*%
%ADD19C,0.254000*%
%TD*%
%TA.AperFunction,Conductor*%
%ADD20C,0.100000*%
%TD*%
G04 APERTURE END LIST*
D10*
%TO.P,J1,5*%
%TO.N,GND*%
X368808000Y-125984000D03*
%TO.P,J1,4*%
%TO.N,Net-(C8-Pad1)*%
X368808000Y-128524000D03*
%TO.P,J1,3*%
%TO.N,Net-(C5-Pad1)*%
X368808000Y-131064000D03*
%TO.P,J1,2*%
%TO.N,GND*%
X368808000Y-133604000D03*
D11*
%TO.P,J1,1*%
%TO.N,Net-(C2-Pad1)*%
X368808000Y-136144000D03*
%TD*%
D10*
%TO.P,J2,3*%
%TO.N,Net-(J2-Pad3)*%
X377820000Y-110900000D03*
%TO.P,J2,2*%
%TO.N,Net-(C1-Pad1)*%
X380360000Y-110900000D03*
D11*
%TO.P,J2,1*%
%TO.N,GND*%
X382900000Y-110900000D03*
%TD*%
D10*
%TO.P,J3,7*%
%TO.N,Net-(C4-Pad1)*%
X410464000Y-114760000D03*
%TO.P,J3,6*%
%TO.N,Net-(D5-Pad2)*%
X410464000Y-117300000D03*
%TO.P,J3,5*%
%TO.N,Net-(J3-Pad5)*%
X410464000Y-119840000D03*
%TO.P,J3,4*%
%TO.N,Net-(J3-Pad4)*%
X410464000Y-122380000D03*
%TO.P,J3,3*%
%TO.N,GND*%
X410464000Y-124920000D03*
%TO.P,J3,2*%
%TO.N,Net-(J3-Pad2)*%
X410464000Y-127460000D03*
D11*
%TO.P,J3,1*%
%TO.N,GND*%
X410464000Y-130000000D03*
%TD*%
D12*
%TO.P,C4,2*%
%TO.N,GND*%
X405879300Y-136501500D03*
D13*
%TO.P,C4,1*%
%TO.N,Net-(C4-Pad1)*%
X405879300Y-139001500D03*
%TD*%
D12*
%TO.P,C2,2*%
%TO.N,GND*%
X375400000Y-139800000D03*
D13*
%TO.P,C2,1*%
%TO.N,Net-(C2-Pad1)*%
X375400000Y-136300000D03*
%TD*%
D14*
%TO.N,GND*%
X388250000Y-114000000D03*
X387750000Y-117000000D03*
X396500000Y-112750000D03*
X408940000Y-110744000D03*
X395500000Y-127750000D03*
X398250000Y-133000000D03*
X379222000Y-134366000D03*
X375412000Y-126746000D03*
X377750000Y-116500000D03*
X393446000Y-122682000D03*
X373126000Y-127000000D03*
X379476000Y-119634000D03*
X387350000Y-109728000D03*
%TO.N,Net-(C2-Pad1)*%
X371513100Y-119773700D03*
X392750000Y-115500000D03*
X395250000Y-125222000D03*
X402500000Y-114500000D03*
X388250000Y-131000000D03*
%TO.N,Net-(Q3-Pad1)*%
X377583700Y-131318000D03*
X396201900Y-110883700D03*
%TO.N,Net-(R17-Pad2)*%
X384517900Y-127050800D03*
X379628400Y-123190000D03*
%TO.N,Net-(J3-Pad4)*%
X397250000Y-117500000D03*
%TD*%
D15*
%TO.N,Net-(C2-Pad1)*%
X375400000Y-136300000D02*
X375326700Y-136300000D01*
X371513100Y-132486400D02*
X371513100Y-119773700D01*
X375326700Y-136300000D02*
X371513100Y-132486400D01*
D16*
X389750000Y-131000000D02*
X395250000Y-125500000D01*
X388250000Y-131000000D02*
X389750000Y-131000000D01*
X395250000Y-125500000D02*
X395250000Y-121184000D01*
X392750000Y-118684000D02*
X392750000Y-115500000D01*
X395250000Y-121184000D02*
X392750000Y-118684000D01*
X393750000Y-114500000D02*
X392750000Y-115500000D01*
X402500000Y-114500000D02*
X393750000Y-114500000D01*
D17*
%TO.N,Net-(C4-Pad1)*%
X405879300Y-139001500D02*
X405751500Y-139001500D01*
D18*
X405879300Y-139001500D02*
X411248500Y-139001500D01*
X410464000Y-114760000D02*
X411432000Y-114760000D01*
X411432000Y-114760000D02*
X412242000Y-115570000D01*
X412242000Y-138008000D02*
X411396000Y-138854000D01*
X412242000Y-115570000D02*
X412242000Y-138008000D01*
X411248500Y-139001500D02*
X411396000Y-138854000D01*
D17*
%TO.N,Net-(Q3-Pad1)*%
X389917800Y-117167800D02*
X389917800Y-113082200D01*
X392116300Y-110883700D02*
X396201900Y-110883700D01*
X389917800Y-113082200D02*
X392116300Y-110883700D01*
D15*
X388150100Y-118935500D02*
X389917800Y-117167800D01*
X382524000Y-118935500D02*
X388150100Y-118935500D01*
X380269750Y-121189750D02*
X382524000Y-118935500D01*
X377583700Y-122288300D02*
X378682250Y-121189750D01*
X378682250Y-121189750D02*
X380269750Y-121189750D01*
X377583700Y-131318000D02*
X377583700Y-122288300D01*
%TO.N,Net-(R17-Pad2)*%
X384517900Y-127050800D02*
X381203200Y-127050800D01*
X379628400Y-125476000D02*
X379628400Y-123190000D01*
X381203200Y-127050800D02*
X379628400Y-125476000D01*
D16*
%TO.N,Net-(J3-Pad4)*%
X397250000Y-117500000D02*
X397250000Y-118866000D01*
X400764000Y-122380000D02*
X410464000Y-122380000D01*
X397250000Y-118866000D02*
X400764000Y-122380000D01*
%TD*%
D19*
%TO.N,GND*%
X413340000Y-142840000D02*
X365660000Y-142840000D01*
X365660000Y-140792702D01*
X374586903Y-140792702D01*
X374658486Y-141036671D01*
X374913996Y-141157571D01*
X375188184Y-141226300D01*
X375470512Y-141240217D01*
X375750130Y-141198787D01*
X376016292Y-141103603D01*
X376141514Y-141036671D01*
X376213097Y-140792702D01*
X375400000Y-139979605D01*
X374586903Y-140792702D01*
X365660000Y-140792702D01*
X365660000Y-139870512D01*
X373959783Y-139870512D01*
X374001213Y-140150130D01*
X374096397Y-140416292D01*
X374163329Y-140541514D01*
X374407298Y-140613097D01*
X375220395Y-139800000D01*
X375579605Y-139800000D01*
X376392702Y-140613097D01*
X376636671Y-140541514D01*
X376757571Y-140286004D01*
X376826300Y-140011816D01*
X376840217Y-139729488D01*
X376798787Y-139449870D01*
X376703603Y-139183708D01*
X376636671Y-139058486D01*
X376392702Y-138986903D01*
X375579605Y-139800000D01*
X375220395Y-139800000D01*
X374407298Y-138986903D01*
X374163329Y-139058486D01*
X374042429Y-139313996D01*
X373973700Y-139588184D01*
X373959783Y-139870512D01*
X365660000Y-139870512D01*
X365660000Y-138807298D01*
X374586903Y-138807298D01*
X375400000Y-139620395D01*
X376213097Y-138807298D01*
X376141514Y-138563329D01*
X375886004Y-138442429D01*
X375611816Y-138373700D01*
X375329488Y-138359783D01*
X375049870Y-138401213D01*
X374783708Y-138496397D01*
X374658486Y-138563329D01*
X374586903Y-138807298D01*
X365660000Y-138807298D01*
X365660000Y-135294000D01*
X367319928Y-135294000D01*
X367319928Y-136994000D01*
X367332188Y-137118482D01*
X367368498Y-137238180D01*
X367427463Y-137348494D01*
X367506815Y-137445185D01*
X367603506Y-137524537D01*
X367713820Y-137583502D01*
X367833518Y-137619812D01*
X367958000Y-137632072D01*
X369658000Y-137632072D01*
X369782482Y-137619812D01*
X369902180Y-137583502D01*
X370012494Y-137524537D01*
X370109185Y-137445185D01*
X370188537Y-137348494D01*
X370247502Y-137238180D01*
X370283812Y-137118482D01*
X370296072Y-136994000D01*
X370296072Y-135294000D01*
X370283812Y-135169518D01*
X370247502Y-135049820D01*
X370188537Y-134939506D01*
X370109185Y-134842815D01*
X370012494Y-134763463D01*
X369902180Y-134704498D01*
X369821534Y-134680034D01*
X369905588Y-134604269D01*
X370079641Y-134370920D01*
X370204825Y-134108099D01*
X370249476Y-133960890D01*
X370128155Y-133731000D01*
X368935000Y-133731000D01*
X368935000Y-133751000D01*
X368681000Y-133751000D01*
X368681000Y-133731000D01*
X367487845Y-133731000D01*
X367366524Y-133960890D01*
X367411175Y-134108099D01*
X367536359Y-134370920D01*
X367710412Y-134604269D01*
X367794466Y-134680034D01*
X367713820Y-134704498D01*
X367603506Y-134763463D01*
X367506815Y-134842815D01*
X367427463Y-134939506D01*
X367368498Y-135049820D01*
X367332188Y-135169518D01*
X367319928Y-135294000D01*
X365660000Y-135294000D01*
X365660000Y-128377740D01*
X367323000Y-128377740D01*
X367323000Y-128670260D01*
X367380068Y-128957158D01*
X367492010Y-129227411D01*
X367654525Y-129470632D01*
X367861368Y-129677475D01*
X368035760Y-129794000D01*
X367861368Y-129910525D01*
X367654525Y-130117368D01*
X367492010Y-130360589D01*
X367380068Y-130630842D01*
X367323000Y-130917740D01*
X367323000Y-131210260D01*
X367380068Y-131497158D01*
X367492010Y-131767411D01*
X367654525Y-132010632D01*
X367861368Y-132217475D01*
X368043534Y-132339195D01*
X367926645Y-132408822D01*
X367710412Y-132603731D01*
X367536359Y-132837080D01*
X367411175Y-133099901D01*
X367366524Y-133247110D01*
X367487845Y-133477000D01*
X368681000Y-133477000D01*
X368681000Y-133457000D01*
X368935000Y-133457000D01*
X368935000Y-133477000D01*
X370128155Y-133477000D01*
X370249476Y-133247110D01*
X370204825Y-133099901D01*
X370079641Y-132837080D01*
X369905588Y-132603731D01*
X369689355Y-132408822D01*
X369572466Y-132339195D01*
X369754632Y-132217475D01*
X369961475Y-132010632D01*
X370123990Y-131767411D01*
X370235932Y-131497158D01*
X370293000Y-131210260D01*
X370293000Y-130917740D01*
X370235932Y-130630842D01*
X370123990Y-130360589D01*
X369961475Y-130117368D01*
X369754632Y-129910525D01*
X369580240Y-129794000D01*
X369754632Y-129677475D01*
X369961475Y-129470632D01*
X370123990Y-129227411D01*
X370235932Y-128957158D01*
X370293000Y-128670260D01*
X370293000Y-128377740D01*
X370235932Y-128090842D01*
X370123990Y-127820589D01*
X369961475Y-127577368D01*
X369754632Y-127370525D01*
X369572466Y-127248805D01*
X369689355Y-127179178D01*
X369905588Y-126984269D01*
X370079641Y-126750920D01*
X370204825Y-126488099D01*
X370249476Y-126340890D01*
X370128155Y-126111000D01*
X368935000Y-126111000D01*
X368935000Y-126131000D01*
X368681000Y-126131000D01*
X368681000Y-126111000D01*
X367487845Y-126111000D01*
X367366524Y-126340890D01*
X367411175Y-126488099D01*
X367536359Y-126750920D01*
X367710412Y-126984269D01*
X367926645Y-127179178D01*
X368043534Y-127248805D01*
X367861368Y-127370525D01*
X367654525Y-127577368D01*
X367492010Y-127820589D01*
X367380068Y-128090842D01*
X367323000Y-128377740D01*
X365660000Y-128377740D01*
X365660000Y-125627110D01*
X367366524Y-125627110D01*
X367487845Y-125857000D01*
X368681000Y-125857000D01*
X368681000Y-124663186D01*
X368935000Y-124663186D01*
X368935000Y-125857000D01*
X370128155Y-125857000D01*
X370249476Y-125627110D01*
X370204825Y-125479901D01*
X370079641Y-125217080D01*
X369905588Y-124983731D01*
X369689355Y-124788822D01*
X369439252Y-124639843D01*
X369164891Y-124542519D01*
X368935000Y-124663186D01*
X368681000Y-124663186D01*
X368451109Y-124542519D01*
X368176748Y-124639843D01*
X367926645Y-124788822D01*
X367710412Y-124983731D01*
X367536359Y-125217080D01*
X367411175Y-125479901D01*
X367366524Y-125627110D01*
X365660000Y-125627110D01*
X365660000Y-119671761D01*
X370478100Y-119671761D01*
X370478100Y-119875639D01*
X370517874Y-120075598D01*
X370595895Y-120263956D01*
X370709163Y-120433474D01*
X370728101Y-120452412D01*
X370728100Y-132447847D01*
X370724303Y-132486400D01*
X370728100Y-132524953D01*
X370728100Y-132524960D01*
X370739459Y-132640286D01*
X370784346Y-132788259D01*
X370857238Y-132924632D01*
X370955336Y-133044164D01*
X370985290Y-133068747D01*
X373961928Y-136045385D01*
X373961928Y-137100000D01*
X373974188Y-137224482D01*
X374010498Y-137344180D01*
X374069463Y-137454494D01*
X374148815Y-137551185D01*
X374245506Y-137630537D01*
X374355820Y-137689502D01*
X374475518Y-137725812D01*
X374600000Y-137738072D01*
X376200000Y-137738072D01*
X376324482Y-137725812D01*
X376444180Y-137689502D01*
X376554494Y-137630537D01*
X376651185Y-137551185D01*
X376730537Y-137454494D01*
X376789502Y-137344180D01*
X376825812Y-137224482D01*
X376838072Y-137100000D01*
X376838072Y-136572012D01*
X404439083Y-136572012D01*
X404480513Y-136851630D01*
X404575697Y-137117792D01*
X404642629Y-137243014D01*
X404886598Y-137314597D01*
X405699695Y-136501500D01*
X406058905Y-136501500D01*
X406872002Y-137314597D01*
X407115971Y-137243014D01*
X407236871Y-136987504D01*
X407305600Y-136713316D01*
X407319517Y-136430988D01*
X407278087Y-136151370D01*
X407182903Y-135885208D01*
X407115971Y-135759986D01*
X406872002Y-135688403D01*
X406058905Y-136501500D01*
X405699695Y-136501500D01*
X404886598Y-135688403D01*
X404642629Y-135759986D01*
X404521729Y-136015496D01*
X404453000Y-136289684D01*
X404439083Y-136572012D01*
X376838072Y-136572012D01*
X376838072Y-135508798D01*
X405066203Y-135508798D01*
X405879300Y-136321895D01*
X406692397Y-135508798D01*
X406620814Y-135264829D01*
X406365304Y-135143929D01*
X406091116Y-135075200D01*
X405808788Y-135061283D01*
X405529170Y-135102713D01*
X405263008Y-135197897D01*
X405137786Y-135264829D01*
X405066203Y-135508798D01*
X376838072Y-135508798D01*
X376838072Y-135500000D01*
X376825812Y-135375518D01*
X376789502Y-135255820D01*
X376730537Y-135145506D01*
X376651185Y-135048815D01*
X376554494Y-134969463D01*
X376444180Y-134910498D01*
X376324482Y-134874188D01*
X376200000Y-134861928D01*
X374998785Y-134861928D01*
X372298100Y-132161243D01*
X372298100Y-131216061D01*
X376548700Y-131216061D01*
X376548700Y-131419939D01*
X376588474Y-131619898D01*
X376666495Y-131808256D01*
X376779763Y-131977774D01*
X376923926Y-132121937D01*
X377093444Y-132235205D01*
X377281802Y-132313226D01*
X377481761Y-132353000D01*
X377685639Y-132353000D01*
X377885598Y-132313226D01*
X378073956Y-132235205D01*
X378243474Y-132121937D01*
X378387637Y-131977774D01*
X378500905Y-131808256D01*
X378578926Y-131619898D01*
X378618700Y-131419939D01*
X378618700Y-131216061D01*
X378578926Y-131016102D01*
X378572257Y-131000000D01*
X387209993Y-131000000D01*
X387215000Y-131050838D01*
X387215000Y-131101939D01*
X387224969Y-131152057D01*
X387229976Y-131202895D01*
X387244804Y-131251777D01*
X387254774Y-131301898D01*
X387274331Y-131349113D01*
X387289159Y-131397993D01*
X387313238Y-131443042D01*
X387332795Y-131490256D01*
X387361186Y-131532746D01*
X387385266Y-131577797D01*
X387417672Y-131617284D01*
X387446063Y-131659774D01*
X387482197Y-131695908D01*
X387514604Y-131735396D01*
X387554092Y-131767803D01*
X387590226Y-131803937D01*
X387632716Y-131832328D01*
X387672203Y-131864734D01*
X387717254Y-131888814D01*
X387759744Y-131917205D01*
X387806958Y-131936762D01*
X387852007Y-131960841D01*
X387900887Y-131975669D01*
X387948102Y-131995226D01*
X387998223Y-132005196D01*
X388047105Y-132020024D01*
X388097943Y-132025031D01*
X388148061Y-132035000D01*
X389699172Y-132035000D01*
X389750000Y-132040006D01*
X389800828Y-132035000D01*
X389800838Y-132035000D01*
X389952895Y-132020024D01*
X390147993Y-131960841D01*
X390327797Y-131864734D01*
X390485396Y-131735396D01*
X390517807Y-131695903D01*
X392639838Y-129573872D01*
X402641000Y-129573872D01*
X402641000Y-130014128D01*
X402726890Y-130445925D01*
X402895369Y-130852669D01*
X403139962Y-131218729D01*
X403451271Y-131530038D01*
X403817331Y-131774631D01*
X404224075Y-131943110D01*
X404655872Y-132029000D01*
X405096128Y-132029000D01*
X405527925Y-131943110D01*
X405934669Y-131774631D01*
X406300729Y-131530038D01*
X406612038Y-131218729D01*
X406856631Y-130852669D01*
X406857736Y-130850000D01*
X408975928Y-130850000D01*
X408988188Y-130974482D01*
X409024498Y-131094180D01*
X409083463Y-131204494D01*
X409162815Y-131301185D01*
X409259506Y-131380537D01*
X409369820Y-131439502D01*
X409489518Y-131475812D01*
X409614000Y-131488072D01*
X410178250Y-131485000D01*
X410337000Y-131326250D01*
X410337000Y-130127000D01*
X409137750Y-130127000D01*
X408979000Y-130285750D01*
X408975928Y-130850000D01*
X406857736Y-130850000D01*
X407025110Y-130445925D01*
X407111000Y-130014128D01*
X407111000Y-129573872D01*
X407025110Y-129142075D01*
X406856631Y-128735331D01*
X406612038Y-128369271D01*
X406300729Y-128057962D01*
X405934669Y-127813369D01*
X405527925Y-127644890D01*
X405096128Y-127559000D01*
X404655872Y-127559000D01*
X404224075Y-127644890D01*
X403817331Y-127813369D01*
X403451271Y-128057962D01*
X403139962Y-128369271D01*
X402895369Y-128735331D01*
X402726890Y-129142075D01*
X402641000Y-129573872D01*
X392639838Y-129573872D01*
X395945908Y-126267803D01*
X395985396Y-126235396D01*
X396017803Y-126195908D01*
X396114734Y-126077798D01*
X396210841Y-125897994D01*
X396247283Y-125777860D01*
X396270024Y-125702895D01*
X396285000Y-125550838D01*
X396285000Y-125550835D01*
X396290007Y-125500000D01*
X396285000Y-125449165D01*
X396285000Y-121234835D01*
X396290007Y-121184000D01*
X396275417Y-121035864D01*
X396270024Y-120981105D01*
X396210841Y-120786007D01*
X396144525Y-120661938D01*
X396114734Y-120606202D01*
X396017803Y-120488092D01*
X395985396Y-120448604D01*
X395945908Y-120416197D01*
X394395711Y-118866000D01*
X396209994Y-118866000D01*
X396229977Y-119068895D01*
X396289160Y-119263993D01*
X396385266Y-119443797D01*
X396471386Y-119548734D01*
X396514605Y-119601396D01*
X396554092Y-119633802D01*
X399996197Y-123075908D01*
X400028604Y-123115396D01*
X400068092Y-123147803D01*
X400102983Y-123176437D01*
X400186203Y-123244734D01*
X400366007Y-123340841D01*
X400561105Y-123400024D01*
X400713162Y-123415000D01*
X400713171Y-123415000D01*
X400763999Y-123420006D01*
X400814827Y-123415000D01*
X409398893Y-123415000D01*
X409517368Y-123533475D01*
X409699534Y-123655195D01*
X409582645Y-123724822D01*
X409366412Y-123919731D01*
X409192359Y-124153080D01*
X409067175Y-124415901D01*
X409022524Y-124563110D01*
X409143845Y-124793000D01*
X410337000Y-124793000D01*
X410337000Y-124773000D01*
X410591000Y-124773000D01*
X410591000Y-124793000D01*
X410611000Y-124793000D01*
X410611000Y-125047000D01*
X410591000Y-125047000D01*
X410591000Y-125067000D01*
X410337000Y-125067000D01*
X410337000Y-125047000D01*
X409143845Y-125047000D01*
X409022524Y-125276890D01*
X409067175Y-125424099D01*
X409192359Y-125686920D01*
X409366412Y-125920269D01*
X409582645Y-126115178D01*
X409699534Y-126184805D01*
X409517368Y-126306525D01*
X409310525Y-126513368D01*
X409148010Y-126756589D01*
X409036068Y-127026842D01*
X408979000Y-127313740D01*
X408979000Y-127606260D01*
X409036068Y-127893158D01*
X409148010Y-128163411D01*
X409310525Y-128406632D01*
X409442380Y-128538487D01*
X409369820Y-128560498D01*
X409259506Y-128619463D01*
X409162815Y-128698815D01*
X409083463Y-128795506D01*
X409024498Y-128905820D01*
X408988188Y-129025518D01*
X408975928Y-129150000D01*
X408979000Y-129714250D01*
X409137750Y-129873000D01*
X410337000Y-129873000D01*
X410337000Y-129853000D01*
X410591000Y-129853000D01*
X410591000Y-129873000D01*
X410611000Y-129873000D01*
X410611000Y-130127000D01*
X410591000Y-130127000D01*
X410591000Y-131326250D01*
X410749750Y-131485000D01*
X411314000Y-131488072D01*
X411357001Y-131483837D01*
X411357001Y-137641420D01*
X410881922Y-138116500D01*
X407309001Y-138116500D01*
X407305112Y-138077018D01*
X407268802Y-137957320D01*
X407209837Y-137847006D01*
X407130485Y-137750315D01*
X407033794Y-137670963D01*
X406923480Y-137611998D01*
X406803782Y-137575688D01*
X406679300Y-137563428D01*
X406672085Y-137563428D01*
X406692397Y-137494202D01*
X405879300Y-136681105D01*
X405066203Y-137494202D01*
X405086515Y-137563428D01*
X405079300Y-137563428D01*
X404954818Y-137575688D01*
X404835120Y-137611998D01*
X404724806Y-137670963D01*
X404628115Y-137750315D01*
X404548763Y-137847006D01*
X404489798Y-137957320D01*
X404453488Y-138077018D01*
X404441228Y-138201500D01*
X404441228Y-139801500D01*
X404453488Y-139925982D01*
X404489798Y-140045680D01*
X404548763Y-140155994D01*
X404628115Y-140252685D01*
X404724806Y-140332037D01*
X404835120Y-140391002D01*
X404954818Y-140427312D01*
X405079300Y-140439572D01*
X406679300Y-140439572D01*
X406803782Y-140427312D01*
X406923480Y-140391002D01*
X407033794Y-140332037D01*
X407130485Y-140252685D01*
X407209837Y-140155994D01*
X407268802Y-140045680D01*
X407305112Y-139925982D01*
X407309001Y-139886500D01*
X411205031Y-139886500D01*
X411248500Y-139890781D01*
X411291969Y-139886500D01*
X411291977Y-139886500D01*
X411421990Y-139873695D01*
X411588813Y-139823089D01*
X411742559Y-139740911D01*
X411877317Y-139630317D01*
X411905034Y-139596544D01*
X412052532Y-139449046D01*
X412837049Y-138664530D01*
X412870817Y-138636817D01*
X412981411Y-138502059D01*
X413013284Y-138442429D01*
X413063589Y-138348314D01*
X413114195Y-138181490D01*
X413114351Y-138179911D01*
X413127000Y-138051477D01*
X413127000Y-138051469D01*
X413131281Y-138008000D01*
X413127000Y-137964531D01*
X413127000Y-115613469D01*
X413131281Y-115570000D01*
X413127000Y-115526531D01*
X413127000Y-115526523D01*
X413114195Y-115396510D01*
X413111862Y-115388817D01*
X413070982Y-115254059D01*
X413063589Y-115229687D01*
X412981411Y-115075941D01*
X412870817Y-114941183D01*
X412837050Y-114913471D01*
X412088534Y-114164956D01*
X412060817Y-114131183D01*
X411926059Y-114020589D01*
X411772313Y-113938411D01*
X411682903Y-113911288D01*
X411617475Y-113813368D01*
X411410632Y-113606525D01*
X411167411Y-113444010D01*
X410897158Y-113332068D01*
X410610260Y-113275000D01*
X410317740Y-113275000D01*
X410030842Y-113332068D01*
X409760589Y-113444010D01*
X409517368Y-113606525D01*
X409310525Y-113813368D01*
X409148010Y-114056589D01*
X409036068Y-114326842D01*
X408979000Y-114613740D01*
X408979000Y-114906260D01*
X409036068Y-115193158D01*
X409148010Y-115463411D01*
X409310525Y-115706632D01*
X409517368Y-115913475D01*
X409691760Y-116030000D01*
X409517368Y-116146525D01*
X409310525Y-116353368D01*
X409148010Y-116596589D01*
X409036068Y-116866842D01*
X408979000Y-117153740D01*
X408979000Y-117446260D01*
X409036068Y-117733158D01*
X409148010Y-118003411D01*
X409310525Y-118246632D01*
X409517368Y-118453475D01*
X409691760Y-118570000D01*
X409517368Y-118686525D01*
X409310525Y-118893368D01*
X409148010Y-119136589D01*
X409036068Y-119406842D01*
X408979000Y-119693740D01*
X408979000Y-119986260D01*
X409036068Y-120273158D01*
X409148010Y-120543411D01*
X409310525Y-120786632D01*
X409517368Y-120993475D01*
X409691760Y-121110000D01*
X409517368Y-121226525D01*
X409398893Y-121345000D01*
X401192711Y-121345000D01*
X398285000Y-118437290D01*
X398285000Y-117398061D01*
X398275031Y-117347943D01*
X398270024Y-117297105D01*
X398255196Y-117248223D01*
X398245226Y-117198102D01*
X398225669Y-117150887D01*
X398210841Y-117102007D01*
X398186762Y-117056958D01*
X398167205Y-117009744D01*
X398138814Y-116967254D01*
X398114734Y-116922203D01*
X398082328Y-116882716D01*
X398053937Y-116840226D01*
X398017803Y-116804092D01*
X397985396Y-116764604D01*
X397945908Y-116732197D01*
X397909774Y-116696063D01*
X397867284Y-116667672D01*
X397827797Y-116635266D01*
X397782747Y-116611186D01*
X397740256Y-116582795D01*
X397693039Y-116563237D01*
X397647992Y-116539159D01*
X397599116Y-116524332D01*
X397551898Y-116504774D01*
X397501774Y-116494804D01*
X397452894Y-116479976D01*
X397402058Y-116474969D01*
X397351939Y-116465000D01*
X397300838Y-116465000D01*
X397250000Y-116459993D01*
X397199162Y-116465000D01*
X397148061Y-116465000D01*
X397097943Y-116474969D01*
X397047105Y-116479976D01*
X396998223Y-116494804D01*
X396948102Y-116504774D01*
X396900887Y-116524331D01*
X396852007Y-116539159D01*
X396806958Y-116563238D01*
X396759744Y-116582795D01*
X396717254Y-116611186D01*
X396672203Y-116635266D01*
X396632716Y-116667672D01*
X396590226Y-116696063D01*
X396554092Y-116732197D01*
X396514604Y-116764604D01*
X396482197Y-116804092D01*
X396446063Y-116840226D01*
X396417672Y-116882716D01*
X396385266Y-116922203D01*
X396361186Y-116967253D01*
X396332795Y-117009744D01*
X396313237Y-117056961D01*
X396289159Y-117102008D01*
X396274332Y-117150884D01*
X396254774Y-117198102D01*
X396244804Y-117248226D01*
X396229976Y-117297106D01*
X396224969Y-117347942D01*
X396215000Y-117398061D01*
X396215000Y-117449163D01*
X396215001Y-118815163D01*
X396209994Y-118866000D01*
X394395711Y-118866000D01*
X393785000Y-118255290D01*
X393785000Y-115928710D01*
X394178711Y-115535000D01*
X402601939Y-115535000D01*
X402652057Y-115525031D01*
X402702895Y-115520024D01*
X402751777Y-115505196D01*
X402801898Y-115495226D01*
X402849113Y-115475669D01*
X402897993Y-115460841D01*
X402943042Y-115436762D01*
X402990256Y-115417205D01*
X403032746Y-115388814D01*
X403077797Y-115364734D01*
X403117284Y-115332328D01*
X403159774Y-115303937D01*
X403195908Y-115267803D01*
X403235396Y-115235396D01*
X403267803Y-115195908D01*
X403303937Y-115159774D01*
X403332328Y-115117284D01*
X403364734Y-115077797D01*
X403388814Y-115032746D01*
X403417205Y-114990256D01*
X403436762Y-114943042D01*
X403460841Y-114897993D01*
X403475669Y-114849113D01*
X403495226Y-114801898D01*
X403505196Y-114751777D01*
X403520024Y-114702895D01*
X403525031Y-114652057D01*
X403535000Y-114601939D01*
X403535000Y-114550838D01*
X403540007Y-114500000D01*
X403535000Y-114449162D01*
X403535000Y-114398061D01*
X403525031Y-114347943D01*
X403520024Y-114297105D01*
X403505196Y-114248223D01*
X403495226Y-114198102D01*
X403475669Y-114150887D01*
X403460841Y-114102007D01*
X403436762Y-114056958D01*
X403417205Y-114009744D01*
X403388814Y-113967254D01*
X403364734Y-113922203D01*
X403332328Y-113882716D01*
X403303937Y-113840226D01*
X403267803Y-113804092D01*
X403235396Y-113764604D01*
X403195908Y-113732197D01*
X403159774Y-113696063D01*
X403117284Y-113667672D01*
X403077797Y-113635266D01*
X403032746Y-113611186D01*
X402990256Y-113582795D01*
X402943042Y-113563238D01*
X402897993Y-113539159D01*
X402849113Y-113524331D01*
X402801898Y-113504774D01*
X402751777Y-113494804D01*
X402702895Y-113479976D01*
X402652057Y-113474969D01*
X402601939Y-113465000D01*
X393800835Y-113465000D01*
X393750000Y-113459993D01*
X393699165Y-113465000D01*
X393699162Y-113465000D01*
X393547105Y-113479976D01*
X393397415Y-113525385D01*
X393352006Y-113539159D01*
X393172202Y-113635266D01*
X393054092Y-113732197D01*
X393014604Y-113764604D01*
X392982197Y-113804092D01*
X392090229Y-114696061D01*
X392090226Y-114696063D01*
X392054087Y-114732202D01*
X392014605Y-114764604D01*
X391982203Y-114804086D01*
X391946063Y-114840226D01*
X391917671Y-114882717D01*
X391885266Y-114922203D01*
X391861187Y-114967252D01*
X391832795Y-115009744D01*
X391813236Y-115056964D01*
X391789160Y-115102007D01*
X391774335Y-115150878D01*
X391754774Y-115198102D01*
X391744803Y-115248232D01*
X391729977Y-115297105D01*
X391724971Y-115347933D01*
X391715000Y-115398061D01*
X391715000Y-115449172D01*
X391709994Y-115500000D01*
X391715000Y-115550828D01*
X391715000Y-115601939D01*
X391715001Y-115601944D01*
X391715000Y-118633172D01*
X391709994Y-118684000D01*
X391715000Y-118734828D01*
X391715000Y-118734837D01*
X391729976Y-118886894D01*
X391789159Y-119081992D01*
X391885266Y-119261797D01*
X392014604Y-119419396D01*
X392054097Y-119451807D01*
X394215001Y-121612712D01*
X394215000Y-125071289D01*
X389321290Y-129965000D01*
X388148061Y-129965000D01*
X388097943Y-129974969D01*
X388047105Y-129979976D01*
X387998223Y-129994804D01*
X387948102Y-130004774D01*
X387900887Y-130024331D01*
X387852007Y-130039159D01*
X387806958Y-130063238D01*
X387759744Y-130082795D01*
X387717254Y-130111186D01*
X387672203Y-130135266D01*
X387632716Y-130167672D01*
X387590226Y-130196063D01*
X387554092Y-130232197D01*
X387514604Y-130264604D01*
X387482197Y-130304092D01*
X387446063Y-130340226D01*
X387417672Y-130382716D01*
X387385266Y-130422203D01*
X387361186Y-130467254D01*
X387332795Y-130509744D01*
X387313238Y-130556958D01*
X387289159Y-130602007D01*
X387274331Y-130650887D01*
X387254774Y-130698102D01*
X387244804Y-130748223D01*
X387229976Y-130797105D01*
X387224969Y-130847943D01*
X387215000Y-130898061D01*
X387215000Y-130949162D01*
X387209993Y-131000000D01*
X378572257Y-131000000D01*
X378500905Y-130827744D01*
X378387637Y-130658226D01*
X378368700Y-130639289D01*
X378368700Y-123088061D01*
X378593400Y-123088061D01*
X378593400Y-123291939D01*
X378633174Y-123491898D01*
X378711195Y-123680256D01*
X378824463Y-123849774D01*
X378843401Y-123868712D01*
X378843400Y-125437447D01*
X378839603Y-125476000D01*
X378843400Y-125514553D01*
X378843400Y-125514560D01*
X378854759Y-125629886D01*
X378899646Y-125777859D01*
X378972538Y-125914232D01*
X379070636Y-126033764D01*
X379100590Y-126058347D01*
X380620853Y-127578610D01*
X380645436Y-127608564D01*
X380764967Y-127706662D01*
X380901340Y-127779554D01*
X381049313Y-127824442D01*
X381124226Y-127831820D01*
X381164639Y-127835800D01*
X381164644Y-127835800D01*
X381203200Y-127839597D01*
X381241756Y-127835800D01*
X383839189Y-127835800D01*
X383858126Y-127854737D01*
X384027644Y-127968005D01*
X384216002Y-128046026D01*
X384415961Y-128085800D01*
X384619839Y-128085800D01*
X384819798Y-128046026D01*
X385008156Y-127968005D01*
X385177674Y-127854737D01*
X385321837Y-127710574D01*
X385435105Y-127541056D01*
X385513126Y-127352698D01*
X385552900Y-127152739D01*
X385552900Y-126948861D01*
X385513126Y-126748902D01*
X385435105Y-126560544D01*
X385321837Y-126391026D01*
X385177674Y-126246863D01*
X385008156Y-126133595D01*
X384819798Y-126055574D01*
X384619839Y-126015800D01*
X384415961Y-126015800D01*
X384216002Y-126055574D01*
X384027644Y-126133595D01*
X383858126Y-126246863D01*
X383839189Y-126265800D01*
X381528357Y-126265800D01*
X380413400Y-125150843D01*
X380413400Y-123868711D01*
X380432337Y-123849774D01*
X380545605Y-123680256D01*
X380623626Y-123491898D01*
X380663400Y-123291939D01*
X380663400Y-123088061D01*
X380623626Y-122888102D01*
X380545605Y-122699744D01*
X380432337Y-122530226D01*
X380288174Y-122386063D01*
X380118656Y-122272795D01*
X379930298Y-122194774D01*
X379730339Y-122155000D01*
X379526461Y-122155000D01*
X379326502Y-122194774D01*
X379138144Y-122272795D01*
X378968626Y-122386063D01*
X378824463Y-122530226D01*
X378711195Y-122699744D01*
X378633174Y-122888102D01*
X378593400Y-123088061D01*
X378368700Y-123088061D01*
X378368700Y-122613457D01*
X379007408Y-121974750D01*
X380231197Y-121974750D01*
X380269750Y-121978547D01*
X380308303Y-121974750D01*
X380308311Y-121974750D01*
X380423637Y-121963391D01*
X380571610Y-121918504D01*
X380707983Y-121845612D01*
X380827514Y-121747514D01*
X380852097Y-121717560D01*
X382849158Y-119720500D01*
X388111547Y-119720500D01*
X388150100Y-119724297D01*
X388188653Y-119720500D01*
X388188661Y-119720500D01*
X388303987Y-119709141D01*
X388451960Y-119664254D01*
X388588333Y-119591362D01*
X388707864Y-119493264D01*
X388732447Y-119463310D01*
X390500145Y-117695613D01*
X390573661Y-117606033D01*
X390646553Y-117469660D01*
X390691441Y-117321688D01*
X390706597Y-117167801D01*
X390691441Y-117013914D01*
X390677800Y-116968947D01*
X390677800Y-113397001D01*
X392431102Y-111643700D01*
X395498189Y-111643700D01*
X395542126Y-111687637D01*
X395711644Y-111800905D01*
X395900002Y-111878926D01*
X396099961Y-111918700D01*
X396303839Y-111918700D01*
X396503798Y-111878926D01*
X396692156Y-111800905D01*
X396861674Y-111687637D01*
X397005837Y-111543474D01*
X397119105Y-111373956D01*
X397197126Y-111185598D01*
X397236900Y-110985639D01*
X397236900Y-110781761D01*
X397197126Y-110581802D01*
X397119105Y-110393444D01*
X397005837Y-110223926D01*
X396861674Y-110079763D01*
X396692156Y-109966495D01*
X396503798Y-109888474D01*
X396303839Y-109848700D01*
X396099961Y-109848700D01*
X395900002Y-109888474D01*
X395711644Y-109966495D01*
X395542126Y-110079763D01*
X395498189Y-110123700D01*
X392153633Y-110123700D01*
X392116300Y-110120023D01*
X392078967Y-110123700D01*
X391967314Y-110134697D01*
X391824053Y-110178154D01*
X391692024Y-110248726D01*
X391576299Y-110343699D01*
X391552501Y-110372697D01*
X389406798Y-112518401D01*
X389377800Y-112542199D01*
X389354002Y-112571197D01*
X389354001Y-112571198D01*
X389282826Y-112657924D01*
X389212254Y-112789954D01*
X389168798Y-112933215D01*
X389154124Y-113082200D01*
X389157801Y-113119532D01*
X389157800Y-116817642D01*
X387824943Y-118150500D01*
X382562555Y-118150500D01*
X382524000Y-118146703D01*
X382485444Y-118150500D01*
X382485439Y-118150500D01*
X382445026Y-118154480D01*
X382370113Y-118161858D01*
X382222140Y-118206746D01*
X382085767Y-118279638D01*
X382025559Y-118329050D01*
X381996187Y-118353155D01*
X381996184Y-118353158D01*
X381966236Y-118377736D01*
X381941658Y-118407684D01*
X379944593Y-120404750D01*
X378720802Y-120404750D01*
X378682249Y-120400953D01*
X378643696Y-120404750D01*
X378643689Y-120404750D01*
X378542740Y-120414693D01*
X378528362Y-120416109D01*
X378493922Y-120426556D01*
X378380390Y-120460996D01*
X378244017Y-120533888D01*
X378183809Y-120583300D01*
X378154437Y-120607405D01*
X378154434Y-120607408D01*
X378124486Y-120631986D01*
X378099908Y-120661935D01*
X377055885Y-121705958D01*
X377025937Y-121730536D01*
X377001359Y-121760484D01*
X377001355Y-121760488D01*
X376968390Y-121800656D01*
X376927839Y-121850067D01*
X376891259Y-121918504D01*
X376854946Y-121986441D01*
X376810059Y-122134414D01*
X376794903Y-122288300D01*
X376798701Y-122326863D01*
X376798700Y-130639289D01*
X376779763Y-130658226D01*
X376666495Y-130827744D01*
X376588474Y-131016102D01*
X376548700Y-131216061D01*
X372298100Y-131216061D01*
X372298100Y-120452411D01*
X372317037Y-120433474D01*
X372430305Y-120263956D01*
X372508326Y-120075598D01*
X372548100Y-119875639D01*
X372548100Y-119671761D01*
X372508326Y-119471802D01*
X372430305Y-119283444D01*
X372317037Y-119113926D01*
X372172874Y-118969763D01*
X372003356Y-118856495D01*
X371814998Y-118778474D01*
X371615039Y-118738700D01*
X371411161Y-118738700D01*
X371211202Y-118778474D01*
X371022844Y-118856495D01*
X370853326Y-118969763D01*
X370709163Y-119113926D01*
X370595895Y-119283444D01*
X370517874Y-119471802D01*
X370478100Y-119671761D01*
X365660000Y-119671761D01*
X365660000Y-112390772D01*
X368693900Y-112390772D01*
X368693900Y-112831028D01*
X368779790Y-113262825D01*
X368948269Y-113669569D01*
X369192862Y-114035629D01*
X369504171Y-114346938D01*
X369870231Y-114591531D01*
X370276975Y-114760010D01*
X370708772Y-114845900D01*
X371149028Y-114845900D01*
X371580825Y-114760010D01*
X371987569Y-114591531D01*
X372353629Y-114346938D01*
X372664938Y-114035629D01*
X372909531Y-113669569D01*
X373078010Y-113262825D01*
X373163900Y-112831028D01*
X373163900Y-112390772D01*
X373078010Y-111958975D01*
X372909531Y-111552231D01*
X372664938Y-111186171D01*
X372353629Y-110874862D01*
X372172357Y-110753740D01*
X376335000Y-110753740D01*
X376335000Y-111046260D01*
X376392068Y-111333158D01*
X376504010Y-111603411D01*
X376666525Y-111846632D01*
X376873368Y-112053475D01*
X377116589Y-112215990D01*
X377386842Y-112327932D01*
X377673740Y-112385000D01*
X377966260Y-112385000D01*
X378253158Y-112327932D01*
X378523411Y-112215990D01*
X378766632Y-112053475D01*
X378973475Y-111846632D01*
X379090000Y-111672240D01*
X379206525Y-111846632D01*
X379413368Y-112053475D01*
X379656589Y-112215990D01*
X379926842Y-112327932D01*
X380213740Y-112385000D01*
X380506260Y-112385000D01*
X380793158Y-112327932D01*
X381063411Y-112215990D01*
X381306632Y-112053475D01*
X381438487Y-111921620D01*
X381460498Y-111994180D01*
X381519463Y-112104494D01*
X381598815Y-112201185D01*
X381695506Y-112280537D01*
X381805820Y-112339502D01*
X381925518Y-112375812D01*
X382050000Y-112388072D01*
X382614250Y-112385000D01*
X382773000Y-112226250D01*
X382773000Y-111027000D01*
X383027000Y-111027000D01*
X383027000Y-112226250D01*
X383185750Y-112385000D01*
X383750000Y-112388072D01*
X383874482Y-112375812D01*
X383994180Y-112339502D01*
X384104494Y-112280537D01*
X384201185Y-112201185D01*
X384280537Y-112104494D01*
X384339502Y-111994180D01*
X384375812Y-111874482D01*
X384388072Y-111750000D01*
X384385000Y-111185750D01*
X384226250Y-111027000D01*
X383027000Y-111027000D01*
X382773000Y-111027000D01*
X382753000Y-111027000D01*
X382753000Y-110773000D01*
X382773000Y-110773000D01*
X382773000Y-109573750D01*
X383027000Y-109573750D01*
X383027000Y-110773000D01*
X384226250Y-110773000D01*
X384385000Y-110614250D01*
X384388072Y-110050000D01*
X384375812Y-109925518D01*
X384339502Y-109805820D01*
X384280537Y-109695506D01*
X384201185Y-109598815D01*
X384104494Y-109519463D01*
X383994180Y-109460498D01*
X383874482Y-109424188D01*
X383750000Y-109411928D01*
X383185750Y-109415000D01*
X383027000Y-109573750D01*
X382773000Y-109573750D01*
X382614250Y-109415000D01*
X382050000Y-109411928D01*
X381925518Y-109424188D01*
X381805820Y-109460498D01*
X381695506Y-109519463D01*
X381598815Y-109598815D01*
X381519463Y-109695506D01*
X381460498Y-109805820D01*
X381438487Y-109878380D01*
X381306632Y-109746525D01*
X381063411Y-109584010D01*
X380793158Y-109472068D01*
X380506260Y-109415000D01*
X380213740Y-109415000D01*
X379926842Y-109472068D01*
X379656589Y-109584010D01*
X379413368Y-109746525D01*
X379206525Y-109953368D01*
X379090000Y-110127760D01*
X378973475Y-109953368D01*
X378766632Y-109746525D01*
X378523411Y-109584010D01*
X378253158Y-109472068D01*
X377966260Y-109415000D01*
X377673740Y-109415000D01*
X377386842Y-109472068D01*
X377116589Y-109584010D01*
X376873368Y-109746525D01*
X376666525Y-109953368D01*
X376504010Y-110196589D01*
X376392068Y-110466842D01*
X376335000Y-110753740D01*
X372172357Y-110753740D01*
X371987569Y-110630269D01*
X371580825Y-110461790D01*
X371149028Y-110375900D01*
X370708772Y-110375900D01*
X370276975Y-110461790D01*
X369870231Y-110630269D01*
X369504171Y-110874862D01*
X369192862Y-111186171D01*
X368948269Y-111552231D01*
X368779790Y-111958975D01*
X368693900Y-112390772D01*
X365660000Y-112390772D01*
X365660000Y-109160000D01*
X413340001Y-109160000D01*
X413340000Y-142840000D01*
%TA.AperFunction,Conductor*%
D20*
G36*
X413340000Y-142840000D02*
G01*
X365660000Y-142840000D01*
X365660000Y-140792702D01*
X374586903Y-140792702D01*
X374658486Y-141036671D01*
X374913996Y-141157571D01*
X375188184Y-141226300D01*
X375470512Y-141240217D01*
X375750130Y-141198787D01*
X376016292Y-141103603D01*
X376141514Y-141036671D01*
X376213097Y-140792702D01*
X375400000Y-139979605D01*
X374586903Y-140792702D01*
X365660000Y-140792702D01*
X365660000Y-139870512D01*
X373959783Y-139870512D01*
X374001213Y-140150130D01*
X374096397Y-140416292D01*
X374163329Y-140541514D01*
X374407298Y-140613097D01*
X375220395Y-139800000D01*
X375579605Y-139800000D01*
X376392702Y-140613097D01*
X376636671Y-140541514D01*
X376757571Y-140286004D01*
X376826300Y-140011816D01*
X376840217Y-139729488D01*
X376798787Y-139449870D01*
X376703603Y-139183708D01*
X376636671Y-139058486D01*
X376392702Y-138986903D01*
X375579605Y-139800000D01*
X375220395Y-139800000D01*
X374407298Y-138986903D01*
X374163329Y-139058486D01*
X374042429Y-139313996D01*
X373973700Y-139588184D01*
X373959783Y-139870512D01*
X365660000Y-139870512D01*
X365660000Y-138807298D01*
X374586903Y-138807298D01*
X375400000Y-139620395D01*
X376213097Y-138807298D01*
X376141514Y-138563329D01*
X375886004Y-138442429D01*
X375611816Y-138373700D01*
X375329488Y-138359783D01*
X375049870Y-138401213D01*
X374783708Y-138496397D01*
X374658486Y-138563329D01*
X374586903Y-138807298D01*
X365660000Y-138807298D01*
X365660000Y-135294000D01*
X367319928Y-135294000D01*
X367319928Y-136994000D01*
X367332188Y-137118482D01*
X367368498Y-137238180D01*
X367427463Y-137348494D01*
X367506815Y-137445185D01*
X367603506Y-137524537D01*
X367713820Y-137583502D01*
X367833518Y-137619812D01*
X367958000Y-137632072D01*
X369658000Y-137632072D01*
X369782482Y-137619812D01*
X369902180Y-137583502D01*
X370012494Y-137524537D01*
X370109185Y-137445185D01*
X370188537Y-137348494D01*
X370247502Y-137238180D01*
X370283812Y-137118482D01*
X370296072Y-136994000D01*
X370296072Y-135294000D01*
X370283812Y-135169518D01*
X370247502Y-135049820D01*
X370188537Y-134939506D01*
X370109185Y-134842815D01*
X370012494Y-134763463D01*
X369902180Y-134704498D01*
X369821534Y-134680034D01*
X369905588Y-134604269D01*
X370079641Y-134370920D01*
X370204825Y-134108099D01*
X370249476Y-133960890D01*
X370128155Y-133731000D01*
X368935000Y-133731000D01*
X368935000Y-133751000D01*
X368681000Y-133751000D01*
X368681000Y-133731000D01*
X367487845Y-133731000D01*
X367366524Y-133960890D01*
X367411175Y-134108099D01*
X367536359Y-134370920D01*
X367710412Y-134604269D01*
X367794466Y-134680034D01*
X367713820Y-134704498D01*
X367603506Y-134763463D01*
X367506815Y-134842815D01*
X367427463Y-134939506D01*
X367368498Y-135049820D01*
X367332188Y-135169518D01*
X367319928Y-135294000D01*
X365660000Y-135294000D01*
X365660000Y-128377740D01*
X367323000Y-128377740D01*
X367323000Y-128670260D01*
X367380068Y-128957158D01*
X367492010Y-129227411D01*
X367654525Y-129470632D01*
X367861368Y-129677475D01*
X368035760Y-129794000D01*
X367861368Y-129910525D01*
X367654525Y-130117368D01*
X367492010Y-130360589D01*
X367380068Y-130630842D01*
X367323000Y-130917740D01*
X367323000Y-131210260D01*
X367380068Y-131497158D01*
X367492010Y-131767411D01*
X367654525Y-132010632D01*
X367861368Y-132217475D01*
X368043534Y-132339195D01*
X367926645Y-132408822D01*
X367710412Y-132603731D01*
X367536359Y-132837080D01*
X367411175Y-133099901D01*
X367366524Y-133247110D01*
X367487845Y-133477000D01*
X368681000Y-133477000D01*
X368681000Y-133457000D01*
X368935000Y-133457000D01*
X368935000Y-133477000D01*
X370128155Y-133477000D01*
X370249476Y-133247110D01*
X370204825Y-133099901D01*
X370079641Y-132837080D01*
X369905588Y-132603731D01*
X369689355Y-132408822D01*
X369572466Y-132339195D01*
X369754632Y-132217475D01*
X369961475Y-132010632D01*
X370123990Y-131767411D01*
X370235932Y-131497158D01*
X370293000Y-131210260D01*
X370293000Y-130917740D01*
X370235932Y-130630842D01*
X370123990Y-130360589D01*
X369961475Y-130117368D01*
X369754632Y-129910525D01*
X369580240Y-129794000D01*
X369754632Y-129677475D01*
X369961475Y-129470632D01*
X370123990Y-129227411D01*
X370235932Y-128957158D01*
X370293000Y-128670260D01*
X370293000Y-128377740D01*
X370235932Y-128090842D01*
X370123990Y-127820589D01*
X369961475Y-127577368D01*
X369754632Y-127370525D01*
X369572466Y-127248805D01*
X369689355Y-127179178D01*
X369905588Y-126984269D01*
X370079641Y-126750920D01*
X370204825Y-126488099D01*
X370249476Y-126340890D01*
X370128155Y-126111000D01*
X368935000Y-126111000D01*
X368935000Y-126131000D01*
X368681000Y-126131000D01*
X368681000Y-126111000D01*
X367487845Y-126111000D01*
X367366524Y-126340890D01*
X367411175Y-126488099D01*
X367536359Y-126750920D01*
X367710412Y-126984269D01*
X367926645Y-127179178D01*
X368043534Y-127248805D01*
X367861368Y-127370525D01*
X367654525Y-127577368D01*
X367492010Y-127820589D01*
X367380068Y-128090842D01*
X367323000Y-128377740D01*
X365660000Y-128377740D01*
X365660000Y-125627110D01*
X367366524Y-125627110D01*
X367487845Y-125857000D01*
X368681000Y-125857000D01*
X368681000Y-124663186D01*
X368935000Y-124663186D01*
X368935000Y-125857000D01*
X370128155Y-125857000D01*
X370249476Y-125627110D01*
X370204825Y-125479901D01*
X370079641Y-125217080D01*
X369905588Y-124983731D01*
X369689355Y-124788822D01*
X369439252Y-124639843D01*
X369164891Y-124542519D01*
X368935000Y-124663186D01*
X368681000Y-124663186D01*
X368451109Y-124542519D01*
X368176748Y-124639843D01*
X367926645Y-124788822D01*
X367710412Y-124983731D01*
X367536359Y-125217080D01*
X367411175Y-125479901D01*
X367366524Y-125627110D01*
X365660000Y-125627110D01*
X365660000Y-119671761D01*
X370478100Y-119671761D01*
X370478100Y-119875639D01*
X370517874Y-120075598D01*
X370595895Y-120263956D01*
X370709163Y-120433474D01*
X370728101Y-120452412D01*
X370728100Y-132447847D01*
X370724303Y-132486400D01*
X370728100Y-132524953D01*
X370728100Y-132524960D01*
X370739459Y-132640286D01*
X370784346Y-132788259D01*
X370857238Y-132924632D01*
X370955336Y-133044164D01*
X370985290Y-133068747D01*
X373961928Y-136045385D01*
X373961928Y-137100000D01*
X373974188Y-137224482D01*
X374010498Y-137344180D01*
X374069463Y-137454494D01*
X374148815Y-137551185D01*
X374245506Y-137630537D01*
X374355820Y-137689502D01*
X374475518Y-137725812D01*
X374600000Y-137738072D01*
X376200000Y-137738072D01*
X376324482Y-137725812D01*
X376444180Y-137689502D01*
X376554494Y-137630537D01*
X376651185Y-137551185D01*
X376730537Y-137454494D01*
X376789502Y-137344180D01*
X376825812Y-137224482D01*
X376838072Y-137100000D01*
X376838072Y-136572012D01*
X404439083Y-136572012D01*
X404480513Y-136851630D01*
X404575697Y-137117792D01*
X404642629Y-137243014D01*
X404886598Y-137314597D01*
X405699695Y-136501500D01*
X406058905Y-136501500D01*
X406872002Y-137314597D01*
X407115971Y-137243014D01*
X407236871Y-136987504D01*
X407305600Y-136713316D01*
X407319517Y-136430988D01*
X407278087Y-136151370D01*
X407182903Y-135885208D01*
X407115971Y-135759986D01*
X406872002Y-135688403D01*
X406058905Y-136501500D01*
X405699695Y-136501500D01*
X404886598Y-135688403D01*
X404642629Y-135759986D01*
X404521729Y-136015496D01*
X404453000Y-136289684D01*
X404439083Y-136572012D01*
X376838072Y-136572012D01*
X376838072Y-135508798D01*
X405066203Y-135508798D01*
X405879300Y-136321895D01*
X406692397Y-135508798D01*
X406620814Y-135264829D01*
X406365304Y-135143929D01*
X406091116Y-135075200D01*
X405808788Y-135061283D01*
X405529170Y-135102713D01*
X405263008Y-135197897D01*
X405137786Y-135264829D01*
X405066203Y-135508798D01*
X376838072Y-135508798D01*
X376838072Y-135500000D01*
X376825812Y-135375518D01*
X376789502Y-135255820D01*
X376730537Y-135145506D01*
X376651185Y-135048815D01*
X376554494Y-134969463D01*
X376444180Y-134910498D01*
X376324482Y-134874188D01*
X376200000Y-134861928D01*
X374998785Y-134861928D01*
X372298100Y-132161243D01*
X372298100Y-131216061D01*
X376548700Y-131216061D01*
X376548700Y-131419939D01*
X376588474Y-131619898D01*
X376666495Y-131808256D01*
X376779763Y-131977774D01*
X376923926Y-132121937D01*
X377093444Y-132235205D01*
X377281802Y-132313226D01*
X377481761Y-132353000D01*
X377685639Y-132353000D01*
X377885598Y-132313226D01*
X378073956Y-132235205D01*
X378243474Y-132121937D01*
X378387637Y-131977774D01*
X378500905Y-131808256D01*
X378578926Y-131619898D01*
X378618700Y-131419939D01*
X378618700Y-131216061D01*
X378578926Y-131016102D01*
X378572257Y-131000000D01*
X387209993Y-131000000D01*
X387215000Y-131050838D01*
X387215000Y-131101939D01*
X387224969Y-131152057D01*
X387229976Y-131202895D01*
X387244804Y-131251777D01*
X387254774Y-131301898D01*
X387274331Y-131349113D01*
X387289159Y-131397993D01*
X387313238Y-131443042D01*
X387332795Y-131490256D01*
X387361186Y-131532746D01*
X387385266Y-131577797D01*
X387417672Y-131617284D01*
X387446063Y-131659774D01*
X387482197Y-131695908D01*
X387514604Y-131735396D01*
X387554092Y-131767803D01*
X387590226Y-131803937D01*
X387632716Y-131832328D01*
X387672203Y-131864734D01*
X387717254Y-131888814D01*
X387759744Y-131917205D01*
X387806958Y-131936762D01*
X387852007Y-131960841D01*
X387900887Y-131975669D01*
X387948102Y-131995226D01*
X387998223Y-132005196D01*
X388047105Y-132020024D01*
X388097943Y-132025031D01*
X388148061Y-132035000D01*
X389699172Y-132035000D01*
X389750000Y-132040006D01*
X389800828Y-132035000D01*
X389800838Y-132035000D01*
X389952895Y-132020024D01*
X390147993Y-131960841D01*
X390327797Y-131864734D01*
X390485396Y-131735396D01*
X390517807Y-131695903D01*
X392639838Y-129573872D01*
X402641000Y-129573872D01*
X402641000Y-130014128D01*
X402726890Y-130445925D01*
X402895369Y-130852669D01*
X403139962Y-131218729D01*
X403451271Y-131530038D01*
X403817331Y-131774631D01*
X404224075Y-131943110D01*
X404655872Y-132029000D01*
X405096128Y-132029000D01*
X405527925Y-131943110D01*
X405934669Y-131774631D01*
X406300729Y-131530038D01*
X406612038Y-131218729D01*
X406856631Y-130852669D01*
X406857736Y-130850000D01*
X408975928Y-130850000D01*
X408988188Y-130974482D01*
X409024498Y-131094180D01*
X409083463Y-131204494D01*
X409162815Y-131301185D01*
X409259506Y-131380537D01*
X409369820Y-131439502D01*
X409489518Y-131475812D01*
X409614000Y-131488072D01*
X410178250Y-131485000D01*
X410337000Y-131326250D01*
X410337000Y-130127000D01*
X409137750Y-130127000D01*
X408979000Y-130285750D01*
X408975928Y-130850000D01*
X406857736Y-130850000D01*
X407025110Y-130445925D01*
X407111000Y-130014128D01*
X407111000Y-129573872D01*
X407025110Y-129142075D01*
X406856631Y-128735331D01*
X406612038Y-128369271D01*
X406300729Y-128057962D01*
X405934669Y-127813369D01*
X405527925Y-127644890D01*
X405096128Y-127559000D01*
X404655872Y-127559000D01*
X404224075Y-127644890D01*
X403817331Y-127813369D01*
X403451271Y-128057962D01*
X403139962Y-128369271D01*
X402895369Y-128735331D01*
X402726890Y-129142075D01*
X402641000Y-129573872D01*
X392639838Y-129573872D01*
X395945908Y-126267803D01*
X395985396Y-126235396D01*
X396017803Y-126195908D01*
X396114734Y-126077798D01*
X396210841Y-125897994D01*
X396247283Y-125777860D01*
X396270024Y-125702895D01*
X396285000Y-125550838D01*
X396285000Y-125550835D01*
X396290007Y-125500000D01*
X396285000Y-125449165D01*
X396285000Y-121234835D01*
X396290007Y-121184000D01*
X396275417Y-121035864D01*
X396270024Y-120981105D01*
X396210841Y-120786007D01*
X396144525Y-120661938D01*
X396114734Y-120606202D01*
X396017803Y-120488092D01*
X395985396Y-120448604D01*
X395945908Y-120416197D01*
X394395711Y-118866000D01*
X396209994Y-118866000D01*
X396229977Y-119068895D01*
X396289160Y-119263993D01*
X396385266Y-119443797D01*
X396471386Y-119548734D01*
X396514605Y-119601396D01*
X396554092Y-119633802D01*
X399996197Y-123075908D01*
X400028604Y-123115396D01*
X400068092Y-123147803D01*
X400102983Y-123176437D01*
X400186203Y-123244734D01*
X400366007Y-123340841D01*
X400561105Y-123400024D01*
X400713162Y-123415000D01*
X400713171Y-123415000D01*
X400763999Y-123420006D01*
X400814827Y-123415000D01*
X409398893Y-123415000D01*
X409517368Y-123533475D01*
X409699534Y-123655195D01*
X409582645Y-123724822D01*
X409366412Y-123919731D01*
X409192359Y-124153080D01*
X409067175Y-124415901D01*
X409022524Y-124563110D01*
X409143845Y-124793000D01*
X410337000Y-124793000D01*
X410337000Y-124773000D01*
X410591000Y-124773000D01*
X410591000Y-124793000D01*
X410611000Y-124793000D01*
X410611000Y-125047000D01*
X410591000Y-125047000D01*
X410591000Y-125067000D01*
X410337000Y-125067000D01*
X410337000Y-125047000D01*
X409143845Y-125047000D01*
X409022524Y-125276890D01*
X409067175Y-125424099D01*
X409192359Y-125686920D01*
X409366412Y-125920269D01*
X409582645Y-126115178D01*
X409699534Y-126184805D01*
X409517368Y-126306525D01*
X409310525Y-126513368D01*
X409148010Y-126756589D01*
X409036068Y-127026842D01*
X408979000Y-127313740D01*
X408979000Y-127606260D01*
X409036068Y-127893158D01*
X409148010Y-128163411D01*
X409310525Y-128406632D01*
X409442380Y-128538487D01*
X409369820Y-128560498D01*
X409259506Y-128619463D01*
X409162815Y-128698815D01*
X409083463Y-128795506D01*
X409024498Y-128905820D01*
X408988188Y-129025518D01*
X408975928Y-129150000D01*
X408979000Y-129714250D01*
X409137750Y-129873000D01*
X410337000Y-129873000D01*
X410337000Y-129853000D01*
X410591000Y-129853000D01*
X410591000Y-129873000D01*
X410611000Y-129873000D01*
X410611000Y-130127000D01*
X410591000Y-130127000D01*
X410591000Y-131326250D01*
X410749750Y-131485000D01*
X411314000Y-131488072D01*
X411357001Y-131483837D01*
X411357001Y-137641420D01*
X410881922Y-138116500D01*
X407309001Y-138116500D01*
X407305112Y-138077018D01*
X407268802Y-137957320D01*
X407209837Y-137847006D01*
X407130485Y-137750315D01*
X407033794Y-137670963D01*
X406923480Y-137611998D01*
X406803782Y-137575688D01*
X406679300Y-137563428D01*
X406672085Y-137563428D01*
X406692397Y-137494202D01*
X405879300Y-136681105D01*
X405066203Y-137494202D01*
X405086515Y-137563428D01*
X405079300Y-137563428D01*
X404954818Y-137575688D01*
X404835120Y-137611998D01*
X404724806Y-137670963D01*
X404628115Y-137750315D01*
X404548763Y-137847006D01*
X404489798Y-137957320D01*
X404453488Y-138077018D01*
X404441228Y-138201500D01*
X404441228Y-139801500D01*
X404453488Y-139925982D01*
X404489798Y-140045680D01*
X404548763Y-140155994D01*
X404628115Y-140252685D01*
X404724806Y-140332037D01*
X404835120Y-140391002D01*
X404954818Y-140427312D01*
X405079300Y-140439572D01*
X406679300Y-140439572D01*
X406803782Y-140427312D01*
X406923480Y-140391002D01*
X407033794Y-140332037D01*
X407130485Y-140252685D01*
X407209837Y-140155994D01*
X407268802Y-140045680D01*
X407305112Y-139925982D01*
X407309001Y-139886500D01*
X411205031Y-139886500D01*
X411248500Y-139890781D01*
X411291969Y-139886500D01*
X411291977Y-139886500D01*
X411421990Y-139873695D01*
X411588813Y-139823089D01*
X411742559Y-139740911D01*
X411877317Y-139630317D01*
X411905034Y-139596544D01*
X412052532Y-139449046D01*
X412837049Y-138664530D01*
X412870817Y-138636817D01*
X412981411Y-138502059D01*
X413013284Y-138442429D01*
X413063589Y-138348314D01*
X413114195Y-138181490D01*
X413114351Y-138179911D01*
X413127000Y-138051477D01*
X413127000Y-138051469D01*
X413131281Y-138008000D01*
X413127000Y-137964531D01*
X413127000Y-115613469D01*
X413131281Y-115570000D01*
X413127000Y-115526531D01*
X413127000Y-115526523D01*
X413114195Y-115396510D01*
X413111862Y-115388817D01*
X413070982Y-115254059D01*
X413063589Y-115229687D01*
X412981411Y-115075941D01*
X412870817Y-114941183D01*
X412837050Y-114913471D01*
X412088534Y-114164956D01*
X412060817Y-114131183D01*
X411926059Y-114020589D01*
X411772313Y-113938411D01*
X411682903Y-113911288D01*
X411617475Y-113813368D01*
X411410632Y-113606525D01*
X411167411Y-113444010D01*
X410897158Y-113332068D01*
X410610260Y-113275000D01*
X410317740Y-113275000D01*
X410030842Y-113332068D01*
X409760589Y-113444010D01*
X409517368Y-113606525D01*
X409310525Y-113813368D01*
X409148010Y-114056589D01*
X409036068Y-114326842D01*
X408979000Y-114613740D01*
X408979000Y-114906260D01*
X409036068Y-115193158D01*
X409148010Y-115463411D01*
X409310525Y-115706632D01*
X409517368Y-115913475D01*
X409691760Y-116030000D01*
X409517368Y-116146525D01*
X409310525Y-116353368D01*
X409148010Y-116596589D01*
X409036068Y-116866842D01*
X408979000Y-117153740D01*
X408979000Y-117446260D01*
X409036068Y-117733158D01*
X409148010Y-118003411D01*
X409310525Y-118246632D01*
X409517368Y-118453475D01*
X409691760Y-118570000D01*
X409517368Y-118686525D01*
X409310525Y-118893368D01*
X409148010Y-119136589D01*
X409036068Y-119406842D01*
X408979000Y-119693740D01*
X408979000Y-119986260D01*
X409036068Y-120273158D01*
X409148010Y-120543411D01*
X409310525Y-120786632D01*
X409517368Y-120993475D01*
X409691760Y-121110000D01*
X409517368Y-121226525D01*
X409398893Y-121345000D01*
X401192711Y-121345000D01*
X398285000Y-118437290D01*
X398285000Y-117398061D01*
X398275031Y-117347943D01*
X398270024Y-117297105D01*
X398255196Y-117248223D01*
X398245226Y-117198102D01*
X398225669Y-117150887D01*
X398210841Y-117102007D01*
X398186762Y-117056958D01*
X398167205Y-117009744D01*
X398138814Y-116967254D01*
X398114734Y-116922203D01*
X398082328Y-116882716D01*
X398053937Y-116840226D01*
X398017803Y-116804092D01*
X397985396Y-116764604D01*
X397945908Y-116732197D01*
X397909774Y-116696063D01*
X397867284Y-116667672D01*
X397827797Y-116635266D01*
X397782747Y-116611186D01*
X397740256Y-116582795D01*
X397693039Y-116563237D01*
X397647992Y-116539159D01*
X397599116Y-116524332D01*
X397551898Y-116504774D01*
X397501774Y-116494804D01*
X397452894Y-116479976D01*
X397402058Y-116474969D01*
X397351939Y-116465000D01*
X397300838Y-116465000D01*
X397250000Y-116459993D01*
X397199162Y-116465000D01*
X397148061Y-116465000D01*
X397097943Y-116474969D01*
X397047105Y-116479976D01*
X396998223Y-116494804D01*
X396948102Y-116504774D01*
X396900887Y-116524331D01*
X396852007Y-116539159D01*
X396806958Y-116563238D01*
X396759744Y-116582795D01*
X396717254Y-116611186D01*
X396672203Y-116635266D01*
X396632716Y-116667672D01*
X396590226Y-116696063D01*
X396554092Y-116732197D01*
X396514604Y-116764604D01*
X396482197Y-116804092D01*
X396446063Y-116840226D01*
X396417672Y-116882716D01*
X396385266Y-116922203D01*
X396361186Y-116967253D01*
X396332795Y-117009744D01*
X396313237Y-117056961D01*
X396289159Y-117102008D01*
X396274332Y-117150884D01*
X396254774Y-117198102D01*
X396244804Y-117248226D01*
X396229976Y-117297106D01*
X396224969Y-117347942D01*
X396215000Y-117398061D01*
X396215000Y-117449163D01*
X396215001Y-118815163D01*
X396209994Y-118866000D01*
X394395711Y-118866000D01*
X393785000Y-118255290D01*
X393785000Y-115928710D01*
X394178711Y-115535000D01*
X402601939Y-115535000D01*
X402652057Y-115525031D01*
X402702895Y-115520024D01*
X402751777Y-115505196D01*
X402801898Y-115495226D01*
X402849113Y-115475669D01*
X402897993Y-115460841D01*
X402943042Y-115436762D01*
X402990256Y-115417205D01*
X403032746Y-115388814D01*
X403077797Y-115364734D01*
X403117284Y-115332328D01*
X403159774Y-115303937D01*
X403195908Y-115267803D01*
X403235396Y-115235396D01*
X403267803Y-115195908D01*
X403303937Y-115159774D01*
X403332328Y-115117284D01*
X403364734Y-115077797D01*
X403388814Y-115032746D01*
X403417205Y-114990256D01*
X403436762Y-114943042D01*
X403460841Y-114897993D01*
X403475669Y-114849113D01*
X403495226Y-114801898D01*
X403505196Y-114751777D01*
X403520024Y-114702895D01*
X403525031Y-114652057D01*
X403535000Y-114601939D01*
X403535000Y-114550838D01*
X403540007Y-114500000D01*
X403535000Y-114449162D01*
X403535000Y-114398061D01*
X403525031Y-114347943D01*
X403520024Y-114297105D01*
X403505196Y-114248223D01*
X403495226Y-114198102D01*
X403475669Y-114150887D01*
X403460841Y-114102007D01*
X403436762Y-114056958D01*
X403417205Y-114009744D01*
X403388814Y-113967254D01*
X403364734Y-113922203D01*
X403332328Y-113882716D01*
X403303937Y-113840226D01*
X403267803Y-113804092D01*
X403235396Y-113764604D01*
X403195908Y-113732197D01*
X403159774Y-113696063D01*
X403117284Y-113667672D01*
X403077797Y-113635266D01*
X403032746Y-113611186D01*
X402990256Y-113582795D01*
X402943042Y-113563238D01*
X402897993Y-113539159D01*
X402849113Y-113524331D01*
X402801898Y-113504774D01*
X402751777Y-113494804D01*
X402702895Y-113479976D01*
X402652057Y-113474969D01*
X402601939Y-113465000D01*
X393800835Y-113465000D01*
X393750000Y-113459993D01*
X393699165Y-113465000D01*
X393699162Y-113465000D01*
X393547105Y-113479976D01*
X393397415Y-113525385D01*
X393352006Y-113539159D01*
X393172202Y-113635266D01*
X393054092Y-113732197D01*
X393014604Y-113764604D01*
X392982197Y-113804092D01*
X392090229Y-114696061D01*
X392090226Y-114696063D01*
X392054087Y-114732202D01*
X392014605Y-114764604D01*
X391982203Y-114804086D01*
X391946063Y-114840226D01*
X391917671Y-114882717D01*
X391885266Y-114922203D01*
X391861187Y-114967252D01*
X391832795Y-115009744D01*
X391813236Y-115056964D01*
X391789160Y-115102007D01*
X391774335Y-115150878D01*
X391754774Y-115198102D01*
X391744803Y-115248232D01*
X391729977Y-115297105D01*
X391724971Y-115347933D01*
X391715000Y-115398061D01*
X391715000Y-115449172D01*
X391709994Y-115500000D01*
X391715000Y-115550828D01*
X391715000Y-115601939D01*
X391715001Y-115601944D01*
X391715000Y-118633172D01*
X391709994Y-118684000D01*
X391715000Y-118734828D01*
X391715000Y-118734837D01*
X391729976Y-118886894D01*
X391789159Y-119081992D01*
X391885266Y-119261797D01*
X392014604Y-119419396D01*
X392054097Y-119451807D01*
X394215001Y-121612712D01*
X394215000Y-125071289D01*
X389321290Y-129965000D01*
X388148061Y-129965000D01*
X388097943Y-129974969D01*
X388047105Y-129979976D01*
X387998223Y-129994804D01*
X387948102Y-130004774D01*
X387900887Y-130024331D01*
X387852007Y-130039159D01*
X387806958Y-130063238D01*
X387759744Y-130082795D01*
X387717254Y-130111186D01*
X387672203Y-130135266D01*
X387632716Y-130167672D01*
X387590226Y-130196063D01*
X387554092Y-130232197D01*
X387514604Y-130264604D01*
X387482197Y-130304092D01*
X387446063Y-130340226D01*
X387417672Y-130382716D01*
X387385266Y-130422203D01*
X387361186Y-130467254D01*
X387332795Y-130509744D01*
X387313238Y-130556958D01*
X387289159Y-130602007D01*
X387274331Y-130650887D01*
X387254774Y-130698102D01*
X387244804Y-130748223D01*
X387229976Y-130797105D01*
X387224969Y-130847943D01*
X387215000Y-130898061D01*
X387215000Y-130949162D01*
X387209993Y-131000000D01*
X378572257Y-131000000D01*
X378500905Y-130827744D01*
X378387637Y-130658226D01*
X378368700Y-130639289D01*
X378368700Y-123088061D01*
X378593400Y-123088061D01*
X378593400Y-123291939D01*
X378633174Y-123491898D01*
X378711195Y-123680256D01*
X378824463Y-123849774D01*
X378843401Y-123868712D01*
X378843400Y-125437447D01*
X378839603Y-125476000D01*
X378843400Y-125514553D01*
X378843400Y-125514560D01*
X378854759Y-125629886D01*
X378899646Y-125777859D01*
X378972538Y-125914232D01*
X379070636Y-126033764D01*
X379100590Y-126058347D01*
X380620853Y-127578610D01*
X380645436Y-127608564D01*
X380764967Y-127706662D01*
X380901340Y-127779554D01*
X381049313Y-127824442D01*
X381124226Y-127831820D01*
X381164639Y-127835800D01*
X381164644Y-127835800D01*
X381203200Y-127839597D01*
X381241756Y-127835800D01*
X383839189Y-127835800D01*
X383858126Y-127854737D01*
X384027644Y-127968005D01*
X384216002Y-128046026D01*
X384415961Y-128085800D01*
X384619839Y-128085800D01*
X384819798Y-128046026D01*
X385008156Y-127968005D01*
X385177674Y-127854737D01*
X385321837Y-127710574D01*
X385435105Y-127541056D01*
X385513126Y-127352698D01*
X385552900Y-127152739D01*
X385552900Y-126948861D01*
X385513126Y-126748902D01*
X385435105Y-126560544D01*
X385321837Y-126391026D01*
X385177674Y-126246863D01*
X385008156Y-126133595D01*
X384819798Y-126055574D01*
X384619839Y-126015800D01*
X384415961Y-126015800D01*
X384216002Y-126055574D01*
X384027644Y-126133595D01*
X383858126Y-126246863D01*
X383839189Y-126265800D01*
X381528357Y-126265800D01*
X380413400Y-125150843D01*
X380413400Y-123868711D01*
X380432337Y-123849774D01*
X380545605Y-123680256D01*
X380623626Y-123491898D01*
X380663400Y-123291939D01*
X380663400Y-123088061D01*
X380623626Y-122888102D01*
X380545605Y-122699744D01*
X380432337Y-122530226D01*
X380288174Y-122386063D01*
X380118656Y-122272795D01*
X379930298Y-122194774D01*
X379730339Y-122155000D01*
X379526461Y-122155000D01*
X379326502Y-122194774D01*
X379138144Y-122272795D01*
X378968626Y-122386063D01*
X378824463Y-122530226D01*
X378711195Y-122699744D01*
X378633174Y-122888102D01*
X378593400Y-123088061D01*
X378368700Y-123088061D01*
X378368700Y-122613457D01*
X379007408Y-121974750D01*
X380231197Y-121974750D01*
X380269750Y-121978547D01*
X380308303Y-121974750D01*
X380308311Y-121974750D01*
X380423637Y-121963391D01*
X380571610Y-121918504D01*
X380707983Y-121845612D01*
X380827514Y-121747514D01*
X380852097Y-121717560D01*
X382849158Y-119720500D01*
X388111547Y-119720500D01*
X388150100Y-119724297D01*
X388188653Y-119720500D01*
X388188661Y-119720500D01*
X388303987Y-119709141D01*
X388451960Y-119664254D01*
X388588333Y-119591362D01*
X388707864Y-119493264D01*
X388732447Y-119463310D01*
X390500145Y-117695613D01*
X390573661Y-117606033D01*
X390646553Y-117469660D01*
X390691441Y-117321688D01*
X390706597Y-117167801D01*
X390691441Y-117013914D01*
X390677800Y-116968947D01*
X390677800Y-113397001D01*
X392431102Y-111643700D01*
X395498189Y-111643700D01*
X395542126Y-111687637D01*
X395711644Y-111800905D01*
X395900002Y-111878926D01*
X396099961Y-111918700D01*
X396303839Y-111918700D01*
X396503798Y-111878926D01*
X396692156Y-111800905D01*
X396861674Y-111687637D01*
X397005837Y-111543474D01*
X397119105Y-111373956D01*
X397197126Y-111185598D01*
X397236900Y-110985639D01*
X397236900Y-110781761D01*
X397197126Y-110581802D01*
X397119105Y-110393444D01*
X397005837Y-110223926D01*
X396861674Y-110079763D01*
X396692156Y-109966495D01*
X396503798Y-109888474D01*
X396303839Y-109848700D01*
X396099961Y-109848700D01*
X395900002Y-109888474D01*
X395711644Y-109966495D01*
X395542126Y-110079763D01*
X395498189Y-110123700D01*
X392153633Y-110123700D01*
X392116300Y-110120023D01*
X392078967Y-110123700D01*
X391967314Y-110134697D01*
X391824053Y-110178154D01*
X391692024Y-110248726D01*
X391576299Y-110343699D01*
X391552501Y-110372697D01*
X389406798Y-112518401D01*
X389377800Y-112542199D01*
X389354002Y-112571197D01*
X389354001Y-112571198D01*
X389282826Y-112657924D01*
X389212254Y-112789954D01*
X389168798Y-112933215D01*
X389154124Y-113082200D01*
X389157801Y-113119532D01*
X389157800Y-116817642D01*
X387824943Y-118150500D01*
X382562555Y-118150500D01*
X382524000Y-118146703D01*
X382485444Y-118150500D01*
X382485439Y-118150500D01*
X382445026Y-118154480D01*
X382370113Y-118161858D01*
X382222140Y-118206746D01*
X382085767Y-118279638D01*
X382025559Y-118329050D01*
X381996187Y-118353155D01*
X381996184Y-118353158D01*
X381966236Y-118377736D01*
X381941658Y-118407684D01*
X379944593Y-120404750D01*
X378720802Y-120404750D01*
X378682249Y-120400953D01*
X378643696Y-120404750D01*
X378643689Y-120404750D01*
X378542740Y-120414693D01*
X378528362Y-120416109D01*
X378493922Y-120426556D01*
X378380390Y-120460996D01*
X378244017Y-120533888D01*
X378183809Y-120583300D01*
X378154437Y-120607405D01*
X378154434Y-120607408D01*
X378124486Y-120631986D01*
X378099908Y-120661935D01*
X377055885Y-121705958D01*
X377025937Y-121730536D01*
X377001359Y-121760484D01*
X377001355Y-121760488D01*
X376968390Y-121800656D01*
X376927839Y-121850067D01*
X376891259Y-121918504D01*
X376854946Y-121986441D01*
X376810059Y-122134414D01*
X376794903Y-122288300D01*
X376798701Y-122326863D01*
X376798700Y-130639289D01*
X376779763Y-130658226D01*
X376666495Y-130827744D01*
X376588474Y-131016102D01*
X376548700Y-131216061D01*
X372298100Y-131216061D01*
X372298100Y-120452411D01*
X372317037Y-120433474D01*
X372430305Y-120263956D01*
X372508326Y-120075598D01*
X372548100Y-119875639D01*
X372548100Y-119671761D01*
X372508326Y-119471802D01*
X372430305Y-119283444D01*
X372317037Y-119113926D01*
X372172874Y-118969763D01*
X372003356Y-118856495D01*
X371814998Y-118778474D01*
X371615039Y-118738700D01*
X371411161Y-118738700D01*
X371211202Y-118778474D01*
X371022844Y-118856495D01*
X370853326Y-118969763D01*
X370709163Y-119113926D01*
X370595895Y-119283444D01*
X370517874Y-119471802D01*
X370478100Y-119671761D01*
X365660000Y-119671761D01*
X365660000Y-112390772D01*
X368693900Y-112390772D01*
X368693900Y-112831028D01*
X368779790Y-113262825D01*
X368948269Y-113669569D01*
X369192862Y-114035629D01*
X369504171Y-114346938D01*
X369870231Y-114591531D01*
X370276975Y-114760010D01*
X370708772Y-114845900D01*
X371149028Y-114845900D01*
X371580825Y-114760010D01*
X371987569Y-114591531D01*
X372353629Y-114346938D01*
X372664938Y-114035629D01*
X372909531Y-113669569D01*
X373078010Y-113262825D01*
X373163900Y-112831028D01*
X373163900Y-112390772D01*
X373078010Y-111958975D01*
X372909531Y-111552231D01*
X372664938Y-111186171D01*
X372353629Y-110874862D01*
X372172357Y-110753740D01*
X376335000Y-110753740D01*
X376335000Y-111046260D01*
X376392068Y-111333158D01*
X376504010Y-111603411D01*
X376666525Y-111846632D01*
X376873368Y-112053475D01*
X377116589Y-112215990D01*
X377386842Y-112327932D01*
X377673740Y-112385000D01*
X377966260Y-112385000D01*
X378253158Y-112327932D01*
X378523411Y-112215990D01*
X378766632Y-112053475D01*
X378973475Y-111846632D01*
X379090000Y-111672240D01*
X379206525Y-111846632D01*
X379413368Y-112053475D01*
X379656589Y-112215990D01*
X379926842Y-112327932D01*
X380213740Y-112385000D01*
X380506260Y-112385000D01*
X380793158Y-112327932D01*
X381063411Y-112215990D01*
X381306632Y-112053475D01*
X381438487Y-111921620D01*
X381460498Y-111994180D01*
X381519463Y-112104494D01*
X381598815Y-112201185D01*
X381695506Y-112280537D01*
X381805820Y-112339502D01*
X381925518Y-112375812D01*
X382050000Y-112388072D01*
X382614250Y-112385000D01*
X382773000Y-112226250D01*
X382773000Y-111027000D01*
X383027000Y-111027000D01*
X383027000Y-112226250D01*
X383185750Y-112385000D01*
X383750000Y-112388072D01*
X383874482Y-112375812D01*
X383994180Y-112339502D01*
X384104494Y-112280537D01*
X384201185Y-112201185D01*
X384280537Y-112104494D01*
X384339502Y-111994180D01*
X384375812Y-111874482D01*
X384388072Y-111750000D01*
X384385000Y-111185750D01*
X384226250Y-111027000D01*
X383027000Y-111027000D01*
X382773000Y-111027000D01*
X382753000Y-111027000D01*
X382753000Y-110773000D01*
X382773000Y-110773000D01*
X382773000Y-109573750D01*
X383027000Y-109573750D01*
X383027000Y-110773000D01*
X384226250Y-110773000D01*
X384385000Y-110614250D01*
X384388072Y-110050000D01*
X384375812Y-109925518D01*
X384339502Y-109805820D01*
X384280537Y-109695506D01*
X384201185Y-109598815D01*
X384104494Y-109519463D01*
X383994180Y-109460498D01*
X383874482Y-109424188D01*
X383750000Y-109411928D01*
X383185750Y-109415000D01*
X383027000Y-109573750D01*
X382773000Y-109573750D01*
X382614250Y-109415000D01*
X382050000Y-109411928D01*
X381925518Y-109424188D01*
X381805820Y-109460498D01*
X381695506Y-109519463D01*
X381598815Y-109598815D01*
X381519463Y-109695506D01*
X381460498Y-109805820D01*
X381438487Y-109878380D01*
X381306632Y-109746525D01*
X381063411Y-109584010D01*
X380793158Y-109472068D01*
X380506260Y-109415000D01*
X380213740Y-109415000D01*
X379926842Y-109472068D01*
X379656589Y-109584010D01*
X379413368Y-109746525D01*
X379206525Y-109953368D01*
X379090000Y-110127760D01*
X378973475Y-109953368D01*
X378766632Y-109746525D01*
X378523411Y-109584010D01*
X378253158Y-109472068D01*
X377966260Y-109415000D01*
X377673740Y-109415000D01*
X377386842Y-109472068D01*
X377116589Y-109584010D01*
X376873368Y-109746525D01*
X376666525Y-109953368D01*
X376504010Y-110196589D01*
X376392068Y-110466842D01*
X376335000Y-110753740D01*
X372172357Y-110753740D01*
X371987569Y-110630269D01*
X371580825Y-110461790D01*
X371149028Y-110375900D01*
X370708772Y-110375900D01*
X370276975Y-110461790D01*
X369870231Y-110630269D01*
X369504171Y-110874862D01*
X369192862Y-111186171D01*
X368948269Y-111552231D01*
X368779790Y-111958975D01*
X368693900Y-112390772D01*
X365660000Y-112390772D01*
X365660000Y-109160000D01*
X413340001Y-109160000D01*
X413340000Y-142840000D01*
G37*
%TD.AperFunction*%
%TD*%
M02*
